<svg width="33" height="32" viewBox="0 0 33 32" fill="none" xmlns="http://www.w3.org/2000/svg">
<path d="M24.5772 1.07469C24.5772 1.04962 24.5785 1.02494 24.579 1H8.84541C8.84591 1.02494 8.84728 1.04962 8.84728 1.07469C8.84728 3.18819 7.13841 4.9015 5.03041 4.9015C4.93734 4.9015 4.84534 4.897 4.75391 4.89044V21.2226C4.75391 23.3663 5.92534 25.3378 7.80566 26.3584L16.5874 31.125L25.3471 26.3595C27.2247 25.3381 28.394 23.3681 28.394 21.2263V4.9015C26.286 4.9015 24.5772 3.18819 24.5772 1.07469Z" stroke="#E51C38" stroke-width="1.4" stroke-miterlimit="22.926" stroke-linecap="round" stroke-linejoin="round"/>
<path d="M24.5802 1.07469C24.5802 1.04962 24.5816 1.02494 24.5821 1H8.84294C8.84344 1.02494 8.84481 1.04962 8.84481 1.07469C8.84481 3.18819 7.13537 4.9015 5.02662 4.9015C4.9335 4.9015 4.8415 4.897 4.75 4.89044V21.2226C4.75 23.3663 5.92187 25.3378 7.80287 26.3584L16.5876 31.125L25.3504 26.3595C27.2286 25.3381 28.3983 23.3681 28.3983 21.2263V4.9015C26.2896 4.9015 24.5802 3.18819 24.5802 1.07469Z" stroke="#E51C38" stroke-width="1.4" stroke-miterlimit="22.926" stroke-linecap="round" stroke-linejoin="round"/>
<path d="M16.5744 23.3517C20.8849 23.3517 24.3793 19.8573 24.3793 15.5468C24.3793 11.2363 20.8849 7.74194 16.5744 7.74194C12.2639 7.74194 8.76953 11.2363 8.76953 15.5468C8.76953 19.8573 12.2639 23.3517 16.5744 23.3517Z" stroke="#E51C38" stroke-width="1.4" stroke-miterlimit="22.926" stroke-linecap="round" stroke-linejoin="round"/>
<path d="M16.5742 7.74194C16.5742 7.74194 19.4255 10.3551 19.4255 15.6103C19.4255 20.8654 16.5742 23.3517 16.5742 23.3517" stroke="#E51C38" stroke-width="1.4" stroke-miterlimit="22.926" stroke-linecap="round" stroke-linejoin="round"/>
<path d="M16.574 7.74194C16.574 7.74194 13.7227 10.3551 13.7227 15.6103C13.7227 20.8654 16.574 23.3517 16.574 23.3517" stroke="#E51C38" stroke-width="1.4" stroke-miterlimit="22.926" stroke-linecap="round" stroke-linejoin="round"/>
<path d="M23.2308 11.4709C21.9853 12.2418 19.9396 13.2211 16.58 13.2211C13.2188 13.2211 11.1616 12.2406 9.91406 11.4743" stroke="#E51C38" stroke-width="1.4" stroke-miterlimit="22.926" stroke-linecap="round" stroke-linejoin="round"/>
<path d="M23.2683 19.5611C22.0412 18.5768 20.0345 17.3271 16.5802 17.3271C13.1238 17.3271 11.1029 18.5737 9.87109 19.5476" stroke="#E51C38" stroke-width="1.4" stroke-miterlimit="22.926" stroke-linecap="round" stroke-linejoin="round"/>
</svg>
