<svg width="54" height="54" viewBox="0 0 54 54" fill="none" xmlns="http://www.w3.org/2000/svg">
<rect width="54" height="54" rx="27" fill="white"/>
<path d="M15.625 35.9375C17.3542 34.8729 19.3158 34.3125 21.3125 34.3125C23.3092 34.3125 25.2708 34.8729 27 35.9375C28.7292 34.8729 30.6908 34.3125 32.6875 34.3125C34.6842 34.3125 36.6458 34.8729 38.375 35.9375" stroke="#1A1A1A" stroke-width="1.4" stroke-miterlimit="22.926" stroke-linecap="round" stroke-linejoin="round"/>
<path d="M15.625 19.6875C17.3542 18.6229 19.3158 18.0625 21.3125 18.0625C23.3092 18.0625 25.2708 18.6229 27 19.6875C28.7292 18.6229 30.6908 18.0625 32.6875 18.0625C34.6842 18.0625 36.6458 18.6229 38.375 19.6875" stroke="#1A1A1A" stroke-width="1.4" stroke-miterlimit="22.926" stroke-linecap="round" stroke-linejoin="round"/>
<path d="M15.625 19.6875V35.9375" stroke="#1A1A1A" stroke-width="1.4" stroke-miterlimit="22.926" stroke-linecap="round" stroke-linejoin="round"/>
<path d="M27 19.6875V35.9375" stroke="#1A1A1A" stroke-width="1.4" stroke-miterlimit="22.926" stroke-linecap="round" stroke-linejoin="round"/>
<path d="M38.375 19.6875V35.9375" stroke="#1A1A1A" stroke-width="1.4" stroke-miterlimit="22.926" stroke-linecap="round" stroke-linejoin="round"/>
</svg>
