<svg width="54" height="54" viewBox="0 0 54 54" fill="none" xmlns="http://www.w3.org/2000/svg">
<rect width="54" height="54" rx="27" fill="white"/>
<g clip-path="url(#clip0_2070_99949)">
<path d="M37.918 36.9194H16.082C15.2406 36.9194 14.5586 36.2374 14.5586 35.396V16.3533C14.5586 15.5119 15.2406 14.8298 16.082 14.8298H37.918C38.7594 14.8298 39.4414 15.5119 39.4414 16.3533V35.396C39.4414 36.2373 38.7594 36.9194 37.918 36.9194Z" stroke="#1A1A1A" stroke-width="1.4" stroke-miterlimit="10" stroke-linecap="round" stroke-linejoin="round"/>
<path d="M17.3477 33.0527V18.6965C17.3477 18.1356 17.8024 17.6809 18.3633 17.6809H35.6367C36.1976 17.6809 36.6523 18.1356 36.6523 18.6965V33.0527C36.6523 33.6137 36.1976 34.0684 35.6367 34.0684H18.3633C17.8024 34.0684 17.3477 33.6137 17.3477 33.0527Z" stroke="#1A1A1A" stroke-width="1.4" stroke-miterlimit="10" stroke-linecap="round" stroke-linejoin="round"/>
<path d="M21.032 39.17H18.4492C18.0285 39.17 17.6875 38.829 17.6875 38.4083V36.9194H21.7937V38.4083C21.7937 38.829 21.4526 39.17 21.032 39.17Z" stroke="#1A1A1A" stroke-width="1.4" stroke-miterlimit="10" stroke-linecap="round" stroke-linejoin="round"/>
<path d="M35.5515 39.17H32.9687C32.5481 39.17 32.207 38.829 32.207 38.4083V36.9194H36.3132V38.4083C36.3132 38.829 35.9722 39.17 35.5515 39.17Z" stroke="#1A1A1A" stroke-width="1.4" stroke-miterlimit="10" stroke-linecap="round" stroke-linejoin="round"/>
<path d="M29.0095 31.1967C31.9487 31.1967 34.3315 28.814 34.3315 25.8747C34.3315 22.9355 31.9487 20.5527 29.0095 20.5527C26.0702 20.5527 23.6875 22.9355 23.6875 25.8747C23.6875 28.814 26.0702 31.1967 29.0095 31.1967Z" stroke="#1A1A1A" stroke-width="1.4" stroke-miterlimit="10" stroke-linecap="round" stroke-linejoin="round"/>
<path d="M29.0114 28.2923C30.3466 28.2923 31.429 27.2099 31.429 25.8747C31.429 24.5394 30.3466 23.457 29.0114 23.457C27.6762 23.457 26.5938 24.5394 26.5938 25.8747C26.5938 27.2099 27.6762 28.2923 29.0114 28.2923Z" stroke="#1A1A1A" stroke-width="1.4" stroke-miterlimit="10" stroke-linecap="round" stroke-linejoin="round"/>
<path d="M29.0117 20.5527V23.4571" stroke="#1A1A1A" stroke-width="1.4" stroke-miterlimit="10" stroke-linecap="round" stroke-linejoin="round"/>
<path d="M32.7764 22.1113L30.7227 24.165" stroke="#1A1A1A" stroke-width="1.4" stroke-miterlimit="10" stroke-linecap="round" stroke-linejoin="round"/>
<path d="M34.334 25.8745H31.4297" stroke="#1A1A1A" stroke-width="1.4" stroke-miterlimit="10" stroke-linecap="round" stroke-linejoin="round"/>
<path d="M32.7764 29.6379L30.7227 27.5842" stroke="#1A1A1A" stroke-width="1.4" stroke-miterlimit="10" stroke-linecap="round" stroke-linejoin="round"/>
<path d="M29.0117 31.1966V28.2922" stroke="#1A1A1A" stroke-width="1.4" stroke-miterlimit="10" stroke-linecap="round" stroke-linejoin="round"/>
<path d="M25.2461 29.6379L27.2998 27.5842" stroke="#1A1A1A" stroke-width="1.4" stroke-miterlimit="10" stroke-linecap="round" stroke-linejoin="round"/>
<path d="M23.6875 25.8745H26.5918" stroke="#1A1A1A" stroke-width="1.4" stroke-miterlimit="10" stroke-linecap="round" stroke-linejoin="round"/>
<path d="M25.2461 22.1113L27.2998 24.165" stroke="#1A1A1A" stroke-width="1.4" stroke-miterlimit="10" stroke-linecap="round" stroke-linejoin="round"/>
<path d="M17.6875 22.3445H19.4205" stroke="#1A1A1A" stroke-width="1.4" stroke-miterlimit="10" stroke-linecap="round" stroke-linejoin="round"/>
<path d="M17.6875 29.4045H19.4205" stroke="#1A1A1A" stroke-width="1.4" stroke-miterlimit="10" stroke-linecap="round" stroke-linejoin="round"/>
</g>
<defs>
<clipPath id="clip0_2070_99949">
<rect width="26" height="26" fill="white" transform="translate(14 14)"/>
</clipPath>
</defs>
</svg>
