<svg width="33" height="32" viewBox="0 0 33 32" fill="none" xmlns="http://www.w3.org/2000/svg">
<path d="M3.5 16C3.5 17.7072 3.83625 19.3977 4.48957 20.9749C5.14288 22.5521 6.10045 23.9852 7.30761 25.1924C8.51477 26.3995 9.94788 27.3571 11.5251 28.0104C13.1023 28.6637 14.7928 29 16.5 29C18.2072 29 19.8977 28.6637 21.4749 28.0104C23.0521 27.3571 24.4852 26.3995 25.6924 25.1924C26.8995 23.9852 27.8571 22.5521 28.5104 20.9749C29.1637 19.3977 29.5 17.7072 29.5 16C29.5 14.2928 29.1637 12.6023 28.5104 11.0251C27.8571 9.44788 26.8995 8.01477 25.6924 6.80761C24.4852 5.60045 23.0521 4.64288 21.4749 3.98957C19.8977 3.33626 18.2072 3 16.5 3C14.7928 3 13.1023 3.33626 11.5251 3.98957C9.94788 4.64288 8.51477 5.60045 7.30761 6.80761C6.10045 8.01477 5.14288 9.44788 4.48957 11.0251C3.83625 12.6023 3.5 14.2928 3.5 16Z" stroke="#E51C38" stroke-width="1.4" stroke-miterlimit="10" stroke-linecap="round" stroke-linejoin="round"/>
<path d="M12.5 16L15.1667 19L20.5 13" stroke="#E51C38" stroke-width="1.4" stroke-miterlimit="10" stroke-linecap="round" stroke-linejoin="round"/>
</svg>
