<svg width="54" height="54" viewBox="0 0 54 54" fill="none" xmlns="http://www.w3.org/2000/svg">
<rect width="54" height="54" rx="27" fill="white"/>
<path d="M15.625 23.125C15.625 22.4288 15.9008 21.7611 16.3918 21.2688C16.8828 20.7766 17.5487 20.5 18.2431 20.5H36.5694C37.2638 20.5 37.9297 20.7766 38.4207 21.2688C38.9117 21.7611 39.1875 22.4288 39.1875 23.125V34.9375C39.1875 35.6337 38.9117 36.3014 38.4207 36.7937C37.9297 37.2859 37.2638 37.5625 36.5694 37.5625H18.2431C17.5487 37.5625 16.8828 37.2859 16.3918 36.7937C15.9008 36.3014 15.625 35.6337 15.625 34.9375V23.125Z" stroke="#1A1A1A" stroke-width="1.4" stroke-miterlimit="22.926" stroke-linecap="round" stroke-linejoin="round"/>
<path d="M22.125 20.5V18.0625C22.125 17.416 22.4032 16.796 22.8984 16.3389C23.3936 15.8818 24.0653 15.625 24.7656 15.625H30.0469C30.7472 15.625 31.4189 15.8818 31.9141 16.3389C32.4093 16.796 32.6875 17.416 32.6875 18.0625V20.5" stroke="#1A1A1A" stroke-width="1.4" stroke-miterlimit="22.926" stroke-linecap="round" stroke-linejoin="round"/>
<path d="M27 27V27.8125" stroke="#1A1A1A" stroke-width="1.4" stroke-miterlimit="22.926" stroke-linecap="round" stroke-linejoin="round"/>
<path d="M15.625 28.625C19.2793 30.7619 23.3143 31.875 27.4063 31.875C31.4982 31.875 35.5332 30.7619 39.1875 28.625" stroke="#1A1A1A" stroke-width="1.4" stroke-miterlimit="22.926" stroke-linecap="round" stroke-linejoin="round"/>
</svg>
