<svg width="787" height="475" viewBox="0 0 787 475" fill="none" xmlns="http://www.w3.org/2000/svg">
<g clip-path="url(#clip0_2051_5492)">
<path d="M479.407 738.071L469.81 739.63L463.633 739.785L456.622 743.709C456.622 743.709 448.464 742.525 447.823 742.614C447.188 742.714 422.317 756.379 421.779 756.68C421.242 756.981 409.628 762.61 409.628 762.61L410.355 759.562L404.071 757.164L400.7 757.1L398.193 754.766L396.926 754.649C396.926 754.649 396.022 755.395 395.919 755.212C395.817 755.03 396.378 752.464 396.378 752.464C396.378 752.464 396.493 751.274 396.305 750.508C396.117 749.743 395.963 749.334 395.816 749.071C395.669 748.808 395.087 748.278 395.087 748.278L393.857 747.315L394.041 745.952L394.278 744.738L392.204 743.152L389.688 742.039C389.688 742.039 389.207 741.422 389.072 741.153C388.936 740.883 388.475 739.175 388.475 739.175L390.418 738.057L390.827 737.633C390.827 737.633 389.636 735.478 389.426 735.13C389.205 734.789 387.653 732.445 387.653 732.445L386.174 731.922C386.174 731.922 385.266 730.944 385.109 730.717C384.951 730.49 384.792 728.568 384.792 728.568L384.107 728.095L381.886 728.153L380.359 728.242L379.595 729.99L379.454 730.865L379.112 731.731L375.833 730.97L374.93 733.276C374.93 733.276 374.223 735.098 374.098 735.439C373.973 735.779 373.26 737.619 373.26 737.619L372.531 738.597L370.811 740.73C370.811 740.73 369.784 739.324 369.832 738.982C369.881 738.639 369.598 736.846 369.598 736.846L367.736 736.282L364.721 736.048C364.721 736.048 364.914 736.286 364.115 735.502C363.316 734.719 362.803 733.91 362.616 733.549C362.418 733.195 361.112 730.969 361.112 730.969L359.476 730.864C359.476 730.864 360.005 730.387 360.053 730.015C360.1 729.644 360.029 728.738 360.029 728.738L358.487 728.265C358.487 728.265 358.229 728.77 357.826 728.049L356.668 725.981L356.105 725.995L355.285 725.899L354.573 724.841L354.517 723.131L354.514 722.052L353.501 720.053L351.136 720.311L349.788 716.292C349.788 716.292 350.625 712.071 350.665 711.418C350.705 710.765 350.573 705.376 350.573 705.376L349.107 698.436L346.976 695.38C346.976 695.38 346.481 693.796 346.486 693.403C346.491 693.01 346.669 687.612 346.669 687.612L349.436 686.919L351.658 679.431L348.844 675.047L346.376 672.3L349.43 670.216L347.499 666.283L349.981 664.894L349.795 664.052L346.834 662.437L344.911 659.19L343.251 659.579L341.871 658.16L340.792 656.527L338.791 656.762L338.941 654.937L337.233 652.26L336.737 651.187L337.919 649.085L337.526 645.056L335.729 642.22L339.066 635.113L337.634 632.447L339.945 632.175L340.368 630.917L339.572 629.442L338.834 628.849L337.121 628.471L336.982 627.499L336.423 626.446C336.423 626.446 335.979 626.484 335.427 626.088C334.868 625.68 332.927 622.023 332.927 622.023C332.927 622.023 333.921 620.956 334.151 620.588C334.38 620.219 335.585 618.104 335.857 617.276C336.112 616.443 336.325 615.588 336.325 615.588C336.325 615.588 331.8 610.51 331.481 610.209C331.162 609.907 330.197 609.201 329.65 608.036C329.103 606.872 328.245 605.58 328.245 605.58L325.926 604.792L324.493 604.378L326.191 601.401L327.088 598.603L326.225 596.309L325.084 595.477L323.176 595.343L322.125 595.451L318.292 587.93L319.417 586.13C319.417 586.13 320.488 585.575 320.732 585.394C320.976 585.212 321.613 584.901 321.613 584.901L322.899 583.415L319.955 582.421L321.922 580.3L322.157 577.661L319.186 575.842C319.186 575.842 315.758 574.038 315.498 573.868C315.238 573.699 314.565 573.114 314.248 572.601C313.925 572.077 313.619 571.557 313.619 571.557L308.255 573.299L305.287 574.195L303.667 573.93L302.504 571.744L305.477 570.08L307.174 568.335C307.174 568.335 309.052 568.094 309.212 567.87C309.372 567.645 311.22 565.5 311.507 565.234C311.794 564.969 312.692 564.346 312.692 564.346L316.37 564.449L317.031 563.403L315.23 559.488L316.471 557.518C316.471 557.518 315.205 555.525 314.82 555.32C314.424 555.121 313.501 554.467 312.962 554.468C312.422 554.47 311.234 554.415 310.446 554.751C309.658 555.087 308.562 555.625 308.562 555.625L303.884 558.243L302.338 559.829L301.681 560.077L301.082 559.811C301.082 559.811 300.14 558.853 300.093 558.098C300.035 557.35 299.527 555.263 299.527 555.263L297.839 553.641L297.257 553.111L298.482 551.57L297.598 546.796L293.719 544.134L295.721 539.981L295.067 539.672C295.067 539.672 294.007 539.845 293.659 539.785C293.321 539.718 289.555 538.224 289.555 538.224L287.416 537.755L285.258 534.759L286.91 533.04L286.904 530.266C286.904 530.266 284.287 529.749 283.101 529.482C281.927 529.209 280.058 528.393 279.534 528.101C279.01 527.809 275.505 526.619 275.505 526.619L274.091 524.468L273.149 522.489C273.149 522.489 271.908 521.532 271.848 521.131C271.788 520.729 271.856 517.899 271.89 517.475C271.911 517.057 272.299 515.925 272.008 515.592C271.717 515.26 270.583 514.093 270.583 514.093C270.583 514.093 268.582 514.087 268.297 513.901C268.031 513.72 266.67 512.336 266.401 512.096C266.125 511.845 265.602 511.312 265.266 510.659C264.931 510.007 264.727 509.265 264.727 509.265L265.623 507.218L267.724 507.483L270.044 507.145L270.421 505.913L271.813 505.074L266.51 495.599L263.883 494.232L263.172 494.089C263.172 494.089 262.591 494.715 262.782 493.392C262.973 492.07 262.514 491.411 262.514 491.411L259.181 487.737C259.181 487.737 258.534 486.043 258.453 485.578C258.373 485.112 256.853 480.679 256.853 480.679L254.108 478.404L253.629 476.69C253.629 476.69 253.281 475.639 252.24 475.066C251.198 474.493 249.752 473.411 249.61 473.131C249.467 472.85 249.29 472.184 249.29 472.184C249.29 472.184 249.841 470.539 249.706 470.029C249.571 469.52 248.351 468.011 248.351 468.011L248.149 465.933L249.847 463.437C249.847 463.437 250.345 462.422 249.976 462.058C249.607 461.694 248.318 461.215 247.96 461.085C247.608 460.967 245.497 460.092 245.497 460.092L244.13 459.101L245.164 456.976L246.104 454.844C246.104 454.844 245.986 453.829 245.787 453.07C245.588 452.311 244.138 450.526 244.138 450.526L242.479 450.193L239.115 444.181L240.176 443.662L241.583 443.895C241.583 443.895 242.614 444.099 243.311 444.219C244.003 444.327 243.958 445.373 244.003 444.327C244.06 443.274 244.409 442.959 244.409 442.959L241.962 441.431C241.962 441.431 241.328 439.145 241.316 438.776C241.305 438.407 241.249 435.301 241.249 435.301L236.24 426.351C236.24 426.351 238.389 419.67 238.795 419.563C239.2 419.456 242.862 417.947 242.862 417.947L242.865 415.484L241.681 413.744L237.173 411.405C237.173 411.405 235.76 408.773 235.26 408.362C234.76 407.952 233.553 406.736 233.355 406.247C233.156 405.757 233.186 403.879 233.186 403.879L229.613 402.111L226.924 400.179L226.706 398.875L225.127 397.853L223.676 395.797L222.616 391.032L221.293 389.581L219.281 388.32C219.281 388.32 219.308 387.51 219.421 387.041C219.535 386.573 219.597 385.397 219.575 385.034C219.552 384.672 219.5 383.935 219.5 383.935L218.377 382.492C218.377 382.492 217.317 382.155 216.962 382.083C216.6 382.001 215.631 381.477 215.631 381.477L215.454 380.811L216.099 379.279L215.916 378.631L214.951 378.195L214.148 377.699L213.955 376.201L213.237 374.247L215.593 372.928L213.845 370.664C213.845 370.664 213.379 370.85 213.053 370.026C212.727 369.203 211.98 368.646 212.449 368.383L214.931 366.994L213.952 365.245C213.952 365.245 215.785 364.415 216.065 364.378C216.345 364.341 217.549 364.238 217.549 364.238L215.43 360.56L216.791 356.632L218.104 356.212L218.605 356.007L218.858 354.259L218.174 352.285L216.989 351.402L217.081 349.85L215.807 348.807L216.396 347.096C216.396 347.096 214.589 345.961 214.204 345.381C213.826 344.812 212.781 343.025 212.781 343.025L212.972 342.348L212.398 341.213C212.398 341.213 211.143 340.609 210.929 340.414C210.715 340.219 209.731 339.133 209.731 339.133L206.809 337.992L207.481 332.482C207.481 332.482 206.782 327.905 206.72 327.58C206.658 327.254 206.371 325.508 206.371 325.508L204.666 324.151L205.582 315.188L203.762 311.373L205.924 310.163L207.131 307.731L204.225 306.161L204.945 304.361L202.239 303.579C202.239 303.579 200.327 301.558 200.128 301.203C199.93 300.849 198.847 296.472 198.75 296.03C198.654 295.589 198.489 292.424 198.422 292.116C198.367 291.802 197.331 289.335 197.331 289.335L194.211 287.839L193.406 289.085L192.776 290.803C192.776 290.803 190.734 289.034 190.558 288.773C190.381 288.511 189.139 287.285 188.948 287.077C188.756 286.869 188.174 284.808 188.174 284.808L187.901 282.979L183.418 279.935C183.418 279.935 181.847 277.046 181.391 276.311C180.934 275.576 179.64 274.124 179.64 274.124L177.027 272.809C177.027 272.809 175.66 272.434 175.188 271.992C174.716 271.551 173.693 269.617 173.693 269.617L171.703 268.314L172.881 266.394L172.774 264.727L171.284 264.721L166.202 264.203C166.202 264.203 160.648 258.305 160.721 257.334C160.793 256.363 159.44 253.382 159.44 253.382L158.356 249.486L159.343 248.619L160.5 249.292L161.082 248.426L161.387 246.769L161.422 245.894C161.422 245.894 159.355 244.079 159.129 243.62C158.89 243.168 158.254 240.822 158.179 240.474C158.104 240.126 157.649 238.024 157.649 238.024C157.649 238.024 157.286 236.786 157.071 236.456C156.857 236.126 156.427 234.07 156.427 234.07L156.967 232.431L156.606 231.357L155.444 230.597C155.444 230.597 156.281 229.918 156.748 229.867C157.215 229.816 158.685 229.248 158.685 229.248L159.389 228.599L159.695 228.128L159.888 227.104L159.09 224.819L159.044 223.449L158.194 222.708L156.739 223.463L155.785 222.511L154.77 218.711C154.77 218.711 152.815 215.512 152.047 214.651C151.28 213.789 148.323 210.761 147.831 210.151C147.333 209.529 146.205 207.594 146.205 207.594C146.205 207.594 145.834 206.045 145.852 205.675C145.87 205.304 147.552 202.487 147.468 201.423C147.383 200.36 145.973 196.256 145.973 196.256C145.973 196.256 143.108 188.132 143.006 187.814C142.903 187.497 142.465 185.775 142.465 185.775L143.15 184.101L143.235 181.997L143.17 180.728L144.253 179.791C144.253 179.791 144.7 178.175 144.655 177.825C144.609 177.476 144.375 175.205 144.375 175.205C144.375 175.205 143.804 173.648 144.375 173.569C144.958 173.483 145.463 172.855 145.463 172.855L145.398 170.324C145.398 170.324 145.689 168.616 145.05 168.118C144.404 167.609 144.035 165.098 144.035 165.098L144.22 163.389L144.469 161.659L143.929 159.138L145.134 156.513C145.134 156.513 143.705 155.947 143.47 155.688C143.247 155.423 142.676 153.625 142.676 153.625C142.676 153.625 142.753 153.012 142.961 152.685C143.169 152.359 143.995 151.581 143.995 151.581L145.573 151.179L146.78 151.269C146.78 151.269 146.693 152.053 147.453 150.862C148.213 149.671 149.523 149.193 149.44 148.534C149.356 147.875 149.876 147.059 150.11 146.673C150.356 146.28 150.828 145.325 150.828 145.325L150.379 143.745C150.379 143.745 143.709 139.959 143.413 139.779C143.106 139.606 139.582 136.369 139.582 136.369C139.582 136.369 138.551 133.749 138.545 133.227C138.532 132.694 139.059 129.637 139.059 129.637L138.764 128.091C138.764 128.091 133.321 122.311 132.73 121.711C132.139 121.112 129.141 118.062 128.987 117.787C128.833 117.513 128.132 114.784 128.132 114.784L127.191 111.438L127.84 110.264L128.336 108.305L125.485 106.404C125.485 106.404 122.631 105.089 122.322 104.751C122.013 104.414 121.014 103.247 121.07 102.81C121.126 102.373 121.107 100.433 121.107 100.433L121.523 98.1438L121.313 97.0451L122.518 95.9505L122.858 93.7938C122.858 93.7938 124.425 91.6559 124.637 91.4172C124.849 91.1785 134.739 77.8528 134.834 77.4848C134.928 77.1167 130.321 54.1779 130.321 54.1779L124.667 52.5838C124.667 52.5838 125.863 48.1173 125.898 47.9925C125.933 47.8677 124.816 45.0404 125.037 44.7368C125.258 44.4332 128.194 39.9378 128.194 39.9378L126.047 37.6573C126.047 37.6573 127.895 35.6469 128.293 35.2295C128.683 34.8006 131.468 31.2155 131.468 31.2155C131.468 31.2155 131.047 26.168 130.96 25.6911C130.873 25.2142 130.812 23.5221 130.812 23.5221L133.922 23.0127C133.922 23.0127 135.26 25.161 135.668 24.9777C136.076 24.7943 137.713 23.6677 137.713 23.6677L141.331 25.2751L158.293 16.9079L160.487 16.9106C160.487 16.9106 163.585 16.1378 163.869 16.0834C164.154 16.0289 164.423 15.8639 164.91 16.1167C165.396 16.3695 166.107 17.0224 166.107 17.0224L166.33 18.6541C166.33 18.6541 166.608 18.8288 167.284 19.1255C167.961 19.4222 168.672 19.6997 169.242 19.9662C169.823 20.2263 170.931 21.2125 170.931 21.2125C170.931 21.2125 173.057 23.1596 173.784 23.7883C174.507 24.4347 175.821 25.5754 175.821 25.5754C175.821 25.5754 174.353 21.3687 174.233 20.9403C174.107 20.5005 173.794 16.6677 173.794 16.6677C173.794 16.6677 173.816 13.9688 173.771 13.3786C173.726 12.7883 173.323 4.98334 173.323 4.98334C173.323 4.98334 177.585 4.14418 178.113 4.01386C178.641 3.88353 193.305 -6.19987 193.305 -6.19987L195.077 -3.03378C195.077 -3.03378 198.078 -3.2273 198.598 -3.12857C199.131 -3.03623 208.508 -1.36462 208.508 -1.36462L210.012 0.840427L216.441 2.96115L219.453 6.16878L227.282 7.7312L229.648 6.61734L231.537 8.65183L234.975 7.2531L241.164 8.11239L245.05 10.9506C245.05 10.9506 256.831 8.92008 257.204 8.86154C257.577 8.80301 263.829 5.45415 263.829 5.45415L275.516 5.83269L286.222 8.32174L298.636 7.42281L300.588 6.2404L304.262 7.78652L306.37 5.03084L311.757 4.8075L321.577 7.94217L323.452 11.2911L321.431 16.5646L322.56 18.5L322.255 21.1769L323.325 22.9801L321.45 27.2263L321.071 28.0241L320.599 28.6034L321.307 29.5731L321.686 31.2972L321.257 33.2939L324.122 38.4145C324.122 38.4145 324.024 39.205 324.25 39.7692C324.475 40.3334 324.923 41.3739 324.923 41.3739L323.929 42.4704L324.173 43.3093L324.564 44.0066L323.976 44.996L322.985 46.016L322.777 46.7179L323.355 47.8051L322.737 49.7871C322.831 50.3047 322.76 49.3989 322.831 50.3047C322.903 51.2104 322.884 51.6863 322.884 51.6863C322.884 51.6863 322.557 52.2295 322.363 52.4732C322.169 52.7169 321.819 53.138 321.819 53.138L323.665 53.8608L324.335 54.7619L324.674 55.3677L326.976 53.8991L334.47 49.1196C334.47 49.1196 334.847 48.3981 335.624 48.4437C336.4 48.4894 343.302 46.7582 343.302 46.7582C343.302 46.7582 349.425 45.9432 350.339 45.6715C351.253 45.3999 354.917 43.8146 354.917 43.8146L355.807 41.6205C355.807 41.6205 357.365 41.0489 358.033 40.9003C358.707 40.7631 359.46 40.5518 359.46 40.5518L360.088 39.0444C360.088 39.0444 360.74 38.5446 361.111 38.5917C361.477 38.6274 364.292 39.2285 364.292 39.2285C364.292 39.2285 365.244 39.4008 365.727 38.9207C366.209 38.4406 366.134 38.6025 366.423 36.8646C366.712 35.1268 367.386 33.324 367.386 33.324L368.323 31.2683C368.323 31.2683 370.721 30.3465 371.162 30.2495C371.597 30.1412 373.583 30.0657 374.14 30.0688C374.698 30.072 376.442 30.2365 376.66 29.8744C376.89 29.5059 377.811 27.234 377.811 27.234C377.811 27.234 377.02 25.8752 376.839 25.4966C376.657 25.1181 375.978 24.2819 375.978 24.2819L375.733 23.4136L376.106 22.4695L376.613 21.5249L377.828 19.7495L378.046 17.8859L378.447 16.266C378.447 16.266 379.756 15.2779 380.013 15.1193C380.281 14.9542 380.923 14.625 381.226 14.3351C381.541 14.0388 380.933 12.4428 380.933 12.4428L382.521 10.6381L382.91 9.77532L382.11 8.34658L382.104 7.44953L383.545 6.13272L384.44 4.43096C384.44 4.43096 383.285 -3.50886 382.843 -4.56728C382.401 -5.6257 382.018 -6.4171 382.018 -6.4171L379.866 -8.30437L379.923 -10.8583L379.341 -12.6492L378.727 -13.7465L377.734 -14.0459L376.565 -15.3283L376.349 -16.063L376.354 -17.987L380.29 -17.5029L380.226 -19.3885L383.007 -21.1552L383.656 -24.5052L386.595 -22.7428L387.939 -22.9701L389.023 -23.7716L390.751 -22.0521C390.751 -22.0521 391.757 -19.2079 392.69 -18.5889C393.622 -17.9698 394.278 -17.3613 395.231 -16.9193C396.185 -16.4772 398.112 -15.3946 398.112 -15.3946L399.832 -15.006C399.832 -15.006 400.681 -13.5151 400.977 -12.9601C401.272 -12.405 401.768 -10.2054 401.982 -9.49996C402.197 -8.7945 402.669 -6.44723 402.895 -5.88304C403.114 -5.33029 403.284 -4.70484 403.591 -4.1562C403.898 -3.60756 405.208 -2.55466 405.54 -2.23006C405.867 -1.88762 407.504 -0.116936 407.64 0.152353C407.775 0.421643 407.908 0.8729 407.908 0.8729L406.942 3.0648L406.914 4.62615L407.047 5.72253C407.047 5.72253 406.554 6.10342 406.311 6.28494C406.067 6.46646 405.05 7.20032 405.05 7.20032C405.05 7.20032 404.573 7.90306 404.49 8.26471C404.418 8.61997 404.534 9.84619 404.534 9.84619L403.515 11.1667L402.042 12.1566L402.063 14.0206L402.029 14.9254L401.829 15.8028L399.817 16.6889L399.056 18.4959L398.835 19.04L396.845 19.0277C396.845 19.0277 397.085 19.2686 397.218 19.9897L397.351 20.7107L396.119 21.4605L395.554 22.572L394.27 22.9607L392.75 23.0906L394.37 24.7507C394.37 24.7507 394.735 26.798 394.768 27.1249C394.812 27.4454 395.017 28.8317 395.017 28.8317L393.213 29.3914L393.025 30.9075L393.16 31.5521L391.199 32.9051L390.44 33.75L389.953 34.8931L389.482 36.7626C389.482 36.7626 389.349 38.0533 389.306 38.4072C389.264 38.7611 389.224 39.2791 389.143 39.6993C389.081 40.1245 388.666 41.182 388.666 41.182L388.395 41.9044L387.263 42.5382L386.816 42.8934L385.855 43.4311C385.855 43.4311 385.808 43.4275 385.576 44.0072C385.345 44.587 384.878 45.7643 384.878 45.7643L384.869 46.4744L386.001 46.5913L387.349 46.798L387.681 47.3923L388.062 48.2601C387.063 49.2394 386.465 49.3789 386.465 49.3789L384.999 49.6588L385.193 51.4268L384.773 52.3673L384.267 53.476C384.267 53.476 384.257 54.5322 384.272 54.8541C384.287 55.1759 384.349 56.0117 384.349 56.0117L382.901 61.1C382.901 61.1 382.494 62.949 382.403 63.3756C382.311 63.8022 381.956 66.1472 382.029 66.4663C382.103 66.7854 382.721 68.7212 382.847 69.1611C382.973 69.6009 381.93 70.3946 381.93 70.3946L380.883 72.2267C380.883 72.2267 380.818 72.218 380.595 73.1082C380.372 73.9984 380.425 78.8169 380.425 78.8169L378.799 87.5323L376.756 91.6632L375.88 93.1588L376.298 95.3268C376.298 95.3268 376.912 97.3097 376.867 97.74C376.823 98.1702 376.514 99.4984 376.177 100.318C375.846 101.148 375.5 102.033 375.441 102.17C375.383 102.308 374.961 103.46 374.961 103.46L373.623 104.209L375.43 107.25L374.075 110.545L373.385 112.478L374.427 114.341C374.427 114.341 374.228 114.602 374.879 115.094C375.541 115.579 376.457 116.357 376.457 116.357C376.457 116.357 377.092 117.277 377.257 117.545C377.411 117.82 377.376 118.214 377.913 118.664C378.439 119.12 379.068 119.519 379.068 119.519L379.564 120.352C379.564 120.352 379.623 120.619 379.273 121.04C378.923 121.461 378.257 122.149 378.257 122.149L378.23 123.095L379.772 125.849C379.919 126.112 381.754 130.249 381.754 130.249C381.754 130.249 382.026 131.433 381.957 131.712C381.887 131.991 381.351 133.957 381.351 133.957C381.351 133.957 381.618 135.159 381.698 135.249C381.779 135.339 384.446 137.073 384.446 137.073L385.238 139.722C385.238 139.722 385.352 141.294 385.139 141.773C384.921 142.241 384.259 144.037 384.259 144.037C384.259 144.037 384.932 144.891 385.195 145.12C385.464 145.359 385.95 145.958 385.95 145.958L386.854 149.399C386.854 149.399 387.156 150.476 387.834 150.667C388.512 150.858 389.776 151.427 389.974 151.646C390.178 151.877 390.846 153.74 390.792 154.1C390.75 154.454 390.399 156.001 390.493 156.384C390.587 156.767 390.66 158.077 390.96 158.614C391.261 159.151 393.595 161.282 393.595 161.282L394.993 163.727C394.993 163.727 397.29 165.684 397.479 166.209C397.667 166.734 397.993 167.692 398.049 168.006C398.105 168.32 398.442 168.011 398.091 168.913C397.733 169.804 397.779 169.913 397.35 170.649C396.921 171.384 396.163 172.124 396.163 172.124L395.791 172.587L396.091 175.752C396.091 175.752 397.806 180.991 398.18 181.712C398.554 182.434 400.447 185.952 400.793 186.434C401.138 186.916 402.196 187.735 402.561 188.011C402.926 188.287 405.759 190.424 405.759 190.424C405.759 190.424 407.329 192.127 407.941 192.82C408.548 193.501 409.654 194.458 409.654 194.458L408.895 198.335C408.895 198.335 409.504 200.576 409.854 200.906C410.203 201.236 411.735 202.39 412.428 202.768C413.12 203.146 415.036 203.859 415.838 203.951C416.634 204.031 418.856 204.243 419.533 204.299C420.211 204.356 424.192 204.439 424.192 204.439C424.192 204.439 426.11 204.296 427.195 204.274C428.291 204.247 432.619 204.466 433.912 204.522C435.206 204.579 439.853 205.475 439.853 205.475C439.853 205.475 442.236 206.754 442.486 206.959C442.724 207.171 445.255 210.753 445.255 210.753L445.537 217.215L446.321 220.468C446.321 220.468 449.539 223.05 449.591 223.787C449.643 224.523 450.984 225.229 451.759 225.62C452.54 226.024 454.212 226.784 454.983 226.953C455.742 227.129 456.861 227.358 457.232 227.375C457.597 227.411 460.798 227.091 460.798 227.091L464.641 224.94L470.967 236.244L470.554 241.384L470.84 245.007L470.428 248.645L470.026 251.121C470.026 251.121 470 251.826 470.121 252.418C470.243 253.011 470.374 255.849 470.372 256.061C470.359 256.278 468.695 261.517 468.601 261.885C468.506 262.254 468.256 265.456 468.241 265.779C468.239 266.096 469.044 268.662 469.287 269.231C469.531 269.801 470.326 271.517 470.363 271.932C470.4 272.346 470.275 273.707 470.275 273.707C470.275 273.707 469.981 275.087 469.763 275.69C469.544 276.292 469.058 277.436 468.67 278.058C468.282 278.68 467.515 279.86 467.515 279.86L463.448 285.769L448.952 302.003L436.443 313.656L430.521 318.157C430.521 318.157 424.057 323.516 423.559 323.914C423.061 324.313 418.966 327.355 418.966 327.355L415.717 329.144C415.717 329.144 411.533 331.276 410.976 331.542C410.419 331.809 406.417 333.569 406.417 333.569L401.52 334.238L397.302 333.627L392.925 332.864L391.14 333.968L391.085 336.071L392.181 336.928L395.288 335.985L396.901 336.103L398.031 336.701L399.647 335.481L400.554 337.585L398.561 340.412L398.916 341.234C398.916 341.234 401.728 344.433 402.289 344.765C402.862 345.09 405.235 345.923 405.986 346.028C406.724 346.14 407.679 346.371 407.679 346.371L410.551 353.14L412.18 356.131L408.279 358.794L411.769 365.352L413.049 367.397L414.465 368.586L412.936 370.793L413.319 371.959L416.357 373.577C416.357 373.577 417.535 373.427 418.176 373.339C418.829 373.244 421.107 374.04 421.107 374.04L421.467 375.73L417.686 377.321L416.94 378.053L417.951 378.358L419.737 377.899L421.169 377.773C421.169 377.773 421.952 379.226 422.088 379.63C422.224 380.034 422.393 382.161 422.393 382.161L421.149 384.313C421.149 384.313 419.278 386.606 418.843 387.09C418.419 387.567 416.89 389.369 416.6 389.711C416.317 390.065 415.057 391.596 414.716 392.087C414.375 392.578 413.541 393.96 413.378 394.232C413.214 394.503 411.954 396.17 411.954 396.17C411.954 396.17 411.631 396.425 411.381 396.595C411.131 396.765 399.447 403.184 399.447 403.184C399.447 403.184 394.162 403.215 393.463 403.306C392.763 403.398 387.089 403.781 386.724 403.746C386.359 403.71 385.291 403.467 384.166 403.631C383.042 403.795 380.597 404.338 380.597 404.338C380.597 404.338 379.762 404.565 379.342 404.725C378.909 404.892 377.866 405.551 377.866 405.551L376.926 406.152L376.294 406.071L376.221 405.241L375.842 403.652L375.358 404.103C375.358 404.103 374.408 405.25 374.263 405.421C374.119 405.592 372.63 407.386 372.63 407.386C372.63 407.386 372.373 407.68 372.29 408.041C372.219 408.397 372.515 409.086 372.419 409.425C372.312 409.77 374.33 414.315 374.432 414.498C374.534 414.681 375.811 417.284 376.133 417.644C376.448 417.993 377.714 418.966 378.363 419.563C379.006 420.148 381.732 422.871 381.732 422.871L384.432 427.078C384.432 427.078 386.637 431.984 386.761 432.259C386.885 432.535 387.859 435.052 387.859 435.052L389.933 437.014C389.933 437.014 391.447 437.652 391.731 437.704C392.015 437.755 394.251 438.019 394.767 438.03C395.296 438.035 396.764 437.948 397.371 437.744C397.977 437.54 398.773 437.244 399.32 437.013C399.867 436.782 402.022 435.696 402.022 435.696L402.386 438.224C402.386 438.224 402.357 440.132 402.318 440.304C402.279 440.476 402.009 441.227 402.009 441.227L403.864 440.354L406.259 438.864L407.575 438.157L407.985 437.252L410.116 436.39L411.418 436.381L411.333 434.673C411.333 434.673 410.694 433.289 410.472 433.053C410.25 432.818 409.281 432.294 409.281 432.294C409.281 432.294 408.277 432.541 408.023 432.623C407.769 432.705 406.125 433.205 406.125 433.205L405.533 432.71C405.533 432.71 406.023 432.271 406.392 431.99C406.76 431.709 407.991 430.795 408.174 430.557C408.356 430.32 409.028 429.239 409.309 428.721C409.59 428.203 411.327 425.565 411.327 425.565L412.249 424.824L413.506 424.841C413.506 424.841 414.895 425.579 415.091 425.74C415.286 425.901 417.185 428.006 417.289 428.112C417.394 428.219 418.175 428.862 418.175 428.862L418.069 429.747L418.161 430.341L419.173 430.645C419.173 430.645 420.304 432.639 420.369 432.783C420.446 432.92 421.816 435.53 421.816 435.53L422.469 436.831L422.456 437.799C422.456 437.799 422.596 438.426 422.661 438.57C422.727 438.713 423.338 439.992 423.338 439.992L423.455 440.257C423.455 440.257 423.727 440.285 423.253 440.835L422.78 441.385L422.517 442.418L422.377 442.946L421.34 443.212L420.652 443.432L420.11 443.78L419.797 444.481L419.16 445.437C419.16 445.437 418.994 445.516 418.411 445.842C417.827 446.169 417.656 446.265 417.255 446.489C416.855 446.713 416.237 447.058 416.054 447.161C415.871 447.263 414.983 447.581 414.983 447.581C414.983 447.581 414.419 447.566 414.317 447.518C414.203 447.476 413.924 447.138 413.924 447.138L413.67 446.094L413.262 445.902C413.262 445.902 412.68 445.882 412.491 445.598C412.308 445.325 412.289 444.915 412.289 444.915C412.289 444.915 412.521 444.23 412.548 444.035C412.574 443.84 412.488 443.123 412.488 443.123L411.962 442.532L411.143 441.954L410.744 441.832L410.228 441.851L409.363 441.915C409.363 441.915 408.814 441.712 408.684 441.559C408.542 441.414 408.232 441.317 408.232 441.317C408.232 441.317 408.493 441.381 407.501 441.351C406.501 441.31 406.877 441.31 406.501 441.31C406.126 441.31 405.326 441.517 405.326 441.517L404.489 441.956L403.721 442.461L402.894 442.969L402.604 443.176L402.25 443.509C402.25 443.509 402.051 443.771 401.967 443.998C401.884 444.224 401.711 445.042 401.711 445.042L401.576 445.687L401.444 446.257L401.28 446.769C401.28 446.769 401.394 446.81 401.113 447.087C400.833 447.364 400.346 447.757 400.346 447.757C400.346 447.757 399.87 448.113 399.734 448.219C399.61 448.319 399.156 448.663 399.156 448.663L398.848 449.106L398.734 449.815L398.953 451.118C398.953 451.118 399.02 451.291 399.055 451.676C399.102 452.055 399.209 453.212 399.209 453.212L399.79 453.472L401.206 453.4L402.06 453.207L403.22 453.053C403.22 453.053 403.266 453.027 403.759 453.022C404.245 453.005 404.96 452.995 404.96 452.995L405.685 453.055C405.685 453.055 406.316 453.136 406.5 453.169C406.683 453.201 407.045 453.284 407.279 453.273C407.513 453.262 407.788 453.243 408.124 453.146C408.459 453.048 409.026 453.121 409.227 452.783C409.429 452.445 410.295 451.9 410.472 451.921C410.661 451.936 411.361 451.844 411.539 451.76C411.717 451.675 412.997 451.199 412.997 451.199L413.987 450.284L414.457 450.802C414.457 450.802 414.772 451.391 414.853 451.616C414.945 451.834 415.203 452.08 415.273 452.206C415.344 452.332 414.562 453.94 414.562 453.94C414.562 453.94 412.427 456.486 412.315 456.609C412.203 456.731 410.003 458.758 409.886 458.899C409.77 459.039 407.532 462.287 407.532 462.287L406.773 464.634C406.773 464.634 406.409 466.023 406.406 466.205C406.402 466.387 406.613 467.38 406.613 467.38C406.613 467.38 407.197 468.585 407.33 468.93C407.457 469.264 407.64 470.423 407.617 470.571C407.601 470.73 407.443 471.869 407.36 472.231C407.27 472.581 406.984 473.627 406.984 473.627L406.022 476.792L406.187 479.206C406.187 479.206 406.205 479.722 406.603 480.325C407 480.928 408.454 482.801 408.602 482.958C408.75 483.115 409.44 484.186 409.556 484.286C409.672 484.386 410.756 485.115 411.15 485.39C411.544 485.665 412.979 486.618 412.979 486.618C412.979 486.618 413.482 487.357 413.592 487.58C413.709 487.815 413.91 488.228 413.992 488.482C414.074 488.737 414.12 489.221 414.088 489.405C414.055 489.588 413.968 490.102 413.968 490.102L413.931 490.843L415.114 492.177L416.462 493.539C416.462 493.539 417.056 493.957 417.15 494.07C417.243 494.183 417.52 494.598 417.576 494.912C417.632 495.227 417.759 496.581 417.749 496.752C417.746 496.934 417.395 499.232 417.395 499.232C417.395 499.232 417.426 500.655 417.379 500.787C417.339 500.929 416.661 501.759 416.555 501.863C416.448 501.968 415.476 502.888 415.368 503.098C415.26 503.308 415.086 503.721 415.03 503.917C414.975 504.113 414.784 505.061 414.784 505.061C414.784 505.061 414.634 506.241 414.595 506.548C414.556 506.854 414.423 507.77 414.423 507.77C414.423 507.77 414.394 508.281 414.43 508.426C414.466 508.571 414.565 508.936 414.74 509.303C414.916 509.67 414.948 509.862 415.256 510.305C415.564 510.748 416.069 511.141 416.069 511.141C416.069 511.141 416.192 511.253 416.722 511.286C417.256 511.302 417.162 511.43 417.807 511.159C418.458 510.9 418.892 510.762 419.043 510.738C419.194 510.713 419.571 510.742 419.571 510.742L419.965 511.392L419.809 513.206C419.809 513.206 419.746 514.007 419.713 514.19C419.681 514.373 419.196 515.305 419.196 515.305C419.196 515.305 419.072 515.405 418.867 515.549C418.663 515.694 418.312 515.98 417.957 516.044C417.602 516.107 417.115 516.095 417.115 516.095L416.436 516.144L415.873 516.265L415.495 516.476L415.236 517.086L415.14 517.29L414.788 517.682L414.466 517.803L413.653 517.747L413.219 518.125L412.541 518.55L412.137 518.58C412.137 518.58 411.817 518.519 411.644 518.451C411.471 518.383 411.303 518.297 411.071 518.232C410.839 518.166 410.58 518.161 410.58 518.161L409.989 518.447C409.989 518.447 409.987 518.388 409.728 518.623C409.469 518.858 409.322 519.105 409.322 519.105C409.322 519.105 409.295 519.676 409.256 519.847C409.217 520.019 409.233 520.101 409.085 520.454C408.926 520.813 408.875 520.991 408.591 521.45C408.308 521.91 408.738 521.578 408.308 521.91C407.859 522.236 407.687 522.572 407.687 522.572L407.036 522.696L406.734 523.391L406.508 524.088L406.138 524.34L405.616 524.857C405.616 524.857 405.417 525.118 405.394 525.372C405.37 525.625 405.325 525.785 405.412 526.022C405.499 526.258 405.502 526.317 405.729 526.775C405.967 527.227 406.584 528.518 406.584 528.518L400.708 531.867C400.708 531.867 399.579 535.486 399.53 535.693C399.481 535.901 398.818 538.554 398.774 538.743C398.735 538.915 398.59 539.837 398.637 540.11C398.685 540.384 398.828 541.82 398.835 542.101C398.848 542.364 398.704 543.315 398.704 543.315L397.971 544.851L397.723 546.581C397.723 546.581 398.7 548.541 398.984 548.968C399.267 549.394 399.745 550.463 399.733 550.575C399.72 550.687 398.827 553.304 398.827 553.304L398.76 555.037C398.76 555.037 398.902 556.579 398.937 556.829C398.967 557.097 399.069 558.406 399.054 558.835C399.05 559.258 399.092 560.54 399.184 560.894C399.289 561.241 399.674 562.331 399.798 562.607C399.922 562.883 400.674 564.038 400.867 564.275C401.048 564.519 403.442 566.917 403.442 566.917C403.442 566.917 404.549 567.768 404.982 568.006C405.416 568.243 406.996 568.92 407.135 569.007C407.274 569.095 408.802 570.296 408.934 570.342C409.071 570.4 410.071 570.952 410.071 570.952L413.005 571.336L416.145 571.875C416.145 571.875 418.621 573.131 418.8 573.211C418.969 573.297 421.461 574.154 421.628 574.21C421.795 574.267 423.653 574.983 423.653 574.983C423.653 574.983 425.434 575.832 425.596 575.907C425.77 575.975 426.736 576.815 427.218 576.845C427.694 576.864 429.17 576.683 429.514 576.626C429.857 576.569 430.884 576.31 431.277 576.18C431.67 576.05 433.695 575.322 433.891 575.242C434.087 575.163 435.021 575.195 435.416 574.719C435.817 574.254 436.894 573.952 437.407 573.634C437.932 573.311 439.715 572.148 440.317 571.856C440.92 571.564 443.601 570.183 443.601 570.183L445.651 569.846L447.935 571.029C447.935 571.029 450.006 573.038 450.306 573.44C450.606 573.842 452.767 577.676 452.826 577.809C452.903 577.946 453.908 580.52 453.97 580.711C454.031 580.902 454.667 583.218 454.707 583.45C454.747 583.683 454.98 584.904 454.899 585.189C454.818 585.474 454.235 586.821 454.235 586.821C454.235 586.821 454.248 587.085 454.543 587.505C454.838 587.925 456.178 589.246 456.306 589.34C456.434 589.434 457.44 590.266 457.44 590.266L457.868 590.897L457.707 591.468L456.585 591.18C456.585 591.18 456.087 591.204 456.028 591.312C455.968 591.42 455.991 591.918 456.027 592.063C456.063 592.208 456.482 593.385 456.624 593.665C456.766 593.946 457.221 594.652 457.446 594.946C457.664 595.229 457.979 595.684 458.026 595.822C458.092 595.966 456.54 597.81 456.54 597.81L455.407 599.059L455.2 600.031L455.71 601.802L455.152 602.28L453.851 603.338L453.563 603.949C453.563 603.949 453.949 604.934 454.025 605.071C454.102 605.208 454.381 606.028 454.381 606.028C454.381 606.028 454.171 606.701 454.052 606.918C453.933 607.134 453.54 607.88 453.54 607.88L453.299 608.63C453.299 608.63 453.359 608.927 453.472 609.209C453.585 609.491 453.669 610.284 453.669 610.284C453.669 610.284 452.487 610.991 452.258 611.119C452.029 611.247 451.5 611.858 451.5 611.858L450.622 612.41L449.457 615.373L449.092 616.734L448.97 617.777L448.653 618.66C448.653 618.66 448.115 619.442 447.789 619.88C447.451 620.324 446.502 622.626 446.502 622.626C446.502 622.626 446.28 623.921 446.285 624.278C446.297 624.647 446.342 625.883 446.352 626.223C446.362 626.562 446.294 628.507 446.294 628.507L446.277 629.282C446.277 629.282 445.772 630.285 445.671 630.401C445.571 630.517 444.267 631.863 444.267 631.863L444.065 632.951C444.065 632.951 443.596 634.475 443.552 634.799C443.491 635.119 443.393 636.179 443.393 636.179C443.393 636.179 443.4 637.346 443.35 637.524C443.299 637.703 443.257 638.057 443.264 638.203C443.271 638.349 443.048 638.219 443.464 639.232C443.881 640.244 443.791 639.949 444.084 640.716C444.385 641.493 444.477 641.712 444.564 642.083C444.646 642.443 444.692 642.687 444.706 642.98C444.719 643.272 444.721 643.571 444.701 644.018C444.681 644.465 444.611 645.359 444.611 645.359L444.207 647.026L443.721 648.199C443.721 648.199 443.99 648.814 444.156 648.976C444.334 649.132 444.503 649.247 444.503 649.247C444.503 649.247 445.051 649.151 445.157 649.046C445.264 648.942 445.531 648.642 445.637 648.508C445.747 648.356 445.995 647.752 445.995 647.752C445.995 647.752 445.868 646.908 445.837 646.745C445.806 646.582 445.796 645.492 445.796 645.492L445.931 645.116L446.313 644.752L446.519 644.877L447.538 646.243C447.538 646.243 447.582 646.563 447.588 646.815C447.594 647.067 447.549 648.113 447.492 648.415C447.436 648.717 447.379 649.394 447.399 649.563C447.418 649.732 447.496 650.139 447.569 650.323C447.642 650.508 448.236 651.541 448.445 651.889C448.667 652.231 448.995 652.737 449.109 652.914C449.223 653.09 449.663 654.225 449.638 654.449C449.619 654.684 449.436 655.027 449.567 655.449C449.698 655.871 449.904 656.266 449.963 656.399C450.04 656.536 451.21 659.378 451.21 659.378C451.21 659.378 452.414 662.952 452.439 663.103C452.47 663.266 452.627 665.399 452.606 665.576C452.585 665.753 452.603 667.53 452.603 667.53C452.603 667.53 452.042 668.459 451.909 668.759C451.776 669.058 450.9 670.284 450.9 670.284C450.9 670.284 450.613 670.549 450.376 670.742C450.145 670.947 448.552 671.778 448.44 671.901C448.329 672.023 447.053 672.857 447.053 672.857L446.112 673.429C446.112 673.429 445.02 673.17 444.578 672.997C444.124 672.83 442.872 672.15 442.696 672.023C442.509 671.903 441.444 671.208 441.444 671.208L439.966 670.339L439.294 670.265L438.546 670.593C438.546 670.593 438.541 670.987 438.635 671.234C438.728 671.482 438.901 672.301 438.901 672.301C438.643 672.671 437.795 673.115 437.795 673.115L437.368 673.399L436.84 674.04L437.314 674.886L437.939 674.821C437.939 674.821 439.27 674.301 439.467 674.251C439.664 674.201 440.775 674.119 440.775 674.119C440.775 674.119 441.728 674.292 441.937 674.37C442.146 674.448 443.248 674.942 443.502 675.1C443.756 675.258 444.786 675.972 444.938 676.082C445.078 676.199 445.932 677.027 445.932 677.027L445.921 677.544L442 681.809C442 681.809 440.811 683.496 440.744 683.698C440.677 683.901 440.351 685.224 440.32 685.437C440.295 685.661 439.987 691.927 439.987 691.927L440.834 697.922C440.834 697.922 442.142 701.333 442.227 701.511C442.311 701.689 443.849 704.731 443.849 704.731L442.489 707.804L441.366 710.654L441.432 711.577L442.201 712.093C442.201 712.093 442.638 711.908 442.837 711.512C443.036 711.115 443.631 709.521 443.795 709.009C443.959 708.497 444.817 706.381 444.817 706.381C444.817 706.381 444.745 706.226 445.066 706.316C445.381 706.395 446.74 708.126 446.74 708.126C446.74 708.126 447.848 709.623 448.027 709.808C448.206 709.993 456.092 718.878 456.092 718.878L457.792 721.109L454.58 724.603L451.981 724.226L449.823 725.524L448.406 727.232C448.406 727.232 446.1 728.613 448.44 727.694C450.779 726.775 451.075 725.934 451.647 726.394C452.22 726.854 453.215 726.538 453.529 726.482C453.843 726.426 454.254 725.791 454.736 725.686C455.218 725.582 456.073 725.283 456.073 725.283L457.169 724.505L459.1 722.373L465.464 727.517L474.06 732.838C474.06 732.838 476.232 734.144 476.801 734.516C477.37 734.888 479.344 736.215 479.344 736.215L480.271 737.227L479.487 738.161L479.407 738.071Z" stroke="#D8D9D9" stroke-width="1.2" stroke-linecap="round" stroke-linejoin="round"/>
<path d="M418.622 242.095L363.953 169.482L299.605 205.496L418.622 242.095Z" stroke="#D8D9D9" stroke-width="1.2" stroke-linecap="round" stroke-linejoin="round"/>
<path d="M222.528 119.846L186.436 205.46L157.558 54.9942" stroke="#D8D9D9" stroke-width="1.2" stroke-linecap="round" stroke-linejoin="round"/>
<path d="M228.307 289.125L304.604 291.905L260.782 406.943L228.307 289.125Z" stroke="#D8D9D9" stroke-width="1.2" stroke-linecap="round" stroke-linejoin="round"/>
<path d="M260.779 406.943L364.541 333.063L372.197 407.958L377.291 447.6L260.779 406.943Z" stroke="#D8D9D9" stroke-width="1.2" stroke-linecap="round" stroke-linejoin="round"/>
<path d="M437.315 673.279L381.638 554.233L405.96 476.707L376.525 446.229L381.638 554.233L293.363 507.213L249.686 469.966L260.78 406.943L293.363 507.213L377.293 447.6" stroke="#D8D9D9" stroke-width="1.2" stroke-linecap="round" stroke-linejoin="round"/>
<path d="M260.781 406.943L218.874 354.205L228.307 289.125L161.092 248.361L186.438 205.46L228.307 289.125L299.606 205.496L223.071 120.383L332.422 88.0768L246.289 34.2291L223.071 120.383L157.56 54.9941L246.289 34.2291" stroke="#D8D9D9" stroke-width="1.2" stroke-linecap="round" stroke-linejoin="round"/>
<path d="M364.543 333.063L392.834 332.81" stroke="#D8D9D9" stroke-width="1.2" stroke-linecap="round" stroke-linejoin="round"/>
<path d="M434.796 314.789L418.623 242.095L470.78 244.951" stroke="#D8D9D9" stroke-width="1.2" stroke-linecap="round" stroke-linejoin="round"/>
<path d="M418.623 242.095L409.811 200.855L363.954 169.482L332.422 88.077L299.606 205.496L304.603 291.905L418.623 242.095ZM418.623 242.095L364.544 333.063L304.603 291.905" stroke="#D8D9D9" stroke-width="1.2" stroke-linecap="round" stroke-linejoin="round"/>
<path d="M363.954 169.482C362.721 166.285 374.087 110.509 374.087 110.509L332.423 88.0768L365.72 38.8799L393.177 31.4986L332.416 88.0654L281.945 7.27898L246.29 34.2292" stroke="#D8D9D9" stroke-width="1.2" stroke-linecap="round" stroke-linejoin="round"/>
<path d="M247.171 35.8066L173.285 4.91479" stroke="#D8D9D9" stroke-width="1.2" stroke-linecap="round" stroke-linejoin="round"/>
<path d="M158.273 16.8444L157.56 54.9943L130.308 54.1258" stroke="#D8D9D9" stroke-width="1.2" stroke-linecap="round" stroke-linejoin="round"/>
<path d="M186.435 205.46L150.388 143.71L157.557 54.9943" stroke="#D8D9D9" stroke-width="1.2" stroke-linecap="round" stroke-linejoin="round"/>
<path d="M420.99 241.4C420.608 240.074 419.224 239.31 417.898 239.692C416.573 240.074 415.807 241.458 416.188 242.783C416.57 244.108 417.954 244.873 419.28 244.491C420.605 244.109 421.371 242.725 420.99 241.4Z" fill="#E51C38"/>
<path d="M370.423 171.297C371.433 167.725 369.355 164.013 365.782 163.005C362.209 161.998 358.494 164.077 357.485 167.649C356.475 171.222 358.553 174.934 362.126 175.941C365.698 176.949 369.413 174.87 370.423 171.297Z" fill="#E51C38"/>
<path d="M334.501 88.8449C334.915 87.7077 334.328 86.451 333.191 86.0381C332.053 85.6251 330.796 86.2122 330.382 87.3494C329.968 88.4866 330.555 89.7432 331.692 90.1562C332.83 90.5692 334.087 89.9821 334.501 88.8449Z" fill="#E51C38"/>
<path d="M229.073 292.593C230.39 291.856 230.786 290.057 229.957 288.575C229.128 287.094 227.388 286.491 226.07 287.228C224.752 287.966 224.356 289.765 225.185 291.246C226.014 292.728 227.755 293.331 229.073 292.593Z" fill="#E51C38"/>
<path d="M380.397 450.07C381.758 448.354 381.47 445.861 379.754 444.501C378.038 443.142 375.544 443.431 374.183 445.147C372.822 446.863 373.11 449.356 374.826 450.716C376.541 452.075 379.036 451.786 380.397 450.07Z" fill="#E51C38"/>
<path d="M305.83 294.213C307.123 293.49 307.585 291.856 306.862 290.564C306.139 289.272 304.505 288.811 303.212 289.535C301.919 290.258 301.457 291.892 302.18 293.184C302.903 294.476 304.538 294.937 305.83 294.213Z" fill="#E51C38"/>
<path d="M369.617 331.215C368.597 328.417 365.5 326.977 362.701 327.999C359.902 329.021 358.46 332.117 359.481 334.914C360.501 337.712 363.597 339.152 366.396 338.13C369.196 337.109 370.638 334.012 369.617 331.215Z" fill="#E51C38"/>
</g>
<defs>
<clipPath id="clip0_2051_5492">
<rect width="404" height="888" fill="white" transform="translate(0 95.3096) rotate(-29.2348)"/>
</clipPath>
</defs>
</svg>
