<svg width="323" height="299" viewBox="0 0 323 299" fill="none" xmlns="http://www.w3.org/2000/svg">
<g clip-path="url(#clip0_2169_41653)">
<path d="M263.829 422.31L258.547 423.168L255.148 423.253L251.29 425.413C251.29 425.413 246.8 424.762 246.447 424.81C246.098 424.866 232.411 432.386 232.115 432.551C231.819 432.717 225.428 435.815 225.428 435.815L225.828 434.137L222.37 432.818L220.515 432.782L219.135 431.498L218.438 431.434C218.438 431.434 217.94 431.844 217.884 431.744C217.827 431.643 218.136 430.231 218.136 430.231C218.136 430.231 218.2 429.576 218.096 429.155C217.993 428.733 217.908 428.508 217.827 428.364C217.746 428.219 217.426 427.927 217.426 427.927L216.749 427.397L216.85 426.647L216.98 425.979L215.839 425.107L214.454 424.494C214.454 424.494 214.19 424.154 214.115 424.006C214.041 423.858 213.787 422.918 213.787 422.918L214.856 422.303L215.081 422.069C215.081 422.069 214.426 420.883 214.31 420.692C214.189 420.504 213.335 419.214 213.335 419.214L212.52 418.926C212.52 418.926 212.021 418.388 211.934 418.263C211.848 418.138 211.76 417.08 211.76 417.08L211.383 416.82L210.161 416.852L209.32 416.901L208.9 417.863L208.822 418.345L208.634 418.821L206.83 418.403L206.333 419.672C206.333 419.672 205.944 420.674 205.875 420.862C205.806 421.049 205.414 422.061 205.414 422.061L205.013 422.6L204.066 423.774C204.066 423.774 203.501 423 203.527 422.811C203.554 422.623 203.399 421.636 203.399 421.636L202.374 421.326L200.714 421.197C200.714 421.197 200.821 421.328 200.381 420.897C199.941 420.465 199.659 420.02 199.556 419.822C199.447 419.627 198.728 418.402 198.728 418.402L197.828 418.344C197.828 418.344 198.119 418.082 198.145 417.877C198.171 417.672 198.132 417.174 198.132 417.174L197.284 416.914C197.284 416.914 197.142 417.191 196.92 416.795L196.283 415.657L195.973 415.665L195.522 415.612L195.13 415.03L195.099 414.089L195.098 413.495L194.54 412.395L193.239 412.536L192.497 410.325C192.497 410.325 192.957 408.002 192.979 407.642C193.001 407.283 192.929 404.317 192.929 404.317L192.122 400.498L190.949 398.816C190.949 398.816 190.676 397.945 190.679 397.729C190.682 397.512 190.78 394.541 190.78 394.541L192.303 394.16L193.526 390.039L191.977 387.626L190.619 386.115L192.299 384.968L191.237 382.804L192.603 382.039L192.501 381.576L190.871 380.687L189.813 378.9L188.899 379.114L188.14 378.333L187.546 377.435L186.445 377.564L186.527 376.56L185.587 375.087L185.314 374.496L185.965 373.339L185.749 371.122L184.759 369.561L186.596 365.65L185.808 364.183L187.08 364.033L187.312 363.341L186.874 362.529L186.469 362.203L185.526 361.995L185.449 361.46L185.142 360.88C185.142 360.88 184.897 360.901 184.593 360.683C184.286 360.459 183.217 358.446 183.217 358.446C183.217 358.446 183.765 357.859 183.891 357.656C184.017 357.454 184.68 356.29 184.83 355.834C184.97 355.375 185.087 354.905 185.087 354.905C185.087 354.905 182.598 352.111 182.422 351.945C182.246 351.779 181.715 351.39 181.414 350.749C181.113 350.108 180.641 349.398 180.641 349.398L179.365 348.964L178.576 348.736L179.511 347.098L180.004 345.558L179.529 344.295L178.901 343.837L177.852 343.764L177.273 343.823L175.163 339.684L175.783 338.693C175.783 338.693 176.372 338.388 176.506 338.288C176.641 338.188 176.991 338.017 176.991 338.017L177.699 337.2L176.079 336.653L177.161 335.485L177.291 334.033L175.656 333.032C175.656 333.032 173.769 332.039 173.626 331.946C173.483 331.852 173.113 331.531 172.938 331.248C172.76 330.96 172.592 330.674 172.592 330.674L169.64 331.632L168.007 332.125L167.115 331.98L166.475 330.777L168.111 329.861L169.045 328.901C169.045 328.901 170.079 328.768 170.167 328.645C170.255 328.521 171.272 327.34 171.43 327.194C171.588 327.048 172.082 326.705 172.082 326.705L174.106 326.762L174.47 326.187L173.479 324.032L174.161 322.948C174.161 322.948 173.465 321.851 173.253 321.738C173.035 321.629 172.527 321.269 172.23 321.27C171.933 321.271 171.28 321.24 170.846 321.425C170.412 321.61 169.809 321.906 169.809 321.906L167.235 323.347L166.384 324.219L166.022 324.356L165.693 324.21C165.693 324.21 165.174 323.682 165.148 323.267C165.116 322.855 164.837 321.707 164.837 321.707L163.908 320.814L163.588 320.523L164.262 319.674L163.775 317.047L161.641 315.582L162.742 313.297L162.383 313.127C162.383 313.127 161.799 313.222 161.607 313.189C161.422 313.152 159.349 312.33 159.349 312.33L158.172 312.072L156.984 310.423L157.893 309.477L157.89 307.95C157.89 307.95 156.45 307.666 155.797 307.519C155.151 307.369 154.123 306.92 153.834 306.759C153.546 306.598 151.617 305.943 151.617 305.943L150.839 304.76L150.32 303.67C150.32 303.67 149.637 303.144 149.604 302.923C149.571 302.702 149.609 301.144 149.627 300.911C149.639 300.681 149.853 300.058 149.692 299.875C149.532 299.692 148.908 299.05 148.908 299.05C148.908 299.05 147.807 299.047 147.651 298.945C147.504 298.845 146.755 298.083 146.607 297.951C146.455 297.813 146.167 297.52 145.982 297.16C145.798 296.801 145.685 296.393 145.685 296.393L146.179 295.266L147.335 295.412L148.611 295.226L148.819 294.549L149.585 294.087L146.667 288.872L145.221 288.12L144.83 288.042C144.83 288.042 144.51 288.386 144.615 287.658C144.72 286.93 144.468 286.567 144.468 286.567L142.634 284.546C142.634 284.546 142.277 283.614 142.233 283.357C142.189 283.101 141.353 280.662 141.353 280.662L139.842 279.409L139.578 278.466C139.578 278.466 139.387 277.888 138.814 277.573C138.24 277.257 137.444 276.662 137.366 276.508C137.288 276.353 137.19 275.986 137.19 275.986C137.19 275.986 137.494 275.081 137.419 274.801C137.345 274.52 136.674 273.69 136.674 273.69L136.563 272.546L137.497 271.173C137.497 271.173 137.771 270.614 137.568 270.414C137.365 270.214 136.655 269.95 136.458 269.879C136.265 269.813 135.103 269.332 135.103 269.332L134.351 268.786L134.92 267.617L135.437 266.444C135.437 266.444 135.372 265.885 135.262 265.468C135.153 265.05 134.355 264.067 134.355 264.067L133.442 263.884L131.59 260.576L132.175 260.29L132.949 260.418C132.949 260.418 133.516 260.531 133.9 260.596C134.281 260.656 134.256 261.232 134.281 260.656C134.312 260.077 134.504 259.903 134.504 259.903L133.157 259.063C133.157 259.063 132.808 257.804 132.802 257.601C132.796 257.398 132.765 255.689 132.765 255.689L130.009 250.764C130.009 250.764 131.191 247.087 131.414 247.028C131.638 246.969 133.653 246.139 133.653 246.139L133.654 244.783L133.003 243.826L130.522 242.538C130.522 242.538 129.744 241.09 129.469 240.864C129.194 240.638 128.53 239.969 128.421 239.7C128.311 239.43 128.328 238.397 128.328 238.397L126.362 237.424L124.882 236.36L124.761 235.643L123.893 235.08L123.094 233.949L122.511 231.327L121.783 230.528L120.676 229.834C120.676 229.834 120.691 229.388 120.753 229.13C120.815 228.873 120.85 228.225 120.837 228.026C120.825 227.826 120.796 227.421 120.796 227.421L120.178 226.627C120.178 226.627 119.595 226.441 119.399 226.402C119.2 226.357 118.667 226.068 118.667 226.068L118.569 225.702L118.924 224.859L118.824 224.502L118.293 224.262L117.851 223.989L117.745 223.165L117.349 222.089L118.646 221.364L117.684 220.118C117.684 220.118 117.427 220.22 117.248 219.767C117.069 219.314 116.658 219.007 116.916 218.863L118.281 218.098L117.743 217.136C117.743 217.136 118.752 216.679 118.906 216.658C119.06 216.638 119.722 216.581 119.722 216.581L118.556 214.557L119.305 212.395L120.028 212.165L120.303 212.052L120.443 211.09L120.066 210.004L119.414 209.518L119.465 208.663L118.764 208.089L119.088 207.148C119.088 207.148 118.094 206.523 117.882 206.204C117.674 205.891 117.098 204.907 117.098 204.907L117.204 204.535L116.888 203.91C116.888 203.91 116.197 203.578 116.079 203.471C115.961 203.363 115.42 202.766 115.42 202.766L113.812 202.137L114.182 199.105C114.182 199.105 113.797 196.587 113.763 196.407C113.729 196.228 113.571 195.267 113.571 195.267L112.632 194.521L113.137 189.588L112.135 187.488L113.325 186.823L113.989 185.484L112.39 184.62L112.786 183.63L111.297 183.199C111.297 183.199 110.245 182.087 110.136 181.892C110.026 181.697 109.43 179.288 109.377 179.045C109.324 178.802 109.233 177.06 109.197 176.891C109.166 176.718 108.596 175.36 108.596 175.36L106.879 174.537L106.436 175.223L106.089 176.169C106.089 176.169 104.966 175.195 104.869 175.051C104.771 174.907 104.088 174.232 103.983 174.118C103.877 174.003 103.557 172.869 103.557 172.869L103.407 171.863L100.94 170.187C100.94 170.187 100.075 168.598 99.8236 168.193C99.5724 167.789 98.8605 166.989 98.8605 166.989L97.4224 166.266C97.4224 166.266 96.6702 166.059 96.4103 165.816C96.1504 165.574 95.5877 164.509 95.5877 164.509L94.4922 163.792L95.1406 162.736L95.0819 161.818L94.2616 161.815L91.4652 161.53C91.4652 161.53 88.4087 158.284 88.4485 157.75C88.4883 157.215 87.7439 155.575 87.7439 155.575L87.1473 153.431L87.6902 152.953L88.3273 153.324L88.6475 152.847L88.8151 151.936L88.8347 151.454C88.8347 151.454 87.697 150.455 87.5723 150.203C87.4413 149.954 87.0909 148.663 87.0497 148.471C87.0085 148.28 86.758 147.123 86.758 147.123C86.758 147.123 86.5585 146.442 86.4403 146.26C86.3221 146.078 86.0856 144.947 86.0856 144.947L86.3828 144.045L86.1843 143.454L85.5449 143.035C85.5449 143.035 86.0055 142.662 86.2625 142.634C86.5195 142.606 87.3284 142.293 87.3284 142.293L87.7154 141.936L87.8842 141.677L87.9904 141.113L87.5511 139.856L87.5259 139.102L87.0582 138.694L86.2573 139.11L85.7325 138.585L85.1739 136.494C85.1739 136.494 84.0978 134.734 83.6754 134.26C83.2531 133.786 81.6259 132.119 81.3553 131.784C81.0811 131.441 80.4602 130.376 80.4602 130.376C80.4602 130.376 80.2561 129.524 80.266 129.32C80.2759 129.117 81.2017 127.566 81.1552 126.981C81.1087 126.395 80.3324 124.137 80.3324 124.137C80.3324 124.137 78.7561 119.666 78.6996 119.491C78.643 119.317 78.4022 118.369 78.4022 118.369L78.7792 117.448L78.8256 116.29L78.79 115.591L79.386 115.076C79.386 115.076 79.6322 114.187 79.6071 113.994C79.582 113.802 79.4531 112.552 79.4531 112.552C79.4531 112.552 79.1389 111.696 79.4533 111.652C79.774 111.604 80.0518 111.259 80.0518 111.259L80.0163 109.866C80.0163 109.866 80.1761 108.926 79.8244 108.652C79.4691 108.372 79.2662 106.99 79.2662 106.99L79.3679 106.049L79.5046 105.097L79.2078 103.71L79.8706 102.266C79.8706 102.266 79.0844 101.954 78.9551 101.811C78.8321 101.666 78.5183 100.676 78.5183 100.676C78.5183 100.676 78.5607 100.339 78.6751 100.159C78.7895 99.9795 79.2443 99.5515 79.2443 99.5515L80.1122 99.33L80.7764 99.3796C80.7764 99.3796 80.7286 99.8111 81.1471 99.1556C81.5655 98.5001 82.2862 98.2372 82.2404 97.8746C82.1945 97.512 82.4804 97.0629 82.6094 96.8503C82.7447 96.6341 83.0045 96.1088 83.0045 96.1088L82.7575 95.2392C82.7575 95.2392 79.0866 93.1553 78.9238 93.0564C78.7547 92.961 76.8155 91.18 76.8155 91.18C76.8155 91.18 76.2482 89.738 76.2446 89.4509C76.2374 89.1575 76.5275 87.4752 76.5275 87.4752L76.3654 86.6243C76.3654 86.6243 73.3701 83.4435 73.0448 83.1134C72.7195 82.7833 71.0693 81.1049 70.9848 80.9539C70.9003 80.803 70.5142 79.3009 70.5142 79.3009L69.9962 77.4596L70.3537 76.8134L70.6266 75.7355L69.0573 74.6891C69.0573 74.6891 67.4868 73.9656 67.3168 73.7799C67.1467 73.5942 66.5971 72.9519 66.6279 72.7116C66.6588 72.4713 66.648 71.4034 66.648 71.4034L66.877 70.1436L66.7618 69.539L67.4248 68.9366L67.6119 67.7497C67.6119 67.7497 68.4744 66.5732 68.591 66.4418C68.7076 66.3105 74.1505 58.977 74.2024 58.7745C74.2544 58.5719 71.7189 45.9482 71.7189 45.9482L68.6076 45.0709C68.6076 45.0709 69.2653 42.6129 69.2848 42.5442C69.3042 42.4755 68.6896 40.9196 68.811 40.7525C68.9324 40.5855 70.5484 38.1115 70.5484 38.1115L69.3666 36.8565C69.3666 36.8565 70.384 35.7502 70.6026 35.5204C70.8177 35.2844 72.3503 33.3115 72.3503 33.3115C72.3503 33.3115 72.1182 30.5337 72.0705 30.2713C72.0228 30.0088 71.9894 29.0776 71.9894 29.0776L73.7006 28.7972C73.7006 28.7972 74.4367 29.9795 74.6612 29.8786C74.8858 29.7777 75.787 29.1577 75.787 29.1577L77.7782 30.0423L87.1124 25.4377L88.3201 25.4391C88.3201 25.4391 90.0246 25.0138 90.1814 24.9839C90.3382 24.9539 90.4858 24.8631 90.7537 25.0022C91.0217 25.1414 91.4129 25.5007 91.4129 25.5007L91.5353 26.3986C91.5353 26.3986 91.6883 26.4948 92.0607 26.658C92.4331 26.8213 92.8244 26.974 93.138 27.1207C93.4578 27.2639 94.0674 27.8066 94.0674 27.8066C94.0674 27.8066 95.2375 28.8781 95.6377 29.2241C96.0352 29.5798 96.7585 30.2076 96.7585 30.2076C96.7585 30.2076 95.9506 27.8925 95.8847 27.6568C95.8154 27.4147 95.6433 25.3055 95.6433 25.3055C95.6433 25.3055 95.6552 23.8202 95.6305 23.4954C95.6057 23.1706 95.384 18.8753 95.384 18.8753C95.384 18.8753 97.7293 18.4135 98.0198 18.3418C98.3103 18.27 106.38 12.7209 106.38 12.7209L107.355 14.4633C107.355 14.4633 109.007 14.3568 109.294 14.4111C109.586 14.4619 114.747 15.3819 114.747 15.3819L115.575 16.5954L119.113 17.7624L120.77 19.5277L125.079 20.3875L126.381 19.7745L127.421 20.8942L129.312 20.1244L132.718 20.5973L134.857 22.1592C134.857 22.1592 141.34 21.0418 141.546 21.0096C141.751 20.9773 145.191 19.1344 145.191 19.1344L151.623 19.3427L157.515 20.7125L164.347 20.2178L165.421 19.5671L167.443 20.418L168.602 18.9014L171.567 18.7785L176.972 20.5036L178.003 22.3466L176.891 25.2488L177.512 26.3138L177.345 27.787L177.933 28.7793L176.902 31.1161L176.693 31.5552L176.433 31.874L176.823 32.4076L177.032 33.3564L176.795 34.4552L178.372 37.2732C178.372 37.2732 178.318 37.7083 178.442 38.0187C178.567 38.3292 178.813 38.9019 178.813 38.9019L178.266 39.5053L178.4 39.967L178.615 40.3507L178.292 40.8952L177.746 41.4565L177.632 41.8428L177.95 42.4411L177.61 43.5318C177.662 43.8167 177.623 43.3182 177.662 43.8167C177.701 44.3151 177.691 44.577 177.691 44.577C177.691 44.577 177.511 44.8759 177.404 45.0101C177.297 45.1442 177.104 45.3759 177.104 45.3759L178.121 45.7737L178.489 46.2696L178.676 46.603L179.943 45.7947L184.067 43.1645C184.067 43.1645 184.274 42.7674 184.702 42.7926C185.129 42.8177 188.927 41.8649 188.927 41.8649C188.927 41.8649 192.297 41.4164 192.8 41.2669C193.303 41.1175 195.319 40.2451 195.319 40.2451L195.809 39.0375C195.809 39.0375 196.666 38.723 197.034 38.6412C197.405 38.5657 197.819 38.4495 197.819 38.4495L198.165 37.6199C198.165 37.6199 198.524 37.3449 198.728 37.3708C198.929 37.3904 200.478 37.7212 200.478 37.7212C200.478 37.7212 201.003 37.816 201.268 37.5518C201.533 37.2876 201.492 37.3767 201.651 36.4203C201.81 35.4639 202.181 34.4718 202.181 34.4718L202.697 33.3405C202.697 33.3405 204.017 32.8332 204.259 32.7799C204.499 32.7202 205.591 32.6787 205.898 32.6804C206.205 32.6822 207.165 32.7727 207.285 32.5734C207.411 32.3706 207.918 31.1203 207.918 31.1203C207.918 31.1203 207.483 30.3726 207.383 30.1642C207.283 29.9559 206.91 29.4957 206.91 29.4957L206.775 29.0179L206.98 28.4983L207.259 27.9785L207.928 27.0015L208.048 25.9759L208.268 25.0844C208.268 25.0844 208.989 24.5406 209.13 24.4533C209.278 24.3625 209.631 24.1813 209.798 24.0218C209.971 23.8587 209.636 22.9804 209.636 22.9804L210.511 21.9872L210.724 21.5124L210.284 20.7262L210.281 20.2325L211.074 19.5078L211.566 18.5713C211.566 18.5713 210.931 14.2018 210.688 13.6194C210.444 13.0369 210.234 12.6014 210.234 12.6014L209.049 11.5628L209.081 10.1573L208.761 9.17172L208.423 8.56786L207.876 8.40308L207.233 7.69734L207.114 7.293L207.116 6.23422L209.282 6.50059L209.247 5.46294L210.778 4.49065L211.135 2.64707L212.752 3.61697L213.492 3.49189L214.088 3.05079L215.04 3.99706C215.04 3.99706 215.593 5.56231 216.106 5.90298C216.619 6.24364 216.98 6.57851 217.505 6.8218C218.03 7.06509 219.091 7.66087 219.091 7.66087L220.037 7.8747C220.037 7.8747 220.504 8.69518 220.667 9.00063C220.83 9.30608 221.102 10.5166 221.22 10.9048C221.338 11.293 221.598 12.5848 221.723 12.8953C221.843 13.1995 221.937 13.5437 222.106 13.8456C222.275 14.1475 222.996 14.727 223.178 14.9056C223.358 15.0941 224.259 16.0685 224.334 16.2167C224.408 16.3649 224.481 16.6132 224.481 16.6132L223.95 17.8195L223.934 18.6787L224.008 19.2821C224.008 19.2821 223.736 19.4917 223.602 19.5916C223.468 19.6915 222.909 20.0954 222.909 20.0954C222.909 20.0954 222.646 20.4821 222.6 20.6811C222.561 20.8766 222.624 21.5514 222.624 21.5514L222.064 22.2781L221.253 22.8229L221.265 23.8487L221.246 24.3467L221.136 24.8295L220.029 25.3172L219.61 26.3116L219.488 26.611L218.393 26.6042C218.393 26.6042 218.525 26.7368 218.598 27.1336L218.672 27.5304L217.993 27.9431L217.683 28.5547L216.976 28.7686L216.14 28.8401L217.031 29.7537C217.031 29.7537 217.232 30.8804 217.25 31.0603C217.274 31.2367 217.387 31.9996 217.387 31.9996L216.394 32.3076L216.291 33.1419L216.365 33.4967L215.286 34.2413L214.868 34.7063L214.6 35.3353L214.341 36.3642C214.341 36.3642 214.268 37.0745 214.245 37.2692C214.221 37.464 214.199 37.749 214.155 37.9803C214.12 38.2143 213.892 38.7963 213.892 38.7963L213.743 39.1938L213.12 39.5426L212.874 39.7381L212.345 40.034C212.345 40.034 212.319 40.032 212.192 40.351C212.064 40.6701 211.807 41.318 211.807 41.318L211.803 41.7088L212.426 41.7731L213.167 41.8868L213.35 42.2139L213.56 42.6915C213.01 43.2304 212.681 43.3072 212.681 43.3072L211.874 43.4612L211.981 44.4342L211.75 44.9518L211.471 45.5619C211.471 45.5619 211.466 46.1432 211.474 46.3203C211.482 46.4974 211.516 46.9574 211.516 46.9574L210.72 49.7576C210.72 49.7576 210.496 50.7751 210.445 51.0099C210.395 51.2446 210.199 52.5352 210.24 52.7108C210.28 52.8864 210.62 53.9517 210.69 54.1938C210.759 54.4358 210.185 54.8726 210.185 54.8726L209.609 55.8809C209.609 55.8809 209.573 55.8761 209.45 56.366C209.328 56.8559 209.357 59.5076 209.357 59.5076L208.462 64.3039L207.337 66.5772L206.856 67.4003L207.085 68.5934C207.085 68.5934 207.423 69.6846 207.399 69.9214C207.374 70.1582 207.205 70.8891 207.019 71.34C206.837 71.7972 206.646 72.2838 206.614 72.3595C206.582 72.4353 206.35 73.0691 206.35 73.0691L205.614 73.4813L206.608 75.1549L205.863 76.9683L205.482 78.0319L206.056 79.0572C206.056 79.0572 205.947 79.2011 206.305 79.4716C206.669 79.7385 207.173 80.1668 207.173 80.1668C207.173 80.1668 207.523 80.6732 207.614 80.8207C207.698 80.9716 207.679 81.1888 207.975 81.4364C208.264 81.6875 208.61 81.9069 208.61 81.9069L208.883 82.3653C208.883 82.3653 208.916 82.5122 208.723 82.744C208.53 82.9757 208.164 83.3544 208.164 83.3544L208.149 83.8747L208.997 85.3907C209.078 85.5353 210.088 87.8119 210.088 87.8119C210.088 87.8119 210.238 88.4633 210.2 88.6168C210.162 88.7703 209.866 89.8524 209.866 89.8524C209.866 89.8524 210.013 90.5137 210.057 90.5632C210.102 90.6128 211.57 91.5671 211.57 91.5671L212.006 93.0249C212.006 93.0249 212.068 93.8902 211.951 94.1539C211.831 94.4113 211.467 95.3999 211.467 95.3999C211.467 95.3999 211.837 95.8699 211.982 95.9955C212.13 96.1273 212.397 96.4569 212.397 96.4569L212.895 98.3508C212.895 98.3508 213.061 98.9433 213.434 99.0485C213.807 99.1536 214.503 99.4663 214.612 99.5871C214.724 99.7142 215.092 100.739 215.062 100.938C215.039 101.132 214.846 101.984 214.897 102.195C214.949 102.405 214.989 103.126 215.155 103.422C215.32 103.718 216.605 104.89 216.605 104.89L217.374 106.236C217.374 106.236 218.638 107.312 218.742 107.601C218.846 107.89 219.025 108.417 219.056 108.59C219.086 108.763 219.272 108.593 219.079 109.09C218.882 109.58 218.907 109.64 218.671 110.045C218.435 110.45 218.018 110.856 218.018 110.856L217.813 111.111L217.978 112.853C217.978 112.853 218.922 115.736 219.128 116.133C219.333 116.53 220.376 118.466 220.566 118.732C220.755 118.997 221.338 119.448 221.539 119.6C221.74 119.751 223.299 120.927 223.299 120.927C223.299 120.927 224.162 121.865 224.5 122.246C224.834 122.621 225.442 123.148 225.442 123.148L225.025 125.281C225.025 125.281 225.36 126.515 225.552 126.696C225.745 126.877 226.588 127.512 226.969 127.721C227.35 127.929 228.404 128.321 228.846 128.372C229.284 128.416 230.506 128.533 230.879 128.564C231.252 128.594 233.443 128.64 233.443 128.64C233.443 128.64 234.498 128.562 235.095 128.55C235.698 128.534 238.08 128.655 238.792 128.686C239.504 128.717 242.061 129.211 242.061 129.211C242.061 129.211 243.373 129.914 243.51 130.027C243.642 130.144 245.034 132.115 245.034 132.115L245.189 135.671L245.621 137.461C245.621 137.461 247.392 138.882 247.42 139.288C247.449 139.693 248.187 140.081 248.613 140.297C249.043 140.519 249.964 140.937 250.388 141.03C250.805 141.127 251.422 141.253 251.625 141.263C251.827 141.282 253.588 141.106 253.588 141.106L255.703 139.922L259.184 146.143L258.957 148.972L259.114 150.966L258.887 152.968L258.666 154.33C258.666 154.33 258.652 154.718 258.719 155.044C258.786 155.371 258.858 156.933 258.857 157.049C258.85 157.169 257.934 160.052 257.882 160.254C257.83 160.457 257.692 162.219 257.684 162.397C257.683 162.571 258.126 163.984 258.26 164.297C258.394 164.61 258.832 165.555 258.852 165.783C258.872 166.011 258.804 166.76 258.804 166.76C258.804 166.76 258.642 167.52 258.522 167.851C258.401 168.183 258.133 168.812 257.92 169.154C257.707 169.497 257.285 170.146 257.285 170.146L255.046 173.398L247.069 182.332L240.185 188.745L236.926 191.222C236.926 191.222 233.369 194.171 233.095 194.39C232.821 194.61 230.567 196.284 230.567 196.284L228.779 197.268C228.779 197.268 226.476 198.442 226.17 198.588C225.863 198.735 223.661 199.703 223.661 199.703L220.966 200.072L218.645 199.735L216.236 199.316L215.253 199.923L215.223 201.08L215.826 201.552L217.536 201.033L218.424 201.098L219.046 201.427L219.935 200.756L220.434 201.914L219.338 203.469L219.533 203.922C219.533 203.922 221.081 205.682 221.389 205.865C221.704 206.044 223.011 206.502 223.423 206.56C223.83 206.622 224.356 206.749 224.356 206.749L225.936 210.474L226.832 212.12L224.685 213.586L226.606 217.194L227.31 218.32L228.09 218.974L227.249 220.189L227.459 220.831L229.131 221.721C229.131 221.721 229.779 221.638 230.132 221.59C230.491 221.537 231.745 221.976 231.745 221.976L231.943 222.906L229.863 223.781L229.452 224.184L230.008 224.352L230.991 224.099L231.779 224.03C231.779 224.03 232.21 224.83 232.285 225.052C232.36 225.274 232.453 226.445 232.453 226.445L231.768 227.629C231.768 227.629 230.739 228.891 230.499 229.157C230.266 229.42 229.424 230.412 229.265 230.6C229.109 230.794 228.415 231.637 228.228 231.907C228.04 232.178 227.581 232.938 227.491 233.088C227.401 233.237 226.708 234.154 226.708 234.154C226.708 234.154 226.53 234.295 226.393 234.388C226.255 234.482 219.825 238.014 219.825 238.014C219.825 238.014 216.917 238.031 216.532 238.082C216.147 238.132 213.024 238.343 212.823 238.323C212.622 238.304 212.035 238.17 211.416 238.26C210.797 238.351 209.451 238.649 209.451 238.649C209.451 238.649 208.992 238.774 208.761 238.862C208.523 238.954 207.949 239.317 207.949 239.317L207.431 239.648L207.084 239.603L207.043 239.146L206.835 238.272L206.568 238.52C206.568 238.52 206.046 239.151 205.966 239.245C205.886 239.339 205.067 240.327 205.067 240.327C205.067 240.327 204.926 240.488 204.88 240.687C204.841 240.883 205.004 241.262 204.951 241.449C204.892 241.639 206.002 244.14 206.059 244.24C206.115 244.341 206.818 245.774 206.995 245.972C207.168 246.164 207.865 246.699 208.222 247.028C208.576 247.35 210.076 248.848 210.076 248.848L211.562 251.164C211.562 251.164 212.775 253.863 212.844 254.015C212.912 254.167 213.448 255.552 213.448 255.552L214.589 256.632C214.589 256.632 215.422 256.983 215.579 257.011C215.735 257.039 216.965 257.185 217.25 257.191C217.54 257.193 218.349 257.146 218.683 257.033C219.016 256.921 219.454 256.758 219.755 256.631C220.056 256.504 221.242 255.906 221.242 255.906L221.443 257.298C221.443 257.298 221.427 258.347 221.405 258.442C221.384 258.537 221.235 258.95 221.235 258.95L222.256 258.47L223.574 257.65L224.298 257.261L224.524 256.763L225.697 256.288L226.413 256.284L226.366 255.343C226.366 255.343 226.015 254.582 225.892 254.452C225.77 254.322 225.237 254.034 225.237 254.034C225.237 254.034 224.685 254.17 224.545 254.215C224.405 254.26 223.5 254.535 223.5 254.535L223.175 254.263C223.175 254.263 223.444 254.021 223.647 253.867C223.85 253.712 224.527 253.209 224.628 253.078C224.728 252.948 225.098 252.353 225.252 252.068C225.407 251.783 226.363 250.331 226.363 250.331L226.871 249.923L227.562 249.933C227.562 249.933 228.327 250.339 228.434 250.427C228.542 250.516 229.586 251.674 229.644 251.733C229.702 251.791 230.131 252.146 230.131 252.146L230.073 252.633L230.124 252.959L230.681 253.127C230.681 253.127 231.303 254.224 231.339 254.303C231.381 254.379 232.136 255.815 232.136 255.815L232.495 256.531L232.487 257.064C232.487 257.064 232.565 257.409 232.601 257.488C232.636 257.567 232.973 258.271 232.973 258.271L233.038 258.416C233.038 258.416 233.187 258.432 232.926 258.734L232.666 259.037L232.521 259.606L232.444 259.896L231.873 260.043L231.494 260.164L231.197 260.355L231.024 260.741L230.674 261.267C230.674 261.267 230.582 261.31 230.261 261.49C229.94 261.67 229.846 261.722 229.625 261.846C229.405 261.969 229.065 262.159 228.964 262.216C228.864 262.272 228.375 262.447 228.375 262.447C228.375 262.447 228.064 262.439 228.008 262.412C227.946 262.389 227.792 262.203 227.792 262.203L227.652 261.628L227.428 261.523C227.428 261.523 227.108 261.512 227.003 261.356C226.903 261.205 226.892 260.98 226.892 260.98C226.892 260.98 227.02 260.603 227.035 260.495C227.049 260.388 227.002 259.994 227.002 259.994L226.712 259.668L226.261 259.35L226.042 259.283L225.758 259.293L225.282 259.329C225.282 259.329 224.98 259.217 224.908 259.133C224.83 259.053 224.66 259 224.66 259C224.66 259 224.804 259.035 224.257 259.018C223.707 258.996 223.914 258.996 223.707 258.996C223.501 258.996 223.06 259.11 223.06 259.11L222.6 259.351L222.177 259.629L221.722 259.909L221.562 260.023L221.367 260.206C221.367 260.206 221.258 260.35 221.212 260.475C221.166 260.6 221.071 261.05 221.071 261.05L220.997 261.405L220.924 261.718L220.834 262C220.834 262 220.896 262.023 220.742 262.175C220.588 262.328 220.32 262.544 220.32 262.544C220.32 262.544 220.058 262.74 219.983 262.798C219.915 262.853 219.665 263.042 219.665 263.042L219.495 263.286L219.433 263.676L219.553 264.394C219.553 264.394 219.59 264.489 219.61 264.701C219.635 264.909 219.694 265.546 219.694 265.546L220.014 265.689L220.793 265.649L221.263 265.543L221.902 265.458C221.902 265.458 221.927 265.444 222.198 265.441C222.465 265.432 222.859 265.426 222.859 265.426L223.258 265.459C223.258 265.459 223.605 265.504 223.706 265.522C223.807 265.54 224.006 265.585 224.135 265.579C224.264 265.573 224.415 265.563 224.6 265.509C224.785 265.455 225.097 265.496 225.207 265.31C225.318 265.124 225.795 264.824 225.893 264.835C225.996 264.843 226.381 264.793 226.479 264.747C226.577 264.7 227.282 264.438 227.282 264.438L227.827 263.934L228.085 264.219C228.085 264.219 228.259 264.544 228.303 264.667C228.354 264.788 228.496 264.923 228.535 264.992C228.573 265.061 228.143 265.947 228.143 265.947C228.143 265.947 226.968 267.348 226.907 267.415C226.845 267.483 225.634 268.598 225.57 268.675C225.506 268.752 224.275 270.54 224.275 270.54L223.857 271.831C223.857 271.831 223.656 272.596 223.655 272.696C223.653 272.796 223.769 273.343 223.769 273.343C223.769 273.343 224.09 274.006 224.163 274.196C224.233 274.38 224.334 275.017 224.321 275.099C224.312 275.186 224.225 275.813 224.18 276.012C224.13 276.205 223.973 276.78 223.973 276.78L223.444 278.522L223.534 279.851C223.534 279.851 223.544 280.135 223.763 280.467C223.982 280.798 224.782 281.829 224.863 281.916C224.945 282.002 225.324 282.591 225.388 282.646C225.452 282.702 226.049 283.103 226.265 283.254C226.482 283.405 227.272 283.93 227.272 283.93C227.272 283.93 227.549 284.336 227.61 284.459C227.674 284.589 227.784 284.816 227.83 284.956C227.875 285.096 227.9 285.362 227.882 285.463C227.864 285.564 227.816 285.847 227.816 285.847L227.796 286.255L228.447 286.989L229.189 287.739C229.189 287.739 229.516 287.969 229.567 288.031C229.619 288.093 229.771 288.322 229.802 288.494C229.832 288.667 229.902 289.413 229.897 289.507C229.895 289.607 229.702 290.871 229.702 290.871C229.702 290.871 229.719 291.655 229.693 291.727C229.671 291.806 229.298 292.262 229.24 292.32C229.181 292.377 228.646 292.883 228.587 292.999C228.528 293.115 228.432 293.342 228.401 293.45C228.37 293.558 228.265 294.079 228.265 294.079C228.265 294.079 228.183 294.729 228.161 294.898C228.14 295.066 228.067 295.57 228.067 295.57C228.067 295.57 228.051 295.852 228.07 295.931C228.09 296.011 228.145 296.212 228.241 296.414C228.338 296.616 228.356 296.722 228.525 296.966C228.695 297.209 228.973 297.425 228.973 297.425C228.973 297.425 229.04 297.487 229.332 297.505C229.626 297.514 229.574 297.584 229.929 297.435C230.287 297.293 230.526 297.217 230.609 297.203C230.693 297.19 230.9 297.206 230.9 297.206L231.117 297.564L231.031 298.562C231.031 298.562 230.996 299.002 230.978 299.103C230.96 299.204 230.693 299.717 230.693 299.717C230.693 299.717 230.625 299.772 230.512 299.851C230.4 299.931 230.207 300.088 230.012 300.123C229.816 300.158 229.548 300.152 229.548 300.152L229.175 300.179L228.865 300.245L228.657 300.361L228.514 300.697L228.461 300.809L228.268 301.025L228.09 301.091L227.643 301.061L227.404 301.269L227.031 301.503L226.809 301.52C226.809 301.52 226.633 301.486 226.537 301.448C226.442 301.411 226.349 301.364 226.222 301.328C226.094 301.292 225.952 301.289 225.952 301.289L225.627 301.446C225.627 301.446 225.625 301.414 225.483 301.543C225.34 301.672 225.259 301.808 225.259 301.808C225.259 301.808 225.245 302.122 225.223 302.217C225.202 302.311 225.211 302.356 225.129 302.55C225.041 302.748 225.014 302.846 224.857 303.099C224.701 303.352 224.938 303.169 224.701 303.352C224.455 303.531 224.36 303.716 224.36 303.716L224.001 303.785L223.835 304.167L223.711 304.55L223.507 304.689L223.22 304.974C223.22 304.974 223.111 305.117 223.098 305.257C223.085 305.396 223.06 305.485 223.108 305.615C223.156 305.745 223.157 305.777 223.282 306.029C223.413 306.278 223.753 306.988 223.753 306.988L220.519 308.831C220.519 308.831 219.898 310.823 219.871 310.937C219.844 311.051 219.479 312.511 219.454 312.616C219.433 312.71 219.353 313.218 219.38 313.368C219.406 313.518 219.485 314.309 219.488 314.463C219.495 314.608 219.416 315.132 219.416 315.132L219.013 315.977L218.876 316.929C218.876 316.929 219.414 318.008 219.57 318.242C219.726 318.477 219.989 319.065 219.982 319.127C219.976 319.188 219.484 320.628 219.484 320.628L219.447 321.582C219.447 321.582 219.525 322.431 219.545 322.569C219.561 322.716 219.617 323.437 219.609 323.673C219.607 323.905 219.63 324.611 219.681 324.805C219.738 324.996 219.95 325.597 220.018 325.748C220.087 325.9 220.5 326.536 220.606 326.666C220.706 326.8 222.023 328.12 222.023 328.12C222.023 328.12 222.633 328.589 222.871 328.719C223.11 328.85 223.98 329.223 224.056 329.271C224.133 329.319 224.974 329.98 225.046 330.005C225.122 330.037 225.672 330.341 225.672 330.341L227.286 330.552L229.014 330.849C229.014 330.849 230.377 331.54 230.476 331.584C230.568 331.631 231.94 332.103 232.032 332.134C232.124 332.165 233.146 332.559 233.146 332.559C233.146 332.559 234.127 333.027 234.216 333.068C234.311 333.105 234.843 333.567 235.108 333.584C235.37 333.594 236.182 333.495 236.372 333.463C236.561 333.432 237.125 333.289 237.342 333.218C237.558 333.146 238.673 332.746 238.78 332.702C238.888 332.658 239.402 332.676 239.619 332.414C239.84 332.158 240.433 331.992 240.715 331.817C241.004 331.639 241.985 330.999 242.317 330.838C242.648 330.677 244.124 329.917 244.124 329.917L245.252 329.732L246.509 330.383C246.509 330.383 247.649 331.489 247.814 331.71C247.979 331.931 249.168 334.041 249.201 334.114C249.243 334.19 249.796 335.606 249.83 335.711C249.864 335.816 250.214 337.091 250.236 337.219C250.258 337.347 250.386 338.019 250.342 338.176C250.297 338.333 249.976 339.074 249.976 339.074C249.976 339.074 249.983 339.219 250.146 339.45C250.308 339.681 251.046 340.409 251.116 340.46C251.186 340.512 251.74 340.97 251.74 340.97L251.976 341.317L251.887 341.631L251.269 341.473C251.269 341.473 250.996 341.486 250.963 341.545C250.93 341.605 250.943 341.879 250.963 341.959C250.982 342.038 251.213 342.686 251.291 342.84C251.369 342.995 251.62 343.383 251.743 343.545C251.863 343.701 252.037 343.951 252.063 344.028C252.099 344.107 251.245 345.121 251.245 345.121L250.621 345.809L250.507 346.344L250.788 347.318L250.481 347.581L249.765 348.163L249.606 348.5C249.606 348.5 249.819 349.042 249.861 349.117C249.903 349.193 250.056 349.644 250.056 349.644C250.056 349.644 249.941 350.014 249.876 350.133C249.81 350.253 249.593 350.663 249.593 350.663L249.461 351.076C249.461 351.076 249.494 351.239 249.556 351.394C249.618 351.55 249.665 351.986 249.665 351.986C249.665 351.986 249.014 352.375 248.888 352.446C248.762 352.516 248.471 352.852 248.471 352.852L247.988 353.156L247.347 354.787L247.146 355.535L247.079 356.11L246.904 356.596C246.904 356.596 246.608 357.026 246.429 357.267C246.243 357.511 245.721 358.778 245.721 358.778C245.721 358.778 245.599 359.491 245.601 359.688C245.607 359.891 245.633 360.57 245.638 360.757C245.643 360.944 245.606 362.014 245.606 362.014L245.597 362.441C245.597 362.441 245.319 362.993 245.263 363.057C245.208 363.121 244.49 363.861 244.49 363.861L244.379 364.46C244.379 364.46 244.121 365.299 244.097 365.477C244.063 365.653 244.01 366.237 244.01 366.237C244.01 366.237 244.014 366.879 243.986 366.977C243.958 367.075 243.935 367.27 243.939 367.35C243.942 367.431 243.819 367.359 244.049 367.917C244.278 368.474 244.228 368.312 244.39 368.733C244.555 369.161 244.606 369.282 244.654 369.486C244.699 369.684 244.725 369.818 244.732 369.979C244.739 370.14 244.741 370.305 244.729 370.551C244.718 370.797 244.68 371.289 244.68 371.289L244.457 372.206L244.19 372.851C244.19 372.851 244.338 373.19 244.43 373.279C244.527 373.365 244.621 373.428 244.621 373.428C244.621 373.428 244.922 373.376 244.98 373.318C245.039 373.26 245.186 373.095 245.244 373.022C245.305 372.938 245.441 372.606 245.441 372.606C245.441 372.606 245.371 372.141 245.354 372.051C245.337 371.962 245.332 371.362 245.332 371.362L245.406 371.155L245.617 370.955L245.73 371.023L246.291 371.775C246.291 371.775 246.315 371.951 246.318 372.09C246.322 372.229 246.297 372.804 246.266 372.97C246.234 373.136 246.203 373.509 246.214 373.602C246.225 373.695 246.268 373.919 246.308 374.021C246.348 374.122 246.675 374.691 246.79 374.882C246.912 375.07 247.093 375.349 247.155 375.446C247.218 375.543 247.46 376.168 247.446 376.291C247.436 376.421 247.335 376.609 247.407 376.842C247.479 377.074 247.593 377.291 247.625 377.364C247.667 377.439 248.311 379.004 248.311 379.004C248.311 379.004 248.974 380.97 248.988 381.054C249.005 381.143 249.091 382.317 249.08 382.415C249.068 382.512 249.078 383.49 249.078 383.49C249.078 383.49 248.769 384.001 248.696 384.166C248.623 384.331 248.141 385.005 248.141 385.005C248.141 385.005 247.983 385.152 247.852 385.258C247.725 385.37 246.849 385.828 246.787 385.895C246.726 385.963 246.024 386.422 246.024 386.422L245.506 386.736C245.506 386.736 244.905 386.593 244.662 386.498C244.412 386.407 243.723 386.032 243.626 385.963C243.523 385.897 242.937 385.514 242.937 385.514L242.124 385.036L241.754 384.995L241.342 385.176C241.342 385.176 241.339 385.392 241.391 385.529C241.443 385.665 241.538 386.116 241.538 386.116C241.395 386.319 240.929 386.564 240.929 386.564L240.694 386.72L240.404 387.072L240.664 387.538L241.008 387.502C241.008 387.502 241.74 387.216 241.849 387.189C241.957 387.161 242.569 387.116 242.569 387.116C242.569 387.116 243.093 387.211 243.208 387.254C243.323 387.297 243.93 387.569 244.069 387.656C244.209 387.743 244.776 388.136 244.86 388.196C244.937 388.261 245.407 388.716 245.407 388.716L245.401 389.001L243.243 391.348C243.243 391.348 242.589 392.276 242.552 392.388C242.515 392.499 242.336 393.227 242.318 393.344C242.305 393.468 242.135 396.916 242.135 396.916L242.601 400.216C242.601 400.216 243.321 402.093 243.368 402.19C243.414 402.288 244.26 403.962 244.26 403.962L243.512 405.653L242.894 407.222L242.93 407.73L243.354 408.014C243.354 408.014 243.594 407.912 243.704 407.694C243.813 407.476 244.14 406.599 244.231 406.317C244.321 406.035 244.793 404.87 244.793 404.87C244.793 404.87 244.754 404.785 244.93 404.835C245.104 404.878 245.852 405.831 245.852 405.831C245.852 405.831 246.461 406.654 246.56 406.756C246.658 406.858 250.998 411.748 250.998 411.748L251.933 412.976L250.166 414.898L248.736 414.691L247.548 415.405L246.769 416.345C246.769 416.345 245.499 417.105 246.787 416.6C248.074 416.094 248.237 415.631 248.552 415.884C248.867 416.137 249.415 415.963 249.588 415.932C249.761 415.902 249.986 415.552 250.252 415.495C250.517 415.437 250.987 415.273 250.987 415.273L251.591 414.844L252.653 413.671L256.156 416.502L260.886 419.431C260.886 419.431 262.082 420.149 262.395 420.354C262.708 420.559 263.794 421.289 263.794 421.289L264.304 421.846L263.873 422.36L263.829 422.31Z" stroke="#D8D9D9" stroke-width="1.2" stroke-linecap="round" stroke-linejoin="round"/>
<path d="M230.377 149.363L200.291 109.403L164.879 129.222L230.377 149.363Z" stroke="#D8D9D9" stroke-width="1.2" stroke-linecap="round" stroke-linejoin="round"/>
<path d="M122.462 82.0868L102.6 129.202L86.708 46.3974" stroke="#D8D9D9" stroke-width="1.2" stroke-linecap="round" stroke-linejoin="round"/>
<path d="M125.641 175.245L167.629 176.775L143.513 240.083L125.641 175.245Z" stroke="#D8D9D9" stroke-width="1.2" stroke-linecap="round" stroke-linejoin="round"/>
<path d="M143.516 240.083L200.618 199.425L204.831 240.641L207.635 262.458L143.516 240.083Z" stroke="#D8D9D9" stroke-width="1.2" stroke-linecap="round" stroke-linejoin="round"/>
<path d="M161.446 295.264L203.9 385.325L210.026 321.14L229.12 416.179L203.9 385.325L192.313 394.147L230.068 416.648" stroke="#D8D9D9" stroke-width="1.2" stroke-linecap="round" stroke-linejoin="round"/>
<path d="M240.664 386.654L210.023 321.14L223.408 278.476L207.21 261.703L210.023 321.14L161.444 295.264L137.407 274.766L143.513 240.083L161.444 295.264L207.632 262.458" stroke="#D8D9D9" stroke-width="1.2" stroke-linecap="round" stroke-linejoin="round"/>
<path d="M143.514 240.083L120.451 211.06L125.642 175.245L88.6524 152.811L102.601 129.202L125.642 175.245L164.88 129.222L122.761 82.3827L182.939 64.6036L135.538 34.9699L122.761 82.3827L86.7088 46.3974L135.538 34.9699" stroke="#D8D9D9" stroke-width="1.2" stroke-linecap="round" stroke-linejoin="round"/>
<path d="M200.617 199.425L216.187 199.286" stroke="#D8D9D9" stroke-width="1.2" stroke-linecap="round" stroke-linejoin="round"/>
<path d="M239.278 189.369L230.378 149.363L259.081 150.935" stroke="#D8D9D9" stroke-width="1.2" stroke-linecap="round" stroke-linejoin="round"/>
<path d="M230.378 149.363L225.528 126.668L200.292 109.403L182.939 64.6037L164.88 129.222L167.63 176.775L230.378 149.363ZM230.378 149.363L200.617 199.425L167.63 176.775" stroke="#D8D9D9" stroke-width="1.2" stroke-linecap="round" stroke-linejoin="round"/>
<path d="M200.293 109.403C199.614 107.643 205.869 76.9488 205.869 76.9488L182.94 64.6036L201.265 37.5294L216.374 33.4673L182.936 64.5973L155.161 20.1387L135.539 34.97" stroke="#D8D9D9" stroke-width="1.2" stroke-linecap="round" stroke-linejoin="round"/>
<path d="M136.024 35.8381L95.3633 18.8376" stroke="#D8D9D9" stroke-width="1.2" stroke-linecap="round" stroke-linejoin="round"/>
<path d="M87.0997 25.4028L86.7072 46.3975L71.7097 45.9196" stroke="#D8D9D9" stroke-width="1.2" stroke-linecap="round" stroke-linejoin="round"/>
<path d="M102.602 129.203L82.7644 95.2197L86.71 46.3975" stroke="#D8D9D9" stroke-width="1.2" stroke-linecap="round" stroke-linejoin="round"/>
<path d="M231.684 148.981C231.474 148.251 230.713 147.831 229.983 148.041C229.253 148.251 228.832 149.013 229.042 149.742C229.252 150.471 230.013 150.892 230.743 150.682C231.473 150.472 231.894 149.71 231.684 148.981Z" fill="#E51C38"/>
<path d="M203.853 110.402C204.409 108.436 203.265 106.393 201.299 105.838C199.333 105.284 197.288 106.428 196.733 108.394C196.177 110.36 197.321 112.403 199.287 112.957C201.253 113.512 203.297 112.368 203.853 110.402Z" fill="#E51C38"/>
<path d="M184.085 65.0263C184.313 64.4005 183.99 63.7089 183.364 63.4816C182.738 63.2544 182.046 63.5774 181.819 64.2033C181.591 64.8291 181.914 65.5207 182.54 65.7479C183.165 65.9752 183.857 65.6521 184.085 65.0263Z" fill="#E51C38"/>
<path d="M126.067 177.154C126.792 176.748 127.01 175.758 126.554 174.943C126.098 174.127 125.14 173.795 124.415 174.201C123.689 174.607 123.471 175.597 123.928 176.413C124.384 177.228 125.342 177.56 126.067 177.154Z" fill="#E51C38"/>
<path d="M209.346 263.817C210.095 262.873 209.937 261.5 208.992 260.752C208.048 260.004 206.675 260.163 205.926 261.107C205.177 262.052 205.336 263.424 206.28 264.172C207.224 264.92 208.597 264.761 209.346 263.817Z" fill="#E51C38"/>
<path d="M168.307 178.045C169.019 177.647 169.273 176.748 168.875 176.037C168.477 175.326 167.578 175.072 166.866 175.47C166.155 175.869 165.901 176.768 166.299 177.479C166.697 178.19 167.596 178.443 168.307 178.045Z" fill="#E51C38"/>
<path d="M203.413 198.408C202.852 196.868 201.148 196.076 199.607 196.638C198.067 197.201 197.273 198.904 197.835 200.444C198.396 201.984 200.1 202.776 201.641 202.214C203.181 201.651 203.975 199.948 203.413 198.408Z" fill="#E51C38"/>
</g>
<defs>
<clipPath id="clip0_2169_41653">
<rect width="222.33" height="488.687" fill="white" transform="translate(0 68.584) rotate(-29.2348)"/>
</clipPath>
</defs>
</svg>
