<svg width="596" height="379" viewBox="0 0 596 379" fill="none" xmlns="http://www.w3.org/2000/svg">
<g clip-path="url(#clip0_2222_17910)">
<path opacity="0.5" d="M191.787 254.29L226.238 249.79L204.916 260.03L191.787 254.29Z" stroke="#CACACA" stroke-width="1.08"/>
<path opacity="0.5" d="M204.914 260.03L145.105 259.573L191.786 254.29L204.914 260.03Z" stroke="#CACACA" stroke-width="1.08"/>
<path opacity="0.5" d="M275.652 264.769L204.917 260.03L226.24 249.79L275.652 264.769Z" stroke="#CACACA" stroke-width="1.08"/>
<path opacity="0.5" d="M170.202 267.363L145.105 259.573L204.914 260.029L170.202 267.363Z" stroke="#CACACA" stroke-width="1.08"/>
<path opacity="0.5" d="M214.742 269.225L204.917 260.029L275.652 264.769L214.742 269.225Z" stroke="#CACACA" stroke-width="1.08"/>
<path opacity="0.5" d="M170.206 267.363L204.918 260.029L214.742 269.225L170.206 267.363Z" stroke="#CACACA" stroke-width="1.08"/>
<path opacity="0.5" d="M170.203 267.363L125.036 268.646L145.106 259.573L170.203 267.363Z" stroke="#CACACA" stroke-width="1.08"/>
<path opacity="0.5" d="M170.204 267.363L203.988 276.559L106.953 281.212L170.204 267.363Z" stroke="#CACACA" stroke-width="1.08"/>
<path opacity="0.5" d="M106.952 281.212L125.036 268.646L170.203 267.363L106.952 281.212Z" stroke="#CACACA" stroke-width="1.08"/>
<path opacity="0.5" d="M256.965 278.842L203.988 276.559L214.74 269.226L256.965 278.842Z" stroke="#CACACA" stroke-width="1.08"/>
<path opacity="0.5" d="M270.116 272.856L317.746 279.581L214.741 269.226L270.116 272.856Z" stroke="#CACACA" stroke-width="1.08"/>
<path opacity="0.5" d="M214.741 269.226L317.746 279.581L256.966 278.842L214.741 269.226Z" stroke="#CACACA" stroke-width="1.08"/>
<path opacity="0.5" d="M214.742 269.226L275.652 264.769L270.117 272.856L214.742 269.226Z" stroke="#CACACA" stroke-width="1.08"/>
<path opacity="0.5" d="M151.216 256.399L191.789 254.29L145.108 259.573L151.216 256.399Z" stroke="#CACACA" stroke-width="1.08"/>
<path opacity="0.5" d="M226.238 249.79L191.787 254.29L202.568 220.766L226.238 249.79Z" stroke="#CACACA" stroke-width="1.08"/>
<path opacity="0.5" d="M145.105 259.573L88.3029 264.022L123.051 257.848L145.105 259.573Z" stroke="#CACACA" stroke-width="1.08"/>
<path opacity="0.5" d="M145.107 259.573L123.053 257.848L151.215 256.399L145.107 259.573Z" stroke="#CACACA" stroke-width="1.08"/>
<path opacity="0.5" d="M125.036 268.646L88.3029 264.022L145.105 259.573L125.036 268.646Z" stroke="#CACACA" stroke-width="1.08"/>
<path opacity="0.5" d="M316.82 287.785L106.955 281.212L203.99 276.559L316.82 287.785Z" stroke="#CACACA" stroke-width="1.08"/>
<path opacity="0.5" d="M256.967 278.842L316.82 287.785L203.99 276.559L256.967 278.842Z" stroke="#CACACA" stroke-width="1.08"/>
<path opacity="0.5" d="M202.569 220.766L264.973 224.281L226.24 249.79L202.569 220.766Z" stroke="#CACACA" stroke-width="1.08"/>
<path opacity="0.5" d="M202.569 220.766L202.148 212.302L255.582 214.766L202.569 220.766Z" stroke="#CACACA" stroke-width="1.08"/>
<path opacity="0.5" d="M202.569 220.766L255.583 214.766L264.973 224.281L202.569 220.766Z" stroke="#CACACA" stroke-width="1.08"/>
<path opacity="0.5" d="M151.216 256.399L160.193 216.324L202.57 220.766L151.216 256.399Z" stroke="#CACACA" stroke-width="1.08"/>
<path opacity="0.5" d="M160.193 216.324L202.15 212.302L202.57 220.766L160.193 216.324Z" stroke="#CACACA" stroke-width="1.08"/>
<path opacity="0.5" d="M252.692 251.616L226.24 249.79L264.973 224.281L252.692 251.616Z" stroke="#CACACA" stroke-width="1.08"/>
<path opacity="0.5" d="M275.652 264.769L226.24 249.79L252.692 251.616L275.652 264.769Z" stroke="#CACACA" stroke-width="1.08"/>
<path opacity="0.5" d="M123.053 257.848L122.821 221.766L151.215 256.399L123.053 257.848Z" stroke="#CACACA" stroke-width="1.08"/>
<path opacity="0.5" d="M122.82 221.766L160.191 216.324L151.215 256.399L122.82 221.766Z" stroke="#CACACA" stroke-width="1.08"/>
<path opacity="0.5" d="M125.039 268.646L82.3285 272.537L88.3058 264.022L125.039 268.646Z" stroke="#CACACA" stroke-width="1.08"/>
<path opacity="0.5" d="M106.955 281.212L82.3285 272.537L125.039 268.646L106.955 281.212Z" stroke="#CACACA" stroke-width="1.08"/>
<path opacity="0.5" d="M255.582 214.766L202.148 212.302L219.733 202.2L255.582 214.766Z" stroke="#CACACA" stroke-width="1.08"/>
<path opacity="0.5" d="M202.148 212.302L160.191 216.324L178.87 200.946L202.148 212.302Z" stroke="#CACACA" stroke-width="1.08"/>
<path opacity="0.5" d="M202.15 212.302L178.871 200.946L219.734 202.2L202.15 212.302Z" stroke="#CACACA" stroke-width="1.08"/>
<path opacity="0.5" d="M123.742 213.73L178.871 200.946L160.193 216.324L123.742 213.73Z" stroke="#CACACA" stroke-width="1.08"/>
<path opacity="0.5" d="M123.741 213.73L160.191 216.324L122.82 221.766L123.741 213.73Z" stroke="#CACACA" stroke-width="1.08"/>
<path opacity="0.5" d="M301.219 267.718L270.115 272.856L275.65 264.769L301.219 267.718Z" stroke="#CACACA" stroke-width="1.08"/>
<path opacity="0.5" d="M301.22 267.718L317.746 279.581L270.116 272.856L301.22 267.718Z" stroke="#CACACA" stroke-width="1.08"/>
<path opacity="0.5" d="M301.219 267.718L275.65 264.769L285.62 254.928L301.219 267.718Z" stroke="#CACACA" stroke-width="1.08"/>
<path opacity="0.5" d="M275.652 264.769L252.692 251.616L285.621 254.928L275.652 264.769Z" stroke="#CACACA" stroke-width="1.08"/>
<path opacity="0.5" d="M285.621 254.928L252.692 251.616L264.972 224.281L285.621 254.928Z" stroke="#CACACA" stroke-width="1.08"/>
<path opacity="0.5" d="M87.8824 261.167L123.051 257.848L88.3027 264.022L87.8824 261.167Z" stroke="#CACACA" stroke-width="1.08"/>
<path opacity="0.5" d="M123.051 257.848L87.8824 261.167L122.819 221.766L123.051 257.848Z" stroke="#CACACA" stroke-width="1.08"/>
<path opacity="0.5" d="M264.973 224.281L255.584 214.766L296.215 216.237L264.973 224.281Z" stroke="#CACACA" stroke-width="1.08"/>
<path opacity="0.5" d="M296.215 216.237L255.584 214.766L268.553 205.823L296.215 216.237Z" stroke="#CACACA" stroke-width="1.08"/>
<path opacity="0.5" d="M255.582 214.766L219.732 202.2L268.551 205.823L255.582 214.766Z" stroke="#CACACA" stroke-width="1.08"/>
<path opacity="0.5" d="M264.97 224.281L296.211 216.237L300.059 228.223L264.97 224.281Z" stroke="#CACACA" stroke-width="1.08"/>
<path opacity="0.5" d="M285.619 254.928L264.97 224.281L300.059 228.223L285.619 254.928Z" stroke="#CACACA" stroke-width="1.08"/>
<path opacity="0.5" d="M89.2097 220.542L122.82 221.766L87.8838 261.167L89.2097 220.542Z" stroke="#CACACA" stroke-width="1.08"/>
<path opacity="0.5" d="M123.742 213.73L122.822 221.766L89.2114 220.542L123.742 213.73Z" stroke="#CACACA" stroke-width="1.08"/>
<path opacity="0.5" d="M141.261 206.077L178.871 200.946L123.742 213.73L141.261 206.077Z" stroke="#CACACA" stroke-width="1.08"/>
<path opacity="0.5" d="M123.742 213.73L89.2114 220.542L105.702 208.447L123.742 213.73Z" stroke="#CACACA" stroke-width="1.08"/>
<path opacity="0.5" d="M123.739 213.73L105.698 208.447L141.258 206.077L123.739 213.73Z" stroke="#CACACA" stroke-width="1.08"/>
<path opacity="0.5" d="M194.577 191.808L236.773 193.076L219.733 202.2L194.577 191.808Z" stroke="#CACACA" stroke-width="1.08"/>
<path opacity="0.5" d="M268.551 205.823L219.732 202.2L256.314 207.809L268.551 205.823Z" stroke="#CACACA" stroke-width="1.08"/>
<path opacity="0.5" d="M194.579 191.808L219.734 202.2L178.871 200.946L194.579 191.808Z" stroke="#CACACA" stroke-width="1.08"/>
<path opacity="0.5" d="M219.732 202.2L236.773 193.076L268.551 205.824L219.732 202.2Z" stroke="#CACACA" stroke-width="1.08"/>
<path opacity="0.5" d="M219.732 202.2L268.551 205.823L256.314 207.809L219.732 202.2Z" stroke="#CACACA" stroke-width="1.08"/>
<path opacity="0.5" d="M194.578 191.808L178.87 200.946L148.643 195.142L194.578 191.808Z" stroke="#CACACA" stroke-width="1.08"/>
<path opacity="0.5" d="M178.871 200.946L141.261 206.077L148.644 195.142L178.871 200.946Z" stroke="#CACACA" stroke-width="1.08"/>
<path opacity="0.5" d="M301.22 267.718L332.113 273.675L317.746 279.581L301.22 267.718Z" stroke="#CACACA" stroke-width="1.08"/>
<path opacity="0.5" d="M313.819 259.392L332.113 273.675L301.22 267.718L313.819 259.392Z" stroke="#CACACA" stroke-width="1.08"/>
<path opacity="0.5" d="M301.221 267.718L285.622 254.928L313.82 259.392L301.221 267.718Z" stroke="#CACACA" stroke-width="1.08"/>
<path opacity="0.5" d="M106.953 281.212L70.5024 286.473L82.3266 272.537L106.953 281.212Z" stroke="#CACACA" stroke-width="1.08"/>
<path opacity="0.5" d="M36.1092 324.649L70.5024 286.473L106.953 281.212L36.1092 324.649Z" stroke="#CACACA" stroke-width="1.08"/>
<path opacity="0.5" d="M88.3047 264.022L39.8268 272.632L45.0217 268.443L88.3047 264.022Z" stroke="#CACACA" stroke-width="1.08"/>
<path opacity="0.5" d="M49.7818 277.523L88.3047 264.022L82.3274 272.537L49.7818 277.523Z" stroke="#CACACA" stroke-width="1.08"/>
<path opacity="0.5" d="M49.7818 277.523L39.8268 272.632L88.3047 264.022L49.7818 277.523Z" stroke="#CACACA" stroke-width="1.08"/>
<path opacity="0.5" d="M88.3047 264.022L45.0217 268.443L87.8845 261.167L88.3047 264.022Z" stroke="#CACACA" stroke-width="1.08"/>
<path opacity="0.5" d="M49.7825 277.523L82.3281 272.537L70.5039 286.473L49.7825 277.523Z" stroke="#CACACA" stroke-width="1.08"/>
<path opacity="0.5" d="M285.622 254.928L300.062 228.223L313.82 259.392L285.622 254.928Z" stroke="#CACACA" stroke-width="1.08"/>
<path opacity="0.5" d="M103.477 196.403L194.578 191.808L148.643 195.142L103.477 196.403Z" stroke="#CACACA" stroke-width="1.08"/>
<path opacity="0.5" d="M103.475 196.403L242.004 198.533L194.577 191.808L103.475 196.403Z" stroke="#CACACA" stroke-width="1.08"/>
<path opacity="0.5" d="M242.004 198.533L236.773 193.076L194.577 191.808L242.004 198.533Z" stroke="#CACACA" stroke-width="1.08"/>
<path opacity="0.5" d="M105.698 208.447L111.19 199.881L141.258 206.077L105.698 208.447Z" stroke="#CACACA" stroke-width="1.08"/>
<path opacity="0.5" d="M111.19 199.881L148.641 195.142L141.258 206.077L111.19 199.881Z" stroke="#CACACA" stroke-width="1.08"/>
<path opacity="0.5" d="M111.19 199.881L103.474 196.403L148.641 195.142L111.19 199.881Z" stroke="#CACACA" stroke-width="1.08"/>
<path opacity="0.5" d="M89.2109 220.542L87.885 261.167L55.651 229.209L89.2109 220.542Z" stroke="#CACACA" stroke-width="1.08"/>
<path opacity="0.5" d="M55.6488 229.209L87.8828 261.167L45.02 268.443L55.6488 229.209Z" stroke="#CACACA" stroke-width="1.08"/>
<path opacity="0.5" d="M236.774 193.076L277.297 196.591L268.552 205.824L236.774 193.076Z" stroke="#CACACA" stroke-width="1.08"/>
<path opacity="0.5" d="M236.773 193.076L242.004 198.533L301.582 201.831L236.773 193.076Z" stroke="#CACACA" stroke-width="1.08"/>
<path opacity="0.5" d="M277.296 196.591L236.773 193.076L301.582 201.831L277.296 196.591Z" stroke="#CACACA" stroke-width="1.08"/>
<path opacity="0.5" d="M296.211 216.237L268.549 205.823L317.969 217.542L296.211 216.237Z" stroke="#CACACA" stroke-width="1.08"/>
<path opacity="0.5" d="M317.969 217.542L268.549 205.823L305.282 204.222L317.969 217.542Z" stroke="#CACACA" stroke-width="1.08"/>
<path opacity="0.5" d="M268.552 205.823L277.297 196.591L305.285 204.222L268.552 205.823Z" stroke="#CACACA" stroke-width="1.08"/>
<path opacity="0.5" d="M58.3462 221.071L89.2109 220.542L55.651 229.209L58.3462 221.071Z" stroke="#CACACA" stroke-width="1.08"/>
<path opacity="0.5" d="M58.3443 221.071L105.699 208.447L89.2091 220.542L58.3443 221.071Z" stroke="#CACACA" stroke-width="1.08"/>
<path opacity="0.5" d="M296.214 216.237L320.152 223.143L300.061 228.223L296.214 216.237Z" stroke="#CACACA" stroke-width="1.08"/>
<path opacity="0.5" d="M300.061 228.223L320.152 223.143L313.82 259.392L300.061 228.223Z" stroke="#CACACA" stroke-width="1.08"/>
<path opacity="0.5" d="M316.819 287.785L317.746 279.581L344.242 286.147L316.819 287.785Z" stroke="#CACACA" stroke-width="1.08"/>
<path opacity="0.5" d="M317.746 279.581L332.114 273.675L344.242 286.147L317.746 279.581Z" stroke="#CACACA" stroke-width="1.08"/>
<path opacity="0.5" d="M296.214 216.237L317.972 217.541L320.152 223.143L296.214 216.237Z" stroke="#CACACA" stroke-width="1.08"/>
<path opacity="0.5" d="M72.3276 204.671L105.699 208.447L66.5894 213.628L72.3276 204.671Z" stroke="#CACACA" stroke-width="1.08"/>
<path opacity="0.5" d="M72.328 204.671L111.191 199.881L105.7 208.447L72.328 204.671Z" stroke="#CACACA" stroke-width="1.08"/>
<path opacity="0.5" d="M103.475 196.403L111.191 199.881L72.328 204.671L103.475 196.403Z" stroke="#CACACA" stroke-width="1.08"/>
<path opacity="0.5" d="M334.98 264.899L313.817 259.392L320.149 223.143L334.98 264.899Z" stroke="#CACACA" stroke-width="1.08"/>
<path opacity="0.5" d="M313.817 259.392L334.98 264.899L332.111 273.675L313.817 259.392Z" stroke="#CACACA" stroke-width="1.08"/>
<path opacity="0.5" d="M36.1108 324.649L25.8008 295.285L70.5039 286.473L36.1108 324.649Z" stroke="#CACACA" stroke-width="1.08"/>
<path opacity="0.5" d="M25.8008 295.285L49.7825 277.523L70.5039 286.473L25.8008 295.285Z" stroke="#CACACA" stroke-width="1.08"/>
<path opacity="0.5" d="M17.3661 286.314L49.7812 277.523L25.7996 295.285L17.3661 286.314Z" stroke="#CACACA" stroke-width="1.08"/>
<path opacity="0.5" d="M332.114 273.675L350.626 274.979L357.973 283.436L332.114 273.675Z" stroke="#CACACA" stroke-width="1.08"/>
<path opacity="0.5" d="M332.113 273.675L334.983 264.899L350.625 274.979L332.113 273.675Z" stroke="#CACACA" stroke-width="1.08"/>
<path opacity="0.5" d="M332.114 273.675L357.973 283.436L344.243 286.147L332.114 273.675Z" stroke="#CACACA" stroke-width="1.08"/>
<path opacity="0.5" d="M277.297 196.591L301.583 201.831L305.285 204.222L277.297 196.591Z" stroke="#CACACA" stroke-width="1.08"/>
<path opacity="0.5" d="M346.371 295.024L316.818 287.785L344.241 286.147L346.371 295.024Z" stroke="#CACACA" stroke-width="1.08"/>
<path opacity="0.5" d="M331.967 321.004L316.818 287.785L352.406 306.141L331.967 321.004Z" stroke="#CACACA" stroke-width="1.08"/>
<path opacity="0.5" d="M331.969 321.004L36.1097 324.649L316.819 287.785L331.969 321.004Z" stroke="#CACACA" stroke-width="1.08"/>
<path opacity="0.5" d="M346.371 295.024L352.406 306.141L316.818 287.785L346.371 295.024Z" stroke="#CACACA" stroke-width="1.08"/>
<path opacity="0.5" d="M122.285 201.968L103.477 196.403L60.1356 203.823L122.285 201.968Z" stroke="#CACACA" stroke-width="1.08"/>
<path opacity="0.5" d="M60.1356 203.823L103.477 196.403L72.3293 204.671L60.1356 203.823Z" stroke="#CACACA" stroke-width="1.08"/>
<path opacity="0.5" d="M242.004 198.533L103.475 196.403L122.284 201.968L242.004 198.533Z" stroke="#CACACA" stroke-width="1.08"/>
<path opacity="0.5" d="M320.152 223.143L344.039 231.238L334.983 264.899L320.152 223.143Z" stroke="#CACACA" stroke-width="1.08"/>
<path opacity="0.5" d="M320.152 223.143L317.971 217.542L344.039 231.238L320.152 223.143Z" stroke="#CACACA" stroke-width="1.08"/>
<path opacity="0.5" d="M25.0083 230.231L55.6484 229.209L30.08 234.984L25.0083 230.231Z" stroke="#CACACA" stroke-width="1.08"/>
<path opacity="0.5" d="M30.08 234.984L55.6484 229.209L45.0197 268.443L30.08 234.984Z" stroke="#CACACA" stroke-width="1.08"/>
<path opacity="0.5" d="M25.0084 230.231L58.3438 221.071L55.6485 229.209L25.0084 230.231Z" stroke="#CACACA" stroke-width="1.08"/>
<path opacity="0.5" d="M66.5898 213.628L58.3448 221.071L25.0094 230.231L66.5898 213.628Z" stroke="#CACACA" stroke-width="1.08"/>
<path opacity="0.5" d="M45.0195 268.443L39.8247 272.632L23.5954 275.429L45.0195 268.443Z" stroke="#CACACA" stroke-width="1.08"/>
<path opacity="0.5" d="M39.8281 272.632L17.3679 286.314L10.5429 282.857L39.8281 272.632Z" stroke="#CACACA" stroke-width="1.08"/>
<path opacity="0.5" d="M39.8281 272.632L10.5429 282.857L23.5988 275.429L39.8281 272.632Z" stroke="#CACACA" stroke-width="1.08"/>
<path opacity="0.5" d="M30.0798 234.985L45.0195 268.443L23.5954 275.429L30.0798 234.985Z" stroke="#CACACA" stroke-width="1.08"/>
<path opacity="0.5" d="M358.781 294.097L344.24 286.147L357.97 283.437L358.781 294.097Z" stroke="#CACACA" stroke-width="1.08"/>
<path opacity="0.5" d="M358.781 294.096L346.37 295.024L344.24 286.147L358.781 294.096Z" stroke="#CACACA" stroke-width="1.08"/>
<path opacity="0.5" d="M45.4701 215.157L72.3281 204.671L66.5899 213.628L45.4701 215.157Z" stroke="#CACACA" stroke-width="1.08"/>
<path opacity="0.5" d="M45.4701 215.157L60.1344 203.823L72.3281 204.671L45.4701 215.157Z" stroke="#CACACA" stroke-width="1.08"/>
<path opacity="0.5" d="M66.5898 213.628L25.0094 230.231L45.47 215.157L66.5898 213.628Z" stroke="#CACACA" stroke-width="1.08"/>
<path opacity="0.5" d="M335.512 225.274L317.971 217.541L324.39 213.259L335.512 225.274Z" stroke="#CACACA" stroke-width="1.08"/>
<path opacity="0.5" d="M317.971 217.542L335.511 225.274L344.039 231.238L317.971 217.542Z" stroke="#CACACA" stroke-width="1.08"/>
<path opacity="0.5" d="M305.285 204.222L324.391 213.259L317.971 217.542L305.285 204.222Z" stroke="#CACACA" stroke-width="1.08"/>
<path opacity="0.5" d="M344.039 231.238L350.625 274.979L334.983 264.899L344.039 231.238Z" stroke="#CACACA" stroke-width="1.08"/>
<path opacity="0.5" d="M305.284 204.222L301.582 201.83L320.789 208.794L305.284 204.222Z" stroke="#CACACA" stroke-width="1.08"/>
<path opacity="0.5" d="M305.285 204.222L320.79 208.795L324.391 213.259L305.285 204.222Z" stroke="#CACACA" stroke-width="1.08"/>
<path opacity="0.5" d="M270.086 222.455L242.003 198.533L158.437 218.6L270.086 222.455Z" stroke="#CACACA" stroke-width="1.08"/>
<path opacity="0.5" d="M307 212.418L242.003 198.533L270.086 222.455L307 212.418Z" stroke="#CACACA" stroke-width="1.08"/>
<path opacity="0.5" d="M242.004 198.533L122.284 201.968L158.437 218.6L242.004 198.533Z" stroke="#CACACA" stroke-width="1.08"/>
<path opacity="0.5" d="M307 212.418L301.581 201.831L242.003 198.533L307 212.418Z" stroke="#CACACA" stroke-width="1.08"/>
<path opacity="0.5" d="M17.3673 286.313L25.8008 295.285L1.49304 294.937L17.3673 286.313Z" stroke="#CACACA" stroke-width="1.08"/>
<path opacity="0.5" d="M17.3672 286.314L1.4929 294.937L10.5422 282.857L17.3672 286.314Z" stroke="#CACACA" stroke-width="1.08"/>
<path opacity="0.5" d="M16.135 240.963L30.082 234.985L23.5976 275.429L16.135 240.963Z" stroke="#CACACA" stroke-width="1.08"/>
<path opacity="0.5" d="M25.0104 230.231L30.082 234.985L16.135 240.963L25.0104 230.231Z" stroke="#CACACA" stroke-width="1.08"/>
<path opacity="0.5" d="M25.8008 295.285L12.3391 307.771L1.49304 294.937L25.8008 295.285Z" stroke="#CACACA" stroke-width="1.08"/>
<path opacity="0.5" d="M36.1094 324.649L12.3378 307.771L25.7994 295.285L36.1094 324.649Z" stroke="#CACACA" stroke-width="1.08"/>
<path opacity="0.5" d="M301.582 201.83L307.001 212.418L320.789 208.794L301.582 201.83Z" stroke="#CACACA" stroke-width="1.08"/>
<path opacity="0.5" d="M352.405 306.141L346.37 295.024L358.781 294.097L352.405 306.141Z" stroke="#CACACA" stroke-width="1.08"/>
<path opacity="0.5" d="M357.972 283.437L362.797 294.814L358.783 294.097L357.972 283.437Z" stroke="#CACACA" stroke-width="1.08"/>
<path opacity="0.5" d="M350.625 274.979L362.797 294.814L357.972 283.436L350.625 274.979Z" stroke="#CACACA" stroke-width="1.08"/>
<path opacity="0.5" d="M45.8379 212.345L60.1328 203.823L45.4685 215.157L45.8379 212.345Z" stroke="#CACACA" stroke-width="1.08"/>
<path opacity="0.5" d="M60.1356 203.823L45.8407 212.345L122.285 201.968L60.1356 203.823Z" stroke="#CACACA" stroke-width="1.08"/>
<path opacity="0.5" d="M335.51 225.274L347.957 240.369L344.037 231.238L335.51 225.274Z" stroke="#CACACA" stroke-width="1.08"/>
<path opacity="0.5" d="M350.623 274.979L344.037 231.238L351.645 247.731L350.623 274.979Z" stroke="#CACACA" stroke-width="1.08"/>
<path opacity="0.5" d="M344.037 231.238L347.957 240.369L351.645 247.731L344.037 231.238Z" stroke="#CACACA" stroke-width="1.08"/>
<path opacity="0.5" d="M122.284 201.968L45.8393 212.345L158.438 218.599L122.284 201.968Z" stroke="#CACACA" stroke-width="1.08"/>
<path opacity="0.5" d="M10.6287 285.161L16.135 240.963L23.5977 275.429L10.6287 285.161Z" stroke="#CACACA" stroke-width="1.08"/>
<path opacity="0.5" d="M10.5417 282.857L10.6287 285.161L23.5977 275.429L10.5417 282.857Z" stroke="#CACACA" stroke-width="1.08"/>
<path opacity="0.5" d="M360 305.88L352.407 306.141L358.783 294.097L360 305.88Z" stroke="#CACACA" stroke-width="1.08"/>
<path opacity="0.5" d="M360 305.88L358.783 294.097L362.797 294.814L360 305.88Z" stroke="#CACACA" stroke-width="1.08"/>
<path opacity="0.5" d="M324.39 213.259L320.789 208.795L335.512 225.274L324.39 213.259Z" stroke="#CACACA" stroke-width="1.08"/>
<path opacity="0.5" d="M35.7328 221.092L45.8398 212.345L45.4704 215.157L35.7328 221.092Z" stroke="#CACACA" stroke-width="1.08"/>
<path opacity="0.5" d="M25.0082 230.231L35.7312 221.092L45.4688 215.157L25.0082 230.231Z" stroke="#CACACA" stroke-width="1.08"/>
<path opacity="0.5" d="M351.645 247.732L349.094 285.582L350.623 274.98L351.645 247.732Z" stroke="#CACACA" stroke-width="1.08"/>
<path opacity="0.5" d="M350.625 274.979L349.096 285.582L362.797 294.814L350.625 274.979Z" stroke="#CACACA" stroke-width="1.08"/>
<path opacity="0.5" d="M11.9519 245.761L25.0078 230.231L16.1324 240.963L11.9519 245.761Z" stroke="#CACACA" stroke-width="1.08"/>
<path opacity="0.5" d="M17.672 240.057L35.7344 221.092L25.0114 230.231L17.672 240.057Z" stroke="#CACACA" stroke-width="1.08"/>
<path opacity="0.5" d="M11.9519 245.761L17.6684 240.057L25.0078 230.231L11.9519 245.761Z" stroke="#CACACA" stroke-width="1.08"/>
<path opacity="0.5" d="M10.542 282.857L3.26052 293.633L10.6289 285.161L10.542 282.857Z" stroke="#CACACA" stroke-width="1.08"/>
<path opacity="0.5" d="M10.5391 282.857L1.48977 294.937L3.25761 293.633L10.5391 282.857Z" stroke="#CACACA" stroke-width="1.08"/>
<path opacity="0.5" d="M335.51 225.274L333.561 233.752L347.957 240.369L335.51 225.274Z" stroke="#CACACA" stroke-width="1.08"/>
<path opacity="0.5" d="M333.563 233.753L335.512 225.274L320.789 208.795L333.563 233.753Z" stroke="#CACACA" stroke-width="1.08"/>
<path opacity="0.5" d="M318.985 220.477L333.562 233.753L320.789 208.795L318.985 220.477Z" stroke="#CACACA" stroke-width="1.08"/>
<path opacity="0.5" d="M320.789 208.795L307.001 212.418L318.985 220.477L320.789 208.795Z" stroke="#CACACA" stroke-width="1.08"/>
<path opacity="0.5" d="M16.1328 240.963L10.6265 285.161L11.9523 245.761L16.1328 240.963Z" stroke="#CACACA" stroke-width="1.08"/>
<path opacity="0.5" d="M1.48997 294.937L1.75804 307.112L3.25781 293.633L1.48997 294.937Z" stroke="#CACACA" stroke-width="1.08"/>
<path opacity="0.5" d="M1.75792 307.112L1.48985 294.937L12.3359 307.771L1.75792 307.112Z" stroke="#CACACA" stroke-width="1.08"/>
<path opacity="0.5" d="M351.645 247.732L345.928 254.181L349.094 285.582L351.645 247.732Z" stroke="#CACACA" stroke-width="1.08"/>
<path opacity="0.5" d="M351.645 247.732L347.957 240.369L345.928 254.181L351.645 247.732Z" stroke="#CACACA" stroke-width="1.08"/>
<path opacity="0.5" d="M12.3366 307.771L15.0391 320.185L1.75854 307.112L12.3366 307.771Z" stroke="#CACACA" stroke-width="1.08"/>
<path opacity="0.5" d="M12.3378 307.771L36.1094 324.649L15.0403 320.185L12.3378 307.771Z" stroke="#CACACA" stroke-width="1.08"/>
<path opacity="0.5" d="M40.9492 223.592L35.7327 221.092L35.5008 231.723L40.9492 223.592Z" stroke="#CACACA" stroke-width="1.08"/>
<path opacity="0.5" d="M40.9493 223.592L45.8398 212.345L35.7328 221.092L40.9493 223.592Z" stroke="#CACACA" stroke-width="1.08"/>
<path opacity="0.5" d="M17.672 240.057L35.5025 231.723L35.7344 221.092L17.672 240.057Z" stroke="#CACACA" stroke-width="1.08"/>
<path opacity="0.5" d="M337.46 317.794L352.407 306.141L360 305.88L337.46 317.794Z" stroke="#CACACA" stroke-width="1.08"/>
<path opacity="0.5" d="M337.459 317.794L331.967 321.004L352.406 306.141L337.459 317.794Z" stroke="#CACACA" stroke-width="1.08"/>
<path opacity="0.5" d="M40.9481 223.592L57.1484 221.034L45.8386 212.345L40.9481 223.592Z" stroke="#CACACA" stroke-width="1.08"/>
<path opacity="0.5" d="M101.586 228.383L45.8411 212.345L57.151 221.034L101.586 228.383Z" stroke="#CACACA" stroke-width="1.08"/>
<path opacity="0.5" d="M158.438 218.599L45.8393 212.345L101.584 228.383L158.438 218.599Z" stroke="#CACACA" stroke-width="1.08"/>
<path opacity="0.5" d="M11.9555 245.76L10.6296 285.161L13.3828 292.415L11.9555 245.76Z" stroke="#CACACA" stroke-width="1.08"/>
<path opacity="0.5" d="M3.26124 293.633L13.3828 292.415L10.6296 285.161L3.26124 293.633Z" stroke="#CACACA" stroke-width="1.08"/>
<path opacity="0.5" d="M362.797 294.814L343.894 306.633L360 305.88L362.797 294.814Z" stroke="#CACACA" stroke-width="1.08"/>
<path opacity="0.5" d="M349.096 285.582L343.894 306.633L362.797 294.814L349.096 285.582Z" stroke="#CACACA" stroke-width="1.08"/>
<path opacity="0.5" d="M347.957 240.369L333.496 253.761L345.928 254.181L347.957 240.369Z" stroke="#CACACA" stroke-width="1.08"/>
<path opacity="0.5" d="M347.957 240.369L333.561 233.752L333.496 253.761L347.957 240.369Z" stroke="#CACACA" stroke-width="1.08"/>
<path opacity="0.5" d="M17.6719 240.057L11.9554 245.761L14.6796 252.268L17.6719 240.057Z" stroke="#CACACA" stroke-width="1.08"/>
<path opacity="0.5" d="M11.9555 245.76L13.3828 292.415L14.6797 252.268L11.9555 245.76Z" stroke="#CACACA" stroke-width="1.08"/>
<path opacity="0.5" d="M307 212.418L270.086 222.455L294.386 227.354L307 212.418Z" stroke="#CACACA" stroke-width="1.08"/>
<path opacity="0.5" d="M307.001 212.418L294.387 227.354L318.984 220.476L307.001 212.418Z" stroke="#CACACA" stroke-width="1.08"/>
<path opacity="0.5" d="M337.46 317.794L360 305.88L343.894 306.634L337.46 317.794Z" stroke="#CACACA" stroke-width="1.08"/>
<path opacity="0.5" d="M310.675 241.876L333.562 233.752L318.985 220.476L310.675 241.876Z" stroke="#CACACA" stroke-width="1.08"/>
<path opacity="0.5" d="M333.562 233.752L310.675 241.876L333.497 253.761L333.562 233.752Z" stroke="#CACACA" stroke-width="1.08"/>
<path opacity="0.5" d="M333.499 253.761L349.098 285.582L345.931 254.181L333.499 253.761Z" stroke="#CACACA" stroke-width="1.08"/>
<path opacity="0.5" d="M349.098 285.582L329.796 297.22L343.896 306.633L349.098 285.582Z" stroke="#CACACA" stroke-width="1.08"/>
<path opacity="0.5" d="M333.499 253.761L329.796 297.22L349.098 285.582L333.499 253.761Z" stroke="#CACACA" stroke-width="1.08"/>
<path opacity="0.5" d="M3.2593 293.633L17.5469 304.93L13.3809 292.415L3.2593 293.633Z" stroke="#CACACA" stroke-width="1.08"/>
<path opacity="0.5" d="M9.09766 311.67L3.258 293.633L1.75823 307.112L9.09766 311.67Z" stroke="#CACACA" stroke-width="1.08"/>
<path opacity="0.5" d="M9.09895 311.67L17.5469 304.931L3.2593 293.633L9.09895 311.67Z" stroke="#CACACA" stroke-width="1.08"/>
<path opacity="0.5" d="M14.6769 252.268L34.3477 249.732L17.6692 240.057L14.6769 252.268Z" stroke="#CACACA" stroke-width="1.08"/>
<path opacity="0.5" d="M34.348 249.732L35.5 231.723L17.6695 240.057L34.348 249.732Z" stroke="#CACACA" stroke-width="1.08"/>
<path opacity="0.5" d="M310.674 241.876L318.984 220.476L294.387 227.354L310.674 241.876Z" stroke="#CACACA" stroke-width="1.08"/>
<path opacity="0.5" d="M15.0391 320.185L9.09796 311.67L1.75854 307.112L15.0391 320.185Z" stroke="#CACACA" stroke-width="1.08"/>
<path opacity="0.5" d="M34.3487 249.732L53.5703 233.955L35.5007 231.723L34.3487 249.732Z" stroke="#CACACA" stroke-width="1.08"/>
<path opacity="0.5" d="M35.5007 231.723L53.5703 233.955L40.9491 223.593L35.5007 231.723Z" stroke="#CACACA" stroke-width="1.08"/>
<path opacity="0.5" d="M57.1484 221.034L40.9481 223.593L53.5693 233.955L57.1484 221.034Z" stroke="#CACACA" stroke-width="1.08"/>
<path opacity="0.5" d="M36.457 302.546L13.3809 292.415L17.5469 304.93L36.457 302.546Z" stroke="#CACACA" stroke-width="1.08"/>
<path opacity="0.5" d="M13.3809 292.415L36.457 302.546L30.2623 259.174L13.3809 292.415Z" stroke="#CACACA" stroke-width="1.08"/>
<path opacity="0.5" d="M30.2617 259.174L14.6773 252.268L13.3803 292.415L30.2617 259.174Z" stroke="#CACACA" stroke-width="1.08"/>
<path opacity="0.5" d="M14.6769 252.268L30.2613 259.174L34.3477 249.732L14.6769 252.268Z" stroke="#CACACA" stroke-width="1.08"/>
<path opacity="0.5" d="M312.159 253.37L299.972 265.899L333.496 253.761L312.159 253.37Z" stroke="#CACACA" stroke-width="1.08"/>
<path opacity="0.5" d="M299.972 265.899L329.794 297.22L333.496 253.761L299.972 265.899Z" stroke="#CACACA" stroke-width="1.08"/>
<path opacity="0.5" d="M312.159 253.37L333.496 253.761L310.674 241.876L312.159 253.37Z" stroke="#CACACA" stroke-width="1.08"/>
<path opacity="0.5" d="M270.086 222.455L158.437 218.6L206.082 229.492L270.086 222.455Z" stroke="#CACACA" stroke-width="1.08"/>
<path opacity="0.5" d="M101.584 228.383L206.082 229.492L158.437 218.6L101.584 228.383Z" stroke="#CACACA" stroke-width="1.08"/>
<path opacity="0.5" d="M57.151 221.034L53.5718 233.955L101.586 228.383L57.151 221.034Z" stroke="#CACACA" stroke-width="1.08"/>
<path opacity="0.5" d="M306.321 324.221L288.048 332.157L331.969 321.004L306.321 324.221Z" stroke="#CACACA" stroke-width="1.08"/>
<path opacity="0.5" d="M306.321 324.222L331.969 321.004L337.461 317.794L306.321 324.222Z" stroke="#CACACA" stroke-width="1.08"/>
<path opacity="0.5" d="M331.969 321.004L288.048 332.157L36.1097 324.649L331.969 321.004Z" stroke="#CACACA" stroke-width="1.08"/>
<path opacity="0.5" d="M295.685 303.242L300.278 314.735L343.895 306.633L295.685 303.242Z" stroke="#CACACA" stroke-width="1.08"/>
<path opacity="0.5" d="M295.685 303.242L343.895 306.634L329.795 297.22L295.685 303.242Z" stroke="#CACACA" stroke-width="1.08"/>
<path opacity="0.5" d="M343.895 306.634L300.278 314.735L337.461 317.794L343.895 306.634Z" stroke="#CACACA" stroke-width="1.08"/>
<path opacity="0.5" d="M310.675 241.876L268.834 248.275L312.16 253.37L310.675 241.876Z" stroke="#CACACA" stroke-width="1.08"/>
<path opacity="0.5" d="M268.835 248.275L310.676 241.876L294.388 227.354L268.835 248.275Z" stroke="#CACACA" stroke-width="1.08"/>
<path opacity="0.5" d="M294.387 227.354L270.086 222.455L253.48 232.521L294.387 227.354Z" stroke="#CACACA" stroke-width="1.08"/>
<path opacity="0.5" d="M253.48 232.52L268.833 248.275L294.387 227.354L253.48 232.52Z" stroke="#CACACA" stroke-width="1.08"/>
<path opacity="0.5" d="M295.682 303.242L329.793 297.22L299.972 265.899L295.682 303.242Z" stroke="#CACACA" stroke-width="1.08"/>
<path opacity="0.5" d="M43.9414 322.315L9.09911 311.67L40.9129 328.033L43.9414 322.315Z" stroke="#CACACA" stroke-width="1.08"/>
<path opacity="0.5" d="M17.547 304.93L9.09911 311.67L43.9414 322.315L17.547 304.93Z" stroke="#CACACA" stroke-width="1.08"/>
<path opacity="0.5" d="M15.0414 320.185L40.9141 328.033L9.10027 311.67L15.0414 320.185Z" stroke="#CACACA" stroke-width="1.08"/>
<path opacity="0.5" d="M15.0415 320.185L78.2344 334.447L40.9142 328.033L15.0415 320.185Z" stroke="#CACACA" stroke-width="1.08"/>
<path opacity="0.5" d="M36.1106 324.649L78.2344 334.447L15.0415 320.185L36.1106 324.649Z" stroke="#CACACA" stroke-width="1.08"/>
<path opacity="0.5" d="M219.963 339.019L36.1084 324.649L288.047 332.157L219.963 339.019Z" stroke="#CACACA" stroke-width="1.08"/>
<path opacity="0.5" d="M36.1098 324.649L117.887 339.49L78.2336 334.447L36.1098 324.649Z" stroke="#CACACA" stroke-width="1.08"/>
<path opacity="0.5" d="M219.965 339.019L117.887 339.49L36.1098 324.649L219.965 339.019Z" stroke="#CACACA" stroke-width="1.08"/>
<path opacity="0.5" d="M53.5706 233.956L77.4146 243.76L94.0352 235.492L53.5706 233.956Z" stroke="#CACACA" stroke-width="1.08"/>
<path opacity="0.5" d="M53.5718 233.955L94.0364 235.492L101.586 228.383L53.5718 233.955Z" stroke="#CACACA" stroke-width="1.08"/>
<path opacity="0.5" d="M34.3484 249.732L77.4141 243.76L53.57 233.956L34.3484 249.732Z" stroke="#CACACA" stroke-width="1.08"/>
<path opacity="0.5" d="M306.321 324.221L337.461 317.793L300.278 314.735L306.321 324.221Z" stroke="#CACACA" stroke-width="1.08"/>
<path opacity="0.5" d="M206.082 229.491L253.48 232.521L270.086 222.455L206.082 229.491Z" stroke="#CACACA" stroke-width="1.08"/>
<path opacity="0.5" d="M17.5459 304.931L56.1992 307.09L36.456 302.546L17.5459 304.931Z" stroke="#CACACA" stroke-width="1.08"/>
<path opacity="0.5" d="M17.5459 304.93L43.9403 322.315L56.1992 307.09L17.5459 304.93Z" stroke="#CACACA" stroke-width="1.08"/>
<path opacity="0.5" d="M30.2629 259.174L72.3867 257.174L34.3493 249.732L30.2629 259.174Z" stroke="#CACACA" stroke-width="1.08"/>
<path opacity="0.5" d="M77.8438 268.139L30.2643 259.174L36.459 302.546L77.8438 268.139Z" stroke="#CACACA" stroke-width="1.08"/>
<path opacity="0.5" d="M30.2643 259.174L77.8438 268.138L72.3881 257.174L30.2643 259.174Z" stroke="#CACACA" stroke-width="1.08"/>
<path opacity="0.5" d="M263.074 259.471L312.16 253.37L268.834 248.275L263.074 259.471Z" stroke="#CACACA" stroke-width="1.08"/>
<path opacity="0.5" d="M263.074 259.471L299.974 265.899L312.16 253.37L263.074 259.471Z" stroke="#CACACA" stroke-width="1.08"/>
<path opacity="0.5" d="M77.8438 268.139L36.459 302.546L56.2022 307.09L77.8438 268.139Z" stroke="#CACACA" stroke-width="1.08"/>
<path opacity="0.5" d="M245.191 271.139L295.683 303.242L299.973 265.899L245.191 271.139Z" stroke="#CACACA" stroke-width="1.08"/>
<path opacity="0.5" d="M77.4146 243.76L72.3864 257.174L129.059 248.471L77.4146 243.76Z" stroke="#CACACA" stroke-width="1.08"/>
<path opacity="0.5" d="M94.0351 235.492L77.4146 243.76L129.059 248.471L94.0351 235.492Z" stroke="#CACACA" stroke-width="1.08"/>
<path opacity="0.5" d="M206.082 229.491L101.584 228.383L148.729 235.195L206.082 229.491Z" stroke="#CACACA" stroke-width="1.08"/>
<path opacity="0.5" d="M94.0362 235.492L148.73 235.195L101.586 228.383L94.0362 235.492Z" stroke="#CACACA" stroke-width="1.08"/>
<path opacity="0.5" d="M198.612 239.296L205.611 250.739L253.48 232.521L198.612 239.296Z" stroke="#CACACA" stroke-width="1.08"/>
<path opacity="0.5" d="M205.61 250.739L268.832 248.275L253.479 232.521L205.61 250.739Z" stroke="#CACACA" stroke-width="1.08"/>
<path opacity="0.5" d="M198.612 239.296L253.48 232.521L206.082 229.491L198.612 239.296Z" stroke="#CACACA" stroke-width="1.08"/>
<path opacity="0.5" d="M295.684 303.242L245.192 271.139L231.165 314.04L295.684 303.242Z" stroke="#CACACA" stroke-width="1.08"/>
<path opacity="0.5" d="M231.165 314.04L300.277 314.735L295.684 303.242L231.165 314.04Z" stroke="#CACACA" stroke-width="1.08"/>
<path opacity="0.5" d="M40.9142 328.033L78.2344 334.447L43.9427 322.316L40.9142 328.033Z" stroke="#CACACA" stroke-width="1.08"/>
<path opacity="0.5" d="M288.048 332.157L306.32 324.221L259.958 334.215L288.048 332.157Z" stroke="#CACACA" stroke-width="1.08"/>
<path opacity="0.5" d="M259.957 334.215L219.963 339.019L288.047 332.157L259.957 334.215Z" stroke="#CACACA" stroke-width="1.08"/>
<path opacity="0.5" d="M206.082 229.491L148.729 235.195L198.612 239.296L206.082 229.491Z" stroke="#CACACA" stroke-width="1.08"/>
<path opacity="0.5" d="M300.278 314.735L262.581 328.374L306.32 324.221L300.278 314.735Z" stroke="#CACACA" stroke-width="1.08"/>
<path opacity="0.5" d="M306.32 324.221L262.581 328.374L259.958 334.215L306.32 324.221Z" stroke="#CACACA" stroke-width="1.08"/>
<path opacity="0.5" d="M82.1875 318.417L81.5861 310.757L56.1989 307.09L82.1875 318.417Z" stroke="#CACACA" stroke-width="1.08"/>
<path opacity="0.5" d="M82.1875 318.417L56.1989 307.09L43.9399 322.316L82.1875 318.417Z" stroke="#CACACA" stroke-width="1.08"/>
<path opacity="0.5" d="M77.8402 268.139L56.1987 307.09L81.5859 310.757L77.8402 268.139Z" stroke="#CACACA" stroke-width="1.08"/>
<path opacity="0.5" d="M231.165 314.04L239.251 320.337L300.277 314.735L231.165 314.04Z" stroke="#CACACA" stroke-width="1.08"/>
<path opacity="0.5" d="M300.277 314.735L239.251 320.337L262.58 328.374L300.277 314.735Z" stroke="#CACACA" stroke-width="1.08"/>
<path opacity="0.5" d="M72.386 257.174L120.675 271.849L153.25 262.856L72.386 257.174Z" stroke="#CACACA" stroke-width="1.08"/>
<path opacity="0.5" d="M72.3863 257.174L77.842 268.138L120.676 271.849L72.3863 257.174Z" stroke="#CACACA" stroke-width="1.08"/>
<path opacity="0.5" d="M95.0547 329.526L43.9395 322.316L78.2312 334.447L95.0547 329.526Z" stroke="#CACACA" stroke-width="1.08"/>
<path opacity="0.5" d="M95.0547 329.526L82.1871 318.417L43.9395 322.316L95.0547 329.526Z" stroke="#CACACA" stroke-width="1.08"/>
<path opacity="0.5" d="M148.731 235.195L129.06 248.471L205.613 250.739L148.731 235.195Z" stroke="#CACACA" stroke-width="1.08"/>
<path opacity="0.5" d="M148.731 235.195L205.613 250.739L198.614 239.296L148.731 235.195Z" stroke="#CACACA" stroke-width="1.08"/>
<path opacity="0.5" d="M199.447 267.885L245.193 271.139L263.074 259.471L199.447 267.885Z" stroke="#CACACA" stroke-width="1.08"/>
<path opacity="0.5" d="M205.613 250.739L129.06 248.471L153.252 262.856L205.613 250.739Z" stroke="#CACACA" stroke-width="1.08"/>
<path opacity="0.5" d="M81.5877 310.757L120.676 271.849L77.842 268.139L81.5877 310.757Z" stroke="#CACACA" stroke-width="1.08"/>
<path opacity="0.5" d="M205.613 250.739L153.252 262.856L199.448 267.885L205.613 250.739Z" stroke="#CACACA" stroke-width="1.08"/>
<path opacity="0.5" d="M120.957 314.214L81.5864 310.757L82.1878 318.417L120.957 314.214Z" stroke="#CACACA" stroke-width="1.08"/>
<path opacity="0.5" d="M120.957 314.214L120.674 271.849L81.5864 310.757L120.957 314.214Z" stroke="#CACACA" stroke-width="1.08"/>
<path opacity="0.5" d="M259.957 334.215L211.776 331.736L219.963 339.019L259.957 334.215Z" stroke="#CACACA" stroke-width="1.08"/>
<path opacity="0.5" d="M259.959 334.215L262.582 328.374L211.778 331.737L259.959 334.215Z" stroke="#CACACA" stroke-width="1.08"/>
<path opacity="0.5" d="M95.057 329.526L78.2336 334.447L117.887 339.49L95.057 329.526Z" stroke="#CACACA" stroke-width="1.08"/>
<path opacity="0.5" d="M117.887 339.491L219.965 339.02L165.35 340.273L117.887 339.491Z" stroke="#CACACA" stroke-width="1.08"/>
<path opacity="0.5" d="M211.778 331.736L165.35 340.273L219.965 339.019L211.778 331.736Z" stroke="#CACACA" stroke-width="1.08"/>
<path opacity="0.5" d="M139.977 332.338L82.1886 318.417L95.0561 329.526L139.977 332.338Z" stroke="#CACACA" stroke-width="1.08"/>
<path opacity="0.5" d="M139.977 332.338L120.958 314.214L82.1886 318.417L139.977 332.338Z" stroke="#CACACA" stroke-width="1.08"/>
<path opacity="0.5" d="M239.252 320.337L211.778 331.736L262.582 328.374L239.252 320.337Z" stroke="#CACACA" stroke-width="1.08"/>
<path opacity="0.5" d="M231.164 314.04L199.444 267.885L181.353 315.576L231.164 314.04Z" stroke="#CACACA" stroke-width="1.08"/>
<path opacity="0.5" d="M181.353 315.576L239.25 320.337L231.164 314.04L181.353 315.576Z" stroke="#CACACA" stroke-width="1.08"/>
<path opacity="0.5" d="M165.352 340.273L95.0584 329.526L117.888 339.49L165.352 340.273Z" stroke="#CACACA" stroke-width="1.08"/>
<path opacity="0.5" d="M153.25 262.856L120.675 271.849L152.656 273.132L153.25 262.856Z" stroke="#CACACA" stroke-width="1.08"/>
<path opacity="0.5" d="M120.676 271.849L120.958 314.214L152.656 273.132L120.676 271.849Z" stroke="#CACACA" stroke-width="1.08"/>
<path opacity="0.5" d="M152.657 273.132L120.959 314.214L181.355 315.576L152.657 273.132Z" stroke="#CACACA" stroke-width="1.08"/>
<path opacity="0.5" d="M139.978 332.338L181.355 315.576L120.959 314.214L139.978 332.338Z" stroke="#CACACA" stroke-width="1.08"/>
<path opacity="0.5" d="M181.353 315.576L187.374 322.758L239.25 320.337L181.353 315.576Z" stroke="#CACACA" stroke-width="1.08"/>
<path opacity="0.5" d="M239.25 320.337L187.374 322.758L211.776 331.736L239.25 320.337Z" stroke="#CACACA" stroke-width="1.08"/>
<path opacity="0.5" d="M152.656 273.132L181.354 315.576L199.445 267.885L152.656 273.132Z" stroke="#CACACA" stroke-width="1.08"/>
<path opacity="0.5" d="M153.25 262.856L152.656 273.132L199.445 267.885L153.25 262.856Z" stroke="#CACACA" stroke-width="1.08"/>
<path opacity="0.5" d="M165.352 340.273L139.979 332.338L95.0584 329.526L165.352 340.273Z" stroke="#CACACA" stroke-width="1.08"/>
<path opacity="0.5" d="M187.375 322.758L181.354 315.576L139.977 332.338L187.375 322.758Z" stroke="#CACACA" stroke-width="1.08"/>
<path opacity="0.5" d="M165.35 340.273L211.777 331.736L139.977 332.338L165.35 340.273Z" stroke="#CACACA" stroke-width="1.08"/>
<path opacity="0.5" d="M187.375 322.758L139.977 332.338L211.777 331.736L187.375 322.758Z" stroke="#CACACA" stroke-width="1.08"/>
<path opacity="0.5" d="M170.647 154.719L192.926 173.604L154.758 167.857L170.647 154.719Z" stroke="#CACACA" stroke-width="1.08"/>
<path opacity="0.5" d="M170.645 154.719L209.711 163.777L192.924 173.604L170.645 154.719Z" stroke="#CACACA" stroke-width="1.08"/>
<path opacity="0.5" d="M178.87 186.837L154.758 167.857L192.926 173.604L178.87 186.837Z" stroke="#CACACA" stroke-width="1.08"/>
<path opacity="0.5" d="M229.258 188.127L209.457 196.642L192.923 173.604L229.258 188.127Z" stroke="#CACACA" stroke-width="1.08"/>
<path opacity="0.5" d="M209.457 196.642L178.868 186.837L192.923 173.604L209.457 196.642Z" stroke="#CACACA" stroke-width="1.08"/>
<path opacity="0.5" d="M209.71 163.777L229.258 188.127L192.923 173.604L209.71 163.777Z" stroke="#CACACA" stroke-width="1.08"/>
<path opacity="0.5" d="M209.711 163.778L170.645 154.719L186.62 153.125L209.711 163.778Z" stroke="#CACACA" stroke-width="1.08"/>
<path opacity="0.5" d="M212.602 160.248L209.711 163.778L186.62 153.125L212.602 160.248Z" stroke="#CACACA" stroke-width="1.08"/>
<path opacity="0.5" d="M209.713 163.777L245.91 181.641L229.261 188.127L209.713 163.777Z" stroke="#CACACA" stroke-width="1.08"/>
<path opacity="0.5" d="M209.713 163.777L212.604 160.248L245.91 181.641L209.713 163.777Z" stroke="#CACACA" stroke-width="1.08"/>
<path opacity="0.5" d="M193.107 144.827L219.125 144.537L216.191 153.393L193.107 144.827Z" stroke="#CACACA" stroke-width="1.08"/>
<path opacity="0.5" d="M219.124 144.537L225.289 137.24L246.047 157.538L219.124 144.537Z" stroke="#CACACA" stroke-width="1.08"/>
<path opacity="0.5" d="M219.123 144.537L188.005 136.24L225.289 137.24L219.123 144.537Z" stroke="#CACACA" stroke-width="1.08"/>
<path opacity="0.5" d="M193.107 144.827L188.007 136.24L219.125 144.537L193.107 144.827Z" stroke="#CACACA" stroke-width="1.08"/>
<path opacity="0.5" d="M182.875 125.848L225.289 137.24L188.005 136.24L182.875 125.848Z" stroke="#CACACA" stroke-width="1.08"/>
<path opacity="0.5" d="M225.287 137.24L243.944 137.508L260.035 155.784L225.287 137.24Z" stroke="#CACACA" stroke-width="1.08"/>
<path opacity="0.5" d="M182.875 125.848L210.031 123.717L225.289 137.24L182.875 125.848Z" stroke="#CACACA" stroke-width="1.08"/>
<path opacity="0.5" d="M243.945 137.508L225.289 137.24L227.846 129.971L243.945 137.508Z" stroke="#CACACA" stroke-width="1.08"/>
<path opacity="0.5" d="M225.287 137.24L260.035 155.784L246.045 157.538L225.287 137.24Z" stroke="#CACACA" stroke-width="1.08"/>
<path opacity="0.5" d="M245.91 181.641L252.25 206.737L229.261 188.127L245.91 181.641Z" stroke="#CACACA" stroke-width="1.08"/>
<path opacity="0.5" d="M231.699 210.766L209.456 196.642L229.258 188.127L231.699 210.766Z" stroke="#CACACA" stroke-width="1.08"/>
<path opacity="0.5" d="M252.25 206.736L231.703 210.766L229.261 188.127L252.25 206.736Z" stroke="#CACACA" stroke-width="1.08"/>
<path opacity="0.5" d="M188.004 136.24L150.524 133.537L182.874 125.848L188.004 136.24Z" stroke="#CACACA" stroke-width="1.08"/>
<path opacity="0.5" d="M159.494 141.494L150.524 133.537L188.004 136.24L159.494 141.494Z" stroke="#CACACA" stroke-width="1.08"/>
<path opacity="0.5" d="M210.031 123.717L182.876 125.848L191.715 119.637L210.031 123.717Z" stroke="#CACACA" stroke-width="1.08"/>
<path opacity="0.5" d="M145.859 124.898L182.875 125.848L150.525 133.537L145.859 124.898Z" stroke="#CACACA" stroke-width="1.08"/>
<path opacity="0.5" d="M174.276 117.42L191.715 119.637L182.876 125.848L174.276 117.42Z" stroke="#CACACA" stroke-width="1.08"/>
<path opacity="0.5" d="M145.859 124.898L174.275 117.42L182.875 125.848L145.859 124.898Z" stroke="#CACACA" stroke-width="1.08"/>
<path opacity="0.5" d="M170.645 154.719L155.322 151.146L186.621 153.125L170.645 154.719Z" stroke="#CACACA" stroke-width="1.08"/>
<path opacity="0.5" d="M144.808 154.277L155.321 151.146L170.645 154.719L144.808 154.277Z" stroke="#CACACA" stroke-width="1.08"/>
<path opacity="0.5" d="M144.808 154.277L170.645 154.719L154.756 167.857L144.808 154.277Z" stroke="#CACACA" stroke-width="1.08"/>
<path opacity="0.5" d="M131.483 197.272L178.867 186.837L149.401 202.569L131.483 197.272Z" stroke="#CACACA" stroke-width="1.08"/>
<path opacity="0.5" d="M178.867 186.837L150.314 185.228L154.755 167.857L178.867 186.837Z" stroke="#CACACA" stroke-width="1.08"/>
<path opacity="0.5" d="M209.457 196.642L149.401 202.569L178.868 186.837L209.457 196.642Z" stroke="#CACACA" stroke-width="1.08"/>
<path opacity="0.5" d="M209.456 196.642L231.699 210.766L218.382 233.941L209.456 196.642Z" stroke="#CACACA" stroke-width="1.08"/>
<path opacity="0.5" d="M149.401 202.569L209.457 196.642L218.383 233.941L149.401 202.569Z" stroke="#CACACA" stroke-width="1.08"/>
<path opacity="0.5" d="M212.601 160.248L186.62 153.125L216.188 153.393L212.601 160.248Z" stroke="#CACACA" stroke-width="1.08"/>
<path opacity="0.5" d="M216.189 153.393L234.773 171.191L212.603 160.248L216.189 153.393Z" stroke="#CACACA" stroke-width="1.08"/>
<path opacity="0.5" d="M245.91 181.641L212.604 160.248L234.774 171.191L245.91 181.641Z" stroke="#CACACA" stroke-width="1.08"/>
<path opacity="0.5" d="M154.758 167.857L150.316 185.228L127.552 172.974L154.758 167.857Z" stroke="#CACACA" stroke-width="1.08"/>
<path opacity="0.5" d="M144.81 154.277L154.758 167.857L127.552 172.974L144.81 154.277Z" stroke="#CACACA" stroke-width="1.08"/>
<path opacity="0.5" d="M193.104 144.827L216.188 153.393L186.62 153.125L193.104 144.827Z" stroke="#CACACA" stroke-width="1.08"/>
<path opacity="0.5" d="M186.621 153.125L159.495 141.494L193.105 144.827L186.621 153.125Z" stroke="#CACACA" stroke-width="1.08"/>
<path opacity="0.5" d="M242.048 164.683L216.189 153.393L246.047 157.538L242.048 164.683Z" stroke="#CACACA" stroke-width="1.08"/>
<path opacity="0.5" d="M186.621 153.125L155.322 151.146L159.495 141.494L186.621 153.125Z" stroke="#CACACA" stroke-width="1.08"/>
<path opacity="0.5" d="M246.048 157.538L268.117 177.264L242.049 164.683L246.048 157.538Z" stroke="#CACACA" stroke-width="1.08"/>
<path opacity="0.5" d="M260.039 155.784L268.117 177.264L246.048 157.538L260.039 155.784Z" stroke="#CACACA" stroke-width="1.08"/>
<path opacity="0.5" d="M210.032 123.717L221.414 65.8372L227.848 129.971L210.032 123.717Z" stroke="#CACACA" stroke-width="1.08"/>
<path opacity="0.5" d="M191.716 119.637L221.414 65.8372L210.032 123.717L191.716 119.637Z" stroke="#CACACA" stroke-width="1.08"/>
<path opacity="0.5" d="M253.277 187.083L258.863 196.127L245.909 181.641L253.277 187.083Z" stroke="#CACACA" stroke-width="1.08"/>
<path opacity="0.5" d="M234.773 171.191L253.277 187.083L245.909 181.641L234.773 171.191Z" stroke="#CACACA" stroke-width="1.08"/>
<path opacity="0.5" d="M258.863 196.127L252.248 206.737L245.909 181.641L258.863 196.127Z" stroke="#CACACA" stroke-width="1.08"/>
<path opacity="0.5" d="M227.845 129.971L221.411 65.8372L262.883 83.9324L227.845 129.971Z" stroke="#CACACA" stroke-width="1.08"/>
<path opacity="0.5" d="M227.845 129.971L262.883 83.9324L243.944 137.508L227.845 129.971Z" stroke="#CACACA" stroke-width="1.08"/>
<path opacity="0.5" d="M234.773 171.191L257.312 179.474L253.277 187.083L234.773 171.191Z" stroke="#CACACA" stroke-width="1.08"/>
<path opacity="0.5" d="M234.773 171.191L242.047 164.683L257.312 179.474L234.773 171.191Z" stroke="#CACACA" stroke-width="1.08"/>
<path opacity="0.5" d="M260.037 155.784L276.273 176.09L268.115 177.264L260.037 155.784Z" stroke="#CACACA" stroke-width="1.08"/>
<path opacity="0.5" d="M261.102 150.211L276.273 176.09L260.037 155.784L261.102 150.211Z" stroke="#CACACA" stroke-width="1.08"/>
<path opacity="0.5" d="M243.945 137.508L261.102 150.211L260.037 155.784L243.945 137.508Z" stroke="#CACACA" stroke-width="1.08"/>
<path opacity="0.5" d="M257.315 179.474L242.049 164.683L268.117 177.264L257.315 179.474Z" stroke="#CACACA" stroke-width="1.08"/>
<path opacity="0.5" d="M243.944 137.508L262.883 83.9324L261.1 150.212L243.944 137.508Z" stroke="#CACACA" stroke-width="1.08"/>
<path opacity="0.5" d="M150.316 185.228L131.486 197.272L127.552 172.974L150.316 185.228Z" stroke="#CACACA" stroke-width="1.08"/>
<path opacity="0.5" d="M140.888 154.342L155.32 151.146L144.807 154.277L140.888 154.342Z" stroke="#CACACA" stroke-width="1.08"/>
<path opacity="0.5" d="M140.889 154.342L144.809 154.277L126.362 162.719L140.889 154.342Z" stroke="#CACACA" stroke-width="1.08"/>
<path opacity="0.5" d="M127.55 172.974L126.362 162.719L144.809 154.277L127.55 172.974Z" stroke="#CACACA" stroke-width="1.08"/>
<path opacity="0.5" d="M231.701 210.766L235.766 231.673L218.384 233.941L231.701 210.766Z" stroke="#CACACA" stroke-width="1.08"/>
<path opacity="0.5" d="M252.25 206.736L235.767 231.673L231.703 210.766L252.25 206.736Z" stroke="#CACACA" stroke-width="1.08"/>
<path opacity="0.5" d="M140.89 154.342L159.496 141.494L155.323 151.146L140.89 154.342Z" stroke="#CACACA" stroke-width="1.08"/>
<path opacity="0.5" d="M138.091 147.574L128.23 141.994L150.523 133.537L138.091 147.574Z" stroke="#CACACA" stroke-width="1.08"/>
<path opacity="0.5" d="M150.523 133.537L128.23 141.994L145.858 124.898L150.523 133.537Z" stroke="#CACACA" stroke-width="1.08"/>
<path opacity="0.5" d="M262.883 83.9323L221.411 65.8371L249.82 62.8369L262.883 83.9323Z" stroke="#CACACA" stroke-width="1.08"/>
<path opacity="0.5" d="M218.102 53.677L262.059 58.1265L249.821 62.8369L218.102 53.677Z" stroke="#CACACA" stroke-width="1.08"/>
<path opacity="0.5" d="M262.886 83.9323L249.823 62.8369L282.137 78.8088L262.886 83.9323Z" stroke="#CACACA" stroke-width="1.08"/>
<path opacity="0.5" d="M218.101 53.677L249.82 62.8369L221.412 65.8371L218.101 53.677Z" stroke="#CACACA" stroke-width="1.08"/>
<path opacity="0.5" d="M249.823 62.8369L262.06 58.1265L282.137 78.8088L249.823 62.8369Z" stroke="#CACACA" stroke-width="1.08"/>
<path opacity="0.5" d="M187.411 52.5029L192.932 40.2485L218.102 53.6768L187.411 52.5029Z" stroke="#CACACA" stroke-width="1.08"/>
<path opacity="0.5" d="M221.414 65.837L187.412 52.5029L218.103 53.6769L221.414 65.837Z" stroke="#CACACA" stroke-width="1.08"/>
<path opacity="0.5" d="M218.102 53.677L224.036 45.2708L262.059 58.1266L218.102 53.677Z" stroke="#CACACA" stroke-width="1.08"/>
<path opacity="0.5" d="M192.931 40.2485L224.035 45.2706L218.101 53.6768L192.931 40.2485Z" stroke="#CACACA" stroke-width="1.08"/>
<path opacity="0.5" d="M174.273 117.42L145.858 124.898L159.529 117.949L174.273 117.42Z" stroke="#CACACA" stroke-width="1.08"/>
<path opacity="0.5" d="M192.931 40.2486L203.205 40.0022L224.035 45.2706L192.931 40.2486Z" stroke="#CACACA" stroke-width="1.08"/>
<path opacity="0.5" d="M224.034 45.2706L203.204 40.0022L246.422 50.4883L224.034 45.2706Z" stroke="#CACACA" stroke-width="1.08"/>
<path opacity="0.5" d="M224.036 45.2708L246.423 50.4884L262.059 58.1266L224.036 45.2708Z" stroke="#CACACA" stroke-width="1.08"/>
<path opacity="0.5" d="M140.89 154.342L138.094 147.574L159.496 141.494L140.89 154.342Z" stroke="#CACACA" stroke-width="1.08"/>
<path opacity="0.5" d="M252.25 206.736L254.988 223.853L235.767 231.673L252.25 206.736Z" stroke="#CACACA" stroke-width="1.08"/>
<path opacity="0.5" d="M258.863 196.127L254.987 223.853L252.248 206.736L258.863 196.127Z" stroke="#CACACA" stroke-width="1.08"/>
<path opacity="0.5" d="M195.07 65.2863L187.412 52.5029L221.414 65.837L195.07 65.2863Z" stroke="#CACACA" stroke-width="1.08"/>
<path opacity="0.5" d="M262.06 58.1264L246.425 50.4883L275.746 64.4746L262.06 58.1264Z" stroke="#CACACA" stroke-width="1.08"/>
<path opacity="0.5" d="M262.059 58.1265L275.745 64.4747L292.793 76.1347L262.059 58.1265Z" stroke="#CACACA" stroke-width="1.08"/>
<path opacity="0.5" d="M262.059 58.1265L292.793 76.1347L282.135 78.8088L262.059 58.1265Z" stroke="#CACACA" stroke-width="1.08"/>
<path opacity="0.5" d="M147.823 120.674L159.531 117.949L145.86 124.898L147.823 120.674Z" stroke="#CACACA" stroke-width="1.08"/>
<path opacity="0.5" d="M126.139 135.102L147.824 120.674L145.861 124.898L126.139 135.102Z" stroke="#CACACA" stroke-width="1.08"/>
<path opacity="0.5" d="M126.138 135.102L145.859 124.898L128.232 141.994L126.138 135.102Z" stroke="#CACACA" stroke-width="1.08"/>
<path opacity="0.5" d="M183.884 39.5166L203.207 40.0021L192.933 40.2485L183.884 39.5166Z" stroke="#CACACA" stroke-width="1.08"/>
<path opacity="0.5" d="M161.471 41.8646L192.93 40.2485L163.659 50.1332L161.471 41.8646Z" stroke="#CACACA" stroke-width="1.08"/>
<path opacity="0.5" d="M161.471 41.8646L183.88 39.5166L192.93 40.2485L161.471 41.8646Z" stroke="#CACACA" stroke-width="1.08"/>
<path opacity="0.5" d="M187.409 52.5029L163.659 50.1332L192.93 40.2485L187.409 52.5029Z" stroke="#CACACA" stroke-width="1.08"/>
<path opacity="0.5" d="M159.532 117.949L170.697 61.3223L195.07 65.2863L159.532 117.949Z" stroke="#CACACA" stroke-width="1.08"/>
<path opacity="0.5" d="M161.124 68.5546L170.695 61.3223L159.53 117.949L161.124 68.5546Z" stroke="#CACACA" stroke-width="1.08"/>
<path opacity="0.5" d="M159.531 117.949L147.823 120.674L161.125 68.5547L159.531 117.949Z" stroke="#CACACA" stroke-width="1.08"/>
<path opacity="0.5" d="M187.412 52.5029L195.07 65.2863L170.697 61.3223L187.412 52.5029Z" stroke="#CACACA" stroke-width="1.08"/>
<path opacity="0.5" d="M261.082 209.171L254.989 223.853L258.865 196.127L261.082 209.171Z" stroke="#CACACA" stroke-width="1.08"/>
<path opacity="0.5" d="M253.279 187.083L261.082 209.171L258.865 196.127L253.279 187.083Z" stroke="#CACACA" stroke-width="1.08"/>
<path opacity="0.5" d="M127.55 172.974L131.484 197.272L120.776 187.743L127.55 172.974Z" stroke="#CACACA" stroke-width="1.08"/>
<path opacity="0.5" d="M126.363 162.719L127.551 172.974L120.777 187.743L126.363 162.719Z" stroke="#CACACA" stroke-width="1.08"/>
<path opacity="0.5" d="M258.188 26.516L232.873 29.0452L257.093 15.9285L258.188 26.516Z" stroke="#CACACA" stroke-width="1.08"/>
<path opacity="0.5" d="M219.1 5.89893L257.094 15.9285L232.873 29.0452L219.1 5.89893Z" stroke="#CACACA" stroke-width="1.08"/>
<path opacity="0.5" d="M205.989 25.5376L232.876 29.045L238.477 34.1106L205.989 25.5376Z" stroke="#CACACA" stroke-width="1.08"/>
<path opacity="0.5" d="M238.476 34.1107L232.875 29.0452L269.449 42.1329L238.476 34.1107Z" stroke="#CACACA" stroke-width="1.08"/>
<path opacity="0.5" d="M269.449 42.1327L232.875 29.045L258.19 26.5159L269.449 42.1327Z" stroke="#CACACA" stroke-width="1.08"/>
<path opacity="0.5" d="M232.875 29.045L205.988 25.5375L218.819 15.6819L232.875 29.045Z" stroke="#CACACA" stroke-width="1.08"/>
<path opacity="0.5" d="M262.883 83.9324L298.551 92.7155L282.264 100.854L262.883 83.9324Z" stroke="#CACACA" stroke-width="1.08"/>
<path opacity="0.5" d="M262.883 83.9323L282.133 78.8088L298.551 92.7154L262.883 83.9323Z" stroke="#CACACA" stroke-width="1.08"/>
<path opacity="0.5" d="M259.492 191.04L253.276 187.083L257.311 179.474L259.492 191.04Z" stroke="#CACACA" stroke-width="1.08"/>
<path opacity="0.5" d="M253.279 187.083L252.272 202.011L261.082 209.171L253.279 187.083Z" stroke="#CACACA" stroke-width="1.08"/>
<path opacity="0.5" d="M259.492 191.04L252.269 202.011L253.276 187.083L259.492 191.04Z" stroke="#CACACA" stroke-width="1.08"/>
<path opacity="0.5" d="M187.41 52.503L170.695 61.3223L163.66 50.1333L187.41 52.503Z" stroke="#CACACA" stroke-width="1.08"/>
<path opacity="0.5" d="M261.102 150.211L282.266 100.854L269.108 162.799L261.102 150.211Z" stroke="#CACACA" stroke-width="1.08"/>
<path opacity="0.5" d="M261.102 150.211L273.817 173.365L276.273 176.09L261.102 150.211Z" stroke="#CACACA" stroke-width="1.08"/>
<path opacity="0.5" d="M269.107 162.799L273.816 173.365L261.101 150.211L269.107 162.799Z" stroke="#CACACA" stroke-width="1.08"/>
<path opacity="0.5" d="M257.096 15.9285L269.449 42.1329L258.19 26.516L257.096 15.9285Z" stroke="#CACACA" stroke-width="1.08"/>
<path opacity="0.5" d="M203.204 40.0022L238.474 34.1106L246.422 50.4883L203.204 40.0022Z" stroke="#CACACA" stroke-width="1.08"/>
<path opacity="0.5" d="M246.425 50.4885L263.552 43.1475L275.746 64.4748L246.425 50.4885Z" stroke="#CACACA" stroke-width="1.08"/>
<path opacity="0.5" d="M238.475 34.1106L263.551 43.1473L246.423 50.4883L238.475 34.1106Z" stroke="#CACACA" stroke-width="1.08"/>
<path opacity="0.5" d="M268.115 177.264L276.273 176.09L267.058 194.272L268.115 177.264Z" stroke="#CACACA" stroke-width="1.08"/>
<path opacity="0.5" d="M268.117 177.264L267.059 194.272L257.315 179.474L268.117 177.264Z" stroke="#CACACA" stroke-width="1.08"/>
<path opacity="0.5" d="M282.133 78.8088L292.791 76.1348L298.551 92.7154L282.133 78.8088Z" stroke="#CACACA" stroke-width="1.08"/>
<path opacity="0.5" d="M194.266 14.6675L218.82 15.682L205.989 25.5377L194.266 14.6675Z" stroke="#CACACA" stroke-width="1.08"/>
<path opacity="0.5" d="M218.819 15.6821L194.265 14.6675L219.102 5.89893L218.819 15.6821Z" stroke="#CACACA" stroke-width="1.08"/>
<path opacity="0.5" d="M133.095 166.452L138.094 147.574L140.891 154.342L133.095 166.452Z" stroke="#CACACA" stroke-width="1.08"/>
<path opacity="0.5" d="M133.095 166.451L140.891 154.342L126.364 162.719L133.095 166.451Z" stroke="#CACACA" stroke-width="1.08"/>
<path opacity="0.5" d="M238.476 34.1106L269.449 42.1328L263.552 43.1473L238.476 34.1106Z" stroke="#CACACA" stroke-width="1.08"/>
<path opacity="0.5" d="M205.989 25.5376L238.477 34.1106L203.207 40.0022L205.989 25.5376Z" stroke="#CACACA" stroke-width="1.08"/>
<path opacity="0.5" d="M259.495 191.04L257.314 179.474L267.059 194.272L259.495 191.04Z" stroke="#CACACA" stroke-width="1.08"/>
<path opacity="0.5" d="M283.18 54.1915L269.45 42.1328L297.699 60.0179L283.18 54.1915Z" stroke="#CACACA" stroke-width="1.08"/>
<path opacity="0.5" d="M297.699 60.0178L269.45 42.1327L291.555 40.7051L297.699 60.0178Z" stroke="#CACACA" stroke-width="1.08"/>
<path opacity="0.5" d="M291.555 40.7052L269.45 42.1328L285.867 26.4797L291.555 40.7052Z" stroke="#CACACA" stroke-width="1.08"/>
<path opacity="0.5" d="M283.18 54.1915L263.552 43.1474L269.45 42.1328L283.18 54.1915Z" stroke="#CACACA" stroke-width="1.08"/>
<path opacity="0.5" d="M257.096 15.9285L285.867 26.4798L269.449 42.1329L257.096 15.9285Z" stroke="#CACACA" stroke-width="1.08"/>
<path opacity="0.5" d="M257.096 15.9283L248.772 7.50757L285.867 26.4797L257.096 15.9283Z" stroke="#CACACA" stroke-width="1.08"/>
<path opacity="0.5" d="M219.1 5.89893L248.769 7.50771L257.094 15.9285L219.1 5.89893Z" stroke="#CACACA" stroke-width="1.08"/>
<path opacity="0.5" d="M183.884 39.5166L186.05 24.9868L203.207 40.0022L183.884 39.5166Z" stroke="#CACACA" stroke-width="1.08"/>
<path opacity="0.5" d="M203.206 40.0022L186.049 24.9868L205.988 25.5376L203.206 40.0022Z" stroke="#CACACA" stroke-width="1.08"/>
<path opacity="0.5" d="M263.552 43.1475L283.18 54.1916L275.746 64.4748L263.552 43.1475Z" stroke="#CACACA" stroke-width="1.08"/>
<path opacity="0.5" d="M219.1 5.89884L216.637 0.543457L248.77 7.50762L219.1 5.89884Z" stroke="#CACACA" stroke-width="1.08"/>
<path opacity="0.5" d="M187.433 3.3335L219.102 5.89886L194.265 14.6675L187.433 3.3335Z" stroke="#CACACA" stroke-width="1.08"/>
<path opacity="0.5" d="M187.433 3.33347L216.638 0.543457L219.102 5.89884L187.433 3.33347Z" stroke="#CACACA" stroke-width="1.08"/>
<path opacity="0.5" d="M186.049 24.9869L194.266 14.6675L205.988 25.5377L186.049 24.9869Z" stroke="#CACACA" stroke-width="1.08"/>
<path opacity="0.5" d="M147.824 120.674L126.139 135.102L140.449 129.254L147.824 120.674Z" stroke="#CACACA" stroke-width="1.08"/>
<path opacity="0.5" d="M140.447 129.254L161.125 68.5547L147.823 120.674L140.447 129.254Z" stroke="#CACACA" stroke-width="1.08"/>
<path opacity="0.5" d="M120.777 187.743L124.182 174.655L126.363 162.719L120.777 187.743Z" stroke="#CACACA" stroke-width="1.08"/>
<path opacity="0.5" d="M133.094 166.452L126.363 162.719L124.182 174.655L133.094 166.452Z" stroke="#CACACA" stroke-width="1.08"/>
<path opacity="0.5" d="M292.792 76.1347L288.989 75.5115L301.117 93.4038L292.792 76.1347Z" stroke="#CACACA" stroke-width="1.08"/>
<path opacity="0.5" d="M292.793 76.1347L275.745 64.4746L288.989 75.5115L292.793 76.1347Z" stroke="#CACACA" stroke-width="1.08"/>
<path opacity="0.5" d="M292.792 76.1348L301.117 93.4039L298.552 92.7154L292.792 76.1348Z" stroke="#CACACA" stroke-width="1.08"/>
<path opacity="0.5" d="M276.273 176.09L273.817 173.365L267.021 192.728L276.273 176.09Z" stroke="#CACACA" stroke-width="1.08"/>
<path opacity="0.5" d="M276.273 176.09L267.021 192.728L267.058 194.272L276.273 176.09Z" stroke="#CACACA" stroke-width="1.08"/>
<path opacity="0.5" d="M133.095 166.452L134.66 157.074L138.094 147.574L133.095 166.452Z" stroke="#CACACA" stroke-width="1.08"/>
<path opacity="0.5" d="M134.66 157.074L128.233 141.994L138.094 147.574L134.66 157.074Z" stroke="#CACACA" stroke-width="1.08"/>
<path opacity="0.5" d="M275.744 64.4746L283.178 54.1914L288.988 75.5115L275.744 64.4746Z" stroke="#CACACA" stroke-width="1.08"/>
<path opacity="0.5" d="M186.05 24.9869L175.87 16.1096L194.266 14.6675L186.05 24.9869Z" stroke="#CACACA" stroke-width="1.08"/>
<path opacity="0.5" d="M175.87 16.1096L187.433 3.3335L194.266 14.6675L175.87 16.1096Z" stroke="#CACACA" stroke-width="1.08"/>
<path opacity="0.5" d="M216.637 0.543457L241.213 6.56554L248.77 7.50762L216.637 0.543457Z" stroke="#CACACA" stroke-width="1.08"/>
<path opacity="0.5" d="M248.772 7.50751L241.215 6.56543L284.18 24.0882L248.772 7.50751Z" stroke="#CACACA" stroke-width="1.08"/>
<path opacity="0.5" d="M285.867 26.4797L248.772 7.50757L284.179 24.0882L285.867 26.4797Z" stroke="#CACACA" stroke-width="1.08"/>
<path opacity="0.5" d="M149.59 56.525L163.66 50.1333L170.695 61.3223L149.59 56.525Z" stroke="#CACACA" stroke-width="1.08"/>
<path opacity="0.5" d="M170.695 61.3223L161.124 68.5546L156.038 69.5111L170.695 61.3223Z" stroke="#CACACA" stroke-width="1.08"/>
<path opacity="0.5" d="M149.59 56.5249L170.695 61.3223L156.038 69.5112L149.59 56.5249Z" stroke="#CACACA" stroke-width="1.08"/>
<path opacity="0.5" d="M291.552 40.7052L285.865 26.4797L298.906 37.8644L291.552 40.7052Z" stroke="#CACACA" stroke-width="1.08"/>
<path opacity="0.5" d="M291.553 40.7051L307.051 52.7203L297.697 60.0178L291.553 40.7051Z" stroke="#CACACA" stroke-width="1.08"/>
<path opacity="0.5" d="M291.553 40.7052L298.907 37.8645L307.051 52.7204L291.553 40.7052Z" stroke="#CACACA" stroke-width="1.08"/>
<path opacity="0.5" d="M141.395 212.259L149.401 202.57L189.199 234.224L141.395 212.259Z" stroke="#CACACA" stroke-width="1.08"/>
<path opacity="0.5" d="M189.199 234.224L149.401 202.57L218.383 233.941L189.199 234.224Z" stroke="#CACACA" stroke-width="1.08"/>
<path opacity="0.5" d="M161.472 41.8647L163.66 50.1333L149.59 56.525L161.472 41.8647Z" stroke="#CACACA" stroke-width="1.08"/>
<path opacity="0.5" d="M128.233 141.994L128.82 158.994L126.14 135.102L128.233 141.994Z" stroke="#CACACA" stroke-width="1.08"/>
<path opacity="0.5" d="M134.66 157.074L128.821 158.995L128.234 141.994L134.66 157.074Z" stroke="#CACACA" stroke-width="1.08"/>
<path opacity="0.5" d="M285.867 26.4798L284.179 24.0884L301.336 39.7342L285.867 26.4798Z" stroke="#CACACA" stroke-width="1.08"/>
<path opacity="0.5" d="M285.867 26.4797L301.336 39.7341L298.909 37.8644L285.867 26.4797Z" stroke="#CACACA" stroke-width="1.08"/>
<path opacity="0.5" d="M120.775 187.743L131.483 197.272L141.395 212.259L120.775 187.743Z" stroke="#CACACA" stroke-width="1.08"/>
<path opacity="0.5" d="M170.682 42.9371L183.883 39.5166L161.473 41.8646L170.682 42.9371Z" stroke="#CACACA" stroke-width="1.08"/>
<path opacity="0.5" d="M170.68 42.9371L186.047 24.9868L183.881 39.5166L170.68 42.9371Z" stroke="#CACACA" stroke-width="1.08"/>
<path opacity="0.5" d="M297.699 60.0178L295.786 67.5183L283.18 54.1914L297.699 60.0178Z" stroke="#CACACA" stroke-width="1.08"/>
<path opacity="0.5" d="M288.989 75.5115L283.178 54.1914L295.785 67.5183L288.989 75.5115Z" stroke="#CACACA" stroke-width="1.08"/>
<path opacity="0.5" d="M273.816 173.365L269.107 162.799L266.057 172.597L273.816 173.365Z" stroke="#CACACA" stroke-width="1.08"/>
<path opacity="0.5" d="M282.265 100.854L286.301 110.398L269.108 162.799L282.265 100.854Z" stroke="#CACACA" stroke-width="1.08"/>
<path opacity="0.5" d="M269.108 162.799L286.301 110.397L266.058 172.597L269.108 162.799Z" stroke="#CACACA" stroke-width="1.08"/>
<path opacity="0.5" d="M192.23 2.65227L241.215 6.56554L216.639 0.543457L192.23 2.65227Z" stroke="#CACACA" stroke-width="1.08"/>
<path opacity="0.5" d="M192.228 2.65227L216.637 0.543457L187.431 3.33347L192.228 2.65227Z" stroke="#CACACA" stroke-width="1.08"/>
<path opacity="0.5" d="M254.988 223.853L235.202 233.629L235.767 231.673L254.988 223.853Z" stroke="#CACACA" stroke-width="1.08"/>
<path opacity="0.5" d="M252.728 213.49L254.989 223.853L261.082 209.171L252.728 213.49Z" stroke="#CACACA" stroke-width="1.08"/>
<path opacity="0.5" d="M252.728 213.49L235.202 233.629L254.988 223.853L252.728 213.49Z" stroke="#CACACA" stroke-width="1.08"/>
<path opacity="0.5" d="M252.272 202.011L252.728 213.49L261.082 209.171L252.272 202.011Z" stroke="#CACACA" stroke-width="1.08"/>
<path opacity="0.5" d="M282.265 100.853L298.552 92.7153L300.516 103.817L282.265 100.853Z" stroke="#CACACA" stroke-width="1.08"/>
<path opacity="0.5" d="M282.265 100.854L300.516 103.817L286.3 110.398L282.265 100.854Z" stroke="#CACACA" stroke-width="1.08"/>
<path opacity="0.5" d="M170.68 42.9371L172.658 28.4073L186.047 24.9868L170.68 42.9371Z" stroke="#CACACA" stroke-width="1.08"/>
<path opacity="0.5" d="M175.867 16.1096L186.047 24.9869L172.658 28.4074L175.867 16.1096Z" stroke="#CACACA" stroke-width="1.08"/>
<path opacity="0.5" d="M235.2 233.629L218.384 233.941L235.766 231.673L235.2 233.629Z" stroke="#CACACA" stroke-width="1.08"/>
<path opacity="0.5" d="M300.516 103.817L298.552 92.7153L301.117 93.4038L300.516 103.817Z" stroke="#CACACA" stroke-width="1.08"/>
<path opacity="0.5" d="M170.68 42.9373L161.471 41.8647L149.755 51.8146L170.68 42.9373Z" stroke="#CACACA" stroke-width="1.08"/>
<path opacity="0.5" d="M161.473 41.8647L149.59 56.525L149.757 51.8146L161.473 41.8647Z" stroke="#CACACA" stroke-width="1.08"/>
<path opacity="0.5" d="M128.806 151.885L126.14 135.102L128.82 158.994L128.806 151.885Z" stroke="#CACACA" stroke-width="1.08"/>
<path opacity="0.5" d="M128.802 151.885L140.445 129.254L126.136 135.102L128.802 151.885Z" stroke="#CACACA" stroke-width="1.08"/>
<path opacity="0.5" d="M248.516 199.171L252.269 202.011L259.492 191.04L248.516 199.171Z" stroke="#CACACA" stroke-width="1.08"/>
<path opacity="0.5" d="M267.059 194.272L248.518 199.171L259.495 191.04L267.059 194.272Z" stroke="#CACACA" stroke-width="1.08"/>
<path opacity="0.5" d="M284.179 24.0882L241.214 6.56543L286.91 41.9515L284.179 24.0882Z" stroke="#CACACA" stroke-width="1.08"/>
<path opacity="0.5" d="M192.23 2.65234L201.134 20.8563L241.215 6.56561L192.23 2.65234Z" stroke="#CACACA" stroke-width="1.08"/>
<path opacity="0.5" d="M201.134 20.8561L264.168 43.0748L241.215 6.56543L201.134 20.8561Z" stroke="#CACACA" stroke-width="1.08"/>
<path opacity="0.5" d="M286.91 41.9515L241.214 6.56543L264.167 43.0748L286.91 41.9515Z" stroke="#CACACA" stroke-width="1.08"/>
<path opacity="0.5" d="M273.816 173.365L266.057 172.597L265.441 184.605L273.816 173.365Z" stroke="#CACACA" stroke-width="1.08"/>
<path opacity="0.5" d="M273.816 173.365L265.441 184.605L267.02 192.728L273.816 173.365Z" stroke="#CACACA" stroke-width="1.08"/>
<path opacity="0.5" d="M297.696 60.0178L302.492 67.7719L295.783 67.5182L297.696 60.0178Z" stroke="#CACACA" stroke-width="1.08"/>
<path opacity="0.5" d="M307.051 52.7205L302.494 67.772L297.697 60.018L307.051 52.7205Z" stroke="#CACACA" stroke-width="1.08"/>
<path opacity="0.5" d="M301.334 39.7342L307.051 52.7204L298.907 37.8645L301.334 39.7342Z" stroke="#CACACA" stroke-width="1.08"/>
<path opacity="0.5" d="M156.039 69.5113L161.125 68.5547L140.447 129.254L156.039 69.5113Z" stroke="#CACACA" stroke-width="1.08"/>
<path opacity="0.5" d="M252.27 202.011L231.092 208.968L252.727 213.49L252.27 202.011Z" stroke="#CACACA" stroke-width="1.08"/>
<path opacity="0.5" d="M248.517 199.171L231.092 208.968L252.27 202.011L248.517 199.171Z" stroke="#CACACA" stroke-width="1.08"/>
<path opacity="0.5" d="M167.002 19.0083L187.434 3.3335L175.87 16.1096L167.002 19.0083Z" stroke="#CACACA" stroke-width="1.08"/>
<path opacity="0.5" d="M167.002 19.0083L171.393 10.1455L187.434 3.3335L167.002 19.0083Z" stroke="#CACACA" stroke-width="1.08"/>
<path opacity="0.5" d="M192.23 2.65234L187.434 3.33354L171.393 10.1455L192.23 2.65234Z" stroke="#CACACA" stroke-width="1.08"/>
<path opacity="0.5" d="M130.541 202.222L120.775 187.743L141.395 212.259L130.541 202.222Z" stroke="#CACACA" stroke-width="1.08"/>
<path opacity="0.5" d="M137.672 190.656L120.776 187.743L130.543 202.222L137.672 190.656Z" stroke="#CACACA" stroke-width="1.08"/>
<path opacity="0.5" d="M137.672 190.656L124.181 174.655L120.776 187.743L137.672 190.656Z" stroke="#CACACA" stroke-width="1.08"/>
<path opacity="0.5" d="M175.867 16.1096L172.658 28.4074L166.999 19.0083L175.867 16.1096Z" stroke="#CACACA" stroke-width="1.08"/>
<path opacity="0.5" d="M295.785 67.5183L287.685 88.0195L288.989 75.5115L295.785 67.5183Z" stroke="#CACACA" stroke-width="1.08"/>
<path opacity="0.5" d="M288.989 75.5115L287.685 88.0194L301.117 93.4038L288.989 75.5115Z" stroke="#CACACA" stroke-width="1.08"/>
<path opacity="0.5" d="M142.352 182.003L141.714 169.227L133.092 166.451L142.352 182.003Z" stroke="#CACACA" stroke-width="1.08"/>
<path opacity="0.5" d="M141.715 169.227L134.658 157.074L133.093 166.452L141.715 169.227Z" stroke="#CACACA" stroke-width="1.08"/>
<path opacity="0.5" d="M124.181 174.655L142.352 182.003L133.092 166.451L124.181 174.655Z" stroke="#CACACA" stroke-width="1.08"/>
<path opacity="0.5" d="M143.723 140.762L140.448 129.254L128.805 151.885L143.723 140.762Z" stroke="#CACACA" stroke-width="1.08"/>
<path opacity="0.5" d="M143.722 140.762L156.039 69.5112L140.447 129.254L143.722 140.762Z" stroke="#CACACA" stroke-width="1.08"/>
<path opacity="0.5" d="M128.818 158.995L134.658 157.074L141.715 169.227L128.818 158.995Z" stroke="#CACACA" stroke-width="1.08"/>
<path opacity="0.5" d="M267.059 194.272L249.59 201.809L248.518 199.171L267.059 194.272Z" stroke="#CACACA" stroke-width="1.08"/>
<path opacity="0.5" d="M267.022 192.728L249.59 201.809L267.059 194.272L267.022 192.728Z" stroke="#CACACA" stroke-width="1.08"/>
<path opacity="0.5" d="M301.336 39.7342L284.179 24.0884L286.911 41.9517L301.336 39.7342Z" stroke="#CACACA" stroke-width="1.08"/>
<path opacity="0.5" d="M166.036 47.6549L170.68 42.9373L149.755 51.8146L166.036 47.6549Z" stroke="#CACACA" stroke-width="1.08"/>
<path opacity="0.5" d="M172.66 28.4075L170.682 42.9373L166.038 47.6549L172.66 28.4075Z" stroke="#CACACA" stroke-width="1.08"/>
<path opacity="0.5" d="M235.199 233.629L209.254 233.941H218.383L235.199 233.629Z" stroke="#CACACA" stroke-width="1.08"/>
<path opacity="0.5" d="M209.254 233.941L189.199 234.224L218.383 233.941H209.254Z" stroke="#CACACA" stroke-width="1.08"/>
<path opacity="0.5" d="M124.181 174.655L137.671 190.656L142.352 182.003L124.181 174.655Z" stroke="#CACACA" stroke-width="1.08"/>
<path opacity="0.5" d="M266.059 172.597L241.715 188.743L265.443 184.605L266.059 172.597Z" stroke="#CACACA" stroke-width="1.08"/>
<path opacity="0.5" d="M271.215 150.907L258.253 168.285L266.056 172.597L271.215 150.907Z" stroke="#CACACA" stroke-width="1.08"/>
<path opacity="0.5" d="M266.059 172.597L258.255 168.285L241.715 188.743L266.059 172.597Z" stroke="#CACACA" stroke-width="1.08"/>
<path opacity="0.5" d="M276.273 131.131L271.216 150.907L266.058 172.597L276.273 131.131Z" stroke="#CACACA" stroke-width="1.08"/>
<path opacity="0.5" d="M276.273 131.131L266.058 172.597L286.301 110.397L276.273 131.131Z" stroke="#CACACA" stroke-width="1.08"/>
<path opacity="0.5" d="M172.66 28.4075L166.038 47.6549L168.625 37.4297L172.66 28.4075Z" stroke="#CACACA" stroke-width="1.08"/>
<path opacity="0.5" d="M168.625 37.4296L167.002 19.0083L172.66 28.4074L168.625 37.4296Z" stroke="#CACACA" stroke-width="1.08"/>
<path opacity="0.5" d="M227.238 217.549L252.727 213.491L231.092 208.969L227.238 217.549Z" stroke="#CACACA" stroke-width="1.08"/>
<path opacity="0.5" d="M227.238 217.549L242.779 219.643L252.727 213.49L227.238 217.549Z" stroke="#CACACA" stroke-width="1.08"/>
<path opacity="0.5" d="M242.779 219.643L235.2 233.629L252.727 213.49L242.779 219.643Z" stroke="#CACACA" stroke-width="1.08"/>
<path opacity="0.5" d="M307.051 52.7205L304.761 63.5109L299.595 76.316L307.051 52.7205Z" stroke="#CACACA" stroke-width="1.08"/>
<path opacity="0.5" d="M307.051 52.7205L299.595 76.316L302.494 67.772L307.051 52.7205Z" stroke="#CACACA" stroke-width="1.08"/>
<path opacity="0.5" d="M301.334 39.7341L304.761 63.5109L307.051 52.7204L301.334 39.7341Z" stroke="#CACACA" stroke-width="1.08"/>
<path opacity="0.5" d="M141.398 212.258L149.477 215.157L130.545 202.222L141.398 212.258Z" stroke="#CACACA" stroke-width="1.08"/>
<path opacity="0.5" d="M141.395 212.259L189.199 234.224L149.474 215.157L141.395 212.259Z" stroke="#CACACA" stroke-width="1.08"/>
<path opacity="0.5" d="M152.177 69.4242L149.591 56.5249L156.039 69.5112L152.177 69.4242Z" stroke="#CACACA" stroke-width="1.08"/>
<path opacity="0.5" d="M149.756 51.8145L149.589 56.5249L152.176 69.4242L149.756 51.8145Z" stroke="#CACACA" stroke-width="1.08"/>
<path opacity="0.5" d="M302.492 67.772L299.594 76.3159L293.124 75.2941L302.492 67.772Z" stroke="#CACACA" stroke-width="1.08"/>
<path opacity="0.5" d="M302.492 67.7719L293.124 75.2941L295.783 67.5183L302.492 67.7719Z" stroke="#CACACA" stroke-width="1.08"/>
<path opacity="0.5" d="M286.3 110.397L286.895 112.702L279.483 115.093L286.3 110.397Z" stroke="#CACACA" stroke-width="1.08"/>
<path opacity="0.5" d="M276.273 131.131L286.301 110.397L279.483 115.093L276.273 131.131Z" stroke="#CACACA" stroke-width="1.08"/>
<path opacity="0.5" d="M300.516 103.817L286.895 112.702L286.3 110.397L300.516 103.817Z" stroke="#CACACA" stroke-width="1.08"/>
<path opacity="0.5" d="M295.785 67.5183L293.126 75.2941L287.685 88.0195L295.785 67.5183Z" stroke="#CACACA" stroke-width="1.08"/>
<path opacity="0.5" d="M152.175 69.4243L156.037 69.5113L162.297 84.4759L152.175 69.4243Z" stroke="#CACACA" stroke-width="1.08"/>
<path opacity="0.5" d="M162.297 84.4759L156.037 69.5112L143.72 140.762L162.297 84.4759Z" stroke="#CACACA" stroke-width="1.08"/>
<path opacity="0.5" d="M248.516 199.171L230.359 199.497L231.091 208.968L248.516 199.171Z" stroke="#CACACA" stroke-width="1.08"/>
<path opacity="0.5" d="M230.361 199.497L248.518 199.171L249.59 201.808L230.361 199.497Z" stroke="#CACACA" stroke-width="1.08"/>
<path opacity="0.5" d="M241.712 188.743L267.02 192.728L265.44 184.605L241.712 188.743Z" stroke="#CACACA" stroke-width="1.08"/>
<path opacity="0.5" d="M267.02 192.728L230.504 197.127L249.588 201.809L267.02 192.728Z" stroke="#CACACA" stroke-width="1.08"/>
<path opacity="0.5" d="M241.712 188.743L230.504 197.127L267.02 192.728L241.712 188.743Z" stroke="#CACACA" stroke-width="1.08"/>
<path opacity="0.5" d="M164.995 25.0376L167.002 19.0083L168.625 37.4296L164.995 25.0376Z" stroke="#CACACA" stroke-width="1.08"/>
<path opacity="0.5" d="M171.391 10.1455L167 19.0083L164.993 25.0377L171.391 10.1455Z" stroke="#CACACA" stroke-width="1.08"/>
<path opacity="0.5" d="M287.685 88.0195L281.975 102.223L301.117 93.4039L287.685 88.0195Z" stroke="#CACACA" stroke-width="1.08"/>
<path opacity="0.5" d="M300.516 103.817L301.117 93.4038L281.975 102.223L300.516 103.817Z" stroke="#CACACA" stroke-width="1.08"/>
<path opacity="0.5" d="M227.237 217.549L209.254 233.941L235.199 233.629L227.237 217.549Z" stroke="#CACACA" stroke-width="1.08"/>
<path opacity="0.5" d="M227.236 217.549L235.199 233.629L242.777 219.643L227.236 217.549Z" stroke="#CACACA" stroke-width="1.08"/>
<path opacity="0.5" d="M141.716 169.227L144.375 174.104L128.82 158.995L141.716 169.227Z" stroke="#CACACA" stroke-width="1.08"/>
<path opacity="0.5" d="M155.371 172.908L128.817 158.995L144.373 174.104L155.371 172.908Z" stroke="#CACACA" stroke-width="1.08"/>
<path opacity="0.5" d="M155.371 172.908L128.803 151.885L128.817 158.995L155.371 172.908Z" stroke="#CACACA" stroke-width="1.08"/>
<path opacity="0.5" d="M300.516 103.817L281.975 102.223L286.895 112.702L300.516 103.817Z" stroke="#CACACA" stroke-width="1.08"/>
<path opacity="0.5" d="M301.335 39.7341L287.178 50.7275L304.762 63.5109L301.335 39.7341Z" stroke="#CACACA" stroke-width="1.08"/>
<path opacity="0.5" d="M301.336 39.7341L286.911 41.9516L287.179 50.7275L301.336 39.7341Z" stroke="#CACACA" stroke-width="1.08"/>
<path opacity="0.5" d="M175.969 63.7499L166.036 47.6548L149.756 51.8144L175.969 63.7499Z" stroke="#CACACA" stroke-width="1.08"/>
<path opacity="0.5" d="M175.969 63.75L168.622 37.4297L166.036 47.6549L175.969 63.75Z" stroke="#CACACA" stroke-width="1.08"/>
<path opacity="0.5" d="M141.716 169.227L169.82 192.134L144.375 174.104L141.716 169.227Z" stroke="#CACACA" stroke-width="1.08"/>
<path opacity="0.5" d="M141.716 169.227L142.354 182.003L169.82 192.134L141.716 169.227Z" stroke="#CACACA" stroke-width="1.08"/>
<path opacity="0.5" d="M177.595 18.5735L192.23 2.65234L171.393 10.1455L177.595 18.5735Z" stroke="#CACACA" stroke-width="1.08"/>
<path opacity="0.5" d="M201.133 20.8563L192.228 2.65234L177.593 18.5735L201.133 20.8563Z" stroke="#CACACA" stroke-width="1.08"/>
<path opacity="0.5" d="M288.938 158.951L284.728 167.546L271.216 150.907L288.938 158.951Z" stroke="#CACACA" stroke-width="1.08"/>
<path opacity="0.5" d="M271.218 150.907L284.73 167.546L258.256 168.285L271.218 150.907Z" stroke="#CACACA" stroke-width="1.08"/>
<path opacity="0.5" d="M276.273 131.131L288.938 158.951L271.216 150.907L276.273 131.131Z" stroke="#CACACA" stroke-width="1.08"/>
<path opacity="0.5" d="M149.477 215.157L137.674 190.656L130.545 202.222L149.477 215.157Z" stroke="#CACACA" stroke-width="1.08"/>
<path opacity="0.5" d="M156.633 152.487L143.722 140.762L128.804 151.886L156.633 152.487Z" stroke="#CACACA" stroke-width="1.08"/>
<path opacity="0.5" d="M162.297 84.4758L143.72 140.762L156.631 152.487L162.297 84.4758Z" stroke="#CACACA" stroke-width="1.08"/>
<path opacity="0.5" d="M168.441 207.592L142.351 182.003L137.671 190.656L168.441 207.592Z" stroke="#CACACA" stroke-width="1.08"/>
<path opacity="0.5" d="M142.354 182.003L168.444 207.592L169.82 192.134L142.354 182.003Z" stroke="#CACACA" stroke-width="1.08"/>
<path opacity="0.5" d="M174.926 226.049L149.474 215.157L189.199 234.224L174.926 226.049Z" stroke="#CACACA" stroke-width="1.08"/>
<path opacity="0.5" d="M209.254 233.941L174.926 226.049L189.199 234.223L209.254 233.941Z" stroke="#CACACA" stroke-width="1.08"/>
<path opacity="0.5" d="M171.392 10.1455L164.994 25.0377L177.594 18.5735L171.392 10.1455Z" stroke="#CACACA" stroke-width="1.08"/>
<path opacity="0.5" d="M149.756 51.8145L152.176 69.4242L160.109 67.8878L149.756 51.8145Z" stroke="#CACACA" stroke-width="1.08"/>
<path opacity="0.5" d="M149.756 51.8145L160.109 67.8878L175.969 63.7499L149.756 51.8145Z" stroke="#CACACA" stroke-width="1.08"/>
<path opacity="0.5" d="M198.606 196.721L231.094 208.969L230.362 199.497L198.606 196.721Z" stroke="#CACACA" stroke-width="1.08"/>
<path opacity="0.5" d="M231.094 208.968L193.404 206.606L227.239 217.549L231.094 208.968Z" stroke="#CACACA" stroke-width="1.08"/>
<path opacity="0.5" d="M198.606 196.721L193.404 206.606L231.094 208.969L198.606 196.721Z" stroke="#CACACA" stroke-width="1.08"/>
<path opacity="0.5" d="M271.29 126.819L285.266 146.849L276.274 131.131L271.29 126.819Z" stroke="#CACACA" stroke-width="1.08"/>
<path opacity="0.5" d="M289.234 151.139L288.937 158.951L276.273 131.131L289.234 151.139Z" stroke="#CACACA" stroke-width="1.08"/>
<path opacity="0.5" d="M285.264 146.849L289.234 151.139L276.273 131.131L285.264 146.849Z" stroke="#CACACA" stroke-width="1.08"/>
<path opacity="0.5" d="M276.275 131.131L279.484 115.094L271.29 126.819L276.275 131.131Z" stroke="#CACACA" stroke-width="1.08"/>
<path opacity="0.5" d="M258.255 168.285L270.746 175.38L246.757 169.908L258.255 168.285Z" stroke="#CACACA" stroke-width="1.08"/>
<path opacity="0.5" d="M241.713 188.743L258.254 168.285L246.756 169.908L241.713 188.743Z" stroke="#CACACA" stroke-width="1.08"/>
<path opacity="0.5" d="M220.363 201.446L249.59 201.809L230.506 197.127L220.363 201.446Z" stroke="#CACACA" stroke-width="1.08"/>
<path opacity="0.5" d="M287.684 88.0195L254.609 102.136L281.974 102.223L287.684 88.0195Z" stroke="#CACACA" stroke-width="1.08"/>
<path opacity="0.5" d="M287.684 88.0195L261.434 91.0052L254.609 102.136L287.684 88.0195Z" stroke="#CACACA" stroke-width="1.08"/>
<path opacity="0.5" d="M293.125 75.2942L276.874 79.3959L287.684 88.0196L293.125 75.2942Z" stroke="#CACACA" stroke-width="1.08"/>
<path opacity="0.5" d="M276.874 79.3958L261.434 91.0051L287.684 88.0194L276.874 79.3958Z" stroke="#CACACA" stroke-width="1.08"/>
<path opacity="0.5" d="M161.522 80.3235L152.175 69.4243L162.297 84.4759L161.522 80.3235Z" stroke="#CACACA" stroke-width="1.08"/>
<path opacity="0.5" d="M161.523 80.3234L160.111 67.8879L152.177 69.4243L161.523 80.3234Z" stroke="#CACACA" stroke-width="1.08"/>
<path opacity="0.5" d="M206.133 218.773L209.256 233.941L227.238 217.549L206.133 218.773Z" stroke="#CACACA" stroke-width="1.08"/>
<path opacity="0.5" d="M198.604 196.721L230.359 199.497L220.361 201.446L198.604 196.721Z" stroke="#CACACA" stroke-width="1.08"/>
<path opacity="0.5" d="M180.738 49.7057L168.624 37.4297L180.535 50.5391L180.738 49.7057Z" stroke="#CACACA" stroke-width="1.08"/>
<path opacity="0.5" d="M175.971 63.75L180.535 50.5391L168.624 37.4297L175.971 63.75Z" stroke="#CACACA" stroke-width="1.08"/>
<path opacity="0.5" d="M164.993 25.0376L168.623 37.4296L169.992 33.8859L164.993 25.0376Z" stroke="#CACACA" stroke-width="1.08"/>
<path opacity="0.5" d="M180.738 49.7057L169.994 33.886L168.624 37.4297L180.738 49.7057Z" stroke="#CACACA" stroke-width="1.08"/>
<path opacity="0.5" d="M299.598 76.316L276.877 79.3959L293.128 75.2942L299.598 76.316Z" stroke="#CACACA" stroke-width="1.08"/>
<path opacity="0.5" d="M149.473 215.157L174.926 226.049L168.441 207.592L149.473 215.157Z" stroke="#CACACA" stroke-width="1.08"/>
<path opacity="0.5" d="M258.422 127.435L271.29 126.819L279.484 115.094L258.422 127.435Z" stroke="#CACACA" stroke-width="1.08"/>
<path opacity="0.5" d="M279.484 115.094L245.671 117.826L258.422 127.435L279.484 115.094Z" stroke="#CACACA" stroke-width="1.08"/>
<path opacity="0.5" d="M279.483 115.093L286.895 112.702L267.282 112.231L279.483 115.093Z" stroke="#CACACA" stroke-width="1.08"/>
<path opacity="0.5" d="M279.484 115.093L267.283 112.231L245.671 117.825L279.484 115.093Z" stroke="#CACACA" stroke-width="1.08"/>
<path opacity="0.5" d="M169.994 33.886L177.594 18.5735L164.994 25.0376L169.994 33.886Z" stroke="#CACACA" stroke-width="1.08"/>
<path opacity="0.5" d="M206.131 218.773L174.926 226.049L209.254 233.941L206.131 218.773Z" stroke="#CACACA" stroke-width="1.08"/>
<path opacity="0.5" d="M299.598 76.3159L284.883 80.8379L276.877 79.3958L299.598 76.3159Z" stroke="#CACACA" stroke-width="1.08"/>
<path opacity="0.5" d="M304.762 63.5107L284.881 80.8378L299.596 76.3158L304.762 63.5107Z" stroke="#CACACA" stroke-width="1.08"/>
<path opacity="0.5" d="M144.375 174.104L169.82 192.134L198.605 196.721L144.375 174.104Z" stroke="#CACACA" stroke-width="1.08"/>
<path opacity="0.5" d="M169.82 192.134L193.403 206.606L198.605 196.721L169.82 192.134Z" stroke="#CACACA" stroke-width="1.08"/>
<path opacity="0.5" d="M168.443 207.591L193.402 206.606L169.819 192.134L168.443 207.591Z" stroke="#CACACA" stroke-width="1.08"/>
<path opacity="0.5" d="M237.339 156.473L246.758 169.908L266.371 171.082L237.339 156.473Z" stroke="#CACACA" stroke-width="1.08"/>
<path opacity="0.5" d="M220.987 178.517L241.715 188.743L246.758 169.908L220.987 178.517Z" stroke="#CACACA" stroke-width="1.08"/>
<path opacity="0.5" d="M237.339 156.473L220.987 178.517L246.758 169.908L237.339 156.473Z" stroke="#CACACA" stroke-width="1.08"/>
<path opacity="0.5" d="M304.762 63.5107L290.047 68.1125L284.881 80.8378L304.762 63.5107Z" stroke="#CACACA" stroke-width="1.08"/>
<path opacity="0.5" d="M287.178 50.7275L290.047 68.1126L304.762 63.5109L287.178 50.7275Z" stroke="#CACACA" stroke-width="1.08"/>
<path opacity="0.5" d="M170.848 161.096L156.633 152.487L155.372 172.908L170.848 161.096Z" stroke="#CACACA" stroke-width="1.08"/>
<path opacity="0.5" d="M170.848 161.096L183.824 98.8896L156.633 152.487L170.848 161.096Z" stroke="#CACACA" stroke-width="1.08"/>
<path opacity="0.5" d="M162.299 84.4758L156.633 152.487L183.824 98.8897L162.299 84.4758Z" stroke="#CACACA" stroke-width="1.08"/>
<path opacity="0.5" d="M271.29 126.819L278.158 148.03L285.266 146.849L271.29 126.819Z" stroke="#CACACA" stroke-width="1.08"/>
<path opacity="0.5" d="M258.42 127.435L278.156 148.03L271.288 126.819L258.42 127.435Z" stroke="#CACACA" stroke-width="1.08"/>
<path opacity="0.5" d="M144.375 174.104L198.605 196.721L177.942 190.851L144.375 174.104Z" stroke="#CACACA" stroke-width="1.08"/>
<path opacity="0.5" d="M206.133 218.773L168.443 207.592L174.928 226.049L206.133 218.773Z" stroke="#CACACA" stroke-width="1.08"/>
<path opacity="0.5" d="M193.403 206.606L168.443 207.592L206.133 218.773L193.403 206.606Z" stroke="#CACACA" stroke-width="1.08"/>
<path opacity="0.5" d="M177.942 190.852L198.606 196.721L220.363 201.446L177.942 190.852Z" stroke="#CACACA" stroke-width="1.08"/>
<path opacity="0.5" d="M490.042 284.951L568.016 347.339L284.727 167.546L490.042 284.951Z" stroke="#CACACA" stroke-width="1.08"/>
<path opacity="0.5" d="M568.016 347.339L277.837 173.952L284.727 167.546L568.016 347.339Z" stroke="#CACACA" stroke-width="1.08"/>
<path opacity="0.5" d="M490.043 284.951L284.728 167.546L288.937 158.951L490.043 284.951Z" stroke="#CACACA" stroke-width="1.08"/>
<path opacity="0.5" d="M183.824 98.8898L161.523 80.3235L162.299 84.4759L183.824 98.8898Z" stroke="#CACACA" stroke-width="1.08"/>
<path opacity="0.5" d="M230.506 197.127L241.715 188.743L212.632 184.126L230.506 197.127Z" stroke="#CACACA" stroke-width="1.08"/>
<path opacity="0.5" d="M220.986 178.517L212.632 184.126L241.715 188.743L220.986 178.517Z" stroke="#CACACA" stroke-width="1.08"/>
<path opacity="0.5" d="M286.895 112.702L281.975 102.223L267.282 112.231L286.895 112.702Z" stroke="#CACACA" stroke-width="1.08"/>
<path opacity="0.5" d="M289.235 151.139L570.184 327.903L288.938 158.951L289.235 151.139Z" stroke="#CACACA" stroke-width="1.08"/>
<path opacity="0.5" d="M570.184 327.903L490.044 284.951L288.938 158.951L570.184 327.903Z" stroke="#CACACA" stroke-width="1.08"/>
<path opacity="0.5" d="M177.942 190.852L220.363 201.446L185.927 186.373L177.942 190.852Z" stroke="#CACACA" stroke-width="1.08"/>
<path opacity="0.5" d="M560.156 358.491L551.121 364.941L277.839 173.952L560.156 358.491Z" stroke="#CACACA" stroke-width="1.08"/>
<path opacity="0.5" d="M568.016 347.339L560.155 358.491L277.837 173.952L568.016 347.339Z" stroke="#CACACA" stroke-width="1.08"/>
<path opacity="0.5" d="M277.838 173.952L551.121 364.941L270.745 175.38L277.838 173.952Z" stroke="#CACACA" stroke-width="1.08"/>
<path opacity="0.5" d="M216.832 113.796L220.983 178.517L245.668 117.826L216.832 113.796Z" stroke="#CACACA" stroke-width="1.08"/>
<path opacity="0.5" d="M242.633 135.16L220.984 178.517L237.337 156.473L242.633 135.16Z" stroke="#CACACA" stroke-width="1.08"/>
<path opacity="0.5" d="M187.903 168.589L212.631 184.126L220.984 178.517L187.903 168.589Z" stroke="#CACACA" stroke-width="1.08"/>
<path opacity="0.5" d="M216.833 113.796L187.903 168.589L220.984 178.517L216.833 113.796Z" stroke="#CACACA" stroke-width="1.08"/>
<path opacity="0.5" d="M242.632 135.16L245.668 117.825L220.983 178.517L242.632 135.16Z" stroke="#CACACA" stroke-width="1.08"/>
<path opacity="0.5" d="M287.176 50.7275L286.908 41.9517L264.165 43.0749L287.176 50.7275Z" stroke="#CACACA" stroke-width="1.08"/>
<path opacity="0.5" d="M285.264 146.849L410.426 228.375L289.235 151.139L285.264 146.849Z" stroke="#CACACA" stroke-width="1.08"/>
<path opacity="0.5" d="M410.426 228.375L570.184 327.903L289.235 151.139L410.426 228.375Z" stroke="#CACACA" stroke-width="1.08"/>
<path opacity="0.5" d="M196.324 28.0595L177.595 18.5735L187.949 38.2848L196.324 28.0595Z" stroke="#CACACA" stroke-width="1.08"/>
<path opacity="0.5" d="M177.592 18.5735L169.992 33.886L187.945 38.2848L177.592 18.5735Z" stroke="#CACACA" stroke-width="1.08"/>
<path opacity="0.5" d="M196.322 28.0595L201.133 20.8562L177.593 18.5735L196.322 28.0595Z" stroke="#CACACA" stroke-width="1.08"/>
<path opacity="0.5" d="M242.635 135.16L258.422 127.435L245.67 117.825L242.635 135.16Z" stroke="#CACACA" stroke-width="1.08"/>
<path opacity="0.5" d="M185.926 186.373L155.373 172.908L177.942 190.851L185.926 186.373Z" stroke="#CACACA" stroke-width="1.08"/>
<path opacity="0.5" d="M155.371 172.908L185.924 186.373L187.902 168.589L155.371 172.908Z" stroke="#CACACA" stroke-width="1.08"/>
<path opacity="0.5" d="M266.406 163.009L242.635 135.16L237.338 156.473L266.406 163.009Z" stroke="#CACACA" stroke-width="1.08"/>
<path opacity="0.5" d="M237.338 156.473L266.37 171.082L266.406 163.009L237.338 156.473Z" stroke="#CACACA" stroke-width="1.08"/>
<path opacity="0.5" d="M192.781 73.9897L175.972 63.75L160.113 67.8879L192.781 73.9897Z" stroke="#CACACA" stroke-width="1.08"/>
<path opacity="0.5" d="M205.336 64.3152L180.536 50.5391L175.971 63.75L205.336 64.3152Z" stroke="#CACACA" stroke-width="1.08"/>
<path opacity="0.5" d="M205.336 64.3152L175.971 63.75L192.78 73.9897L205.336 64.3152Z" stroke="#CACACA" stroke-width="1.08"/>
<path opacity="0.5" d="M551.121 364.941L266.369 171.082L270.745 175.38L551.121 364.941Z" stroke="#CACACA" stroke-width="1.08"/>
<path opacity="0.5" d="M180.736 49.7057L187.945 38.2848L169.992 33.886L180.736 49.7057Z" stroke="#CACACA" stroke-width="1.08"/>
<path opacity="0.5" d="M205.336 64.3151L180.738 49.7056L180.536 50.5389L205.336 64.3151Z" stroke="#CACACA" stroke-width="1.08"/>
<path opacity="0.5" d="M242.633 135.16L270.882 154.262L278.156 148.03L242.633 135.16Z" stroke="#CACACA" stroke-width="1.08"/>
<path opacity="0.5" d="M192.781 73.9897L160.113 67.8879L192.028 86.2151L192.781 73.9897Z" stroke="#CACACA" stroke-width="1.08"/>
<path opacity="0.5" d="M160.112 67.8879L161.525 80.3234L192.027 86.2151L160.112 67.8879Z" stroke="#CACACA" stroke-width="1.08"/>
<path opacity="0.5" d="M284.883 80.8378L241.904 75.8955L276.877 79.3957L284.883 80.8378Z" stroke="#CACACA" stroke-width="1.08"/>
<path opacity="0.5" d="M261.435 91.0051L276.875 79.3957L241.902 75.8955L261.435 91.0051Z" stroke="#CACACA" stroke-width="1.08"/>
<path opacity="0.5" d="M267.283 112.231L281.977 102.223L254.611 102.136L267.283 112.231Z" stroke="#CACACA" stroke-width="1.08"/>
<path opacity="0.5" d="M266.009 67.6125L247.099 78.0117L284.883 80.8379L266.009 67.6125Z" stroke="#CACACA" stroke-width="1.08"/>
<path opacity="0.5" d="M290.047 68.1126L266.007 67.6125L284.881 80.8379L290.047 68.1126Z" stroke="#CACACA" stroke-width="1.08"/>
<path opacity="0.5" d="M284.883 80.8378L247.099 78.0116L241.904 75.8955L284.883 80.8378Z" stroke="#CACACA" stroke-width="1.08"/>
<path opacity="0.5" d="M195.52 98.2883L161.525 80.3235L183.826 98.8898L195.52 98.2883Z" stroke="#CACACA" stroke-width="1.08"/>
<path opacity="0.5" d="M287.176 50.7276L254.485 48.3796L266.005 67.6126L287.176 50.7276Z" stroke="#CACACA" stroke-width="1.08"/>
<path opacity="0.5" d="M287.178 50.7275L266.007 67.6126L290.047 68.1126L287.178 50.7275Z" stroke="#CACACA" stroke-width="1.08"/>
<path opacity="0.5" d="M287.176 50.7276L264.165 43.075L254.485 48.3796L287.176 50.7276Z" stroke="#CACACA" stroke-width="1.08"/>
<path opacity="0.5" d="M266.37 171.082L552.027 361.992L266.406 163.009L266.37 171.082Z" stroke="#CACACA" stroke-width="1.08"/>
<path opacity="0.5" d="M266.368 171.082L553.707 369.775L552.026 361.992L266.368 171.082Z" stroke="#CACACA" stroke-width="1.08"/>
<path opacity="0.5" d="M551.12 364.941L553.707 369.775L266.368 171.082L551.12 364.941Z" stroke="#CACACA" stroke-width="1.08"/>
<path opacity="0.5" d="M241.9 75.8955L224.65 85.1931L261.434 91.0051L241.9 75.8955Z" stroke="#CACACA" stroke-width="1.08"/>
<path opacity="0.5" d="M254.609 102.136L261.434 91.005L224.65 85.1931L254.609 102.136Z" stroke="#CACACA" stroke-width="1.08"/>
<path opacity="0.5" d="M264.168 43.0749L201.134 20.8562L230.536 39.0239L264.168 43.0749Z" stroke="#CACACA" stroke-width="1.08"/>
<path opacity="0.5" d="M230.535 39.0239L201.134 20.8562L196.323 28.0595L230.535 39.0239Z" stroke="#CACACA" stroke-width="1.08"/>
<path opacity="0.5" d="M245.668 117.826L236.112 109.709L216.832 113.796L245.668 117.826Z" stroke="#CACACA" stroke-width="1.08"/>
<path opacity="0.5" d="M245.669 117.826L267.281 112.231L236.112 109.709L245.669 117.826Z" stroke="#CACACA" stroke-width="1.08"/>
<path opacity="0.5" d="M554.672 332.852L410.427 228.375L278.158 148.03L554.672 332.852Z" stroke="#CACACA" stroke-width="1.08"/>
<path opacity="0.5" d="M366.622 220.085L554.672 332.852L278.158 148.03L366.622 220.085Z" stroke="#CACACA" stroke-width="1.08"/>
<path opacity="0.5" d="M198.793 108.571L195.518 98.2881L183.824 98.8896L198.793 108.571Z" stroke="#CACACA" stroke-width="1.08"/>
<path opacity="0.5" d="M266.405 163.009L366.621 220.085L270.883 154.262L266.405 163.009Z" stroke="#CACACA" stroke-width="1.08"/>
<path opacity="0.5" d="M552.027 361.992L366.622 220.085L266.406 163.009L552.027 361.992Z" stroke="#CACACA" stroke-width="1.08"/>
<path opacity="0.5" d="M192.027 86.2151L224.652 85.1933L192.781 73.9897L192.027 86.2151Z" stroke="#CACACA" stroke-width="1.08"/>
<path opacity="0.5" d="M236.113 109.709L198.793 108.571L216.834 113.796L236.113 109.709Z" stroke="#CACACA" stroke-width="1.08"/>
<path opacity="0.5" d="M236.113 109.709L195.518 98.2881L198.793 108.571L236.113 109.709Z" stroke="#CACACA" stroke-width="1.08"/>
<path opacity="0.5" d="M215.676 69.2502L180.739 49.7056L205.337 64.3151L215.676 69.2502Z" stroke="#CACACA" stroke-width="1.08"/>
<path opacity="0.5" d="M215.676 69.2502L208.655 54.5392L180.739 49.7056L215.676 69.2502Z" stroke="#CACACA" stroke-width="1.08"/>
<path opacity="0.5" d="M208.652 54.5392L187.945 38.2847L180.736 49.7056L208.652 54.5392Z" stroke="#CACACA" stroke-width="1.08"/>
<path opacity="0.5" d="M267.281 112.231L254.609 102.136L236.112 109.709L267.281 112.231Z" stroke="#CACACA" stroke-width="1.08"/>
<path opacity="0.5" d="M254.488 48.3795L264.168 43.0749L230.536 39.0239L254.488 48.3795Z" stroke="#CACACA" stroke-width="1.08"/>
<path opacity="0.5" d="M196.321 28.0596L187.945 38.2848L208.652 54.5393L196.321 28.0596Z" stroke="#CACACA" stroke-width="1.08"/>
<path opacity="0.5" d="M224.652 85.1931L192.027 86.2149L224.283 97.1721L224.652 85.1931Z" stroke="#CACACA" stroke-width="1.08"/>
<path opacity="0.5" d="M215.675 69.2502L205.336 64.3152L241.902 75.8956L215.675 69.2502Z" stroke="#CACACA" stroke-width="1.08"/>
<path opacity="0.5" d="M247.098 78.0116L215.675 69.2502L241.903 75.8956L247.098 78.0116Z" stroke="#CACACA" stroke-width="1.08"/>
<path opacity="0.5" d="M192.025 86.2151L195.518 98.2882L224.281 97.1722L192.025 86.2151Z" stroke="#CACACA" stroke-width="1.08"/>
<path opacity="0.5" d="M254.488 48.3796L237.309 62.0906L266.008 67.6126L254.488 48.3796Z" stroke="#CACACA" stroke-width="1.08"/>
<path opacity="0.5" d="M266.008 67.6126L237.309 62.0906L247.098 78.0118L266.008 67.6126Z" stroke="#CACACA" stroke-width="1.08"/>
<path opacity="0.5" d="M254.488 48.3795L230.536 39.0239L237.31 62.0905L254.488 48.3795Z" stroke="#CACACA" stroke-width="1.08"/>
<path opacity="0.5" d="M237.309 62.0906L215.675 69.2504L247.098 78.0118L237.309 62.0906Z" stroke="#CACACA" stroke-width="1.08"/>
<path opacity="0.5" d="M552.028 361.992L555.977 350.281L366.622 220.085L552.028 361.992Z" stroke="#CACACA" stroke-width="1.08"/>
<path opacity="0.5" d="M581.609 339.744L570.184 327.903L410.426 228.375L581.609 339.744Z" stroke="#CACACA" stroke-width="1.08"/>
<path opacity="0.5" d="M554.672 332.852L581.609 339.744L410.426 228.375L554.672 332.852Z" stroke="#CACACA" stroke-width="1.08"/>
<path opacity="0.5" d="M570.182 327.903L589.121 347.795L490.043 284.951L570.182 327.903Z" stroke="#CACACA" stroke-width="1.08"/>
<path opacity="0.5" d="M490.043 284.951L589.121 347.795L568.016 347.339L490.043 284.951Z" stroke="#CACACA" stroke-width="1.08"/>
<path opacity="0.5" d="M568.016 347.339L590.316 369.014L560.155 358.491L568.016 347.339Z" stroke="#CACACA" stroke-width="1.08"/>
<path opacity="0.5" d="M589.121 347.795L590.316 369.014L568.016 347.339L589.121 347.795Z" stroke="#CACACA" stroke-width="1.08"/>
<path opacity="0.5" d="M560.155 358.491L590.316 369.014L576.449 379.116L560.155 358.491Z" stroke="#CACACA" stroke-width="1.08"/>
<path opacity="0.5" d="M560.155 358.491L576.449 379.116L551.12 364.941L560.155 358.491Z" stroke="#CACACA" stroke-width="1.08"/>
<path opacity="0.5" d="M576.449 379.116L553.706 369.775L551.12 364.941L576.449 379.116Z" stroke="#CACACA" stroke-width="1.08"/>
<path opacity="0.5" d="M570.184 327.903L594.73 348.505L589.123 347.795L570.184 327.903Z" stroke="#CACACA" stroke-width="1.08"/>
<path opacity="0.5" d="M581.609 339.744L594.73 348.505L570.184 327.903L581.609 339.744Z" stroke="#CACACA" stroke-width="1.08"/>
<path opacity="0.5" d="M590.318 369.014L589.123 347.795L594.73 348.505L590.318 369.014Z" stroke="#CACACA" stroke-width="1.08"/>
<path opacity="0.5" d="M589.36 369.702L576.449 379.116L590.316 369.014L589.36 369.702Z" stroke="#CACACA" stroke-width="1.08"/>
<path opacity="0.5" d="M594.73 348.505L589.362 369.702L590.318 369.014L594.73 348.505Z" stroke="#CACACA" stroke-width="1.08"/>
<path opacity="0.5" d="M552.026 361.992L553.706 369.775L576.449 379.116L552.026 361.992Z" stroke="#CACACA" stroke-width="1.08"/>
<path opacity="0.5" d="M554.67 332.852L582.484 353.245L581.608 339.744L554.67 332.852Z" stroke="#CACACA" stroke-width="1.08"/>
<path opacity="0.5" d="M555.974 350.281L582.484 353.245L554.67 332.852L555.974 350.281Z" stroke="#CACACA" stroke-width="1.08"/>
<path opacity="0.5" d="M594.73 348.506L581.609 339.744L582.486 353.245L594.73 348.506Z" stroke="#CACACA" stroke-width="1.08"/>
<path opacity="0.5" d="M594.73 348.505L582.486 353.245L589.362 369.702L594.73 348.505Z" stroke="#CACACA" stroke-width="1.08"/>
<path opacity="0.5" d="M576.452 379.116L589.363 369.702L574.076 367.354L576.452 379.116Z" stroke="#CACACA" stroke-width="1.08"/>
<path opacity="0.5" d="M552.026 361.992L576.449 379.116L574.073 367.354L552.026 361.992Z" stroke="#CACACA" stroke-width="1.08"/>
<path opacity="0.5" d="M555.976 350.281L552.027 361.992L574.074 367.354L555.976 350.281Z" stroke="#CACACA" stroke-width="1.08"/>
<path opacity="0.5" d="M582.488 353.245L574.076 367.354L589.363 369.702L582.488 353.245Z" stroke="#CACACA" stroke-width="1.08"/>
<path opacity="0.5" d="M582.484 353.245L555.974 350.281L574.073 367.354L582.484 353.245Z" stroke="#CACACA" stroke-width="1.08"/>
</g>
<defs>
<clipPath id="clip0_2222_17910">
<rect width="596" height="380" fill="white" transform="matrix(-1 0 0 1 596 0)"/>
</clipPath>
</defs>
</svg>
