<svg width="190" height="26" viewBox="0 0 190 26" fill="none" xmlns="http://www.w3.org/2000/svg">
<path d="M162.329 2.51538V22.2309H159.343L150.812 10.1763V22.2309H146.888V2.51538H149.873L158.405 14.5418V2.51538H162.329Z" fill="white"/>
<path d="M172.537 19.3299C173.959 19.3299 175.097 18.7385 175.722 17.9217L178.68 19.6116C177.343 21.5268 175.21 22.6253 172.48 22.6253C167.703 22.6253 164.689 19.3863 164.689 15.1897C164.689 10.993 167.731 7.75415 172.196 7.75415C176.405 7.75415 179.391 11.0494 179.391 15.1897C179.391 15.7248 179.334 16.2036 179.248 16.6825H168.528C169.039 18.5413 170.603 19.3299 172.537 19.3299ZM175.722 13.866C175.267 11.838 173.732 11.0212 172.196 11.0212C170.234 11.0212 168.897 12.0634 168.471 13.866H175.722Z" fill="white"/>
<path d="M186.442 11.6409V17.4992C186.442 19.0202 187.552 19.0483 189.656 18.9357V22.231C184.509 22.7943 182.774 21.3015 182.774 17.4992V11.6409H180.3V8.14841H182.774V5.30378L186.442 4.20532V8.14841H189.656V11.6409H186.442Z" fill="white"/>
<path d="M139.552 17.8082C139.552 20.4557 141.713 22.5961 144.386 22.5961V13.0203C141.713 13.0203 139.552 15.1608 139.552 17.8082Z" fill="#E51C38"/>
<path d="M12.6575 18.5131V22.2309H0.344238V2.51538H12.6575V6.23319H4.26849V10.4297H12.6575V14.0912H4.26849V18.5131H12.6575Z" fill="white"/>
<path d="M33.6716 11.6409V17.4992C33.6716 19.0202 34.7807 19.0483 36.8851 18.9357V22.231C31.738 22.7943 30.0034 21.3015 30.0034 17.4992V11.6409H25.5978L28.1268 8.14841H30.0034V5.30378L33.6716 4.20532V8.14841H36.8851V11.6409H33.6716Z" fill="white"/>
<path d="M47.6908 7.8667V11.9225C45.7854 11.6972 43.3684 12.5422 43.3684 15.4995V22.2309H39.7V8.14836H43.3684V10.5705C44.1078 8.65539 45.8993 7.8667 47.6908 7.8667Z" fill="white"/>
<path d="M63.7573 8.14841V22.231H60.0889V20.5692C59.0651 21.8366 57.5295 22.6253 55.4536 22.6253C51.6715 22.6253 48.5433 19.3863 48.5433 15.1897C48.5433 10.993 51.6715 7.75415 55.4536 7.75415C57.5295 7.75415 59.0651 8.54275 60.0889 9.81018V8.14841H63.7573ZM60.0889 15.1897C60.0889 12.8238 58.4111 11.2184 56.136 11.2184C53.8896 11.2184 52.2118 12.8238 52.2118 15.1897C52.2118 17.5556 53.8896 19.161 56.136 19.161C58.4111 19.161 60.0889 17.5556 60.0889 15.1897Z" fill="white"/>
<path d="M80.8191 2.51538V22.2309H77.1507V20.5691C76.1268 21.8647 74.6198 22.6252 72.5438 22.6252C68.7332 22.6252 65.6051 19.3863 65.6051 15.1896C65.6051 10.993 68.7332 7.75409 72.5438 7.75409C74.6198 7.75409 76.1268 8.5145 77.1507 9.81012V2.51538H80.8191ZM77.1507 15.1896C77.1507 12.8237 75.4728 11.2183 73.2262 11.2183C70.9514 11.2183 69.2735 12.8237 69.2735 15.1896C69.2735 17.5555 70.9514 19.1609 73.2262 19.1609C75.4728 19.1609 77.1507 17.5555 77.1507 15.1896Z" fill="white"/>
<path d="M83.4629 4.76859C83.4629 3.55745 84.4867 2.51538 85.7095 2.51538C86.9607 2.51538 87.9844 3.55745 87.9844 4.76859C87.9844 5.97963 86.9607 6.9936 85.7095 6.9936C84.4867 6.9936 83.4629 5.97963 83.4629 4.76859Z" fill="white"/>
<path d="M87.5578 8.14844H83.8895V22.231H87.5578V8.14844Z" fill="white"/>
<path d="M95.8328 11.6409V17.4992C95.8328 19.0202 96.9419 19.0483 99.0463 18.9357V22.231C93.8992 22.7943 92.1646 21.3015 92.1646 17.4992V11.6409H89.6904V8.14841H92.1646V5.30378L95.8328 4.20532V8.14841H99.0463V11.6409H95.8328Z" fill="white"/>
<path d="M101.207 4.76859C101.207 3.55745 102.231 2.51538 103.454 2.51538C104.705 2.51538 105.729 3.55745 105.729 4.76859C105.729 5.97963 104.705 6.9936 103.454 6.9936C102.231 6.9936 101.207 5.97963 101.207 4.76859Z" fill="white"/>
<path d="M105.302 8.14844H101.634V22.231H105.302V8.14844Z" fill="white"/>
<path d="M107.207 15.1897C107.207 10.9931 110.534 7.75415 114.714 7.75415C118.895 7.75415 122.25 10.9931 122.25 15.1897C122.25 19.3862 118.895 22.6253 114.714 22.6253C110.534 22.6253 107.207 19.3863 107.207 15.1897ZM118.582 15.1897C118.582 12.9083 116.904 11.3029 114.714 11.3029C112.553 11.3029 110.875 12.9083 110.875 15.1897C110.875 17.4711 112.553 19.0765 114.714 19.0765C116.904 19.0765 118.582 17.4711 118.582 15.1897Z" fill="white"/>
<path d="M137.407 13.5843V22.231H133.738V14.0349C133.738 12.1197 132.573 11.1339 130.923 11.1339C129.132 11.1339 127.795 12.1761 127.795 14.6264V22.231H124.127V8.14841H127.795V9.72569C128.648 8.45826 130.127 7.75415 132.032 7.75415C135.047 7.75415 137.407 9.83838 137.407 13.5843Z" fill="white"/>
<path d="M24.1171 22.231L21.0461 17.9499L17.9462 22.231H13.7092L18.9132 15.0489L13.9366 8.14844H18.1738L21.0461 12.1197L23.9182 8.14844H28.1267L23.1504 15.0207L28.3543 22.231H24.1171Z" fill="#E51C38"/>
</svg>
