<svg width="196" height="27" viewBox="0 0 196 27" fill="none" xmlns="http://www.w3.org/2000/svg">
<g clip-path="url(#clip0_55_22438)">
<path d="M167.792 3.04297V23.5471H164.697L155.854 11.0103V23.5471H151.786V3.04297H154.881L163.725 15.5505V3.04297H167.792Z" fill="#1A1A1A"/>
<path d="M178.374 20.53C179.848 20.53 181.027 19.9149 181.676 19.0655L184.741 20.823C183.356 22.8148 181.145 23.9572 178.315 23.9572C173.363 23.9572 170.238 20.5887 170.238 16.2242C170.238 11.8597 173.392 8.49121 178.021 8.49121C182.383 8.49121 185.478 11.9183 185.478 16.2242C185.478 16.7807 185.419 17.2787 185.331 17.7767H174.218C174.748 19.7099 176.37 20.53 178.374 20.53ZM181.676 14.8475C181.204 12.7384 179.612 11.889 178.021 11.889C175.986 11.889 174.601 12.9728 174.159 14.8475H181.676Z" fill="#1A1A1A"/>
<path d="M192.788 12.5336V18.6262C192.788 20.208 193.938 20.2372 196.119 20.1201V23.5472C190.784 24.1331 188.986 22.5805 188.986 18.6262V12.5336H186.421V8.90135H188.986V5.94293L192.788 4.80054V8.90135H196.119V12.5336H192.788Z" fill="#1A1A1A"/>
<path d="M144.183 18.9475C144.183 21.7008 146.423 23.9269 149.194 23.9269V13.968C146.423 13.968 144.183 16.1942 144.183 18.9475Z" fill="#E51C38"/>
<path d="M12.6448 19.6806V23.5471H-0.118896V3.04297H12.6448V6.90949H3.94893V11.2739H12.6448V15.0818H3.94893V19.6806H12.6448Z" fill="#1A1A1A"/>
<path d="M34.4281 12.5336V18.6262C34.4281 20.208 35.5777 20.2372 37.7592 20.1201V23.5472C32.4237 24.1331 30.6256 22.5805 30.6256 18.6262V12.5336H26.0588L28.6804 8.90135H30.6256V5.94293L34.4281 4.80054V8.90135H37.7592V12.5336H34.4281Z" fill="#1A1A1A"/>
<path d="M48.9602 8.6084V12.8264C46.9851 12.5921 44.4796 13.4709 44.4796 16.5465V23.5472H40.677V8.90133H44.4796V11.4204C45.2461 9.42863 47.1031 8.6084 48.9602 8.6084Z" fill="#1A1A1A"/>
<path d="M65.6146 8.90124V23.5471H61.812V21.8188C60.7507 23.137 59.159 23.9572 57.007 23.9572C53.0866 23.9572 49.844 20.5887 49.844 16.2242C49.844 11.8597 53.0866 8.49121 57.007 8.49121C59.159 8.49121 60.7507 9.31136 61.812 10.6295V8.90124H65.6146ZM61.812 16.2242C61.812 13.7636 60.0728 12.094 57.7145 12.094C55.3859 12.094 53.6466 13.7636 53.6466 16.2242C53.6466 18.6847 55.3859 20.3543 57.7145 20.3543C60.0728 20.3543 61.812 18.6847 61.812 16.2242Z" fill="#1A1A1A"/>
<path d="M83.3003 3.04297V23.5471H79.4977V21.8189C78.4363 23.1663 76.8742 23.9572 74.7222 23.9572C70.7722 23.9572 67.5297 20.5887 67.5297 16.2242C67.5297 11.8597 70.7722 8.49123 74.7222 8.49123C76.8742 8.49123 78.4363 9.28205 79.4977 10.6295V3.04297H83.3003ZM79.4977 16.2242C79.4977 13.7637 77.7584 12.0941 75.4296 12.0941C73.0715 12.0941 71.3323 13.7637 71.3323 16.2242C71.3323 18.6847 73.0715 20.3543 75.4296 20.3543C77.7584 20.3543 79.4977 18.6847 79.4977 16.2242Z" fill="#1A1A1A"/>
<path d="M86.0413 5.3863C86.0413 4.12672 87.1026 3.04297 88.3701 3.04297C89.667 3.04297 90.7282 4.12672 90.7282 5.3863C90.7282 6.64579 89.667 7.70031 88.3701 7.70031C87.1026 7.70031 86.0413 6.64579 86.0413 5.3863Z" fill="#1A1A1A"/>
<path d="M90.2851 8.90137H86.4827V23.5472H90.2851V8.90137Z" fill="#1A1A1A"/>
<path d="M98.8632 12.5336V18.6262C98.8632 20.208 100.013 20.2372 102.194 20.1201V23.5472C96.8588 24.1331 95.0608 22.5805 95.0608 18.6262V12.5336H92.4961V8.90135H95.0608V5.94293L98.8632 4.80054V8.90135H102.194V12.5336H98.8632Z" fill="#1A1A1A"/>
<path d="M104.434 5.3863C104.434 4.12672 105.495 3.04297 106.763 3.04297C108.06 3.04297 109.121 4.12672 109.121 5.3863C109.121 6.64579 108.06 7.70031 106.763 7.70031C105.495 7.70031 104.434 6.64579 104.434 5.3863Z" fill="#1A1A1A"/>
<path d="M108.679 8.90137H104.876V23.5472H108.679V8.90137Z" fill="#1A1A1A"/>
<path d="M110.654 16.2242C110.654 11.8597 114.102 8.49121 118.436 8.49121C122.769 8.49121 126.247 11.8597 126.247 16.2242C126.247 20.5886 122.769 23.9572 118.436 23.9572C114.102 23.9572 110.654 20.5887 110.654 16.2242ZM122.445 16.2242C122.445 13.8515 120.705 12.1819 118.436 12.1819C116.195 12.1819 114.456 13.8515 114.456 16.2242C114.456 18.5968 116.195 20.2664 118.436 20.2664C120.705 20.2664 122.445 18.5968 122.445 16.2242Z" fill="#1A1A1A"/>
<path d="M141.958 14.5546V23.5471H138.156V15.0232C138.156 13.0314 136.947 12.0062 135.238 12.0062C133.38 12.0062 131.995 13.09 131.995 15.6383V23.5471H128.193V8.90124H131.995V10.5416C132.879 9.22349 134.412 8.49121 136.387 8.49121C139.512 8.49121 141.958 10.6588 141.958 14.5546Z" fill="#1A1A1A"/>
<path d="M24.5243 23.5472L21.3409 19.0949L18.1276 23.5472H13.7356L19.1299 16.0779L13.9713 8.90137H18.3635L21.3409 13.0315L24.3181 8.90137H28.6806L23.5221 16.0486L28.9165 23.5472H24.5243Z" fill="#E51C38"/>
</g>
<defs>
<clipPath id="clip0_55_22438">
<rect width="196" height="26" fill="white" transform="translate(0 0.5)"/>
</clipPath>
</defs>
</svg>
