<svg width="18" height="19" viewBox="0 0 18 19" fill="none" xmlns="http://www.w3.org/2000/svg">
<g clip-path="url(#clip0_55_20459)">
<path d="M6.75 8.32031C6.75 8.91705 6.98705 9.48935 7.40901 9.9113C7.83097 10.3333 8.40326 10.5703 9 10.5703C9.59674 10.5703 10.169 10.3333 10.591 9.9113C11.0129 9.48935 11.25 8.91705 11.25 8.32031C11.25 7.72358 11.0129 7.15128 10.591 6.72932C10.169 6.30737 9.59674 6.07031 9 6.07031C8.40326 6.07031 7.83097 6.30737 7.40901 6.72932C6.98705 7.15128 6.75 7.72358 6.75 8.32031Z" stroke="white" stroke-width="1.6" stroke-linecap="round" stroke-linejoin="round"/>
<path d="M13.2428 12.5631L10.0605 15.7453C9.77924 16.0263 9.39794 16.1841 9.00038 16.1841C8.60282 16.1841 8.22151 16.0263 7.94025 15.7453L4.75725 12.5631C3.91817 11.724 3.34675 10.6549 3.11527 9.49098C2.88378 8.32711 3.00262 7.12072 3.45676 6.02438C3.91089 4.92805 4.67993 3.99099 5.66661 3.33172C6.6533 2.67244 7.81333 2.32056 9 2.32056C10.1867 2.32056 11.3467 2.67244 12.3334 3.33172C13.3201 3.99099 14.0891 4.92805 14.5433 6.02438C14.9974 7.12072 15.1162 8.32711 14.8847 9.49098C14.6533 10.6549 14.0818 11.724 13.2428 12.5631Z" stroke="white" stroke-width="1.6" stroke-linecap="round" stroke-linejoin="round"/>
</g>
<defs>
<clipPath id="clip0_55_20459">
<rect width="18" height="18" fill="white" transform="translate(0 0.0703125)"/>
</clipPath>
</defs>
</svg>
