<svg width="195" height="202" viewBox="0 0 195 202" fill="none" xmlns="http://www.w3.org/2000/svg">
<rect x="1" y="1" width="193" height="200" stroke="#44851E" stroke-width="2"/>
<rect width="195" height="108" fill="#44851E"/>
<rect x="98" y="91" width="22" height="22" transform="rotate(45 98 91)" fill="#44851E"/>
<g clip-path="url(#clip0_2250_134634)">
<path d="M118.098 68.3599H101.543V68.0153H118.098V68.3599ZM109.821 70.8873C106.818 70.8873 104.315 69.7385 102.775 68.8195H116.866C115.326 69.7768 112.785 70.8873 109.821 70.8873ZM97.5009 66.4836C93.1889 66.4836 89.1079 65.3731 85.6044 63.2669L87.6449 59.8206C90.3784 61.6203 93.7664 62.7308 97.4624 62.7308C101.158 62.7308 104.585 61.6586 107.28 59.8206L109.32 63.2669C105.894 65.3731 101.813 66.4836 97.5009 66.4836ZM98.4634 71.3468L97.7704 72.419V66.9814C98.0399 66.9814 98.3479 66.9814 98.6174 66.9431L98.4634 71.3468ZM97.2699 72.419L96.5769 71.3468L96.4229 66.9431C96.6924 66.9431 97.0004 66.9814 97.2699 66.9814V72.419ZM93.4969 68.3599H76.9419V68.0153H93.4969V68.3599ZM85.2194 70.8873C82.2164 70.8873 79.7139 69.7385 78.1739 68.8195H92.2649C90.7249 69.7768 88.1839 70.8873 85.2194 70.8873ZM81.0999 61.6586C81.1769 61.7352 81.2539 61.7735 81.3694 61.8501C81.8699 62.1947 82.5629 62.4628 83.3329 62.616C83.2559 62.6543 83.1789 62.6925 83.1404 62.7308C82.9864 62.8457 82.8324 62.9223 82.7169 62.9989C82.2549 63.2287 81.7544 63.3435 81.7544 63.3435L81.2154 63.4584L81.6389 63.8031C82.8709 64.7604 83.9874 65.105 84.9499 65.2199V67.5175H78.9439L81.0999 61.6586ZM78.8669 58.7483C79.5599 58.7101 81.0614 58.7483 82.8324 59.361C83.9104 59.744 84.7959 60.2035 85.4119 60.663C85.1809 60.7779 85.0269 61.0076 85.0269 61.2757C84.9884 61.2374 84.9499 61.2374 84.9114 61.1991C84.4879 60.9693 84.0259 60.7779 83.5639 60.5864C83.1019 60.4332 82.6014 60.2801 82.1394 60.2418L83.4099 60.9311L84.6804 61.6203L85.0269 61.8118C84.6419 61.9267 84.2954 62.0799 83.9489 62.233C82.9479 62.0799 82.1779 61.7735 81.6004 61.4289C80.3684 60.5864 79.4059 59.4759 78.8669 58.7483ZM78.6744 54C78.9824 54.1532 79.4059 54.3446 79.9834 54.4978C80.2529 54.5744 80.4839 54.651 80.7149 54.7659C80.8304 54.9573 81.0614 55.1105 81.3309 55.1105C81.3694 55.1105 81.3694 55.1105 81.3694 55.1105C81.4464 55.1488 81.5234 55.2254 81.6004 55.2637C81.6389 55.57 81.9084 55.7998 82.2164 55.8381C82.3704 55.9912 82.5244 56.1827 82.6784 56.4125C82.7554 56.5273 82.8324 56.6422 82.8709 56.7571C83.1019 57.6378 83.6409 58.4803 84.2954 59.1696C84.1799 59.0547 84.0644 58.9781 83.9489 58.8632L82.5629 57.6761C82.1009 57.2549 81.6389 56.872 81.1769 56.4508C81.4849 56.9869 81.8699 57.4847 82.2934 57.9442C82.6784 58.3654 83.0634 58.7483 83.4869 59.1313C83.3329 59.0547 83.1789 59.0164 83.0249 58.9398C82.3704 58.7101 81.7159 58.5569 81.1769 58.442C80.1374 57.4464 78.9439 55.9146 78.6744 54ZM81.5234 54.4212C81.5234 54.5744 81.4079 54.6893 81.2539 54.6893C81.0999 54.6893 80.9844 54.5744 80.9844 54.4212C80.9844 54.268 81.0999 54.1532 81.2539 54.1532C81.4079 54.1149 81.5234 54.268 81.5234 54.4212ZM82.5244 55.1105C82.5244 55.2637 82.4089 55.3785 82.2549 55.3785C82.1009 55.3785 81.9854 55.2637 81.9854 55.1105C81.9854 54.9573 82.1009 54.8424 82.2549 54.8424C82.3704 54.8041 82.5244 54.9573 82.5244 55.1105ZM78.4819 47.8348C78.7514 48.1794 79.1364 48.6389 79.5984 49.1367C79.5984 49.175 79.5984 49.2133 79.5984 49.2133C79.5984 49.5963 79.9064 49.9026 80.2914 49.9026C80.3299 49.9026 80.3299 49.9026 80.3684 49.9026C80.7919 50.3238 81.2539 50.7068 81.7159 51.0897C81.9469 52.3151 82.3319 53.5022 82.9094 54.5744C82.9094 54.6127 82.8709 54.6893 82.8709 54.7276C82.7554 54.5361 82.5244 54.4212 82.2934 54.4212C82.2164 54.4212 82.1394 54.4212 82.0624 54.4595C82.0239 54.4212 82.0239 54.4212 82.0239 54.3829C82.0239 54.0383 81.7929 53.7702 81.4849 53.6936C81.1769 53.3107 80.9074 52.8895 80.5994 52.4683C80.2914 51.9704 79.9834 51.4726 79.7139 50.8982C79.7139 51.2046 79.7909 51.5109 79.9064 51.8173C79.9834 52.1236 80.1374 52.3917 80.2529 52.6597C80.4454 53.0427 80.6764 53.4256 80.9459 53.8085C80.8304 53.8851 80.7149 54.0383 80.6764 54.1915C80.6379 54.1915 80.5994 54.1532 80.5609 54.1532C79.0594 52.1236 78.3664 50.0558 78.4819 47.8348ZM80.4454 49.1367C80.4454 49.2899 80.3299 49.4048 80.1759 49.4048C80.0219 49.4048 79.9064 49.2899 79.9064 49.1367C79.9064 48.9836 80.0219 48.8687 80.1759 48.8687C80.3299 48.8304 80.4454 48.9836 80.4454 49.1367ZM80.7919 41.2866C80.9459 41.4781 81.1384 41.7462 81.4079 42.2057C81.2154 42.6269 81.0614 43.0864 81.0614 43.5842C81.0229 44.6947 81.2539 45.6138 81.7929 46.4945C81.6774 46.954 81.6389 47.4136 81.5619 47.8731C81.5234 47.7965 81.4849 47.7199 81.4464 47.6433C81.2539 47.1838 81.0999 46.7243 80.9844 46.2265C80.8304 45.7287 80.7149 45.2691 80.5994 44.7713C80.5224 45.2691 80.5609 45.8052 80.5994 46.3031C80.6764 46.8009 80.7919 47.337 80.9844 47.7965C81.0999 48.1411 81.2924 48.4475 81.4849 48.7538C81.4849 48.8304 81.4849 48.907 81.4849 48.9836C81.4849 49.4431 81.5234 49.9026 81.5619 50.3621C81.2924 50.1324 81.0229 49.9026 80.7919 49.6729C80.9074 49.558 80.9459 49.4048 80.9459 49.2133C80.9459 48.8304 80.6379 48.5241 80.2529 48.5241C80.2144 48.5241 80.1759 48.5241 80.1759 48.5241C79.6369 47.1072 78.7129 43.7374 80.7919 41.2866ZM81.5234 43.6225C81.5619 42.3971 82.4474 41.3632 82.9479 40.7888C83.0249 40.7122 83.0634 40.6357 83.1404 40.5591C83.2174 40.4442 83.2944 40.3676 83.3714 40.2527C83.5254 40.0613 83.7179 39.8698 83.8334 39.6783C83.9489 40.023 84.1029 40.5591 84.1799 41.4015C83.8334 41.8227 83.5254 42.2823 83.2559 42.7035C83.2559 42.5886 83.2559 42.4737 83.2944 42.3589C83.2944 42.1291 83.2944 41.8993 83.2944 41.6696C83.1019 41.861 82.9864 42.0525 82.9094 42.2823C82.8324 42.512 82.7554 42.7418 82.7554 42.9715C82.7169 43.2013 82.7169 43.4311 82.7554 43.6608C82.4089 44.3501 82.1394 45.0394 81.9469 45.7669C81.6389 45.1543 81.5234 44.4267 81.5234 43.6225ZM85.3734 61.0842C85.3734 60.9311 85.4889 60.8162 85.6429 60.8162C85.7969 60.8162 85.9124 60.9311 85.9124 61.0842C85.9124 61.2374 85.7969 61.3523 85.6429 61.3523C85.5274 61.3523 85.3734 61.2374 85.3734 61.0842ZM86.8364 65.0667C86.8364 64.9136 86.9519 64.7987 87.1059 64.7987C87.2599 64.7987 87.3754 64.9136 87.3754 65.0667C87.3754 65.2199 87.2599 65.3348 87.1059 65.3348C86.9519 65.3348 86.8364 65.2199 86.8364 65.0667ZM87.0674 65.756C87.4524 65.756 87.7604 65.4497 87.7604 65.0667C87.7604 65.0284 87.7604 64.9901 87.7604 64.9518C88.7999 65.4114 89.8779 65.7943 90.9559 66.1006L91.4949 67.5175H85.4504V65.2582C85.4889 65.2582 85.4889 65.2582 85.5274 65.2582C85.8354 65.2582 86.1434 65.2199 86.4129 65.1816C86.4514 65.4879 86.7209 65.756 87.0674 65.756ZM85.0654 63.4967L84.7189 63.535C84.4109 63.5733 84.1029 63.5733 83.7564 63.6116C84.0644 63.7648 84.3724 63.8413 84.6804 63.9179C84.9884 63.9562 85.3349 63.9945 85.6814 63.9562C85.7199 63.9562 85.7584 63.9562 85.7969 63.9179C86.1049 64.1094 86.4129 64.2626 86.7594 64.4157C86.6824 64.454 86.6054 64.5306 86.5284 64.6072C85.5274 64.837 84.0644 64.837 82.3704 63.6499C82.5629 63.5733 82.7554 63.4967 82.9479 63.4201C83.0634 63.3435 83.2174 63.2669 83.4099 63.1521C83.9489 62.7691 84.7574 62.2713 85.6429 62.1947L84.9114 63.4201L85.0654 63.4967ZM86.6824 60.2801C86.6824 60.4332 86.5669 60.5481 86.4129 60.5481C86.2589 60.5481 86.1434 60.4332 86.1434 60.2801C86.1434 60.1269 86.2589 60.012 86.4129 60.012C86.5284 59.9737 86.6824 60.1269 86.6824 60.2801ZM86.3744 59.5525C86.1049 59.5525 85.8739 59.7057 85.7584 59.8971C84.7959 59.093 83.7179 57.9442 83.3329 56.6039C83.2559 56.1444 83.2174 55.7232 83.2559 55.2637C84.2569 56.9103 85.6044 58.3654 87.2599 59.5142L87.0289 59.9354C86.9134 59.7057 86.6824 59.5525 86.3744 59.5525ZM97.5009 35.849C106.048 35.849 113.016 41.7462 113.016 49.0219C113.016 49.4814 112.978 49.9409 112.939 50.3621C112.862 50.5536 112.477 50.6302 112.593 50.8982C112.67 50.7451 112.862 50.5919 112.901 50.477C112.323 55.0339 108.974 58.9015 104.354 60.8545C104.315 60.8545 104.315 60.8928 104.277 60.8928C104.161 60.8928 104.007 60.8928 104.007 60.7779L103.815 60.663C103.738 60.5098 103.43 60.5098 103.43 60.3184C103.045 60.2035 103.083 60.1652 102.737 60.1269C102.467 60.0886 102.236 59.9737 101.928 59.9737C101.62 59.9354 100.927 60.3567 100.581 60.395C100.465 60.4332 100.465 60.3567 100.388 60.2418C99.9649 59.8206 99.1564 60.0886 98.2709 60.4332C98.0399 60.5481 97.6934 60.7396 97.4239 60.7396C96.8079 60.7396 96.3844 60.3184 95.5759 60.2801C95.3064 60.2801 95.5374 60.8928 95.4219 61.1608C95.3064 61.1225 94.9214 60.9694 94.9214 60.9694C94.9214 60.9694 94.5364 60.9311 94.4209 60.8928C94.2669 60.8545 94.1514 60.8162 94.1129 60.8545C93.8819 61.1225 93.6894 60.395 93.2274 60.3567C93.0349 60.0886 92.6499 59.7823 92.3419 59.4759C92.1879 59.2845 91.8029 58.4037 91.8029 58.6718C91.7644 59.361 92.4189 59.6674 92.3804 60.1652C92.3804 60.0886 92.2264 60.1269 92.2649 60.1269C92.2649 60.2035 92.0724 60.2418 92.1109 60.395C91.9184 60.4332 91.4564 60.4332 91.3794 60.5481C91.2639 60.7779 90.8789 60.8545 90.6094 60.8928C85.4889 58.7483 81.9854 54.268 81.9854 49.0602C81.9854 41.7462 88.9539 35.849 97.5009 35.849ZM84.6804 35.7341C87.8374 33.5131 91.6104 32.2111 95.6529 31.8665C95.7299 32.6324 95.7684 33.6663 95.7684 35.0831V35.3895C92.3419 35.6958 89.2619 36.9212 86.8364 38.7976L84.6804 35.7341ZM95.8454 29.9901C96.2689 29.9901 96.7309 29.9901 97.2314 29.9901V35.3512C96.8849 35.3512 96.5769 35.3512 96.2689 35.3895V35.1214C96.2689 32.5558 96.1149 30.7943 95.8454 29.9901ZM99.1564 29.9901C98.8869 30.7943 98.7329 32.5558 98.7329 35.1214V35.3895C98.3864 35.3512 98.0784 35.3512 97.7319 35.3512V29.9901C98.2709 29.9901 98.7329 29.9901 99.1564 29.9901ZM93.0349 29.3774V29.0328C93.5354 28.9945 94.8444 28.9179 96.7309 28.9179H98.2324C100.119 28.9179 101.428 28.9945 101.928 29.0328V29.3774C101.389 29.4157 99.8109 29.4923 97.4624 29.4923C95.1524 29.5306 93.6124 29.4157 93.0349 29.3774ZM98.7329 28.4201H98.2709C97.7704 28.4201 97.2314 28.4201 96.7694 28.4201H96.2689C96.3844 28.0372 96.4614 27.2713 96.4614 25.8928V21.6805C96.8464 21.7188 97.2314 21.7188 97.5394 21.7188C97.8089 21.7188 98.2324 21.6805 98.6174 21.6805V25.8928C98.5789 27.3096 98.6559 28.0372 98.7329 28.4201ZM95.9609 21.1444V20.8381C96.3074 20.7998 96.9619 20.7615 97.5009 20.7615C98.0399 20.7615 98.7329 20.7998 99.0409 20.8381V21.1444C98.6559 21.1827 97.8859 21.221 97.5009 21.221C97.1159 21.221 96.3459 21.1827 95.9609 21.1444ZM97.5009 19.6127C97.7319 19.6127 97.9629 19.7659 97.9629 19.9573C97.9629 20.1488 97.7704 20.302 97.5009 20.302C97.2699 20.302 97.0389 20.1488 97.0389 19.9573C97.0774 19.7659 97.2699 19.6127 97.5009 19.6127ZM110.321 35.6575L108.127 38.7976C105.701 36.9595 102.621 35.7341 99.2334 35.4278V35.0831C99.2334 33.6663 99.2719 32.6324 99.3489 31.8665C103.391 32.1729 107.164 33.4748 110.321 35.6575ZM111.168 39.7166C111.284 39.9081 111.476 40.0996 111.63 40.291C111.707 40.4059 111.784 40.4825 111.861 40.5974C111.9 40.674 111.977 40.7122 112.054 40.8271C112.554 41.4015 113.44 42.4354 113.478 43.6608C113.517 44.5033 113.401 45.1925 113.055 45.8435C112.862 45.116 112.593 44.4267 112.246 43.7374C112.285 43.5076 112.285 43.2779 112.246 43.0481C112.208 42.8184 112.169 42.5886 112.092 42.3589C112.015 42.1291 111.9 41.9376 111.707 41.7462C111.707 41.9759 111.707 42.2057 111.707 42.4354C111.707 42.5503 111.707 42.6652 111.746 42.7801C111.476 42.3206 111.168 41.8993 110.822 41.4781C110.86 40.5974 111.014 40.023 111.168 39.7166ZM114.21 41.2866C116.289 43.7374 115.365 47.1072 114.826 48.5623C114.787 48.5623 114.749 48.5623 114.749 48.5623C114.364 48.5623 114.056 48.8687 114.056 49.2516C114.056 49.4048 114.133 49.5963 114.21 49.7111C113.979 49.9409 113.709 50.1707 113.44 50.4004C113.478 49.9409 113.517 49.4814 113.517 49.0219C113.517 48.9453 113.517 48.8687 113.517 48.7921C113.709 48.4858 113.902 48.1794 114.017 47.8348C114.21 47.337 114.325 46.8392 114.402 46.3413C114.479 45.8435 114.479 45.3074 114.402 44.8096C114.248 45.3074 114.133 45.8052 114.017 46.2648C113.902 46.7626 113.748 47.2221 113.555 47.6816C113.517 47.7582 113.478 47.8348 113.44 47.9114C113.401 47.4518 113.324 46.9923 113.209 46.5328C113.748 45.6521 113.979 44.733 113.94 43.6225C113.94 43.1247 113.786 42.6652 113.594 42.244C113.825 41.7462 114.056 41.4398 114.21 41.2866ZM114.556 49.1367C114.556 48.9836 114.672 48.8687 114.826 48.8687C114.98 48.8687 115.095 48.9836 115.095 49.1367C115.095 49.2899 114.98 49.4048 114.826 49.4048C114.672 49.4048 114.556 49.2899 114.556 49.1367ZM115.403 49.1367C115.865 48.6389 116.25 48.1794 116.52 47.8348C116.635 50.0558 115.942 52.1236 114.479 54.1532C114.441 54.1532 114.402 54.1915 114.364 54.1915C114.325 54.0383 114.21 53.9234 114.094 53.8085C114.364 53.4639 114.556 53.081 114.787 52.6597C114.941 52.3917 115.057 52.0853 115.134 51.8173C115.211 51.5109 115.288 51.2046 115.326 50.8982C115.095 51.4726 114.787 51.9704 114.441 52.4683C114.171 52.8895 113.863 53.2724 113.555 53.6936C113.247 53.7702 113.016 54.0383 113.016 54.3829C113.016 54.4212 112.978 54.4212 112.978 54.4595C112.901 54.4212 112.824 54.4212 112.747 54.4212C112.516 54.4212 112.323 54.5361 112.169 54.7276C112.169 54.6893 112.131 54.6127 112.131 54.5744C112.708 53.4639 113.132 52.3151 113.324 51.0897C113.786 50.7068 114.248 50.3238 114.672 49.9026C114.71 49.9026 114.71 49.9026 114.749 49.9026C115.134 49.9026 115.442 49.5963 115.442 49.2133C115.403 49.2133 115.403 49.175 115.403 49.1367ZM113.478 54.4212C113.478 54.268 113.594 54.1532 113.748 54.1532C113.902 54.1532 114.017 54.268 114.017 54.4212C114.017 54.5744 113.902 54.6893 113.748 54.6893C113.594 54.6893 113.478 54.5744 113.478 54.4212ZM112.477 55.1105C112.477 54.9573 112.593 54.8424 112.747 54.8424C112.901 54.8424 113.016 54.9573 113.016 55.1105C113.016 55.2637 112.901 55.3785 112.747 55.3785C112.631 55.3785 112.477 55.2637 112.477 55.1105ZM116.327 54C116.019 55.9146 114.864 57.4464 113.863 58.442C113.286 58.5569 112.67 58.7101 112.015 58.9398C111.861 59.0164 111.707 59.0547 111.553 59.1313C111.977 58.7483 112.362 58.3654 112.747 57.9442C113.17 57.4847 113.555 56.9869 113.863 56.4508C113.401 56.872 112.939 57.2932 112.477 57.6761L111.091 58.8632C110.976 58.9781 110.86 59.0547 110.745 59.1696C111.361 58.4803 111.9 57.6378 112.169 56.7571C112.246 56.6422 112.323 56.5273 112.362 56.4125C112.516 56.221 112.67 56.0295 112.824 55.8381C113.132 55.7998 113.363 55.57 113.44 55.2637C113.517 55.1871 113.594 55.1488 113.671 55.1105C113.671 55.1105 113.709 55.1105 113.748 55.1105C114.017 55.1105 114.248 54.9573 114.364 54.7659C114.595 54.6893 114.826 54.5744 115.095 54.4978C115.634 54.3446 116.058 54.1532 116.327 54ZM116.135 58.7483C115.596 59.4759 114.672 60.5864 113.363 61.4289C112.785 61.8118 112.015 62.0799 111.014 62.233C110.706 62.0799 110.321 61.8884 109.936 61.8118L110.283 61.6203L111.553 60.9311L112.824 60.2418C112.323 60.2801 111.861 60.4332 111.399 60.5864C110.937 60.7396 110.475 60.9693 110.052 61.1991C110.013 61.2374 109.975 61.2374 109.936 61.2757C109.936 61.0076 109.782 60.7779 109.551 60.663C110.206 60.2418 111.053 59.744 112.131 59.361C113.94 58.7483 115.442 58.7101 116.135 58.7483ZM109.32 60.8162C109.474 60.8162 109.59 60.9311 109.59 61.0842C109.59 61.2374 109.474 61.3523 109.32 61.3523C109.166 61.3523 109.051 61.2374 109.051 61.0842C109.051 60.9311 109.166 60.8162 109.32 60.8162ZM108.897 60.2801C108.897 60.4332 108.781 60.5481 108.627 60.5481C108.473 60.5481 108.358 60.4332 108.358 60.2801C108.358 60.1269 108.473 60.012 108.627 60.012C108.781 59.9737 108.897 60.1269 108.897 60.2801ZM108.627 59.5525C108.358 59.5525 108.127 59.7057 108.011 59.9354L107.78 59.5142C109.436 58.3271 110.783 56.872 111.784 55.2637C111.823 55.7232 111.784 56.1444 111.669 56.6039C111.284 57.9442 110.206 59.093 109.243 59.8971C109.089 59.6674 108.858 59.5525 108.627 59.5525ZM108.473 64.6455C108.396 64.5689 108.319 64.4923 108.242 64.454C108.55 64.3009 108.897 64.1094 109.205 63.9562C109.243 63.9562 109.282 63.9945 109.32 63.9945C109.667 64.0328 109.975 63.9945 110.321 63.9562C110.629 63.9179 110.976 63.803 111.245 63.6499C110.899 63.6116 110.591 63.5733 110.283 63.5733L109.936 63.535L110.052 63.4584L109.32 62.233C110.206 62.2713 111.014 62.8074 111.553 63.1904C111.746 63.3052 111.9 63.4201 112.015 63.4584C112.208 63.5733 112.439 63.6499 112.593 63.6882C110.937 64.8753 109.474 64.837 108.473 64.6455ZM107.588 65.0667C107.588 64.9136 107.703 64.7987 107.857 64.7987C108.011 64.7987 108.127 64.9136 108.127 65.0667C108.127 65.2199 108.011 65.3348 107.857 65.3348C107.742 65.3348 107.588 65.2199 107.588 65.0667ZM107.934 65.756C108.281 65.756 108.589 65.4879 108.627 65.1816C108.897 65.2199 109.205 65.2582 109.513 65.2582C109.551 65.2582 109.551 65.2582 109.59 65.2582V67.5175H103.545L104.084 66.1006C105.201 65.7943 106.24 65.4114 107.28 64.9518C107.28 64.9901 107.28 65.0284 107.28 65.0667C107.241 65.4497 107.549 65.756 107.934 65.756ZM116.058 67.5175H110.052V65.2199C111.014 65.105 112.131 64.7604 113.363 63.8031L113.786 63.4584L113.247 63.3435C113.247 63.3435 112.747 63.2287 112.285 62.9989C112.169 62.9606 112.054 62.8457 111.861 62.7308C111.784 62.6925 111.746 62.6543 111.669 62.616C112.477 62.4245 113.132 62.1564 113.632 61.8501C113.709 61.7735 113.825 61.7352 113.902 61.6586L116.058 67.5175ZM92.4959 30.2965H92.1494C92.1109 30.0284 92.1109 29.6072 92.1109 29.2243C92.1109 28.8413 92.1494 28.4201 92.1494 28.1521H92.4959C92.5344 28.4584 92.5729 28.9562 92.5729 29.2243C92.5729 29.4923 92.5344 29.9901 92.4959 30.2965ZM91.3024 29.6455C91.1484 29.6455 90.9944 29.454 90.9944 29.2243C90.9944 28.9945 91.1099 28.8031 91.3024 28.8031C91.4564 28.8031 91.6104 28.9945 91.6104 29.2243C91.6104 29.454 91.4949 29.6455 91.3024 29.6455ZM102.506 28.1521H102.852C102.891 28.4201 102.891 28.8413 102.891 29.2243C102.891 29.6072 102.852 30.0284 102.852 30.2965H102.506C102.467 29.9901 102.467 29.4923 102.467 29.2243C102.467 28.9562 102.506 28.4584 102.506 28.1521ZM103.699 28.8031C103.853 28.8031 104.007 28.9945 104.007 29.2243C104.007 29.454 103.892 29.6455 103.699 29.6455C103.545 29.6455 103.391 29.454 103.391 29.2243C103.43 28.9945 103.545 28.8031 103.699 28.8031ZM116.597 67.5175L114.325 61.3523C115.557 60.395 116.366 59.2845 116.789 58.6718L117.02 58.3654L116.635 58.3271C116.597 58.3271 115.827 58.2122 114.672 58.3271C116.019 56.872 116.789 55.2254 116.905 53.5405L116.943 53.0044L116.52 53.349C116.52 53.349 116.096 53.6553 115.249 53.9234C116.674 51.779 117.251 49.558 116.982 47.1838L116.905 46.5711L116.52 47.0689C116.52 47.0689 116.058 47.6816 115.403 48.4475C116.019 46.7243 116.751 43.2396 114.402 40.7505L114.248 40.5591L114.056 40.7122C114.056 40.7122 113.748 41.0186 113.363 41.6696C113.055 41.1335 112.708 40.7505 112.439 40.4442C112.362 40.3676 112.323 40.291 112.285 40.2527C112.208 40.1378 112.131 40.0613 112.015 39.9464C111.746 39.64 111.476 39.3337 111.399 39.0656L111.245 38.6444L110.976 39.0273C110.937 39.0656 110.552 39.5634 110.398 40.9037C109.859 40.2527 109.205 39.6783 108.55 39.1039L111.053 35.5427L110.86 35.3895C107.588 33.0919 103.661 31.7133 99.4644 31.3687C99.5799 30.4114 99.6954 30.0667 99.7724 29.9518C100.927 29.9136 101.697 29.8753 102.082 29.837C102.121 30.1816 102.121 30.488 102.121 30.5262V30.756H103.353L103.391 30.5262C103.391 30.5262 103.43 30.2965 103.43 30.0284C103.545 30.0667 103.622 30.105 103.738 30.105C104.161 30.105 104.508 29.6838 104.508 29.186C104.508 28.6882 104.161 28.2669 103.738 28.2669C103.622 28.2669 103.507 28.3052 103.43 28.3435C103.43 28.0755 103.391 27.8457 103.391 27.8457L103.353 27.616H102.121V27.8457C102.121 27.884 102.082 28.1904 102.082 28.535C101.659 28.4967 100.696 28.4584 99.3489 28.4201C99.2719 28.2669 99.1564 27.6543 99.1564 25.8928V21.6422C99.3104 21.6422 99.4259 21.6039 99.4259 21.6039H99.6569V20.3785L99.4259 20.3403C99.3874 20.3403 98.9639 20.302 98.4634 20.2637C98.5404 20.1488 98.5404 20.0339 98.5404 19.919C98.5404 19.4595 98.1169 19.1149 97.6164 19.1149C97.1159 19.1149 96.6924 19.4978 96.6924 19.919C96.6924 20.0339 96.7309 20.1488 96.7694 20.2637C96.2304 20.302 95.8069 20.3403 95.8069 20.3403L95.5759 20.3785V21.6039H95.8069C95.8069 21.6039 95.9224 21.6039 96.0764 21.6422V25.8928C96.0764 27.6925 95.9224 28.2669 95.8839 28.4201C94.5364 28.4584 93.5739 28.4967 93.1504 28.535C93.1119 28.1904 93.1119 27.884 93.1119 27.8457V27.616H91.8799L91.8414 27.8457C91.8414 27.8457 91.8029 28.0755 91.8029 28.3435C91.6874 28.3052 91.6104 28.2669 91.4949 28.2669C91.0714 28.2669 90.7249 28.6882 90.7249 29.186C90.7249 29.6838 91.0714 30.105 91.4949 30.105C91.6104 30.105 91.7259 30.0667 91.8029 30.0284C91.8029 30.2965 91.8414 30.5262 91.8414 30.5262L91.8799 30.756H93.1119V30.5262C93.1119 30.488 93.1504 30.1816 93.1504 29.837C93.5354 29.8753 94.3054 29.9136 95.4604 29.9518C95.5374 30.0667 95.6529 30.4114 95.7684 31.3687C91.5334 31.7133 87.6064 33.1302 84.3339 35.4661L84.0259 35.6192L86.4899 39.1039C85.8354 39.64 85.2194 40.2527 84.6804 40.8654C84.4879 39.5252 84.1029 39.0273 84.1029 38.989L83.8334 38.6061L83.6794 39.0273C83.6024 39.2954 83.3329 39.6017 83.0634 39.9081C82.9864 40.023 82.9094 40.0996 82.7939 40.2144C82.7554 40.2527 82.6784 40.3293 82.6399 40.4059C82.4089 40.674 82.0624 41.0952 81.7159 41.6313C81.3309 40.9803 81.0229 40.6739 81.0229 40.6739L80.8304 40.5208L80.6764 40.7122C78.2509 43.2396 79.0209 46.7243 79.6369 48.4475C78.9439 47.6816 78.5204 47.0689 78.5204 47.0689L78.1354 46.5711L78.0584 47.1838C77.7889 49.558 78.3279 51.779 79.7909 53.9234C78.9439 53.6553 78.5204 53.349 78.5204 53.349L78.0969 53.0044L78.1354 53.5405C78.2509 55.1871 79.0209 56.8337 80.3684 58.3271C79.2134 58.2122 78.4819 58.3271 78.4049 58.3271L78.0199 58.3654L78.2509 58.6718C78.6744 59.2845 79.4829 60.395 80.7149 61.3523L78.4434 67.5175H76.4414V68.8578H77.2499C78.7129 69.8151 81.6004 71.3851 85.2194 71.3851C88.8384 71.3851 91.7259 69.8151 93.1889 68.8578H93.9974V67.5175H92.0339L91.5719 66.2538C92.9964 66.5985 94.4594 66.8282 95.9224 66.9431L96.0764 71.5L97.5009 73.6061L98.9254 71.5L99.0794 66.9431C100.581 66.8665 102.044 66.6367 103.43 66.2538L102.968 67.5175H101.004V68.8578H101.813C103.276 69.8151 106.163 71.3851 109.782 71.3851C113.401 71.3851 116.289 69.8151 117.752 68.8578H118.56V67.5175H116.597ZM110.013 56.6422C109.975 56.6422 109.898 56.6805 109.782 56.6422C109.705 56.6039 109.667 56.489 109.667 56.5273C109.667 56.5273 109.705 56.7188 109.667 56.7571C109.628 56.9103 109.59 56.9869 109.397 57.0252C109.474 57.1783 109.474 57.2932 109.436 57.3698C109.744 57.0634 110.013 56.7571 110.013 56.6422ZM85.5659 45.3457C85.2964 45.9967 85.9124 46.3413 85.9509 46.954C86.1049 47.0306 86.0279 46.8392 86.1434 46.8774C86.1819 47.0306 86.2974 47.1072 86.2974 47.2987C86.3744 47.3753 86.6054 47.2987 86.6824 47.4136C86.6824 47.6433 86.6054 47.7582 86.6824 47.9497C86.7979 48.0262 86.9904 48.0262 87.1444 48.0645C87.1444 48.1794 87.2214 48.256 87.2599 48.3709C87.1444 48.6006 87.0674 48.8687 86.9134 49.0602C87.0674 49.4048 86.8749 49.9026 86.9519 50.2855C87.0289 50.7451 87.5294 51.128 87.5294 51.779C88.1839 51.9704 88.1839 52.8895 88.5304 53.3873C88.4919 54.1915 88.9539 54.6127 88.8384 55.4168C89.0694 55.7998 89.1079 56.3359 89.4544 56.6039C89.8394 56.9103 90.6094 57.8293 90.4554 57.4847C90.3784 57.3698 89.9164 56.2976 89.9549 55.6083C89.9549 55.1871 90.2244 54.7276 90.4169 54.268C90.7249 53.4639 90.4939 53.0044 91.1484 52.7746C91.1484 52.7746 91.2639 52.7746 91.2639 52.7363C91.2639 52.698 91.2254 52.698 91.2254 52.6597C90.8789 51.779 91.7259 51.128 91.6104 50.477C91.5334 50.0941 91.2254 49.6729 91.1484 49.5963C91.0714 49.5197 90.8404 49.5963 90.4939 49.558C90.2629 49.1367 89.7239 49.0219 89.7239 48.3709C89.5314 48.2177 89.2234 48.1794 89.2234 47.8348C88.8769 47.9114 88.7999 47.4901 88.5304 47.3753C88.3379 47.4136 88.2224 47.5284 88.1069 47.6433C87.8374 47.4901 87.5679 47.605 87.2984 47.7582C87.1444 47.7199 87.0674 47.6433 86.9519 47.5667C86.9519 47.1838 87.0674 46.8774 86.8364 46.6477C86.9134 46.3413 87.0674 46.0733 86.8364 45.8818C86.6054 45.8435 86.6824 46.1499 86.4129 46.035C86.2204 45.5755 86.8749 45.2308 86.8364 44.6947C87.1059 44.6181 87.4139 44.6564 87.6834 44.5799C87.8374 44.6564 87.8374 45.0777 87.6834 45.1543C87.7219 45.2308 87.7604 45.2691 87.8374 45.2691C88.1069 45.0777 87.9914 44.7713 88.0684 44.465C88.1839 44.1969 88.5689 43.9672 88.7614 43.6608C88.8384 43.5842 88.7999 43.4311 88.8384 43.3545C88.8769 43.3162 88.9924 43.3162 89.0694 43.2396C89.1079 43.2013 89.1079 43.0481 89.1464 43.0481C89.3389 42.895 89.7239 42.7801 89.9934 42.6269C90.1474 42.5503 90.2629 42.4354 90.5324 42.3971C90.6864 42.1291 90.6094 41.6313 90.9944 41.593C90.9559 41.7845 90.9944 41.861 90.9559 42.0525C91.4949 41.8993 91.2254 41.2101 91.6489 40.942C91.5334 40.4442 91.8799 40.291 92.0724 39.9847C91.9184 39.8698 91.4949 39.8698 91.6874 39.5634C91.9184 39.4869 91.8414 39.7166 91.9954 39.7166C92.2649 39.6783 92.2649 39.372 92.4574 39.2571C92.6114 39.2188 92.5729 39.4103 92.6884 39.372C92.7654 39.1422 92.7269 38.7976 92.8424 38.5678C92.3419 38.4912 92.3804 39.2954 91.7644 39.2571C91.0329 39.7166 90.8404 40.7505 90.1859 41.2866C90.1474 40.9803 89.9549 40.6357 89.9934 40.4059C89.9934 40.2527 90.2244 39.8698 90.3784 39.7549C90.4939 39.64 90.7249 39.6783 90.8404 39.6017C91.0714 39.4486 91.1484 39.2188 91.3409 39.1422C92.1109 39.1805 92.3419 38.6827 92.7269 38.1849C92.4574 37.9934 92.1879 38.2232 91.9569 38.3381C91.9954 38.2232 91.8799 38.2615 91.8414 38.2232C91.6874 38.1083 91.9954 37.9934 91.8799 37.8785C91.6874 38.1849 91.2254 38.1466 90.9559 38.3764C90.8789 38.5295 91.0329 38.8359 90.7634 38.8359C90.6479 38.721 90.8404 38.6444 90.8789 38.5295C90.5709 38.2615 90.2244 38.2615 89.8779 38.4912C89.8779 38.3381 90.0704 38.3764 90.0319 38.1849C89.9164 38.1466 89.8009 38.1083 89.7239 38.0317C89.4929 38.1466 89.3004 38.4146 89.0309 38.3381C89.0309 38.2998 88.8384 38.2232 88.7229 38.1466C88.6459 38.1849 88.5689 38.2232 88.4919 38.2615C88.4534 38.4529 88.3764 38.721 88.4149 38.8742C87.6834 38.8359 87.6064 39.4486 86.9904 39.5252C87.1829 39.8698 87.7219 39.2188 88.0299 39.5252C87.5679 40.1761 87.2599 40.9803 86.5669 41.4015C86.4129 42.0142 85.9124 42.3206 85.5659 42.7418C85.4889 43.4311 85.3734 43.8906 85.1424 44.3501C85.3349 44.8479 85.3734 45.1925 85.5659 45.3457ZM108.088 58.0591C108.127 58.0974 108.281 58.1739 108.396 58.1357C108.627 58.0974 108.743 57.9059 108.897 57.7527C108.935 57.7144 109.089 57.7144 109.128 57.6761C109.166 57.6378 109.128 57.6378 109.166 57.5995C109.243 57.523 109.282 57.5613 109.243 57.3698C108.82 57.5613 108.435 57.791 108.088 58.0591ZM99.6954 42.4354C99.8879 42.4354 99.8494 42.6652 100.042 42.7418C100.196 42.7418 100.196 42.5503 100.427 42.5886C100.504 42.7801 100.581 43.0098 100.85 43.0481C100.85 43.2013 100.773 43.2396 100.735 43.3545C100.35 43.1247 100.003 43.3928 99.6569 43.3162C99.8494 43.0864 99.6184 42.6652 99.6954 42.4354ZM101.851 42.512C101.928 42.6269 101.851 42.9332 101.928 43.0481C101.928 43.2013 102.198 43.0864 102.275 43.163C102.275 43.3928 102.313 43.6608 102.313 44.0055C101.928 44.082 101.736 43.8523 101.62 43.5076C101.351 42.9332 101.158 42.2823 101.851 42.512ZM95.8454 42.0142C95.8454 42.2057 96.1534 42.1291 96.2304 42.244C96.2689 42.5503 96.1149 42.6269 95.9609 42.7418C95.8069 42.7035 95.6529 42.6652 95.4989 42.5886C95.1909 42.8567 95.1524 43.4311 95.4604 43.6991C95.6529 43.6225 96.0764 43.5459 96.2304 43.6608C96.3074 43.5459 96.3074 43.3928 96.3074 43.2396C96.7309 43.1247 97.0004 42.5886 97.4624 42.6269C97.8089 42.6652 98.0399 43.0098 98.2709 43.2779C98.3094 43.4311 98.1939 43.4694 98.2324 43.6225C98.3864 43.5842 98.4634 43.4311 98.5404 43.3162C98.4634 42.9715 98.1939 42.8184 98.0784 42.4737C98.3094 42.5503 98.4249 42.7035 98.6559 42.6652C98.5404 43.2779 99.1564 43.2779 99.1179 43.6608C99.3489 43.5842 99.2334 43.1247 99.6184 43.2013C99.6184 43.5076 99.7339 43.6991 99.9264 43.814C100.157 43.814 100.157 43.6225 100.427 43.6608C100.581 43.814 100.465 44.1969 100.504 44.5033C100.35 44.733 100.08 44.5416 99.9264 44.7713C99.6954 44.7713 99.6569 44.5799 99.4644 44.5033C98.8484 44.8862 98.5404 44.2735 97.8859 44.2352C97.7704 44.082 97.8089 43.8523 97.6549 43.7757C97.3469 43.814 97.0389 43.9289 96.8079 43.7374C96.4999 43.9289 95.9609 44.0055 95.5759 43.9289C95.0369 44.1969 94.9599 44.8862 94.3439 45.0394C94.2284 45.6904 93.3044 46.7243 93.8049 47.4136C93.9204 47.5667 94.0744 47.605 94.1514 47.7965C94.2284 47.988 94.1129 48.1794 94.2669 48.3709C94.7674 48.7155 95.8454 48.8304 96.4229 48.4475C96.8849 48.6006 97.2314 48.5241 97.7704 48.6006C97.7319 48.7921 97.8474 48.8687 97.8859 49.0219C97.8089 49.175 97.6934 49.2899 97.6934 49.4431C97.6164 50.0175 98.2709 50.209 98.3094 50.8982C98.3479 51.4726 97.9629 52.0853 97.9629 52.4683C97.9629 52.6214 98.1169 52.7746 98.1169 52.9661C98.1554 53.3873 97.9244 53.9617 98.3094 54.2297C98.3479 54.5744 98.4249 54.8041 98.6174 55.0339C98.9639 54.8041 99.3104 54.8807 99.6184 54.7276C100.196 54.4978 100.311 53.8085 100.735 53.4256C100.619 52.3917 101.697 52.0853 101.62 51.2046C101.62 51.0131 101.466 50.8982 101.428 50.6685C101.851 49.6729 102.583 48.9836 102.968 47.988C102.775 47.7965 102.429 48.0262 102.082 47.9497C101.351 47.337 101.043 46.2648 100.658 45.3074C101.004 45.3074 101.12 45.7669 101.081 45.9967C101.351 46.4945 101.736 46.9157 101.928 47.5284C102.429 47.4136 103.353 47.1072 103.43 46.6094C103.43 46.5328 103.43 46.1882 103.391 46.1116C103.353 45.9584 103.237 45.8818 103.083 45.7287C103.006 45.8435 102.968 45.9584 102.814 45.9584C102.544 45.7287 102.236 45.384 102.313 44.9628C102.698 44.8862 102.621 45.3074 102.775 45.4606C102.968 45.4989 102.968 45.3074 103.199 45.3457C103.276 45.4989 103.353 45.6138 103.391 45.7669C103.892 45.4606 104.392 45.6904 104.392 46.3031C104.431 46.3796 104.508 46.4562 104.662 46.4562C104.893 47.1838 105.278 47.7199 105.624 48.3326C105.778 48.2177 105.74 47.9497 105.855 47.8348C105.509 47.2604 106.048 46.7243 106.356 46.3413C106.587 46.4562 106.625 46.8009 106.933 46.8392C106.933 46.9157 106.933 46.9923 106.895 47.0306C106.972 47.1072 107.087 47.1455 107.241 47.1455C107.318 47.5667 107.318 48.0645 107.626 48.256C107.588 48.6006 107.665 48.8304 107.703 49.175C107.588 49.175 107.588 49.0985 107.472 49.0985C107.665 49.7111 107.742 50.4004 108.127 50.7834C108.281 50.1324 107.896 49.7877 107.742 49.2516C107.973 49.3282 107.934 48.907 107.896 48.7921C107.857 48.4475 107.395 47.988 107.549 47.6816C107.78 47.6816 107.665 48.0645 107.819 48.1411C108.666 47.7965 107.819 46.9923 107.511 46.6094C107.588 46.1882 108.204 46.3031 108.358 45.9584C108.319 45.5755 108.242 45.5372 108.358 45.2308C108.319 45.0777 108.165 45.0394 108.088 44.8862C108.204 44.1586 107.742 43.7757 107.549 43.4694C107.934 43.2779 107.896 43.9289 108.204 44.0438C108.396 43.8906 108.204 43.4694 108.011 43.4694C107.973 42.9332 107.588 42.1674 107.472 41.4398C107.126 41.3632 106.895 41.1718 106.779 40.9037C106.279 40.9803 106.24 40.5591 105.971 40.3676C105.932 40.2144 106.009 39.9081 105.932 39.7166C106.279 39.8315 106.433 40.1761 106.548 40.5208C106.933 40.7888 107.434 41.0186 107.78 41.3249C107.742 41.1718 107.511 40.8654 107.395 40.6357C106.972 40.5974 106.972 40.0613 106.471 40.0996C106.356 39.9081 106.625 39.5252 106.394 39.2188C106.163 38.9125 106.433 38.6061 106.394 38.4529C106.356 38.1849 105.932 38.2232 105.586 37.9551C105.47 37.8785 104.7 37.8785 104.739 37.9168C104.546 37.8785 104.469 38.1849 104.354 38.1849C104.277 38.1083 104.238 37.9934 104.123 37.9551C103.853 38.0317 103.738 38.2615 103.584 38.4529C103.199 38.1849 102.775 38.2615 102.621 38.6444C102.159 38.6444 101.774 38.2232 101.389 38.5295C101.235 38.2615 100.889 37.9934 100.581 38.1849C100.581 38.3764 100.658 38.4912 100.619 38.6827C100.542 38.7593 100.427 38.7976 100.273 38.7593C100.234 38.9508 100.234 39.1805 100.08 39.2188C100.003 39.1422 100.003 39.1805 100.042 39.0656C99.9649 39.0273 99.8109 39.1039 99.6954 39.0273C99.6184 38.8742 99.8879 39.0273 99.8109 38.8742C99.7724 38.7976 99.6184 38.7593 99.5414 38.8359C99.6954 39.2954 99.1949 39.5634 99.0409 39.9464C98.9254 39.7166 99.1179 39.5252 99.1949 39.372C99.0024 39.1039 98.4634 39.3337 98.2709 38.989C97.3084 38.9125 97.5394 40.023 96.9234 40.3293C97.0004 40.4059 96.9234 40.5974 97.0004 40.6739C97.2314 40.6739 97.3084 40.5208 97.5394 40.5208C97.6549 40.6357 97.6164 40.9037 97.7319 40.9803C97.8089 40.942 97.8859 40.8654 98.0784 40.9037C98.0014 40.7122 97.9244 40.4825 97.8089 40.3293C97.9629 40.2144 97.9629 39.9464 98.1554 39.8698C98.5019 40.2527 98.5789 41.3632 97.7704 41.4398C97.6549 41.2483 97.5394 41.2483 97.3469 41.0569C97.3084 41.1718 97.2699 41.3249 97.1929 41.4398C96.8849 41.5164 96.5769 41.6313 96.4614 41.8993C96.2304 41.6313 96.1149 41.9759 95.8454 42.0142ZM108.512 56.7188C108.396 56.7571 108.358 56.6805 108.242 56.6805C108.204 56.872 107.973 56.872 107.973 57.14C108.319 57.14 108.319 56.872 108.512 56.7188ZM84.0259 53.4639V53.3107C83.9104 53.349 83.8719 53.1958 83.8334 53.349C83.9104 53.3873 83.8719 53.5022 84.0259 53.4639ZM102.775 52.8129C102.775 52.8895 102.737 52.8895 102.737 52.9661C102.852 52.9661 102.929 52.9661 102.891 52.8512C102.852 52.8512 102.852 52.7746 102.775 52.8129ZM107.857 53.6553C107.703 53.9234 107.472 54.4212 107.434 54.651C107.357 55.0722 107.318 54.8424 107.318 55.302C107.742 55.4934 107.742 55.1488 108.242 55.2254C108.666 55.4934 108.55 55.9912 108.435 56.4125C108.974 56.3359 109.166 55.9529 109.474 55.7232C109.898 55.302 110.629 54.268 110.321 53.349C110.591 52.8895 110.591 52.0853 110.437 52.0853C110.437 52.0853 110.206 52.7746 110.052 52.9661C110.052 52.9661 109.898 52.7363 109.705 52.7363C109.782 52.4683 110.013 52.3917 109.859 52.047C109.744 52.047 109.667 52.0853 109.551 52.0853C109.243 52.6597 109.166 52.4683 108.781 52.6214C108.781 53.1575 108.204 53.349 107.857 53.6553ZM102.775 52.2002C102.66 52.0087 102.814 51.5875 102.583 51.5875C102.467 52.0087 102.082 52.2002 101.736 52.43C101.697 52.9661 101.543 53.4256 101.736 53.8851C102.159 53.5405 102.39 53.0044 102.467 52.3534C102.583 52.2768 102.737 52.3151 102.775 52.2002ZM111.515 51.5492C111.399 51.5492 111.438 51.6258 111.322 51.5875C111.399 51.779 111.361 51.8939 111.322 52.0853C111.515 51.9704 111.399 51.779 111.515 51.5492ZM108.935 51.5492V51.7024C109.051 51.7407 109.59 51.779 109.474 51.5492C109.32 51.6258 109.089 51.5109 108.935 51.5492ZM109.166 51.4726C109.282 51.5109 109.32 51.396 109.436 51.396C109.436 51.2812 109.32 51.2812 109.282 51.2046C109.205 51.2429 109.128 51.3195 109.166 51.4726ZM108.781 51.4726C108.55 51.2812 108.319 50.7834 107.934 50.9748C108.011 51.3578 108.396 51.5109 108.781 51.4726ZM109.744 50.8982C109.705 50.8599 109.667 50.8216 109.59 50.8216C109.436 50.9365 109.782 51.128 109.744 50.8982ZM110.745 51.0514C110.822 51.0897 110.899 51.128 110.976 51.128C110.899 50.9365 111.014 50.7451 111.014 50.3621C110.937 50.3621 110.899 50.2855 110.822 50.2855C110.745 50.6685 110.899 50.7834 110.745 51.0514ZM110.09 51.7024C110.321 51.7024 110.244 51.396 110.514 51.396C110.668 51.4726 110.591 51.8173 110.783 51.8556C110.899 51.4343 110.552 51.0131 110.629 50.4004C110.36 50.3621 110.167 50.3238 109.975 50.1324C110.013 50.7068 110.283 51.1663 110.09 51.7024ZM110.783 50.1707C110.745 50.0175 110.668 49.8643 110.552 49.7877C110.591 50.0175 110.591 50.1324 110.783 50.1707ZM109.744 50.3621C109.705 50.0941 109.859 49.9026 109.628 49.7111C109.513 49.9409 109.59 50.0941 109.551 50.3238C109.628 50.2855 109.628 50.4004 109.744 50.3621ZM109.205 49.6346C108.858 49.8643 108.858 50.4004 108.781 50.9365C108.974 50.9748 109.051 50.8599 109.166 50.8216C109.089 50.2855 109.205 50.1707 109.282 49.7111C109.282 49.6729 109.243 49.6346 109.205 49.6346ZM108.589 50.5153C108.666 50.5153 108.666 50.477 108.743 50.477C108.627 49.9792 109.128 49.5963 108.897 49.0219H108.781C108.743 49.2899 108.396 49.2899 108.319 49.5963C108.281 49.9026 108.435 50.2855 108.589 50.5153ZM105.778 48.2177C105.817 48.4092 105.586 48.6389 105.778 48.7155C105.894 48.6389 105.932 48.5241 105.971 48.3709C105.894 48.4092 105.932 48.2177 105.778 48.2177ZM109.166 48.8687C109.436 48.8687 109.513 48.3326 109.32 48.1794C109.243 48.3326 109.012 48.5241 109.166 48.8687ZM108.743 46.9923C108.781 47.3753 108.935 47.7582 109.166 48.0645C109.205 47.7582 109.243 46.954 108.743 46.9923ZM107.703 46.8009H107.934C107.973 46.5711 107.857 46.4945 107.703 46.4945C107.626 46.5711 107.703 46.686 107.703 46.8009ZM87.8759 46.4945C87.8374 46.6477 87.9529 46.686 88.0684 46.6477C88.0684 46.5328 87.9914 46.4945 87.8759 46.4945ZM88.2609 46.6477C88.4534 46.7243 88.4919 46.5711 88.7229 46.5711C88.7229 46.3413 88.4919 46.2648 88.2994 46.3796C88.0684 46.2648 87.9914 46.035 87.8374 45.8435C87.6834 45.8435 87.5294 45.8435 87.4139 45.9201C87.6449 45.9584 87.8374 46.0733 87.9144 46.3796C88.0299 46.3413 88.1454 46.303 88.2224 46.4179C88.1839 46.4945 88.1839 46.6094 88.2609 46.6477ZM108.666 46.3413C108.743 46.1499 108.627 46.035 108.743 45.7669C108.627 45.8052 108.666 45.6904 108.589 45.6904C108.55 45.8052 108.512 45.9967 108.473 46.1116C108.55 46.1499 108.55 46.3031 108.666 46.3413ZM100.196 44.0438C100.234 43.8906 100.042 43.8906 100.003 43.9672C100.003 44.1203 100.119 44.082 100.196 44.0438ZM99.6184 43.8906C99.4644 43.9289 99.3489 43.7757 99.2334 43.8906C99.3104 43.9289 99.5799 44.0438 99.6184 43.8906ZM108.897 44.8096C108.935 44.5799 108.781 44.5416 108.781 44.3501C109.089 44.082 108.858 43.5842 108.627 43.3928C108.897 43.8523 108.088 44.6564 108.897 44.8096ZM108.396 42.9332C108.204 42.8184 108.435 42.5503 108.281 42.4354C108.281 42.5503 108.011 42.3971 107.973 42.512C108.127 42.5886 108.165 43.0098 108.396 42.9332ZM95.6529 41.1718H95.4604C95.4219 41.2483 95.3834 41.4015 95.4604 41.4781H95.6144C95.5759 41.2866 95.7684 41.2866 95.6529 41.1718ZM96.1149 40.9037C96.0764 40.7888 96.2689 40.5974 96.0764 40.5591C95.5759 40.8271 96.2689 41.2866 95.9994 41.6696C96.1919 41.6313 96.3459 41.5547 96.4999 41.5164C96.4999 41.1718 96.1534 41.1718 96.1149 40.9037ZM95.1524 39.372C95.0754 39.4486 94.9984 39.5252 95.0369 39.7166C95.3064 39.7549 95.6144 39.7549 95.6144 39.4103C95.4219 39.2571 95.3064 39.5252 95.1524 39.372ZM99.5799 38.6061C99.5799 38.4529 99.5414 38.4146 99.4259 38.4146C99.4259 38.4912 99.4644 38.6061 99.5799 38.6061ZM102.236 38.4529C102.39 38.4912 102.429 38.4146 102.583 38.4146V38.2615C102.467 38.2615 102.429 38.3381 102.275 38.2998C102.313 38.3764 102.236 38.3764 102.236 38.4529ZM93.3814 38.0317C93.1889 37.8785 92.9964 37.9934 93.0349 38.2615C93.2659 38.2998 93.2659 38.1083 93.3814 38.0317ZM101.851 38.1849C102.121 38.2232 102.275 38.1083 102.352 37.9551C102.198 37.8785 101.967 38.0317 101.813 37.9934C101.774 38.1083 101.851 38.1083 101.851 38.1849ZM92.5344 37.8403C92.3804 37.8785 92.3419 37.9934 92.2649 38.1466C92.4189 38.07 92.5344 37.9934 92.5344 37.8403ZM92.3804 37.7254C92.3804 37.6488 92.3419 37.6105 92.3034 37.6105C92.3034 37.6871 92.1494 37.6488 92.1494 37.7254C92.1879 37.802 92.3034 37.802 92.3804 37.7254ZM93.6509 37.4956C93.5354 37.4573 93.3044 37.6488 93.3044 37.8785C93.5354 37.8403 93.6509 37.7254 93.6509 37.4956ZM92.6499 38.1849C92.8039 38.1849 92.8424 38.1083 92.9579 38.07C92.9964 37.9551 92.8809 37.9934 92.8809 37.9168C93.1119 37.8403 93.1889 37.6105 93.3429 37.4573C93.0349 37.4956 92.9194 37.7254 92.7269 37.8785C92.8424 37.9551 92.6499 38.1083 92.6499 38.1849ZM92.8424 37.4573C92.6884 37.4573 92.6114 37.5722 92.5344 37.6488C92.6114 37.6488 92.6114 37.7254 92.6499 37.7254C92.6884 37.6105 92.9194 37.5722 92.8424 37.4573ZM95.0369 37.6105C94.5749 37.7254 93.9974 37.6871 93.9974 38.2232C94.1129 38.2232 94.2284 38.1083 94.3054 38.1849C94.1514 38.5678 93.7664 38.721 93.4969 39.0273C93.4584 39.5252 92.9194 39.7549 93.0734 40.3293C93.4199 40.2527 93.5354 39.9081 93.9589 39.8698C94.0744 39.1422 95.1909 39.4103 95.4989 38.8742C95.4989 38.7593 95.3064 38.9125 95.3834 38.7593C95.5374 38.7593 95.5374 38.6444 95.7299 38.6827C95.8839 38.2615 96.3074 38.07 96.3844 37.6105H96.0764C96.0764 37.4956 96.2689 37.5722 96.2304 37.419C95.8454 37.2659 95.2679 37.3424 95.0369 37.6105ZM93.8819 37.9934C94.1899 37.6105 94.9214 37.6488 95.1909 37.1893C94.4979 37.3041 94.0359 37.5722 93.6124 37.9168C93.6509 37.9934 93.7664 37.9934 93.8819 37.9934ZM107.934 35.198C107.472 34.93 106.972 35.2363 106.625 35.8107C106.202 36.5 106.394 36.9212 106.779 37.151C107.164 37.3807 107.703 37.2659 108.127 36.5383C108.435 35.9256 108.358 35.4278 107.934 35.198ZM108.05 35.0066C108.743 35.3895 109.051 36.1171 108.627 36.8829C108.242 37.5339 107.434 37.7637 106.702 37.3424C106.009 36.9595 105.663 36.2702 106.125 35.4661C106.51 34.8151 107.28 34.5853 108.05 35.0066ZM105.201 33.9343C105.162 33.896 105.085 33.8961 105.047 33.8961C104.931 34.2407 104.777 34.547 104.662 34.8917C104.893 34.9683 105.201 35.0448 105.393 34.5853C105.547 34.2024 105.393 34.0109 105.201 33.9343ZM104.238 34.4322C104.392 34.0492 104.508 33.7812 104.585 33.4365C104.662 33.4748 104.739 33.5131 104.854 33.5514C105.008 33.628 105.201 33.6663 105.393 33.7429C105.74 33.8578 105.894 34.0109 105.932 34.1258C106.048 34.3173 106.048 34.4704 105.971 34.7002C105.778 35.2363 105.278 35.3129 104.777 35.0831L104.585 35.0066C104.431 35.3512 104.315 35.6958 104.2 36.0788C104.123 36.0405 104.046 36.0022 103.93 35.9639C103.815 35.9256 103.699 35.8873 103.622 35.8873C103.776 35.5809 103.892 35.3129 104.046 34.93L104.238 34.4322ZM103.353 35.3129C103.276 35.3895 103.237 35.5044 103.199 35.6192C102.968 35.6575 102.698 35.6575 102.429 35.581C101.582 35.3512 101.197 34.7002 101.389 34.0109C101.659 33.0153 102.429 32.7855 103.199 32.977C103.468 33.0536 103.776 33.2068 103.892 33.3599C103.815 33.4748 103.738 33.5897 103.699 33.7046H103.661C103.545 33.4365 103.353 33.2834 103.122 33.2068C102.737 33.0919 102.198 33.3217 102.005 34.1258C101.813 34.8917 102.198 35.2746 102.621 35.3895C102.852 35.4661 103.16 35.3895 103.353 35.2746V35.3129ZM100.273 33.5131C100.35 33.0919 100.35 32.8238 100.388 32.4792C100.465 32.5175 100.581 32.5175 100.696 32.5558C100.812 32.5558 100.927 32.5941 101.004 32.5941C100.927 32.9004 100.889 33.2068 100.812 33.628L100.735 34.1258C100.658 34.547 100.619 34.8151 100.619 35.1597C100.542 35.1214 100.427 35.1214 100.311 35.0831C100.196 35.0831 100.08 35.0448 100.003 35.0448C100.08 34.7385 100.119 34.4322 100.196 34.0109L100.273 33.5131ZM95.0369 34.5853C94.9984 34.7002 94.9984 34.8151 94.9984 34.93C94.8059 35.0831 94.5749 35.1597 94.2669 35.2363C93.4199 35.3895 92.8039 34.9683 92.6499 34.2407C92.4574 33.2068 93.0734 32.709 93.8434 32.5558C94.1129 32.5175 94.4594 32.5175 94.6519 32.5941C94.6134 32.709 94.6134 32.8621 94.6519 32.977H94.6134C94.3824 32.7855 94.1899 32.709 93.9204 32.7855C93.5354 32.8621 93.1504 33.2834 93.2659 34.0875C93.4199 34.8534 93.9204 35.0831 94.3439 34.9683C94.5749 34.93 94.8444 34.7768 94.9599 34.547L95.0369 34.5853ZM91.0329 33.5131C90.9559 33.5131 90.9174 33.5514 90.8789 33.5514C90.9944 33.896 91.0714 34.2407 91.1869 34.547C91.4179 34.4704 91.7259 34.3173 91.5719 33.8578C91.4564 33.5131 91.2254 33.4365 91.0329 33.5131ZM90.5709 34.5087C90.4554 34.1258 90.3399 33.8195 90.2244 33.5131C90.3014 33.5131 90.4169 33.4748 90.5324 33.4365C90.6864 33.3982 90.8789 33.3217 91.0714 33.2451C91.4179 33.1302 91.6104 33.1302 91.7259 33.2068C91.9184 33.2834 92.0339 33.3982 92.1109 33.628C92.3034 34.1641 91.9569 34.5087 91.4179 34.7002L91.2254 34.7768C91.3409 35.1214 91.4564 35.5044 91.6104 35.849C91.5334 35.849 91.4179 35.8873 91.3024 35.9256C91.1869 35.9639 91.0714 36.0022 90.9944 36.0405C90.9174 35.7341 90.8404 35.4278 90.6864 35.0448L90.5709 34.5087ZM89.3389 35.0448C89.1849 34.6619 89.0309 34.3939 88.9154 34.0875C88.9924 34.0492 89.1079 34.0492 89.2234 33.9726C89.3389 33.9343 89.4159 33.8578 89.4929 33.8195C89.6084 34.1258 89.7239 34.3939 89.8779 34.7768L90.0704 35.2363C90.2244 35.6192 90.3399 35.8873 90.4939 36.1936C90.4169 36.2319 90.3014 36.2319 90.1859 36.3085C90.0704 36.3468 89.9934 36.4234 89.9164 36.4617C89.8009 36.1553 89.6854 35.8873 89.5314 35.5044L89.3389 35.0448ZM86.9904 35.2363C86.5284 35.5044 86.5284 36.0788 86.8749 36.6532C87.2984 37.3424 87.7604 37.3807 88.1069 37.1893C88.4919 36.9595 88.6459 36.4234 88.2224 35.7341C87.9144 35.1597 87.4139 35.0066 86.9904 35.2363ZM86.8749 35.0448C87.5679 34.6236 88.3379 34.7002 88.7999 35.4661C89.1849 36.1171 88.9539 36.9212 88.2609 37.3424C87.5679 37.7637 86.7979 37.7254 86.3359 36.9212C85.9509 36.3085 86.1434 35.5044 86.8749 35.0448ZM106.125 62.5394C105.932 62.1181 105.778 61.8501 105.586 61.5438C105.663 61.5055 105.778 61.4672 105.894 61.4289C106.009 61.3523 106.125 61.314 106.202 61.2757C106.356 61.6203 106.471 61.8884 106.664 62.3096L106.895 62.8074C107.01 63.0755 107.164 63.3435 107.28 63.535C107.549 63.4201 107.819 63.2669 108.088 63.0755C108.088 63.1138 108.127 63.1521 108.165 63.2287C108.204 63.3052 108.242 63.3435 108.242 63.3818C108.127 63.4584 107.934 63.4967 107.588 63.6882C107.01 63.9945 106.895 64.0328 106.818 64.0711C106.664 63.7265 106.548 63.4584 106.356 63.0372L106.125 62.5394ZM103.622 62.4628C103.083 62.616 102.968 63.2669 103.16 63.9179C103.43 64.7221 103.892 64.9136 104.315 64.7604C104.777 64.6072 105.047 64.1094 104.816 63.2669C104.585 62.616 104.123 62.3096 103.622 62.4628ZM103.584 62.233C104.392 61.965 105.201 62.233 105.47 63.1521C105.701 63.9179 105.278 64.7221 104.431 64.9901C103.622 65.2582 102.814 65.0284 102.544 64.0711C102.275 63.3052 102.66 62.5011 103.584 62.233ZM100.735 63.1904C100.658 63.1904 100.619 63.2287 100.581 63.2287C100.619 63.6116 100.696 63.9945 100.735 64.3392C101.004 64.3009 101.312 64.186 101.235 63.6499C101.158 63.2669 100.966 63.1521 100.735 63.1904ZM100.08 64.186C100.003 63.7265 99.9649 63.4201 99.8879 63.0755C99.9649 63.0755 100.08 63.0755 100.234 63.0372C100.427 62.9989 100.619 62.9606 100.812 62.9223C101.197 62.8457 101.389 62.884 101.543 62.9606C101.736 63.0755 101.851 63.2286 101.89 63.4584C101.967 64.0711 101.582 64.3774 101.004 64.454L100.812 64.4923C100.889 64.8753 100.927 65.2965 101.043 65.6794C100.966 65.6794 100.85 65.6794 100.696 65.7177C100.581 65.756 100.465 65.756 100.388 65.7943C100.35 65.4497 100.311 65.1433 100.234 64.6838L100.08 64.186ZM97.9244 63.4201C97.9244 63.8031 97.9244 64.1477 97.9629 64.5306C98.0014 64.5306 98.0399 64.5306 98.0399 64.5306C98.3864 64.5306 98.5789 64.3009 98.5789 63.9562C98.5404 63.4584 98.3864 63.4201 97.9244 63.4201ZM98.0014 64.6838L97.9629 64.837C97.9629 65.2965 98.0014 65.6028 98.0399 65.9475C97.9629 65.9475 97.8474 65.9475 97.6934 65.9475C97.5779 65.9475 97.4624 65.9858 97.3469 65.9858C97.3469 65.6411 97.3469 65.3348 97.3469 64.8753V64.3392C97.3469 63.8796 97.3084 63.5733 97.2699 63.2287C97.3469 63.2287 97.4624 63.2287 97.6164 63.2287C97.7704 63.2287 97.9244 63.1904 98.1939 63.1904C98.6174 63.1904 98.7714 63.1904 98.8869 63.3052C99.0409 63.4201 99.1564 63.5733 99.1564 63.8413C99.1564 64.2243 98.9639 64.4923 98.5404 64.6072C98.8099 65.0667 99.1179 65.4879 99.4644 65.9475C99.3489 65.9475 99.2334 65.9475 99.1179 65.9475C99.0024 65.9475 98.8869 65.9858 98.7329 65.9858L98.0014 64.6838ZM94.9599 64.186C94.9984 63.7265 94.9984 63.4201 95.0369 63.0755C95.2679 63.1138 95.4989 63.1521 95.7684 63.1521C96.1534 63.1904 96.4999 63.1904 96.6154 63.1904C96.6154 63.2287 96.5769 63.2669 96.5769 63.3435C96.5769 63.4201 96.5769 63.4584 96.5769 63.535C96.2689 63.4967 95.8069 63.4201 95.6529 63.4201C95.6144 63.7265 95.5759 63.9945 95.5759 64.3009C95.9224 64.3392 96.1919 64.3392 96.4999 64.3392C96.4614 64.4157 96.4614 64.454 96.4614 64.5306C96.4614 64.5689 96.4614 64.6072 96.4614 64.6838C96.1534 64.6455 95.8454 64.6072 95.5374 64.5689C95.5374 64.7221 95.4989 64.9136 95.4989 65.0667C95.4989 65.2199 95.4604 65.4114 95.4604 65.5645C95.7684 65.6028 96.0764 65.6028 96.3844 65.6028C96.3844 65.6411 96.3459 65.6794 96.3459 65.7943C96.3459 65.9092 96.3459 65.9092 96.3459 65.9858C96.1919 65.9858 95.9994 65.9475 95.6529 65.9092C94.9984 65.8709 94.8829 65.8709 94.8059 65.8709C94.8444 65.5262 94.8829 65.2199 94.9214 64.7604L94.9599 64.186ZM93.0349 63.3818C93.0734 63.2287 93.1119 63.0755 93.1119 63.0372C92.9579 62.9989 92.6114 62.9606 92.3804 62.9606C92.4189 62.9223 92.4189 62.8457 92.4189 62.8074C92.4189 62.7308 92.4189 62.6925 92.4189 62.616C92.7654 62.6925 92.9579 62.7308 93.4584 62.8457C93.9589 62.9606 94.1129 62.9606 94.4594 63.0372C94.4209 63.1138 94.4209 63.1521 94.4209 63.1904C94.4209 63.2669 94.4209 63.3052 94.4209 63.3818C94.2284 63.3052 93.8819 63.2287 93.7279 63.1904C93.6894 63.2287 93.6894 63.3818 93.6509 63.535L93.4584 64.5306C93.3814 64.9901 93.3044 65.2965 93.2659 65.6411C93.1889 65.6028 93.0734 65.5645 92.9579 65.5645C92.8424 65.5262 92.7269 65.5262 92.6114 65.5262C92.6884 65.1816 92.7654 64.8753 92.8809 64.454L93.0349 63.3818ZM89.6084 61.6586C89.6469 61.6969 89.7239 61.7352 89.7624 61.7352C89.8009 61.7735 89.8779 61.7735 89.9549 61.7735C90.3014 62.5777 90.6094 63.3818 90.9559 64.1477C91.1869 63.535 91.5334 62.5011 91.5719 62.3479C91.6104 62.3862 91.6874 62.4245 91.7259 62.4245C91.7644 62.4628 91.8414 62.4628 91.9184 62.4628C91.4564 63.535 91.2639 64.0328 90.9174 65.0667C90.8789 65.0284 90.8404 65.0284 90.7634 64.9901C90.7249 64.9901 90.6479 64.9518 90.6094 64.9518C90.3014 64.1477 89.9549 63.3435 89.6084 62.5011C89.4929 62.7691 89.3774 63.1138 89.3004 63.3818C89.0694 63.9945 89.0309 64.186 88.9924 64.3392C88.9539 64.3009 88.8769 64.2626 88.8384 64.2626C88.7614 64.2243 88.7229 64.2243 88.6459 64.2243C88.7229 64.1094 89.1079 63.1521 89.3774 62.3862C89.4544 62.0416 89.5314 61.8118 89.6084 61.6586ZM87.7219 61.965C87.9144 61.582 88.0684 61.2757 88.2224 60.9694C88.2994 61.0076 88.3764 61.0842 88.4919 61.1225C88.6074 61.1991 88.7229 61.2374 88.7999 61.2374C88.6074 61.5438 88.4534 61.8118 88.2609 62.233L87.9914 62.7308C87.7989 63.1138 87.6449 63.4201 87.4909 63.7265C87.4139 63.6882 87.3369 63.6116 87.2214 63.5733C87.1059 63.4967 86.9904 63.4584 86.9134 63.4584C87.1059 63.1521 87.2599 62.884 87.4524 62.4628L87.7219 61.965Z" fill="white"/>
<path d="M59.2712 81.4562C59.2712 80.0011 59.1942 78.5459 59.1172 77.1291C59.3867 77.1674 59.6562 77.2057 59.9257 77.2057C60.1952 77.2057 60.4647 77.1674 60.7342 77.1291C60.6572 78.5842 60.6187 80.0394 60.6187 81.4562V84.3282C60.6187 85.7834 60.6957 87.2385 60.7342 88.6553C60.4647 88.6171 60.1952 88.5788 59.9257 88.5788C59.6562 88.5788 59.3867 88.6171 59.1172 88.6553C59.1942 87.2002 59.2712 85.7451 59.2712 84.3282V81.4562Z" fill="white"/>
<path d="M73.5904 88.8851C71.0494 85.8983 67.9694 82.6816 65.0819 79.6182C65.0819 80.2309 65.0434 81.2265 65.0434 83.0263C65.0434 84.4814 65.1204 88.0044 65.1974 88.6554C65.0049 88.6171 64.8124 88.5788 64.6199 88.5788C64.4274 88.5788 64.1964 88.6171 64.0039 88.6554C64.1579 87.8512 64.3504 83.5624 64.3504 81.3797C64.3504 79.2735 64.3504 77.6269 64.3119 76.8994H64.5814C67.3149 79.8479 71.0494 83.907 73.0899 85.9748C73.0899 82.988 73.0899 79.6948 72.9359 77.1291C73.1284 77.1674 73.3209 77.2057 73.5134 77.2057C73.7059 77.2057 73.8599 77.1674 74.0524 77.1291C73.9369 78.1247 73.7829 81.418 73.7829 82.7199C73.7829 84.4431 73.8214 88.1193 73.8214 88.8851H73.5904Z" fill="white"/>
<path d="M79.7512 81.4563C79.7512 80.3075 79.7512 79.1587 79.7127 77.9716C78.5577 77.9716 77.0562 78.0482 76.0938 78.163C76.1322 78.0099 76.1707 77.8184 76.1707 77.6269C76.1707 77.4738 76.1322 77.2823 76.0938 77.0908C77.5567 77.1291 78.9812 77.1674 80.4442 77.1674C81.9072 77.1674 83.3317 77.1291 84.7947 77.0908C84.7562 77.2823 84.7178 77.4355 84.7178 77.6269C84.7178 77.7801 84.7562 77.9716 84.7947 78.163C83.8707 78.0482 82.3692 77.9716 81.1757 77.9716C81.1372 79.1204 81.1372 80.2692 81.1372 81.4563V84.3282C81.1372 85.7834 81.2143 87.2385 81.2912 88.6554C81.0217 88.6171 80.7522 88.5788 80.4827 88.5788C80.2132 88.5788 79.9437 88.6171 79.6742 88.6554C79.7512 87.2002 79.8282 85.7451 79.8282 84.3282V81.4563H79.7512Z" fill="white"/>
<path d="M86.9503 81.418C86.9503 79.9628 86.8733 78.5077 86.7963 77.0908C87.7973 77.1291 88.7983 77.1674 89.7993 77.1674C90.8003 77.1674 91.8013 77.1291 92.8023 77.0908C92.7638 77.244 92.7638 77.4355 92.7638 77.5886C92.7638 77.7418 92.7638 77.9333 92.8023 78.0864C91.3778 77.9716 90.5693 77.8567 88.3748 77.8567C88.3748 78.5843 88.2978 79.1587 88.2978 80.0011C88.2978 80.8819 88.2978 81.8009 88.2978 82.2221C90.2998 82.2221 91.3778 82.1455 92.3788 82.0689C92.3403 82.2221 92.3403 82.4136 92.3403 82.605C92.3403 82.7582 92.3403 82.9497 92.3788 83.1029C91.2238 82.988 89.1063 82.9497 88.2978 82.9497C88.2978 83.3709 88.2978 83.7538 88.2978 85.3622C88.2978 86.6258 88.2978 87.4683 88.3363 87.8895C89.8378 87.8895 91.8398 87.8895 92.8793 87.6598C92.8408 87.8129 92.8408 88.0427 92.8408 88.1959C92.8408 88.349 92.8408 88.5405 92.8793 88.6937C91.8783 88.6554 90.8773 88.6171 89.8378 88.6171C88.7983 88.6171 87.7973 88.6554 86.7578 88.6937C86.8348 87.2385 86.9118 85.7834 86.9118 84.3282V81.418H86.9503Z" fill="white"/>
<path d="M96.9619 82.4136C97.2699 82.4901 97.6549 82.4901 98.0784 82.4901C99.4644 82.4901 101.312 81.9157 101.312 79.9245C101.312 78.163 99.8494 77.7418 98.6944 77.7418C97.9244 77.7418 97.4239 77.7801 97.0774 77.8184C97.0389 79.0438 96.9619 80.2308 96.9619 81.4562V82.4136ZM95.5759 81.4562C95.5759 80.0011 95.4989 78.5459 95.4219 77.1291C96.0764 77.1674 96.6924 77.2057 97.3469 77.2057C98.0014 77.2057 98.6174 77.1291 99.2719 77.1291C101.158 77.1291 102.775 77.7801 102.775 79.7713C102.775 81.9157 100.619 82.7965 99.3104 82.988C100.119 84.0219 102.929 87.6214 103.93 88.6936C103.584 88.6553 103.276 88.6171 102.929 88.6171C102.621 88.6171 102.275 88.6553 101.967 88.6936C101.312 87.6597 99.0409 84.5963 97.6164 83.1411H96.9619V84.3665C96.9619 85.8216 97.0389 87.2768 97.1159 88.6936C96.8464 88.6553 96.5769 88.6171 96.3074 88.6171C96.0379 88.6171 95.7684 88.6553 95.4989 88.6936C95.5759 87.2385 95.6529 85.7834 95.6529 84.3665V81.4562H95.5759Z" fill="white"/>
<path d="M107.435 82.6816C107.781 82.7582 108.243 82.8348 108.628 82.8348C110.014 82.8348 111.785 82.2987 111.785 80.0394C111.785 78.1247 110.707 77.7418 108.975 77.7418H107.473V82.6816H107.435ZM106.049 81.4562C106.049 80.0011 105.972 78.5459 105.895 77.1291C106.434 77.1674 106.973 77.2057 107.512 77.2057C108.051 77.2057 109.129 77.1291 109.591 77.1291C110.592 77.1291 113.287 77.1674 113.287 79.9628C113.287 82.9114 110.361 83.4858 108.744 83.4858C108.243 83.4858 107.82 83.4858 107.396 83.4475V84.3665C107.396 85.8216 107.473 87.2768 107.55 88.6936C107.281 88.6553 107.011 88.6171 106.742 88.6171C106.472 88.6171 106.203 88.6553 105.933 88.6936C106.01 87.2385 106.087 85.7834 106.087 84.3665V81.4562H106.049Z" fill="white"/>
<path d="M120.947 77.512C118.329 77.512 116.288 79.1587 116.288 82.8731C116.288 86.5875 118.29 88.2341 120.947 88.2341C123.603 88.2341 125.605 86.5875 125.605 82.8731C125.605 79.1587 123.565 77.512 120.947 77.512ZM120.947 76.8994C124.681 76.8994 127.261 79.0821 127.261 82.9114C127.261 86.7024 124.681 88.9234 120.947 88.9234C117.251 88.9234 114.633 86.7407 114.633 82.9114C114.633 79.0821 117.251 76.8994 120.947 76.8994Z" fill="white"/>
<path d="M129.802 81.4562C129.802 80.0011 129.725 78.5459 129.648 77.1291C129.917 77.1674 130.187 77.2057 130.456 77.2057C130.726 77.2057 130.995 77.1674 131.265 77.1291C131.188 78.5842 131.111 80.0394 131.111 81.4562C131.111 84.2516 131.149 86.2429 131.149 87.8895C132.728 87.8895 134.114 87.8895 135.808 87.6597C135.769 87.8129 135.731 88.0044 135.731 88.1575C135.731 88.3107 135.769 88.5022 135.808 88.6553C134.768 88.6171 133.729 88.5788 132.728 88.5788C131.688 88.5788 130.649 88.6171 129.609 88.6553C129.686 87.2002 129.763 85.7451 129.763 84.3282V81.4562H129.802Z" fill="white"/>
</g>
<path d="M33.625 170.228C32.447 170.228 31.3893 170 30.452 169.544C29.5273 169.075 28.7927 168.347 28.248 167.359C27.716 166.358 27.45 165.054 27.45 163.445V163.065C27.45 161.912 27.6083 160.918 27.925 160.082C28.2543 159.246 28.6977 158.562 29.255 158.03C29.825 157.498 30.4773 157.105 31.212 156.852C31.9467 156.599 32.7193 156.472 33.53 156.472C34.29 156.472 34.9803 156.567 35.601 156.757C36.2343 156.934 36.7917 157.207 37.273 157.574C37.7543 157.929 38.1533 158.385 38.47 158.942C38.7867 159.487 39.0083 160.126 39.135 160.861H36.171C35.9937 160.329 35.7657 159.924 35.487 159.645C35.2083 159.354 34.898 159.157 34.556 159.056C34.2267 158.942 33.8847 158.885 33.53 158.885C32.9727 158.885 32.4533 159.018 31.972 159.284C31.5033 159.55 31.1233 159.987 30.832 160.595C30.5533 161.203 30.414 162.026 30.414 163.065V163.445C30.414 164.268 30.5027 164.959 30.68 165.516C30.8573 166.073 31.098 166.523 31.402 166.865C31.7187 167.194 32.067 167.435 32.447 167.587C32.827 167.739 33.2197 167.815 33.625 167.815C34.1697 167.815 34.6637 167.72 35.107 167.53C35.5503 167.34 35.9113 167.042 36.19 166.637C36.4813 166.219 36.6523 165.687 36.703 165.041H34.005V163.065H39.42V163.825C39.42 164.927 39.2807 165.883 39.002 166.694C38.736 167.492 38.3433 168.157 37.824 168.689C37.3173 169.208 36.7093 169.595 36 169.848C35.2907 170.101 34.499 170.228 33.625 170.228ZM41.788 170V156.7H47.165C48.2797 156.7 49.2044 156.877 49.939 157.232C50.6864 157.587 51.25 158.087 51.63 158.733C52.01 159.366 52.2 160.114 52.2 160.975C52.2 161.887 51.9657 162.685 51.497 163.369C51.0284 164.04 50.3127 164.528 49.35 164.832L52.58 170H49.293L46.5 165.136H44.619V170H41.788ZM44.619 162.894H46.614C47.6654 162.894 48.3874 162.736 48.78 162.419C49.1727 162.09 49.369 161.608 49.369 160.975C49.369 160.342 49.1727 159.867 48.78 159.55C48.3874 159.221 47.6654 159.056 46.614 159.056H44.619V162.894ZM54.9062 170V156.7H64.1782V159.056H57.7562V162.02H63.6082V164.3H57.7562V167.644H64.1782V170H54.9062ZM66.6884 170V156.7H75.9604V159.056H69.5384V162.02H75.3904V164.3H69.5384V167.644H75.9604V170H66.6884ZM78.4706 170V156.7H81.1496L87.0206 165.25V156.7H89.8326V170H87.1536L81.2826 161.45V170H78.4706ZM97.6562 170V156.7H100.335L106.206 165.25V156.7H109.018V170H106.339L100.468 161.45V170H97.6562ZM117.773 170.228C116.937 170.228 116.145 170.101 115.398 169.848C114.65 169.595 113.979 169.202 113.384 168.67C112.801 168.125 112.339 167.422 111.997 166.561C111.667 165.7 111.503 164.661 111.503 163.445V163.065C111.503 161.9 111.667 160.905 111.997 160.082C112.339 159.246 112.801 158.562 113.384 158.03C113.979 157.498 114.65 157.105 115.398 156.852C116.145 156.599 116.937 156.472 117.773 156.472C118.609 156.472 119.4 156.599 120.148 156.852C120.895 157.105 121.56 157.498 122.143 158.03C122.738 158.562 123.2 159.246 123.53 160.082C123.872 160.905 124.043 161.9 124.043 163.065V163.445C124.043 164.661 123.872 165.7 123.53 166.561C123.2 167.422 122.738 168.125 122.143 168.67C121.56 169.202 120.895 169.595 120.148 169.848C119.4 170.101 118.609 170.228 117.773 170.228ZM117.773 167.834C118.355 167.834 118.894 167.701 119.388 167.435C119.894 167.156 120.3 166.7 120.604 166.067C120.92 165.421 121.079 164.547 121.079 163.445V163.065C121.079 162.026 120.92 161.203 120.604 160.595C120.3 159.974 119.894 159.531 119.388 159.265C118.894 158.999 118.355 158.866 117.773 158.866C117.203 158.866 116.664 158.999 116.158 159.265C115.651 159.531 115.239 159.974 114.923 160.595C114.619 161.203 114.467 162.026 114.467 163.065V163.445C114.467 164.547 114.619 165.421 114.923 166.067C115.239 166.7 115.651 167.156 116.158 167.435C116.664 167.701 117.203 167.834 117.773 167.834ZM129.346 170V159.056H125.071V156.7H136.452V159.056H132.177V170H129.346ZM138.555 170V156.7H141.386V170H138.555ZM150.033 170.228C148.88 170.228 147.848 170 146.936 169.544C146.036 169.075 145.327 168.347 144.808 167.359C144.301 166.358 144.048 165.054 144.048 163.445V163.065C144.048 161.9 144.2 160.905 144.504 160.082C144.808 159.246 145.232 158.562 145.777 158.03C146.334 157.498 146.974 157.105 147.696 156.852C148.418 156.599 149.197 156.472 150.033 156.472C150.78 156.472 151.477 156.567 152.123 156.757C152.781 156.934 153.364 157.207 153.871 157.574C154.377 157.941 154.783 158.416 155.087 158.999C155.403 159.582 155.587 160.266 155.638 161.051H152.674C152.534 160.304 152.23 159.753 151.762 159.398C151.293 159.043 150.717 158.866 150.033 158.866C149.501 158.866 149.007 158.999 148.551 159.265C148.095 159.518 147.721 159.949 147.43 160.557C147.151 161.165 147.012 162.001 147.012 163.065V163.445C147.012 164.281 147.1 164.984 147.278 165.554C147.455 166.111 147.689 166.561 147.981 166.903C148.272 167.232 148.595 167.473 148.95 167.625C149.304 167.764 149.665 167.834 150.033 167.834C150.755 167.834 151.35 167.65 151.819 167.283C152.287 166.903 152.572 166.358 152.674 165.649H155.638C155.574 166.472 155.391 167.182 155.087 167.777C154.783 168.36 154.384 168.835 153.89 169.202C153.396 169.557 152.819 169.816 152.161 169.981C151.502 170.146 150.793 170.228 150.033 170.228ZM157.922 170V156.7H167.194V159.056H160.772V162.02H166.624V164.3H160.772V167.644H167.194V170H157.922Z" fill="#44851E"/>
<defs>
<clipPath id="clip0_2250_134634">
<rect width="77" height="70" fill="white" transform="translate(59 19)"/>
</clipPath>
</defs>
</svg>
