<svg width="32" height="32" viewBox="0 0 32 32" fill="none" xmlns="http://www.w3.org/2000/svg">
<g clip-path="url(#clip0_2070_113070)">
<path d="M29.4375 28.2086H2.5625C1.52694 28.2086 0.6875 27.3692 0.6875 26.3336V2.89642C0.6875 1.86086 1.52694 1.02142 2.5625 1.02142H29.4375C30.4731 1.02142 31.3125 1.86086 31.3125 2.89642V26.3336C31.3125 27.3691 30.4731 28.2086 29.4375 28.2086Z" stroke="#E51C38" stroke-width="1.4" stroke-miterlimit="10" stroke-linecap="round" stroke-linejoin="round"/>
<path d="M4.12109 23.4496V5.7804C4.12109 5.09002 4.68072 4.5304 5.37109 4.5304H26.6307C27.321 4.5304 27.8807 5.09002 27.8807 5.7804V23.4496C27.8807 24.14 27.321 24.6996 26.6307 24.6996H5.37109C4.68078 24.6996 4.12109 24.14 4.12109 23.4496Z" stroke="#E51C38" stroke-width="1.4" stroke-miterlimit="10" stroke-linecap="round" stroke-linejoin="round"/>
<path d="M8.65531 30.9786H5.47656C4.95881 30.9786 4.53906 30.5588 4.53906 30.0411V28.2086H9.59281V30.0411C9.59281 30.5589 9.17306 30.9786 8.65531 30.9786Z" stroke="#E51C38" stroke-width="1.4" stroke-miterlimit="10" stroke-linecap="round" stroke-linejoin="round"/>
<path d="M26.5225 30.9786H23.3438C22.826 30.9786 22.4062 30.5588 22.4062 30.0411V28.2086H27.46V30.0411C27.46 30.5589 27.0403 30.9786 26.5225 30.9786Z" stroke="#E51C38" stroke-width="1.4" stroke-miterlimit="10" stroke-linecap="round" stroke-linejoin="round"/>
<path d="M18.4759 21.1651C22.0934 21.1651 25.026 18.2325 25.026 14.615C25.026 10.9975 22.0934 8.06488 18.4759 8.06488C14.8584 8.06488 11.9258 10.9975 11.9258 14.615C11.9258 18.2325 14.8584 21.1651 18.4759 21.1651Z" stroke="#E51C38" stroke-width="1.4" stroke-miterlimit="10" stroke-linecap="round" stroke-linejoin="round"/>
<path d="M18.4756 17.5905C20.1189 17.5905 21.4511 16.2583 21.4511 14.615C21.4511 12.9716 20.1189 11.6394 18.4756 11.6394C16.8322 11.6394 15.5 12.9716 15.5 14.615C15.5 16.2583 16.8322 17.5905 18.4756 17.5905Z" stroke="#E51C38" stroke-width="1.4" stroke-miterlimit="10" stroke-linecap="round" stroke-linejoin="round"/>
<path d="M18.4766 8.06488V11.6394" stroke="#E51C38" stroke-width="1.4" stroke-miterlimit="10" stroke-linecap="round" stroke-linejoin="round"/>
<path d="M23.1058 9.98334L20.5781 12.511" stroke="#E51C38" stroke-width="1.4" stroke-miterlimit="10" stroke-linecap="round" stroke-linejoin="round"/>
<path d="M25.0237 14.615H21.4492" stroke="#E51C38" stroke-width="1.4" stroke-miterlimit="10" stroke-linecap="round" stroke-linejoin="round"/>
<path d="M23.1058 19.2466L20.5781 16.7191" stroke="#E51C38" stroke-width="1.4" stroke-miterlimit="10" stroke-linecap="round" stroke-linejoin="round"/>
<path d="M18.4766 21.1651V17.5906" stroke="#E51C38" stroke-width="1.4" stroke-miterlimit="10" stroke-linecap="round" stroke-linejoin="round"/>
<path d="M13.8438 19.2466L16.3714 16.7191" stroke="#E51C38" stroke-width="1.4" stroke-miterlimit="10" stroke-linecap="round" stroke-linejoin="round"/>
<path d="M11.9258 14.615H15.5003" stroke="#E51C38" stroke-width="1.4" stroke-miterlimit="10" stroke-linecap="round" stroke-linejoin="round"/>
<path d="M13.8438 9.98334L16.3714 12.511" stroke="#E51C38" stroke-width="1.4" stroke-miterlimit="10" stroke-linecap="round" stroke-linejoin="round"/>
<path d="M4.53906 10.2704H6.672" stroke="#E51C38" stroke-width="1.4" stroke-miterlimit="10" stroke-linecap="round" stroke-linejoin="round"/>
<path d="M4.53906 18.9597H6.672" stroke="#E51C38" stroke-width="1.4" stroke-miterlimit="10" stroke-linecap="round" stroke-linejoin="round"/>
</g>
<defs>
<clipPath id="clip0_2070_113070">
<rect width="32" height="32" fill="white"/>
</clipPath>
</defs>
</svg>
