<svg width="32" height="32" viewBox="0 0 32 32" fill="none" xmlns="http://www.w3.org/2000/svg">
<path d="M23.8272 1.07469C23.8272 1.04962 23.8285 1.02494 23.829 1H8.09541C8.09591 1.02494 8.09728 1.04962 8.09728 1.07469C8.09728 3.18819 6.38841 4.9015 4.28041 4.9015C4.18734 4.9015 4.09534 4.897 4.00391 4.89044V21.2226C4.00391 23.3663 5.17534 25.3378 7.05566 26.3584L15.8374 31.125L24.5971 26.3595C26.4747 25.3381 27.644 23.3681 27.644 21.2263V4.9015C25.536 4.9015 23.8272 3.18819 23.8272 1.07469Z" stroke="#E51C38" stroke-width="1.4" stroke-miterlimit="22.926" stroke-linecap="round" stroke-linejoin="round"/>
<path d="M23.8302 1.07469C23.8302 1.04962 23.8316 1.02494 23.8321 1H8.09294C8.09344 1.02494 8.09481 1.04962 8.09481 1.07469C8.09481 3.18819 6.38537 4.9015 4.27662 4.9015C4.1835 4.9015 4.0915 4.897 4 4.89044V21.2226C4 23.3663 5.17187 25.3378 7.05287 26.3584L15.8376 31.125L24.6004 26.3595C26.4786 25.3381 27.6483 23.3681 27.6483 21.2263V4.9015C25.5396 4.9015 23.8302 3.18819 23.8302 1.07469Z" stroke="#E51C38" stroke-width="1.4" stroke-miterlimit="22.926" stroke-linecap="round" stroke-linejoin="round"/>
<path d="M15.8244 23.3517C20.1349 23.3517 23.6293 19.8573 23.6293 15.5468C23.6293 11.2363 20.1349 7.74194 15.8244 7.74194C11.5139 7.74194 8.01953 11.2363 8.01953 15.5468C8.01953 19.8573 11.5139 23.3517 15.8244 23.3517Z" stroke="#E51C38" stroke-width="1.4" stroke-miterlimit="22.926" stroke-linecap="round" stroke-linejoin="round"/>
<path d="M15.8242 7.74194C15.8242 7.74194 18.6755 10.3551 18.6755 15.6103C18.6755 20.8654 15.8242 23.3517 15.8242 23.3517" stroke="#E51C38" stroke-width="1.4" stroke-miterlimit="22.926" stroke-linecap="round" stroke-linejoin="round"/>
<path d="M15.824 7.74194C15.824 7.74194 12.9727 10.3551 12.9727 15.6103C12.9727 20.8654 15.824 23.3517 15.824 23.3517" stroke="#E51C38" stroke-width="1.4" stroke-miterlimit="22.926" stroke-linecap="round" stroke-linejoin="round"/>
<path d="M22.4808 11.4708C21.2353 12.2417 19.1896 13.221 15.83 13.221C12.4688 13.221 10.4116 12.2405 9.16406 11.4741" stroke="#E51C38" stroke-width="1.4" stroke-miterlimit="22.926" stroke-linecap="round" stroke-linejoin="round"/>
<path d="M22.5183 19.561C21.2912 18.5767 19.2845 17.327 15.8302 17.327C12.3738 17.327 10.3529 18.5736 9.12109 19.5475" stroke="#E51C38" stroke-width="1.4" stroke-miterlimit="22.926" stroke-linecap="round" stroke-linejoin="round"/>
</svg>
