<svg width="32" height="32" viewBox="0 0 32 32" fill="none" xmlns="http://www.w3.org/2000/svg">
<g clip-path="url(#clip0_2199_46283)">
<path d="M15.9999 29.1641C23.2702 29.1641 29.1639 23.2703 29.1639 16.0001C29.1639 8.72978 23.2702 2.83606 15.9999 2.83606C8.72966 2.83606 2.83594 8.72978 2.83594 16.0001C2.83594 23.2703 8.72966 29.1641 15.9999 29.1641Z" stroke="#E51C38" stroke-width="1.4" stroke-miterlimit="10" stroke-linecap="round" stroke-linejoin="round"/>
<path d="M0.9375 16H4.91056" stroke="#E51C38" stroke-width="1.4" stroke-miterlimit="10" stroke-linecap="round" stroke-linejoin="round"/>
<path d="M27.0898 16H31.0629" stroke="#E51C38" stroke-width="1.4" stroke-miterlimit="10" stroke-linecap="round" stroke-linejoin="round"/>
<path d="M16 31.0625V27.0895" stroke="#E51C38" stroke-width="1.4" stroke-miterlimit="10" stroke-linecap="round" stroke-linejoin="round"/>
<path d="M16 4.91056V0.9375" stroke="#E51C38" stroke-width="1.4" stroke-miterlimit="10" stroke-linecap="round" stroke-linejoin="round"/>
<path d="M16.0014 14.2716C17.5684 14.2716 18.8387 13.0058 18.8387 11.4443C18.8387 9.88287 17.5684 8.61707 16.0014 8.61707C14.4344 8.61707 13.1641 9.88287 13.1641 11.4443C13.1641 13.0058 14.4344 14.2716 16.0014 14.2716Z" stroke="#E51C38" stroke-width="1.4" stroke-miterlimit="10" stroke-linecap="round" stroke-linejoin="round"/>
<path d="M10.9805 19.5016V23.3829H21.0194V19.5016C21.0194 18.3789 20.1092 17.4688 18.9865 17.4688H13.0133C11.8907 17.4688 10.9805 18.3789 10.9805 19.5016Z" stroke="#E51C38" stroke-width="1.4" stroke-miterlimit="10" stroke-linecap="round" stroke-linejoin="round"/>
<path d="M16 17.4688V20.1734" stroke="#E51C38" stroke-width="1.4" stroke-miterlimit="10" stroke-linecap="round" stroke-linejoin="round"/>
</g>
<defs>
<clipPath id="clip0_2199_46283">
<rect width="32" height="32" fill="white"/>
</clipPath>
</defs>
</svg>
