<svg width="32" height="32" viewBox="0 0 32 32" fill="none" xmlns="http://www.w3.org/2000/svg">
<g clip-path="url(#clip0_2061_39037)">
<path d="M23.4931 7.625H12.5625" stroke="#E51C38" stroke-width="1.4" stroke-miterlimit="10" stroke-linecap="round" stroke-linejoin="round"/>
<path d="M23.4931 12.625H12.5625" stroke="#E51C38" stroke-width="1.4" stroke-miterlimit="10" stroke-linecap="round" stroke-linejoin="round"/>
<path d="M15.8681 17.625H12.5625" stroke="#E51C38" stroke-width="1.4" stroke-miterlimit="10" stroke-linecap="round" stroke-linejoin="round"/>
<mask id="mask0_2061_39037" style="mask-type:luminance" maskUnits="userSpaceOnUse" x="0" y="0" width="32" height="32">
<path d="M0 1.90735e-06H32V32H0V1.90735e-06Z" fill="white"/>
</mask>
<g mask="url(#mask0_2061_39037)">
<path d="M25.4375 30.75C26.8051 29.0196 30.5625 29.6751 30.5625 26.4764C30.5625 25.1131 29.875 24.2908 29.875 22.875C29.875 21.7476 30.75 20.0267 30.75 20.0267L29.5928 18.8732H21.2822L20.125 20.0267C20.125 20.0267 21 21.7571 21 22.8845C21 24.3003 20.3125 25.1367 20.3125 26.5C20.3125 29.6986 24.0699 29.0196 25.4375 30.75Z" stroke="#E51C38" stroke-width="1.4" stroke-miterlimit="10" stroke-linecap="round" stroke-linejoin="round"/>
<path d="M7.25 7.125H1.25V4.40644C1.25 2.66325 2.66325 1.25006 4.40644 1.25025H4.4065C6.14956 1.25037 7.5625 2.66344 7.5625 4.40644V27C7.5625 29.0711 9.24144 30.75 11.3125 30.75H16.75" stroke="#E51C38" stroke-width="1.4" stroke-miterlimit="10" stroke-linecap="round" stroke-linejoin="round"/>
<path d="M5.0625 1.25L24.5623 1.25019C26.6334 1.25019 28.3123 2.92913 28.3123 5.00019V13.875" stroke="#E51C38" stroke-width="1.4" stroke-miterlimit="10" stroke-linecap="round" stroke-linejoin="round"/>
</g>
</g>
<defs>
<clipPath id="clip0_2061_39037">
<rect width="32" height="32" fill="white"/>
</clipPath>
</defs>
</svg>
