<svg width="32" height="32" viewBox="0 0 32 32" fill="none" xmlns="http://www.w3.org/2000/svg">
<g clip-path="url(#clip0_2199_46288)">
<path d="M10.1563 26.7846C10.6435 26.9379 11.1734 26.8505 11.6014 26.565C11.7253 27.1844 12.1691 27.7019 12.7992 27.8705C13.429 28.0396 14.072 27.8133 14.4888 27.3385C14.7685 27.9049 15.3316 28.2898 15.9837 28.2898C16.6358 28.2898 17.1989 27.9049 17.4786 27.3385C17.8954 27.8133 18.5384 28.0396 19.1682 27.8705C19.7984 27.7019 20.2421 27.1844 20.366 26.565C20.8917 26.9151 21.5712 26.9673 22.1359 26.6412C22.7007 26.3152 22.9952 25.7007 22.9546 25.0701C23.5533 25.2727 24.2233 25.1472 24.6844 24.6861C25.1456 24.2249 25.2711 23.555 25.0685 22.9563C25.6991 22.9969 26.3135 22.7023 26.6396 22.1376C26.9657 21.5728 26.9139 20.8929 26.5634 20.3676C27.1828 20.2437 27.7003 19.8 27.8689 19.1698C28.0379 18.54 27.8117 17.897 27.3369 17.4802C27.9037 17.2001 28.2882 16.6375 28.2882 15.9853C28.2882 15.3332 27.9033 14.7701 27.3369 14.4905C27.8117 14.0736 28.0379 13.4306 27.8693 12.8004C27.7003 12.1707 27.1828 11.7269 26.5634 11.6031C26.8488 11.1751 26.9363 10.6451 26.783 10.1579" stroke="#E51C38" stroke-width="1.4" stroke-miterlimit="10" stroke-linecap="round" stroke-linejoin="round"/>
<path d="M21.8142 5.18607C21.3269 5.03277 20.797 5.12019 20.369 5.40566C20.2451 4.78625 19.8014 4.26876 19.1716 4.09972C18.5415 3.93109 17.8984 4.15731 17.4816 4.63212C17.2015 4.06533 16.6389 3.68084 15.9868 3.68084C15.3346 3.68084 14.772 4.06533 14.4919 4.63212C14.0751 4.15731 13.4321 3.93109 12.8019 4.09972C12.1721 4.26876 11.7284 4.78625 11.6045 5.40566C11.0791 5.05514 10.3992 5.00335 9.83452 5.32942C9.2698 5.65549 8.97522 6.26993 9.01582 6.90053C8.41713 6.69792 7.74717 6.82346 7.28603 7.2846C6.82489 7.74574 6.69935 8.4157 6.90196 9.01439C6.27136 8.97379 5.65692 9.26837 5.33085 9.83309C5.00478 10.3978 5.05657 11.0777 5.40709 11.6031C4.78768 11.7269 4.27019 12.1707 4.10115 12.8004C3.93252 13.4306 4.15874 14.0737 4.63355 14.4905C4.06718 14.7701 3.68227 15.3332 3.68227 15.9853C3.68227 16.6375 4.06676 17.2001 4.63355 17.4802C4.15874 17.897 3.93252 18.54 4.10157 19.1698C4.27019 19.8 4.78768 20.2437 5.40709 20.3676C5.12162 20.7956 5.0342 21.3255 5.1875 21.8127" stroke="#E51C38" stroke-width="1.4" stroke-miterlimit="10" stroke-linecap="round" stroke-linejoin="round"/>
<path d="M8.48828 18.5114C7.56186 15.7545 8.1966 12.5882 10.3929 10.3919C12.5892 8.1956 15.7555 7.56087 18.5123 8.48729" stroke="#E51C38" stroke-width="1.4" stroke-miterlimit="10" stroke-linecap="round" stroke-linejoin="round"/>
<path d="M23.4831 13.4592C24.4095 16.2161 23.7748 19.3824 21.5784 21.5787C19.3821 23.775 16.2159 24.4097 13.459 23.4833" stroke="#E51C38" stroke-width="1.4" stroke-miterlimit="10" stroke-linecap="round" stroke-linejoin="round"/>
<path d="M20.2477 16.6932L8.27734 28.6636L3.3055 23.6917L23.6901 3.30717L28.6619 8.27901L20.3341 16.6068" stroke="#E51C38" stroke-width="1.4" stroke-miterlimit="10" stroke-linecap="round" stroke-linejoin="round"/>
</g>
<defs>
<clipPath id="clip0_2199_46288">
<rect width="32" height="32" fill="white"/>
</clipPath>
</defs>
</svg>
