<svg width="40" height="40" viewBox="0 0 40 40" fill="none" xmlns="http://www.w3.org/2000/svg">
<g clip-path="url(#clip0_2042_10292)">
<path d="M11.7131 21.9531C11.7131 24.9503 9.28344 27.38 6.28625 27.38C3.28906 27.38 0.859375 24.9503 0.859375 21.9531M11.7131 21.9531L6.28625 8.98083L0.859375 21.9531M11.7131 21.9531H0.859375" stroke="#AAB1B9" stroke-width="1.4" stroke-miterlimit="22.9256" stroke-linecap="round" stroke-linejoin="round"/>
<path d="M28.2871 21.9531C28.2871 24.9503 30.7168 27.38 33.714 27.38C36.7112 27.38 39.1409 24.9503 39.1409 21.9531M28.2871 21.9531L33.714 8.98083L39.1409 21.9531M28.2871 21.9531H39.1409" stroke="#AAB1B9" stroke-width="1.4" stroke-miterlimit="22.9256" stroke-linecap="round" stroke-linejoin="round"/>
<path d="M18.0469 27.0312V2.8125C18.0469 1.73828 18.9258 0.859375 20 0.859375C21.0742 0.859375 21.9531 1.73828 21.9531 2.8125V27.0312" stroke="#AAB1B9" stroke-width="1.4" stroke-miterlimit="22.9256" stroke-linecap="round" stroke-linejoin="round"/>
<path d="M17.4002 4.76562H14.1423L10.3176 8.59023H2.25492L0.859375 7.19469" stroke="#AAB1B9" stroke-width="1.4" stroke-miterlimit="22.9256" stroke-linecap="round" stroke-linejoin="round"/>
<path fill-rule="evenodd" clip-rule="evenodd" d="M10.625 39.1406H29.375V36.0155L27.8125 34.4531H12.1874L10.625 36.0155V39.1406Z" stroke="#AAB1B9" stroke-width="1.4" stroke-miterlimit="22.9256" stroke-linecap="round" stroke-linejoin="round"/>
<path d="M25.7894 34.0625V28.9843L24.2269 27.4218H15.7734L14.2109 28.9843V34.0625" stroke="#AAB1B9" stroke-width="1.4" stroke-miterlimit="22.9256" stroke-linecap="round" stroke-linejoin="round"/>
<path d="M18.4375 6.86377H21.5625" stroke="#AAB1B9" stroke-width="1.4" stroke-miterlimit="22.9256" stroke-linecap="round" stroke-linejoin="round"/>
<path d="M22.5996 4.76562H25.8576L29.6823 8.59023H37.7449L39.1405 7.19469" stroke="#AAB1B9" stroke-width="1.4" stroke-miterlimit="22.9256" stroke-linecap="round" stroke-linejoin="round"/>
</g>
<defs>
<clipPath id="clip0_2042_10292">
<rect width="40" height="40" fill="white"/>
</clipPath>
</defs>
</svg>
