<svg width="40" height="40" viewBox="0 0 40 40" fill="none" xmlns="http://www.w3.org/2000/svg">
<path d="M2.5 33.75C5.16034 32.1122 8.17811 31.25 11.25 31.25C14.3219 31.25 17.3397 32.1122 20 33.75C22.6603 32.1122 25.6781 31.25 28.75 31.25C31.8219 31.25 34.8397 32.1122 37.5 33.75" stroke="#AAB1B9" stroke-width="1.4" stroke-miterlimit="22.926" stroke-linecap="round" stroke-linejoin="round"/>
<path d="M2.5 8.75C5.16034 7.11222 8.17811 6.25 11.25 6.25C14.3219 6.25 17.3397 7.11222 20 8.75C22.6603 7.11222 25.6781 6.25 28.75 6.25C31.8219 6.25 34.8397 7.11222 37.5 8.75" stroke="#AAB1B9" stroke-width="1.4" stroke-miterlimit="22.926" stroke-linecap="round" stroke-linejoin="round"/>
<path d="M2.5 8.75V33.75" stroke="#AAB1B9" stroke-width="1.4" stroke-miterlimit="22.926" stroke-linecap="round" stroke-linejoin="round"/>
<path d="M20 8.75V33.75" stroke="#AAB1B9" stroke-width="1.4" stroke-miterlimit="22.926" stroke-linecap="round" stroke-linejoin="round"/>
<path d="M37.5 8.75V33.75" stroke="#AAB1B9" stroke-width="1.4" stroke-miterlimit="22.926" stroke-linecap="round" stroke-linejoin="round"/>
</svg>
