<svg width="32" height="32" viewBox="0 0 32 32" fill="none" xmlns="http://www.w3.org/2000/svg">
<g clip-path="url(#clip0_3_26160)">
<path d="M21.7184 14.0939V21.7819" stroke="#E51C38" stroke-width="1.4" stroke-miterlimit="10" stroke-linecap="round" stroke-linejoin="round"/>
<path d="M27.5002 14.0939V21.7819" stroke="#E51C38" stroke-width="1.4" stroke-miterlimit="10" stroke-linecap="round" stroke-linejoin="round"/>
<path d="M21.6668 29.8467C21.9087 28.8222 21.2743 27.7955 20.2498 27.5536C19.2253 27.3117 18.1986 27.9461 17.9567 28.9706C17.7148 29.9952 18.3492 31.0218 19.3737 31.2637C20.3982 31.5056 21.4249 30.8712 21.6668 29.8467Z" stroke="#E51C38" stroke-width="1.4" stroke-miterlimit="10" stroke-linecap="round" stroke-linejoin="round"/>
<path d="M31.2614 29.8472C31.5033 28.8227 30.8689 27.796 29.8444 27.5541C28.8199 27.3122 27.7932 27.9466 27.5513 28.9711C27.3094 29.9956 27.9438 31.0223 28.9683 31.2642C29.9928 31.5061 31.0195 30.8717 31.2614 29.8472Z" stroke="#E51C38" stroke-width="1.4" stroke-miterlimit="10" stroke-linecap="round" stroke-linejoin="round"/>
<path d="M4.49976 16V27.5002" stroke="#E51C38" stroke-width="1.4" stroke-miterlimit="10" stroke-linecap="round" stroke-linejoin="round"/>
<path d="M14.0939 16V27.5002" stroke="#E51C38" stroke-width="1.4" stroke-miterlimit="10" stroke-linecap="round" stroke-linejoin="round"/>
<path d="M17.9061 27.5002H0.6875V16H17.9061" stroke="#E51C38" stroke-width="1.4" stroke-miterlimit="10" stroke-linecap="round" stroke-linejoin="round"/>
<path d="M17.9061 27.5002V8.37549H31.3125V27.5002H17.9061Z" stroke="#E51C38" stroke-width="1.4" stroke-miterlimit="10" stroke-linecap="round" stroke-linejoin="round"/>
<path d="M12.1878 12.1877H6.40588V16H12.1878V12.1877Z" stroke="#E51C38" stroke-width="1.4" stroke-miterlimit="10" stroke-linecap="round" stroke-linejoin="round"/>
<path d="M27.5002 0.989014V8.37545" stroke="#E51C38" stroke-width="1.4" stroke-miterlimit="10" stroke-linecap="round" stroke-linejoin="round"/>
<path d="M21.7184 8.3755V0.6875" stroke="#E51C38" stroke-width="1.4" stroke-miterlimit="10" stroke-linecap="round" stroke-linejoin="round"/>
<path d="M19.8123 0.6875H29.4064" stroke="#E51C38" stroke-width="1.4" stroke-miterlimit="10" stroke-linecap="round" stroke-linejoin="round"/>
</g>
<defs>
<clipPath id="clip0_3_26160">
<rect width="32" height="32" fill="white"/>
</clipPath>
</defs>
</svg>
