<svg width="32" height="32" viewBox="0 0 32 32" fill="none" xmlns="http://www.w3.org/2000/svg">
<path d="M28 19L23.9091 14.9091H14.3636C14.002 14.9091 13.6551 14.7654 13.3994 14.5097C13.1437 14.254 13 13.9071 13 13.5455V5.36364C13 5.00198 13.1437 4.65513 13.3994 4.3994C13.6551 4.14367 14.002 4 14.3636 4H26.6364C26.998 4 27.3449 4.14367 27.6006 4.3994C27.8563 4.65513 28 5.00198 28 5.36364V19Z" stroke="#E51C38" stroke-width="1.4" stroke-miterlimit="10" stroke-linecap="round" stroke-linejoin="round"/>
<path d="M19 19.8182V22.5455C19 22.9071 18.8563 23.254 18.6006 23.5097C18.3449 23.7654 17.998 23.9091 17.6364 23.9091H8.09091L4 28V14.3636C4 14.002 4.14367 13.6551 4.3994 13.3994C4.65513 13.1437 5.00198 13 5.36364 13H8.09091" stroke="#E51C38" stroke-width="1.4" stroke-miterlimit="10" stroke-linecap="round" stroke-linejoin="round"/>
</svg>
