<svg width="33" height="32" viewBox="0 0 33 32" fill="none" xmlns="http://www.w3.org/2000/svg">
<path d="M23.9931 7.625H13.0625" stroke="#E51C38" stroke-width="1.4" stroke-miterlimit="10" stroke-linecap="round" stroke-linejoin="round"/>
<path d="M23.9931 12.625H13.0625" stroke="#E51C38" stroke-width="1.4" stroke-miterlimit="10" stroke-linecap="round" stroke-linejoin="round"/>
<path d="M16.3681 17.625H13.0625" stroke="#E51C38" stroke-width="1.4" stroke-miterlimit="10" stroke-linecap="round" stroke-linejoin="round"/>
<mask id="mask0_2225_31147" style="mask-type:luminance" maskUnits="userSpaceOnUse" x="0" y="0" width="33" height="32">
<path d="M0.5 1.90735e-06H32.5V32H0.5V1.90735e-06Z" fill="white"/>
</mask>
<g mask="url(#mask0_2225_31147)">
<path d="M25.9375 30.75C27.3051 29.0196 31.0625 29.6751 31.0625 26.4764C31.0625 25.1131 30.375 24.2908 30.375 22.875C30.375 21.7476 31.25 20.0267 31.25 20.0267L30.0928 18.8732H21.7822L20.625 20.0267C20.625 20.0267 21.5 21.7571 21.5 22.8845C21.5 24.3003 20.8125 25.1367 20.8125 26.5C20.8125 29.6986 24.5699 29.0196 25.9375 30.75Z" stroke="#E51C38" stroke-width="1.4" stroke-miterlimit="10" stroke-linecap="round" stroke-linejoin="round"/>
<path d="M7.75 7.125H1.75V4.40644C1.75 2.66325 3.16325 1.25006 4.90644 1.25025H4.9065C6.64956 1.25037 8.0625 2.66344 8.0625 4.40644V27C8.0625 29.0711 9.74144 30.75 11.8125 30.75H17.25" stroke="#E51C38" stroke-width="1.4" stroke-miterlimit="10" stroke-linecap="round" stroke-linejoin="round"/>
<path d="M5.5625 1.25L25.0623 1.25019C27.1334 1.25019 28.8123 2.92913 28.8123 5.00019V13.875" stroke="#E51C38" stroke-width="1.4" stroke-miterlimit="10" stroke-linecap="round" stroke-linejoin="round"/>
</g>
</svg>
