<svg width="32" height="32" viewBox="0 0 32 32" fill="none" xmlns="http://www.w3.org/2000/svg">
<g clip-path="url(#clip0_3_26709)">
<path d="M29.4375 28.2087H2.5625C1.52694 28.2087 0.6875 27.3692 0.6875 26.3337V2.89648C0.6875 1.86092 1.52694 1.02148 2.5625 1.02148H29.4375C30.4731 1.02148 31.3125 1.86092 31.3125 2.89648V26.3337C31.3125 27.3692 30.4731 28.2087 29.4375 28.2087Z" stroke="#E51C38" stroke-width="1.4" stroke-miterlimit="10" stroke-linecap="round" stroke-linejoin="round"/>
<path d="M4.12024 23.4497V5.78052C4.12024 5.09014 4.67986 4.53052 5.37024 4.53052H26.6298C27.3202 4.53052 27.8798 5.09014 27.8798 5.78052V23.4497C27.8798 24.1401 27.3202 24.6997 26.6298 24.6997H5.37024C4.67993 24.6997 4.12024 24.1401 4.12024 23.4497Z" stroke="#E51C38" stroke-width="1.4" stroke-miterlimit="10" stroke-linecap="round" stroke-linejoin="round"/>
<path d="M8.65507 30.9786H5.47632C4.95857 30.9786 4.53882 30.5588 4.53882 30.0411V28.2086H9.59257V30.0411C9.59257 30.5589 9.17282 30.9786 8.65507 30.9786Z" stroke="#E51C38" stroke-width="1.4" stroke-miterlimit="10" stroke-linecap="round" stroke-linejoin="round"/>
<path d="M26.5237 30.9786H23.345C22.8272 30.9786 22.4075 30.5588 22.4075 30.0411V28.2086H27.4612V30.0411C27.4612 30.5589 27.0415 30.9786 26.5237 30.9786Z" stroke="#E51C38" stroke-width="1.4" stroke-miterlimit="10" stroke-linecap="round" stroke-linejoin="round"/>
<path d="M18.4754 21.1652C22.093 21.1652 25.0255 18.2326 25.0255 14.6151C25.0255 10.9975 22.093 8.06494 18.4754 8.06494C14.8579 8.06494 11.9253 10.9975 11.9253 14.6151C11.9253 18.2326 14.8579 21.1652 18.4754 21.1652Z" stroke="#E51C38" stroke-width="1.4" stroke-miterlimit="10" stroke-linecap="round" stroke-linejoin="round"/>
<path d="M18.4753 17.5907C20.1187 17.5907 21.4509 16.2584 21.4509 14.6151C21.4509 12.9717 20.1187 11.6395 18.4753 11.6395C16.832 11.6395 15.4998 12.9717 15.4998 14.6151C15.4998 16.2584 16.832 17.5907 18.4753 17.5907Z" stroke="#E51C38" stroke-width="1.4" stroke-miterlimit="10" stroke-linecap="round" stroke-linejoin="round"/>
<path d="M18.4753 8.06494V11.6395" stroke="#E51C38" stroke-width="1.4" stroke-miterlimit="10" stroke-linecap="round" stroke-linejoin="round"/>
<path d="M23.107 9.9834L20.5793 12.511" stroke="#E51C38" stroke-width="1.4" stroke-miterlimit="10" stroke-linecap="round" stroke-linejoin="round"/>
<path d="M25.0254 14.615H21.4509" stroke="#E51C38" stroke-width="1.4" stroke-miterlimit="10" stroke-linecap="round" stroke-linejoin="round"/>
<path d="M23.107 19.2467L20.5793 16.7191" stroke="#E51C38" stroke-width="1.4" stroke-miterlimit="10" stroke-linecap="round" stroke-linejoin="round"/>
<path d="M18.4753 21.1651V17.5906" stroke="#E51C38" stroke-width="1.4" stroke-miterlimit="10" stroke-linecap="round" stroke-linejoin="round"/>
<path d="M13.8436 19.2467L16.3713 16.7191" stroke="#E51C38" stroke-width="1.4" stroke-miterlimit="10" stroke-linecap="round" stroke-linejoin="round"/>
<path d="M11.9253 14.615H15.4998" stroke="#E51C38" stroke-width="1.4" stroke-miterlimit="10" stroke-linecap="round" stroke-linejoin="round"/>
<path d="M13.8436 9.9834L16.3713 12.511" stroke="#E51C38" stroke-width="1.4" stroke-miterlimit="10" stroke-linecap="round" stroke-linejoin="round"/>
<path d="M4.53882 10.2704H6.67176" stroke="#E51C38" stroke-width="1.4" stroke-miterlimit="10" stroke-linecap="round" stroke-linejoin="round"/>
<path d="M4.53882 18.9596H6.67176" stroke="#E51C38" stroke-width="1.4" stroke-miterlimit="10" stroke-linecap="round" stroke-linejoin="round"/>
</g>
<defs>
<clipPath id="clip0_3_26709">
<rect width="32" height="32" fill="white"/>
</clipPath>
</defs>
</svg>
