<svg width="52" height="52" viewBox="0 0 52 52" fill="none" xmlns="http://www.w3.org/2000/svg">
<rect width="52" height="52" rx="26" fill="#F0F0F0"/>
<g clip-path="url(#clip0_3_28258)">
<path d="M35.6582 34.7749H16.3418C15.5975 34.7749 14.9941 34.1716 14.9941 33.4273V16.5818C14.9941 15.8375 15.5975 15.2341 16.3418 15.2341H35.6582C36.4025 15.2341 37.0059 15.8375 37.0059 16.5818V33.4273C37.0059 34.1715 36.4025 34.7749 35.6582 34.7749Z" stroke="#1A1A1A" stroke-width="1.4" stroke-miterlimit="10" stroke-linecap="round" stroke-linejoin="round"/>
<path d="M17.4614 31.3543V18.6545C17.4614 18.1583 17.8637 17.7561 18.3599 17.7561H33.6402C34.1364 17.7561 34.5386 18.1583 34.5386 18.6545V31.3543C34.5386 31.8505 34.1364 32.2527 33.6402 32.2527H18.3599C17.8637 32.2527 17.4614 31.8505 17.4614 31.3543Z" stroke="#1A1A1A" stroke-width="1.4" stroke-miterlimit="10" stroke-linecap="round" stroke-linejoin="round"/>
<path d="M20.7208 36.7658H18.436C18.0639 36.7658 17.7622 36.4641 17.7622 36.092V34.7749H21.3946V36.092C21.3946 36.4641 21.0929 36.7658 20.7208 36.7658Z" stroke="#1A1A1A" stroke-width="1.4" stroke-miterlimit="10" stroke-linecap="round" stroke-linejoin="round"/>
<path d="M33.564 36.7658H31.2793C30.9072 36.7658 30.6055 36.4641 30.6055 36.092V34.7749H34.2379V36.092C34.2379 36.4641 33.9362 36.7658 33.564 36.7658Z" stroke="#1A1A1A" stroke-width="1.4" stroke-miterlimit="10" stroke-linecap="round" stroke-linejoin="round"/>
<path d="M27.7792 29.7124C30.3793 29.7124 32.4871 27.6046 32.4871 25.0045C32.4871 22.4044 30.3793 20.2966 27.7792 20.2966C25.1791 20.2966 23.0713 22.4044 23.0713 25.0045C23.0713 27.6046 25.1791 29.7124 27.7792 29.7124Z" stroke="#1A1A1A" stroke-width="1.4" stroke-miterlimit="10" stroke-linecap="round" stroke-linejoin="round"/>
<path d="M27.7791 27.1431C28.9602 27.1431 29.9178 26.1856 29.9178 25.0044C29.9178 23.8232 28.9602 22.8657 27.7791 22.8657C26.5979 22.8657 25.6404 23.8232 25.6404 25.0044C25.6404 26.1856 26.5979 27.1431 27.7791 27.1431Z" stroke="#1A1A1A" stroke-width="1.4" stroke-miterlimit="10" stroke-linecap="round" stroke-linejoin="round"/>
<path d="M27.7793 20.2966V22.8658" stroke="#1A1A1A" stroke-width="1.4" stroke-miterlimit="10" stroke-linecap="round" stroke-linejoin="round"/>
<path d="M31.1082 21.6755L29.2915 23.4923" stroke="#1A1A1A" stroke-width="1.4" stroke-miterlimit="10" stroke-linecap="round" stroke-linejoin="round"/>
<path d="M32.4871 25.0044H29.918" stroke="#1A1A1A" stroke-width="1.4" stroke-miterlimit="10" stroke-linecap="round" stroke-linejoin="round"/>
<path d="M31.1082 28.3335L29.2915 26.5168" stroke="#1A1A1A" stroke-width="1.4" stroke-miterlimit="10" stroke-linecap="round" stroke-linejoin="round"/>
<path d="M27.7793 29.7125V27.1433" stroke="#1A1A1A" stroke-width="1.4" stroke-miterlimit="10" stroke-linecap="round" stroke-linejoin="round"/>
<path d="M24.4502 28.3335L26.2669 26.5168" stroke="#1A1A1A" stroke-width="1.4" stroke-miterlimit="10" stroke-linecap="round" stroke-linejoin="round"/>
<path d="M23.0713 25.0044H25.6405" stroke="#1A1A1A" stroke-width="1.4" stroke-miterlimit="10" stroke-linecap="round" stroke-linejoin="round"/>
<path d="M24.4502 21.6755L26.2669 23.4923" stroke="#1A1A1A" stroke-width="1.4" stroke-miterlimit="10" stroke-linecap="round" stroke-linejoin="round"/>
<path d="M17.7622 21.8818H19.2953" stroke="#1A1A1A" stroke-width="1.4" stroke-miterlimit="10" stroke-linecap="round" stroke-linejoin="round"/>
<path d="M17.7622 28.1272H19.2953" stroke="#1A1A1A" stroke-width="1.4" stroke-miterlimit="10" stroke-linecap="round" stroke-linejoin="round"/>
</g>
<defs>
<clipPath id="clip0_3_28258">
<rect width="23" height="23" fill="white" transform="translate(14.5 14.5)"/>
</clipPath>
</defs>
</svg>
