<svg width="33" height="32" viewBox="0 0 33 32" fill="none" xmlns="http://www.w3.org/2000/svg">
<path d="M24.3272 1.07469C24.3272 1.04962 24.3285 1.02494 24.329 1H8.59541C8.59591 1.02494 8.59728 1.04962 8.59728 1.07469C8.59728 3.18819 6.88841 4.9015 4.78041 4.9015C4.68734 4.9015 4.59534 4.897 4.50391 4.89044V21.2226C4.50391 23.3663 5.67534 25.3378 7.55566 26.3584L16.3374 31.125L25.0971 26.3595C26.9747 25.3381 28.144 23.3681 28.144 21.2263V4.9015C26.036 4.9015 24.3272 3.18819 24.3272 1.07469Z" stroke="#E51C38" stroke-width="1.4" stroke-miterlimit="22.926" stroke-linecap="round" stroke-linejoin="round"/>
<path d="M24.3302 1.07469C24.3302 1.04962 24.3316 1.02494 24.3321 1H8.59294C8.59344 1.02494 8.59481 1.04962 8.59481 1.07469C8.59481 3.18819 6.88537 4.9015 4.77662 4.9015C4.6835 4.9015 4.5915 4.897 4.5 4.89044V21.2226C4.5 23.3663 5.67187 25.3378 7.55287 26.3584L16.3376 31.125L25.1004 26.3595C26.9786 25.3381 28.1483 23.3681 28.1483 21.2263V4.9015C26.0396 4.9015 24.3302 3.18819 24.3302 1.07469Z" stroke="#E51C38" stroke-width="1.4" stroke-miterlimit="22.926" stroke-linecap="round" stroke-linejoin="round"/>
<path d="M16.3244 23.3517C20.6349 23.3517 24.1293 19.8573 24.1293 15.5468C24.1293 11.2363 20.6349 7.74194 16.3244 7.74194C12.0139 7.74194 8.51953 11.2363 8.51953 15.5468C8.51953 19.8573 12.0139 23.3517 16.3244 23.3517Z" stroke="#E51C38" stroke-width="1.4" stroke-miterlimit="22.926" stroke-linecap="round" stroke-linejoin="round"/>
<path d="M16.3242 7.74194C16.3242 7.74194 19.1755 10.3551 19.1755 15.6103C19.1755 20.8654 16.3242 23.3517 16.3242 23.3517" stroke="#E51C38" stroke-width="1.4" stroke-miterlimit="22.926" stroke-linecap="round" stroke-linejoin="round"/>
<path d="M16.324 7.74194C16.324 7.74194 13.4727 10.3551 13.4727 15.6103C13.4727 20.8654 16.324 23.3517 16.324 23.3517" stroke="#E51C38" stroke-width="1.4" stroke-miterlimit="22.926" stroke-linecap="round" stroke-linejoin="round"/>
<path d="M22.9808 11.4708C21.7353 12.2417 19.6896 13.221 16.33 13.221C12.9688 13.221 10.9116 12.2405 9.66406 11.4741" stroke="#E51C38" stroke-width="1.4" stroke-miterlimit="22.926" stroke-linecap="round" stroke-linejoin="round"/>
<path d="M23.0183 19.561C21.7912 18.5767 19.7845 17.327 16.3302 17.327C12.8738 17.327 10.8529 18.5736 9.62109 19.5475" stroke="#E51C38" stroke-width="1.4" stroke-miterlimit="22.926" stroke-linecap="round" stroke-linejoin="round"/>
</svg>
