<svg width="32" height="32" viewBox="0 0 32 32" fill="none" xmlns="http://www.w3.org/2000/svg">
<g clip-path="url(#clip0_3_26554)">
<path d="M21.4708 23.4636V19.9311C21.4708 17.6993 19.6615 15.89 17.4296 15.89V14.075" stroke="#E51C38" stroke-width="1.4" stroke-miterlimit="10" stroke-linejoin="round"/>
<path d="M14.5704 14.075V15.89C12.3385 15.89 10.5292 17.6993 10.5292 19.9312V23.4637" stroke="#E51C38" stroke-width="1.4" stroke-miterlimit="10" stroke-linejoin="round"/>
<path d="M13.2576 9.87427V11.6293C13.2576 13.1365 14.4565 14.3928 15.9636 14.4123C17.4948 14.4322 18.7424 13.1968 18.7424 11.6701V9.87427" stroke="#E51C38" stroke-width="1.4" stroke-miterlimit="10" stroke-linejoin="round"/>
<path d="M14.5704 15.8943L16 17.3238L17.4296 15.8943" stroke="#E51C38" stroke-width="1.4" stroke-miterlimit="10" stroke-linejoin="round"/>
<path d="M16.8674 6.8125C17.903 6.8125 18.7424 7.65194 18.7424 8.6875V9.87438H13.2576V8.6875C13.2576 7.65194 14.0971 6.8125 15.1326 6.8125H16.8674Z" stroke="#E51C38" stroke-width="1.4" stroke-miterlimit="10" stroke-linecap="round" stroke-linejoin="round"/>
<path d="M22.9328 25.8082L16 31.3124L9.06725 25.8082C5.78194 23.1998 3.867 19.2344 3.867 15.0395V0.687378H28.1329V15.0395C28.1329 19.2344 26.2181 23.1998 22.9328 25.8082Z" stroke="#E51C38" stroke-width="1.4" stroke-miterlimit="10" stroke-linejoin="round"/>
<path d="M20.3837 24.4816L16 27.9375L11.6164 24.4817C8.45938 21.9929 6.61707 18.1945 6.61707 14.1744V3.4375H25.383V14.1744C25.383 18.1945 23.5407 21.9928 20.3837 24.4816Z" stroke="#E51C38" stroke-width="1.4" stroke-miterlimit="10" stroke-linejoin="round"/>
</g>
<defs>
<clipPath id="clip0_3_26554">
<rect width="32" height="32" fill="white"/>
</clipPath>
</defs>
</svg>
