<svg width="32" height="32" viewBox="0 0 32 32" fill="none" xmlns="http://www.w3.org/2000/svg">
<g clip-path="url(#clip0_2070_106511)">
<path d="M21.4709 23.4636V19.9311C21.4709 17.6993 19.6616 15.89 17.4297 15.89V14.075" stroke="#1A1A1A" stroke-width="1.4" stroke-miterlimit="10" stroke-linejoin="round"/>
<path d="M14.5724 14.075V15.89C12.3406 15.89 10.5312 17.6993 10.5312 19.9312V23.4637" stroke="#1A1A1A" stroke-width="1.4" stroke-miterlimit="10" stroke-linejoin="round"/>
<path d="M13.2578 9.87427V11.6293C13.2578 13.1365 14.4568 14.3928 15.9638 14.4123C17.4951 14.4322 18.7426 13.1968 18.7426 11.6701V9.87427" stroke="#1A1A1A" stroke-width="1.4" stroke-miterlimit="10" stroke-linejoin="round"/>
<path d="M14.5703 15.8943L15.9999 17.3238L17.4296 15.8943" stroke="#1A1A1A" stroke-width="1.4" stroke-miterlimit="10" stroke-linejoin="round"/>
<path d="M16.8676 6.8125C17.9032 6.8125 18.7426 7.65194 18.7426 8.6875V9.87438H13.2578V8.6875C13.2578 7.65194 14.0972 6.8125 15.1328 6.8125H16.8676Z" stroke="#1A1A1A" stroke-width="1.4" stroke-miterlimit="10" stroke-linecap="round" stroke-linejoin="round"/>
<path d="M22.9329 25.8082L16.0002 31.3124L9.06744 25.8082C5.78213 23.1998 3.86719 19.2344 3.86719 15.0395V0.687378H28.1331V15.0395C28.1331 19.2344 26.2183 23.1998 22.9329 25.8082Z" stroke="#1A1A1A" stroke-width="1.4" stroke-miterlimit="10" stroke-linejoin="round"/>
<path d="M20.3838 24.4816L16.0001 27.9375L11.6165 24.4817C8.4595 21.9929 6.61719 18.1945 6.61719 14.1744V3.4375H25.3831V14.1744C25.3831 18.1945 23.5408 21.9928 20.3838 24.4816Z" stroke="#1A1A1A" stroke-width="1.4" stroke-miterlimit="10" stroke-linejoin="round"/>
</g>
<defs>
<clipPath id="clip0_2070_106511">
<rect width="32" height="32" fill="white"/>
</clipPath>
</defs>
</svg>
