<svg width="32" height="33" viewBox="0 0 32 33" fill="none" xmlns="http://www.w3.org/2000/svg">
<g clip-path="url(#clip0_3_25143)">
<mask id="mask0_3_25143" style="mask-type:luminance" maskUnits="userSpaceOnUse" x="0" y="0" width="32" height="33">
<path d="M0 0.0700703H32V32.0701H0V0.0700703Z" fill="white"/>
</mask>
<g mask="url(#mask0_3_25143)">
<path d="M4.26569 29.2576V2.88257C4.26569 1.84988 5.10794 1.00757 6.14062 1.00757H27.703V27.3826" stroke="#1A1A1A" stroke-width="1.4" stroke-miterlimit="22.926" stroke-linecap="round" stroke-linejoin="round"/>
<path d="M27.7343 27.3826H16.5639H6.3355C5.773 27.3826 5.24937 27.5924 4.87975 27.9338C4.51368 28.2719 4.297 28.7423 4.297 29.2576V29.2579C4.297 29.7736 4.51368 30.244 4.87975 30.5821C5.24937 30.9235 5.773 31.1326 6.3355 31.1326H16.5639H27.7343C27.1786 30.5078 26.7994 29.8884 26.7983 29.2579C26.7973 28.6278 27.1763 28.0077 27.7343 27.3826Z" stroke="#1A1A1A" stroke-width="1.4" stroke-miterlimit="22.926" stroke-linecap="round" stroke-linejoin="round"/>
<path d="M20.0781 7.63858H17.1406C16.5727 7.63858 16.0571 7.87027 15.6835 8.24389C15.2725 8.65483 15.0782 9.16827 15.0782 9.74546C15.0782 10.5074 15.3531 11.3147 16.1116 11.5773L19.5759 12.7761C20.3266 13.0359 20.6406 13.845 20.6406 14.639C20.6406 15.8092 19.6586 16.5133 18.5156 16.764L16.0894 17.2961" stroke="#1A1A1A" stroke-width="1.4" stroke-miterlimit="22.926" stroke-linecap="round" stroke-linejoin="round"/>
<path d="M15.6406 22.6266H18.5781C19.1461 22.6266 19.6617 22.3949 20.0353 22.0212C20.4462 21.6103 20.6406 21.0969 20.6406 20.5197C20.6406 19.7577 20.3657 18.9504 19.6072 18.6879L16.1429 17.489C15.3922 17.2292 15.0781 16.4201 15.0781 15.6262C15.0781 14.456 16.0602 13.7519 17.2031 13.5012L19.6294 12.969" stroke="#1A1A1A" stroke-width="1.4" stroke-miterlimit="22.926" stroke-linecap="round" stroke-linejoin="round"/>
<path d="M8.01569 1.32008V26.963" stroke="#1A1A1A" stroke-width="1.4" stroke-miterlimit="22.926" stroke-linecap="round" stroke-linejoin="round"/>
</g>
</g>
<defs>
<clipPath id="clip0_3_25143">
<rect width="32" height="32" fill="white" transform="translate(0 0.0700684)"/>
</clipPath>
</defs>
</svg>
