<svg width="32" height="33" viewBox="0 0 32 33" fill="none" xmlns="http://www.w3.org/2000/svg">
<g clip-path="url(#clip0_3_25137)">
<path d="M15.75 30.8201V28.3201C15.75 26.9394 16.8693 25.8201 18.25 25.8201H28.25C29.6307 25.8201 30.75 26.9394 30.75 28.3201V30.8201H15.75Z" stroke="#1A1A1A" stroke-width="1.4" stroke-miterlimit="10" stroke-linecap="round" stroke-linejoin="round"/>
<path d="M23.25 5.82007V1.32007H1.25V30.8201H10.75" stroke="#1A1A1A" stroke-width="1.4" stroke-miterlimit="10" stroke-linecap="round" stroke-linejoin="round"/>
<path d="M9.25 8.94507L11.125 10.8201L14.875 7.07007" stroke="#1A1A1A" stroke-width="1.4" stroke-miterlimit="10" stroke-linecap="round" stroke-linejoin="round"/>
<path d="M6.25 18.3201H13.25" stroke="#1A1A1A" stroke-width="1.4" stroke-miterlimit="10" stroke-linecap="round" stroke-linejoin="round"/>
<path d="M6.25 23.3201H10.75" stroke="#1A1A1A" stroke-width="1.4" stroke-miterlimit="10" stroke-linecap="round" stroke-linejoin="round"/>
<path d="M20.75 25.8201C20.75 25.8201 19.5 15.8247 19.5 14.5701C19.5 12.499 21.1789 10.8201 23.25 10.8201C25.3211 10.8201 27 12.499 27 14.5701C27 15.8247 25.75 25.8201 25.75 25.8201" stroke="#1A1A1A" stroke-width="1.4" stroke-miterlimit="10" stroke-linecap="round" stroke-linejoin="round"/>
</g>
<defs>
<clipPath id="clip0_3_25137">
<rect width="32" height="32" fill="white" transform="translate(0 0.0700684)"/>
</clipPath>
</defs>
</svg>
