<svg width="32" height="32" viewBox="0 0 32 32" fill="none" xmlns="http://www.w3.org/2000/svg">
<g clip-path="url(#clip0_2228_16709)">
<path d="M15.9999 29.164C23.2702 29.164 29.1639 23.2703 29.1639 16C29.1639 8.72972 23.2702 2.836 15.9999 2.836C8.72966 2.836 2.83594 8.72972 2.83594 16C2.83594 23.2703 8.72966 29.164 15.9999 29.164Z" stroke="#1A1A1A" stroke-width="1.4" stroke-miterlimit="10" stroke-linecap="round" stroke-linejoin="round"/>
<path d="M0.9375 16H4.91056" stroke="#1A1A1A" stroke-width="1.4" stroke-miterlimit="10" stroke-linecap="round" stroke-linejoin="round"/>
<path d="M27.0898 16H31.0629" stroke="#1A1A1A" stroke-width="1.4" stroke-miterlimit="10" stroke-linecap="round" stroke-linejoin="round"/>
<path d="M16 31.0625V27.0894" stroke="#1A1A1A" stroke-width="1.4" stroke-miterlimit="10" stroke-linecap="round" stroke-linejoin="round"/>
<path d="M16 4.91056V0.9375" stroke="#1A1A1A" stroke-width="1.4" stroke-miterlimit="10" stroke-linecap="round" stroke-linejoin="round"/>
<path d="M16.0014 14.2716C17.5684 14.2716 18.8387 13.0058 18.8387 11.4444C18.8387 9.88293 17.5684 8.61713 16.0014 8.61713C14.4344 8.61713 13.1641 9.88293 13.1641 11.4444C13.1641 13.0058 14.4344 14.2716 16.0014 14.2716Z" stroke="#1A1A1A" stroke-width="1.4" stroke-miterlimit="10" stroke-linecap="round" stroke-linejoin="round"/>
<path d="M10.9805 19.5017V23.3829H21.0194V19.5017C21.0194 18.3789 20.1092 17.4688 18.9865 17.4688H13.0133C11.8907 17.4688 10.9805 18.3789 10.9805 19.5017Z" stroke="#1A1A1A" stroke-width="1.4" stroke-miterlimit="10" stroke-linecap="round" stroke-linejoin="round"/>
<path d="M16 17.4688V20.1735" stroke="#1A1A1A" stroke-width="1.4" stroke-miterlimit="10" stroke-linecap="round" stroke-linejoin="round"/>
</g>
<defs>
<clipPath id="clip0_2228_16709">
<rect width="32" height="32" fill="white"/>
</clipPath>
</defs>
</svg>
