<svg width="32" height="32" viewBox="0 0 32 32" fill="none" xmlns="http://www.w3.org/2000/svg">
<g clip-path="url(#clip0_2228_16663)">
<path d="M21.7188 14.0939V21.7819" stroke="#1A1A1A" stroke-width="1.4" stroke-miterlimit="10" stroke-linecap="round" stroke-linejoin="round"/>
<path d="M27.5 14.0939V21.7819" stroke="#1A1A1A" stroke-width="1.4" stroke-miterlimit="10" stroke-linecap="round" stroke-linejoin="round"/>
<path d="M21.6676 29.8468C21.9096 28.8222 21.2751 27.7956 20.2506 27.5537C19.2261 27.3118 18.1995 27.9462 17.9576 28.9707C17.7156 29.9952 18.3501 31.0219 19.3746 31.2638C20.3991 31.5057 21.4257 30.8713 21.6676 29.8468Z" stroke="#1A1A1A" stroke-width="1.4" stroke-miterlimit="10" stroke-linecap="round" stroke-linejoin="round"/>
<path d="M31.2614 29.8472C31.5033 28.8227 30.8689 27.7961 29.8444 27.5541C28.8199 27.3122 27.7932 27.9466 27.5513 28.9712C27.3094 29.9957 27.9438 31.0223 28.9683 31.2642C29.9928 31.5061 31.0195 30.8717 31.2614 29.8472Z" stroke="#1A1A1A" stroke-width="1.4" stroke-miterlimit="10" stroke-linecap="round" stroke-linejoin="round"/>
<path d="M4.5 16V27.5002" stroke="#1A1A1A" stroke-width="1.4" stroke-miterlimit="10" stroke-linecap="round" stroke-linejoin="round"/>
<path d="M14.0938 16V27.5002" stroke="#1A1A1A" stroke-width="1.4" stroke-miterlimit="10" stroke-linecap="round" stroke-linejoin="round"/>
<path d="M17.9061 27.5002H0.6875V16H17.9061" stroke="#1A1A1A" stroke-width="1.4" stroke-miterlimit="10" stroke-linecap="round" stroke-linejoin="round"/>
<path d="M17.9062 27.5002V8.37549H31.3126V27.5002H17.9062Z" stroke="#1A1A1A" stroke-width="1.4" stroke-miterlimit="10" stroke-linecap="round" stroke-linejoin="round"/>
<path d="M12.1881 12.1877H6.40625V16H12.1881V12.1877Z" stroke="#1A1A1A" stroke-width="1.4" stroke-miterlimit="10" stroke-linecap="round" stroke-linejoin="round"/>
<path d="M27.5 0.989075V8.37551" stroke="#1A1A1A" stroke-width="1.4" stroke-miterlimit="10" stroke-linecap="round" stroke-linejoin="round"/>
<path d="M21.7188 8.3755V0.6875" stroke="#1A1A1A" stroke-width="1.4" stroke-miterlimit="10" stroke-linecap="round" stroke-linejoin="round"/>
<path d="M19.8125 0.6875H29.4066" stroke="#1A1A1A" stroke-width="1.4" stroke-miterlimit="10" stroke-linecap="round" stroke-linejoin="round"/>
</g>
<defs>
<clipPath id="clip0_2228_16663">
<rect width="32" height="32" fill="white"/>
</clipPath>
</defs>
</svg>
