<svg width="32" height="32" viewBox="0 0 32 32" fill="none" xmlns="http://www.w3.org/2000/svg">
<path d="M9.5 29C13.0899 29 16 26.0899 16 22.5C16 18.9101 13.0899 16 9.5 16C5.91015 16 3 18.9101 3 22.5C3 26.0899 5.91015 29 9.5 29Z" stroke="#1A1A1A" stroke-width="1.4" stroke-miterlimit="10" stroke-linecap="round" stroke-linejoin="round"/>
<path d="M9.5 16C10.8807 16 12 15.1046 12 14C12 12.8954 10.8807 12 9.5 12C8.11929 12 7 12.8954 7 14C7 15.1046 8.11929 16 9.5 16Z" stroke="#1A1A1A" stroke-width="1.4" stroke-miterlimit="10" stroke-linecap="round" stroke-linejoin="round"/>
<path d="M16.5 7C17.8807 7 19 6.10457 19 5C19 3.89543 17.8807 3 16.5 3C15.1193 3 14 3.89543 14 5C14 6.10457 15.1193 7 16.5 7Z" stroke="#1A1A1A" stroke-width="1.4" stroke-miterlimit="10" stroke-linecap="round" stroke-linejoin="round"/>
<path d="M9 12V10.0768C9 7.27299 11.2386 5 14 5" stroke="#1A1A1A" stroke-width="1.4" stroke-miterlimit="10" stroke-linecap="round" stroke-linejoin="round"/>
<path d="M28.6139 13.7172C29.4433 11.4203 28.9365 8.74842 27.094 6.90599C24.5544 4.36636 20.4388 4.36443 17.9016 6.90164C15.3644 9.43884 15.3664 13.5545 17.906 16.094C19.7484 17.9365 22.4203 18.4433 24.7172 17.6139" stroke="#1A1A1A" stroke-width="1.4" stroke-miterlimit="10" stroke-linecap="round" stroke-linejoin="round"/>
</svg>
