<svg width="32" height="32" viewBox="0 0 32 32" fill="none" xmlns="http://www.w3.org/2000/svg">
<g clip-path="url(#clip0_2070_106517)">
<path d="M29.4375 28.2087H2.5625C1.52694 28.2087 0.6875 27.3692 0.6875 26.3337V2.89648C0.6875 1.86092 1.52694 1.02148 2.5625 1.02148H29.4375C30.4731 1.02148 31.3125 1.86092 31.3125 2.89648V26.3337C31.3125 27.3692 30.4731 28.2087 29.4375 28.2087Z" stroke="#1A1A1A" stroke-width="1.4" stroke-miterlimit="10" stroke-linecap="round" stroke-linejoin="round"/>
<path d="M4.12109 23.4497V5.78052C4.12109 5.09014 4.68072 4.53052 5.37109 4.53052H26.6307C27.321 4.53052 27.8807 5.09014 27.8807 5.78052V23.4497C27.8807 24.1401 27.321 24.6997 26.6307 24.6997H5.37109C4.68078 24.6997 4.12109 24.1401 4.12109 23.4497Z" stroke="#1A1A1A" stroke-width="1.4" stroke-miterlimit="10" stroke-linecap="round" stroke-linejoin="round"/>
<path d="M8.65531 30.9786H5.47656C4.95881 30.9786 4.53906 30.5588 4.53906 30.0411V28.2086H9.59281V30.0411C9.59281 30.5589 9.17306 30.9786 8.65531 30.9786Z" stroke="#1A1A1A" stroke-width="1.4" stroke-miterlimit="10" stroke-linecap="round" stroke-linejoin="round"/>
<path d="M26.5225 30.9786H23.3438C22.826 30.9786 22.4062 30.5588 22.4062 30.0411V28.2086H27.46V30.0411C27.46 30.5589 27.0403 30.9786 26.5225 30.9786Z" stroke="#1A1A1A" stroke-width="1.4" stroke-miterlimit="10" stroke-linecap="round" stroke-linejoin="round"/>
<path d="M18.4759 21.1652C22.0934 21.1652 25.026 18.2326 25.026 14.6151C25.026 10.9975 22.0934 8.06494 18.4759 8.06494C14.8584 8.06494 11.9258 10.9975 11.9258 14.6151C11.9258 18.2326 14.8584 21.1652 18.4759 21.1652Z" stroke="#1A1A1A" stroke-width="1.4" stroke-miterlimit="10" stroke-linecap="round" stroke-linejoin="round"/>
<path d="M18.4756 17.5907C20.1189 17.5907 21.4511 16.2584 21.4511 14.6151C21.4511 12.9717 20.1189 11.6395 18.4756 11.6395C16.8322 11.6395 15.5 12.9717 15.5 14.6151C15.5 16.2584 16.8322 17.5907 18.4756 17.5907Z" stroke="#1A1A1A" stroke-width="1.4" stroke-miterlimit="10" stroke-linecap="round" stroke-linejoin="round"/>
<path d="M18.4766 8.06494V11.6395" stroke="#1A1A1A" stroke-width="1.4" stroke-miterlimit="10" stroke-linecap="round" stroke-linejoin="round"/>
<path d="M23.1058 9.9834L20.5781 12.511" stroke="#1A1A1A" stroke-width="1.4" stroke-miterlimit="10" stroke-linecap="round" stroke-linejoin="round"/>
<path d="M25.0237 14.615H21.4492" stroke="#1A1A1A" stroke-width="1.4" stroke-miterlimit="10" stroke-linecap="round" stroke-linejoin="round"/>
<path d="M23.1058 19.2467L20.5781 16.7191" stroke="#1A1A1A" stroke-width="1.4" stroke-miterlimit="10" stroke-linecap="round" stroke-linejoin="round"/>
<path d="M18.4766 21.1651V17.5906" stroke="#1A1A1A" stroke-width="1.4" stroke-miterlimit="10" stroke-linecap="round" stroke-linejoin="round"/>
<path d="M13.8438 19.2467L16.3714 16.7191" stroke="#1A1A1A" stroke-width="1.4" stroke-miterlimit="10" stroke-linecap="round" stroke-linejoin="round"/>
<path d="M11.9258 14.615H15.5003" stroke="#1A1A1A" stroke-width="1.4" stroke-miterlimit="10" stroke-linecap="round" stroke-linejoin="round"/>
<path d="M13.8438 9.9834L16.3714 12.511" stroke="#1A1A1A" stroke-width="1.4" stroke-miterlimit="10" stroke-linecap="round" stroke-linejoin="round"/>
<path d="M4.53906 10.2704H6.672" stroke="#1A1A1A" stroke-width="1.4" stroke-miterlimit="10" stroke-linecap="round" stroke-linejoin="round"/>
<path d="M4.53906 18.9596H6.672" stroke="#1A1A1A" stroke-width="1.4" stroke-miterlimit="10" stroke-linecap="round" stroke-linejoin="round"/>
</g>
<defs>
<clipPath id="clip0_2070_106517">
<rect width="32" height="32" fill="white"/>
</clipPath>
</defs>
</svg>
