<svg width="32" height="33" viewBox="0 0 32 33" fill="none" xmlns="http://www.w3.org/2000/svg">
<g clip-path="url(#clip0_3_25125)">
<mask id="mask0_3_25125" style="mask-type:luminance" maskUnits="userSpaceOnUse" x="0" y="0" width="32" height="33">
<path d="M0 0.0700703H32V32.0701H0V0.0700703Z" fill="white"/>
</mask>
<g mask="url(#mask0_3_25125)">
<path d="M17.9354 9.33756C18.6451 13.9661 25.375 12.7519 25.375 21.6326C23.0988 21.7664 20.8741 20.9206 19.2618 19.3083C17.6495 17.6961 15.8661 15.4712 16 13.1951C16.1339 15.4712 14.3506 17.6961 12.7383 19.3083C11.126 20.9206 8.90119 21.7664 6.625 21.6326C6.625 12.7519 13.3549 13.9661 14.0646 9.33756" stroke="#1A1A1A" stroke-width="1.4" stroke-miterlimit="10"/>
<path d="M19.75 4.75757C19.75 6.82863 18.0711 10.3826 16 10.3826C13.9289 10.3826 12.25 6.82863 12.25 4.75757C12.25 2.68651 13.9289 1.00757 16 1.00757C18.0711 1.00757 19.75 2.68651 19.75 4.75757Z" stroke="#1A1A1A" stroke-width="1.4" stroke-miterlimit="10"/>
<path d="M29.9441 21.7014C30.665 19.9457 31.0625 18.023 31.0625 16.0075C31.0625 10.3577 27.9389 5.43748 23.3244 2.87948" stroke="#1A1A1A" stroke-width="1.4" stroke-miterlimit="10"/>
<path d="M8.67556 2.87945C4.06106 5.43745 0.9375 10.3577 0.9375 16.0076C0.9375 18.0231 1.335 19.9458 2.05587 21.7014" stroke="#1A1A1A" stroke-width="1.4" stroke-miterlimit="10"/>
<path d="M12.6945 19.317C13.2166 21.9576 12.1933 24.8016 10.0853 26.4469" stroke="#1A1A1A" stroke-width="1.4" stroke-miterlimit="10"/>
<path d="M16 31.1326C19.0007 26.9778 24.0469 24.8151 29.125 25.5076C28.7083 28.4243 26.4167 30.7159 23.5 31.1326" stroke="#1A1A1A" stroke-width="1.4" stroke-miterlimit="10"/>
<path d="M8.5 31.1326C5.58331 30.7159 3.29169 28.4243 2.875 25.5076C7.95306 24.8151 12.9993 26.9778 16 31.1326" stroke="#1A1A1A" stroke-width="1.4" stroke-miterlimit="10"/>
<path d="M19.3055 19.317C18.7834 21.9576 19.8068 24.8016 21.9148 26.4469" stroke="#1A1A1A" stroke-width="1.4" stroke-miterlimit="10"/>
<path d="M0.9375 31.1326H31.0625" stroke="#1A1A1A" stroke-width="1.4" stroke-miterlimit="10" stroke-linecap="square"/>
</g>
</g>
<defs>
<clipPath id="clip0_3_25125">
<rect width="32" height="32" fill="white" transform="translate(0 0.0700684)"/>
</clipPath>
</defs>
</svg>
