<svg width="32" height="32" viewBox="0 0 32 32" fill="none" xmlns="http://www.w3.org/2000/svg">
<g clip-path="url(#clip0_2291_37579)">
<path d="M9.3705 17.5625C9.3705 19.9602 7.42675 21.904 5.029 21.904C2.63125 21.904 0.6875 19.9602 0.6875 17.5625M9.3705 17.5625L5.029 7.18468L0.6875 17.5625M9.3705 17.5625H0.6875" stroke="#1A1A1A" stroke-width="1.4" stroke-miterlimit="22.9256" stroke-linecap="round" stroke-linejoin="round"/>
<path d="M22.6289 17.5625C22.6289 19.9602 24.5727 21.904 26.9704 21.904C29.3682 21.904 31.3119 19.9602 31.3119 17.5625M22.6289 17.5625L26.9704 7.18468L31.3119 17.5625M22.6289 17.5625H31.3119" stroke="#1A1A1A" stroke-width="1.4" stroke-miterlimit="22.9256" stroke-linecap="round" stroke-linejoin="round"/>
<path d="M14.4375 21.6249V2.25C14.4375 1.39062 15.1406 0.6875 16 0.6875C16.8594 0.6875 17.5625 1.39062 17.5625 2.25V21.6249" stroke="#1A1A1A" stroke-width="1.4" stroke-miterlimit="22.9256" stroke-linecap="round" stroke-linejoin="round"/>
<path d="M13.9202 3.8125H11.3138L8.25406 6.87219H1.80394L0.6875 5.75575" stroke="#1A1A1A" stroke-width="1.4" stroke-miterlimit="22.9256" stroke-linecap="round" stroke-linejoin="round"/>
<path fill-rule="evenodd" clip-rule="evenodd" d="M8.5 31.3125H23.5V28.8124L22.25 27.5625H9.74994L8.5 28.8124V31.3125Z" stroke="#1A1A1A" stroke-width="1.4" stroke-miterlimit="22.9256" stroke-linecap="round" stroke-linejoin="round"/>
<path d="M20.6299 27.25V23.1874L19.3799 21.9374H12.6172L11.3672 23.1874V27.25" stroke="#1A1A1A" stroke-width="1.4" stroke-miterlimit="22.9256" stroke-linecap="round" stroke-linejoin="round"/>
<path d="M14.75 5.491H17.25" stroke="#1A1A1A" stroke-width="1.4" stroke-miterlimit="22.9256" stroke-linecap="round" stroke-linejoin="round"/>
<path d="M18.0781 3.8125H20.6845L23.7442 6.87219H30.1944L31.3108 5.75575" stroke="#1A1A1A" stroke-width="1.4" stroke-miterlimit="22.9256" stroke-linecap="round" stroke-linejoin="round"/>
</g>
<defs>
<clipPath id="clip0_2291_37579">
<rect width="32" height="32" fill="white"/>
</clipPath>
</defs>
</svg>
