<svg width="22" height="22" viewBox="0 0 22 22" fill="none" xmlns="http://www.w3.org/2000/svg">
<path d="M2.0625 11C2.0625 12.1737 2.29368 13.3359 2.74283 14.4202C3.19198 15.5046 3.85031 16.4898 4.68023 17.3198C5.51016 18.1497 6.49542 18.808 7.57977 19.2572C8.66411 19.7063 9.82631 19.9375 11 19.9375C12.1737 19.9375 13.3359 19.7063 14.4202 19.2572C15.5046 18.808 16.4898 18.1497 17.3198 17.3198C18.1497 16.4898 18.808 15.5046 19.2572 14.4202C19.7063 13.3359 19.9375 12.1737 19.9375 11C19.9375 9.82631 19.7063 8.66411 19.2572 7.57977C18.808 6.49542 18.1497 5.51016 17.3198 4.68023C16.4898 3.85031 15.5046 3.19198 14.4202 2.74283C13.3359 2.29368 12.1737 2.0625 11 2.0625C9.82631 2.0625 8.66411 2.29368 7.57977 2.74283C6.49542 3.19198 5.51016 3.85031 4.68023 4.68023C3.85031 5.51016 3.19198 6.49542 2.74283 7.57977C2.29368 8.66411 2.0625 9.82631 2.0625 11Z" stroke="#65A141" stroke-width="1.4" stroke-miterlimit="10" stroke-linecap="round" stroke-linejoin="round"/>
<path d="M8.25 11L10.0833 13.0625L13.75 8.9375" stroke="#65A141" stroke-width="1.4" stroke-miterlimit="10" stroke-linecap="round" stroke-linejoin="round"/>
</svg>
